<svg xmlns="http://www.w3.org/2000/svg" viewBox="0 0 400 220" width="400" height="220" role="img" aria-label="motadata-page-builder. problem: scope drift. defended: claims approved, in-boundary. outcome: publish-ready, on-scope."><defs><filter id="r"><feTurbulence type="fractalNoise" baseFrequency="0.012 0.016" numOctaves="2" seed="7" result="n"/><feDisplacementMap in="SourceGraphic" in2="n" scale="2.2"/></filter><filter id="r2"><feTurbulence type="fractalNoise" baseFrequency="0.022" numOctaves="2" seed="4" result="n"/><feDisplacementMap in="SourceGraphic" in2="n" scale="3"/></filter></defs><rect width="400" height="220" rx="6" fill="#f3ead5"/><rect x="12" y="12" width="376" height="196" rx="3" fill="none" stroke="#2a2620" stroke-width="1.5" opacity="0.8" filter="url(#r)"/><g fill="#4f7a3f" transform="translate(20.0,40)"><path transform="translate(0.0,0) scale(0.01800,-0.01800)" d="M698 528Q737 528 763.0 476.0Q789 424 789.0 381.0Q789 338 772.5 253.5Q756 169 720.5 90.5Q685 12 644 12Q611 12 611.0 57.0Q611 102 637.0 204.0Q663 306 663.0 338.0Q663 370 653 370Q632 370 603.0 324.0Q574 278 533.5 201.0Q493 124 483.0 102.0Q473 80 466.5 67.0Q460 54 452 40Q420 -13 367 40Q340 67 340 89Q340 93 356.5 165.5Q373 238 373 331Q373 370 364 370Q352 370 336.0 346.0Q320 322 287.0 259.0Q254 196 230 155Q146 12 102 12Q80 12 47.5 49.0Q15 86 15.0 105.5Q15 125 37.5 199.5Q60 274 66.5 358.0Q73 442 78.5 489.0Q84 536 102 536Q140 536 175.5 504.5Q211 473 211 447Q211 388 168 241Q238 408 286 467Q337 528 384 528Q410 528 448.5 480.0Q487 432 487.0 390.5Q487 349 486 318Q517 396 580.0 462.0Q643 528 698 528Z"/><path transform="translate(14.7,0) scale(0.01800,-0.01800)" d="M282 436Q239 411 196.5 331.0Q154 251 154.0 190.5Q154 130 166 114Q220 138 260.0 211.0Q300 284 300.0 348.0Q300 412 282 436ZM155 12Q100 12 60.0 61.0Q20 110 20 180Q20 305 97.5 417.0Q175 529 251.0 529.0Q327 529 379.0 475.5Q431 422 431.0 346.5Q431 271 395.0 193.0Q359 115 294.0 63.5Q229 12 155 12Z"/><path transform="translate(22.9,0) scale(0.01800,-0.01800)" d="M368 175Q393 175 393.0 141.0Q393 107 326.0 59.5Q259 12 186 12Q154 12 110.0 47.0Q66 82 66 118Q66 148 96.5 244.5Q127 341 138 377Q99 366 79.0 366.0Q59 366 37.0 393.5Q15 421 15 446Q15 478 170 500Q189 593 189 661Q189 691 219 691Q245 691 285.5 659.5Q326 628 326.0 597.5Q326 567 313 512Q361 514 386 514Q461 514 461 480Q461 458 417.5 442.5Q374 427 284 409Q276 382 260.5 333.5Q245 285 222.5 212.0Q200 139 200.0 134.5Q200 130 216.5 130.0Q233 130 295.0 152.5Q357 175 368 175Z"/><path transform="translate(31.1,0) scale(0.01800,-0.01800)" d="M450 296Q468 280 468.0 267.0Q468 254 456.0 213.0Q444 172 440.0 149.5Q436 127 433.5 114.0Q431 101 430.0 93.5Q429 86 426.5 75.0Q424 64 422.5 57.5Q421 51 418.5 42.5Q416 34 413.0 29.5Q410 25 406 20Q400 12 386.0 12.0Q372 12 351.5 40.0Q331 68 321 108Q227 12 163 12Q120 12 70.0 59.5Q20 107 20.0 154.5Q20 202 63.0 290.0Q106 378 180.5 453.0Q255 528 328 528Q370 528 425.0 479.0Q480 430 480.0 389.5Q480 349 450 296ZM159 138Q199 138 265.5 192.5Q332 247 348 330Q349 342 365 344Q362 401 346 401Q306 401 256.5 349.0Q207 297 175.5 238.0Q144 179 144 151Q144 143 146.5 140.5Q149 138 159 138Z"/><path transform="translate(40.2,0) scale(0.01800,-0.01800)" d="M452 808Q476 808 515.0 764.5Q554 721 554 683Q554 664 519.0 525.0Q484 386 477 357Q397 12 360 12Q339 12 313.0 37.0Q287 62 287 86Q287 91 288 94Q188 12 144.5 12.0Q101 12 60.5 58.5Q20 105 20.0 143.0Q20 181 30.5 227.5Q41 274 63.0 326.0Q85 378 113.5 423.5Q142 469 182.5 498.5Q223 528 266 528Q330 528 371 463Q425 700 423 778Q423 808 452 808ZM157 139Q182 139 241.5 182.0Q301 225 330 291Q329 299 329.0 326.0Q329 353 311.0 377.0Q293 401 278 401Q248 401 220.5 369.0Q193 337 177 293Q143 200 143 152Q143 144 145.5 141.5Q148 139 157 139Z"/><path transform="translate(49.9,0) scale(0.01800,-0.01800)" d="M450 296Q468 280 468.0 267.0Q468 254 456.0 213.0Q444 172 440.0 149.5Q436 127 433.5 114.0Q431 101 430.0 93.5Q429 86 426.5 75.0Q424 64 422.5 57.5Q421 51 418.5 42.5Q416 34 413.0 29.5Q410 25 406 20Q400 12 386.0 12.0Q372 12 351.5 40.0Q331 68 321 108Q227 12 163 12Q120 12 70.0 59.5Q20 107 20.0 154.5Q20 202 63.0 290.0Q106 378 180.5 453.0Q255 528 328 528Q370 528 425.0 479.0Q480 430 480.0 389.5Q480 349 450 296ZM159 138Q199 138 265.5 192.5Q332 247 348 330Q349 342 365 344Q362 401 346 401Q306 401 256.5 349.0Q207 297 175.5 238.0Q144 179 144 151Q144 143 146.5 140.5Q149 138 159 138Z"/><path transform="translate(59.1,0) scale(0.01800,-0.01800)" d="M368 175Q393 175 393.0 141.0Q393 107 326.0 59.5Q259 12 186 12Q154 12 110.0 47.0Q66 82 66 118Q66 148 96.5 244.5Q127 341 138 377Q99 366 79.0 366.0Q59 366 37.0 393.5Q15 421 15 446Q15 478 170 500Q189 593 189 661Q189 691 219 691Q245 691 285.5 659.5Q326 628 326.0 597.5Q326 567 313 512Q361 514 386 514Q461 514 461 480Q461 458 417.5 442.5Q374 427 284 409Q276 382 260.5 333.5Q245 285 222.5 212.0Q200 139 200.0 134.5Q200 130 216.5 130.0Q233 130 295.0 152.5Q357 175 368 175Z"/><path transform="translate(67.2,0) scale(0.01800,-0.01800)" d="M450 296Q468 280 468.0 267.0Q468 254 456.0 213.0Q444 172 440.0 149.5Q436 127 433.5 114.0Q431 101 430.0 93.5Q429 86 426.5 75.0Q424 64 422.5 57.5Q421 51 418.5 42.5Q416 34 413.0 29.5Q410 25 406 20Q400 12 386.0 12.0Q372 12 351.5 40.0Q331 68 321 108Q227 12 163 12Q120 12 70.0 59.5Q20 107 20.0 154.5Q20 202 63.0 290.0Q106 378 180.5 453.0Q255 528 328 528Q370 528 425.0 479.0Q480 430 480.0 389.5Q480 349 450 296ZM159 138Q199 138 265.5 192.5Q332 247 348 330Q349 342 365 344Q362 401 346 401Q306 401 256.5 349.0Q207 297 175.5 238.0Q144 179 144 151Q144 143 146.5 140.5Q149 138 159 138Z"/><path transform="translate(76.4,0) scale(0.01800,-0.01800)" d="M497 335Q497 309 436 292Q388 278 326.0 265.5Q264 253 222 242Q134 221 114.0 221.0Q94 221 72.0 248.5Q50 276 50 301Q50 329 166.5 349.0Q283 369 421 369Q497 369 497 335Z"/><path transform="translate(86.0,0) scale(0.01800,-0.01800)" d="M388 527Q425 527 467.5 461.0Q510 395 510 329Q510 289 476.0 234.0Q442 179 390.5 130.5Q339 82 271.5 48.0Q204 14 143 14H131Q68 -248 42 -248Q21 -248 -2.5 -213.0Q-26 -178 -26.0 -155.0Q-26 -132 3 -14Q89 336 89 514Q89 544 118 544Q142 544 179.0 517.0Q216 490 225 447Q310 527 388 527ZM350 394Q308 394 261 346Q242 326 219.0 287.0Q196 248 179 196L162 133Q240 148 309.5 219.0Q379 290 379.0 342.0Q379 394 350 394Z"/><path transform="translate(95.7,0) scale(0.01800,-0.01800)" d="M450 296Q468 280 468.0 267.0Q468 254 456.0 213.0Q444 172 440.0 149.5Q436 127 433.5 114.0Q431 101 430.0 93.5Q429 86 426.5 75.0Q424 64 422.5 57.5Q421 51 418.5 42.5Q416 34 413.0 29.5Q410 25 406 20Q400 12 386.0 12.0Q372 12 351.5 40.0Q331 68 321 108Q227 12 163 12Q120 12 70.0 59.5Q20 107 20.0 154.5Q20 202 63.0 290.0Q106 378 180.5 453.0Q255 528 328 528Q370 528 425.0 479.0Q480 430 480.0 389.5Q480 349 450 296ZM159 138Q199 138 265.5 192.5Q332 247 348 330Q349 342 365 344Q362 401 346 401Q306 401 256.5 349.0Q207 297 175.5 238.0Q144 179 144 151Q144 143 146.5 140.5Q149 138 159 138Z"/><path transform="translate(104.8,0) scale(0.01800,-0.01800)" d="M420 312Q435 295 435.0 271.0Q435 247 415 212Q390 152 371.0 63.0Q352 -26 333.5 -79.5Q315 -133 293.5 -171.0Q272 -209 235.0 -234.0Q198 -259 150 -259Q83 -259 30.0 -215.0Q-23 -171 -23.0 -139.5Q-23 -108 -6.0 -82.5Q11 -57 25.5 -57.0Q40 -57 53.5 -73.0Q67 -89 78.5 -107.5Q90 -126 109.0 -142.0Q128 -158 151.0 -158.0Q174 -158 193.0 -128.0Q212 -98 222 -63Q247 19 253 54Q185 12 142.5 12.0Q100 12 60.0 58.5Q20 105 20.0 146.5Q20 188 42.5 250.5Q65 313 100.5 375.5Q136 438 190.5 483.0Q245 528 300 528Q337 528 363.0 509.5Q389 491 401 460Q422 406 422 338Q422 328 420 312ZM143 151Q143 138 154 138Q183 138 248.0 191.0Q313 244 335 296V315Q335 380 323 394Q317 401 307 401Q259 401 201.0 300.0Q143 199 143 151Z"/><path transform="translate(113.5,0) scale(0.01800,-0.01800)" d="M155 224Q146 197 146.0 170.0Q146 143 155.0 131.5Q164 120 200 120Q275 120 328.5 134.0Q382 148 384 148Q425 148 425 121Q425 82 360.5 47.0Q296 12 211.5 12.0Q127 12 76.0 65.0Q25 118 25.0 190.5Q25 263 67.5 342.0Q110 421 174.0 474.5Q238 528 301.5 528.0Q365 528 419.0 465.5Q473 403 473 341Q473 292 406.5 253.0Q340 214 270.0 214.0Q200 214 155 224ZM194 310Q203 309 220 309Q357 309 357 357Q357 367 336.0 386.0Q315 405 296.5 405.0Q278 405 249.0 378.5Q220 352 194 310Z"/><path transform="translate(122.3,0) scale(0.01800,-0.01800)" d="M497 335Q497 309 436 292Q388 278 326.0 265.5Q264 253 222 242Q134 221 114.0 221.0Q94 221 72.0 248.5Q50 276 50 301Q50 329 166.5 349.0Q283 369 421 369Q497 369 497 335Z"/><path transform="translate(131.8,0) scale(0.01800,-0.01800)" d="M413 527Q459 527 500.5 476.0Q542 425 542.0 379.0Q542 333 521.0 271.0Q500 209 465.0 151.0Q430 93 377.0 53.0Q324 13 266.5 13.0Q209 13 136 68Q116 12 103 12Q82 12 50.0 47.0Q18 82 18.0 104.0Q18 126 51 248Q150 614 150 778Q150 808 179 808Q202 808 241.0 764.5Q280 721 280 683Q280 594 229 406Q343 527 413 527ZM251 128Q306 128 363.5 214.0Q421 300 421 383Q421 389 418.5 390.5Q416 392 405 392Q350 392 287.5 326.0Q225 260 177 161Q219 128 251 128Z"/><path transform="translate(142.1,0) scale(0.01800,-0.01800)" d="M376 503Q384 528 408.0 528.0Q432 528 463.5 487.0Q495 446 495 416Q495 405 449.0 269.0Q403 133 378 54Q364 12 331 12Q311 12 297.5 26.5Q284 41 284.0 72.0Q284 103 296 160Q193 12 132 12Q100 12 55.0 53.5Q10 95 10 134Q10 230 64.5 379.0Q119 528 167 528Q196 528 218.5 502.0Q241 476 241 445Q241 433 216 378Q140 213 140 145Q140 139 145 139Q160 139 201.5 186.5Q243 234 294.5 322.5Q346 411 376 503Z"/><path transform="translate(150.8,0) scale(0.01800,-0.01800)" d="M228 551Q199 551 161.0 589.0Q123 627 123.0 653.0Q123 679 146.5 706.5Q170 734 192.5 734.0Q215 734 246.0 680.0Q277 626 277.0 601.5Q277 577 261.0 564.0Q245 551 228 551ZM138 528Q173 528 200.5 488.0Q228 448 228 411Q228 392 193.5 274.5Q159 157 125 52Q113 13 76 13Q54 13 37.5 29.5Q21 46 21.0 72.5Q21 99 46.5 204.5Q72 310 85.5 384.5Q99 459 110.5 493.5Q122 528 138 528Z"/><path transform="translate(155.5,0) scale(0.01800,-0.01800)" d="M229 374Q146 12 113 12Q91 12 58.5 47.5Q26 83 26 106Q26 108 53.0 210.0Q80 312 107.5 472.5Q135 633 135 779Q135 808 166 808Q190 808 228.0 764.0Q266 720 266.0 680.0Q266 640 254.0 537.5Q242 435 229 374Z"/><path transform="translate(160.3,0) scale(0.01800,-0.01800)" d="M452 808Q476 808 515.0 764.5Q554 721 554 683Q554 664 519.0 525.0Q484 386 477 357Q397 12 360 12Q339 12 313.0 37.0Q287 62 287 86Q287 91 288 94Q188 12 144.5 12.0Q101 12 60.5 58.5Q20 105 20.0 143.0Q20 181 30.5 227.5Q41 274 63.0 326.0Q85 378 113.5 423.5Q142 469 182.5 498.5Q223 528 266 528Q330 528 371 463Q425 700 423 778Q423 808 452 808ZM157 139Q182 139 241.5 182.0Q301 225 330 291Q329 299 329.0 326.0Q329 353 311.0 377.0Q293 401 278 401Q248 401 220.5 369.0Q193 337 177 293Q143 200 143 152Q143 144 145.5 141.5Q148 139 157 139Z"/><path transform="translate(170.0,0) scale(0.01800,-0.01800)" d="M155 224Q146 197 146.0 170.0Q146 143 155.0 131.5Q164 120 200 120Q275 120 328.5 134.0Q382 148 384 148Q425 148 425 121Q425 82 360.5 47.0Q296 12 211.5 12.0Q127 12 76.0 65.0Q25 118 25.0 190.5Q25 263 67.5 342.0Q110 421 174.0 474.5Q238 528 301.5 528.0Q365 528 419.0 465.5Q473 403 473 341Q473 292 406.5 253.0Q340 214 270.0 214.0Q200 214 155 224ZM194 310Q203 309 220 309Q357 309 357 357Q357 367 336.0 386.0Q315 405 296.5 405.0Q278 405 249.0 378.5Q220 352 194 310Z"/><path transform="translate(178.8,0) scale(0.01800,-0.01800)" d="M80 359 74 472Q74 528 109 528Q129 528 148.5 513.0Q168 498 178 466Q212 496 252.5 514.5Q293 533 324 533Q397 533 397 498Q397 480 390.5 471.5Q384 463 380.5 459.0Q377 455 368.5 448.5Q360 442 356 439Q333 424 323 418Q278 390 246.0 350.5Q214 311 198 241Q171 126 145.5 69.5Q120 13 88.5 13.0Q57 13 41.5 43.0Q26 73 26.0 99.5Q26 126 45.5 179.0Q65 232 72.5 270.5Q80 309 80 359Z"/></g><path d="M20.0,48.0 L209.0,48.0" stroke="#4f7a3f" stroke-width="2" fill="none" filter="url(#r2)"/><rect x="24.0" y="64.0" width="150.0" height="24.0" rx="5" fill="none" stroke="#4f7a3f" stroke-width="1.4" filter="url(#r2)"/><path d="M32,76 l5,6 l10,-12" fill="none" stroke="#4f7a3f" stroke-width="2" filter="url(#r2)"/><g fill="#2a2620" transform="translate(52.0,81)"><path transform="translate(0.0,0) scale(0.01200,-0.01200)" d="M312 511Q353 511 384.0 474.0Q415 437 415 409Q415 401 410.0 395.5Q405 390 395.5 390.0Q386 390 362.0 408.0Q338 426 319 426Q265 426 193.0 331.0Q121 236 121 165Q121 134 140.5 116.0Q160 98 203.5 98.0Q247 98 283.5 108.5Q320 119 340.0 129.5Q360 140 371 140Q390 140 390 121Q390 92 320.5 53.5Q251 15 192.5 15.0Q134 15 83.0 60.5Q32 106 32.0 168.5Q32 231 74.0 313.0Q116 395 182.5 453.0Q249 511 312 511Z"/><path transform="translate(5.3,0) scale(0.01200,-0.01200)" d="M228 707Q228 519 150 219Q100 15 80 15Q66 15 47.5 37.0Q29 59 29.0 71.0Q29 83 58.0 195.0Q87 307 116.0 470.5Q145 634 145 765Q145 779 149.0 785.0Q153 791 166.0 791.0Q179 791 203.5 762.5Q228 734 228 707Z"/><path transform="translate(8.3,0) scale(0.01200,-0.01200)" d="M393 309Q405 294 405 283Q405 255 392.5 187.0Q380 119 377.5 98.0Q375 77 373.0 64.5Q371 52 368 40Q364 15 350 15Q332 15 320.5 46.5Q309 78 307 128Q218 15 142 15Q96 15 51.5 54.5Q7 94 7 136Q7 196 51.0 284.5Q95 373 165.0 442.0Q235 511 297 511Q342 511 380.0 465.5Q418 420 418.0 383.5Q418 347 393 309ZM343 335Q343 428 306 428Q267 428 215.0 372.5Q163 317 127.0 247.0Q91 177 91 136Q91 119 105.0 108.5Q119 98 138 98Q185 98 244.0 161.5Q303 225 326 316Q329 331 343 334Z"/><path transform="translate(13.9,0) scale(0.01200,-0.01200)" d="M270 601Q270 591 261.0 583.0Q252 575 242 575Q218 575 188.5 604.0Q159 633 159.0 653.0Q159 673 175.0 691.0Q191 709 207.5 709.0Q224 709 247.0 668.5Q270 628 270 601ZM154 511Q173 511 190.0 488.0Q207 465 207.0 443.0Q207 421 178.0 311.5Q149 202 105 66Q88 16 62 16Q48 16 38.0 27.5Q28 39 28.0 53.5Q28 68 35.5 99.5Q43 131 57.5 183.5Q72 236 80.5 269.0Q89 302 98.0 343.5Q107 385 112.5 410.5Q118 436 125 462Q139 511 154 511Z"/><path transform="translate(16.8,0) scale(0.01200,-0.01200)" d="M678 511Q708 511 731.5 469.5Q755 428 755.0 375.5Q755 323 736.5 239.0Q718 155 687.0 85.0Q656 15 626 15Q605 15 605.0 42.5Q605 70 639.5 177.5Q674 285 674.0 348.5Q674 412 654 412Q629 412 596.5 368.0Q564 324 527.0 262.0Q490 200 487.0 195.5Q484 191 479.5 183.0Q475 175 469.5 166.0Q464 157 441.5 112.0Q419 67 402.0 41.5Q385 16 372.5 16.0Q360 16 345.0 32.0Q330 48 330.0 62.0Q330 76 348 120Q400 250 400 362Q400 383 391.0 397.5Q382 412 371.0 412.0Q360 412 348.0 402.5Q336 393 318.0 368.5Q300 344 286.0 322.0Q272 300 243.5 253.5Q215 207 200.5 184.5Q186 162 167.0 132.5Q148 103 137.5 87.0Q127 71 114 52Q87 15 74.5 15.0Q62 15 42.0 37.5Q22 60 22.0 71.5Q22 83 26.0 100.0Q30 117 34.5 133.0Q39 149 48.5 180.5Q58 212 70.5 254.5Q83 297 89.5 371.5Q96 446 99.0 480.5Q102 515 116 515Q138 515 159.5 492.0Q181 469 181 446Q181 358 115 156Q227 366 256.0 405.0Q285 444 306 468Q345 511 385 511Q409 511 442.5 469.5Q476 428 476.0 386.0Q476 344 464 282Q582 511 678 511Z"/><path transform="translate(31.1,0) scale(0.01200,-0.01200)" d="M393 309Q405 294 405 283Q405 255 392.5 187.0Q380 119 377.5 98.0Q375 77 373.0 64.5Q371 52 368 40Q364 15 350 15Q332 15 320.5 46.5Q309 78 307 128Q218 15 142 15Q96 15 51.5 54.5Q7 94 7 136Q7 196 51.0 284.5Q95 373 165.0 442.0Q235 511 297 511Q342 511 380.0 465.5Q418 420 418.0 383.5Q418 347 393 309ZM343 335Q343 428 306 428Q267 428 215.0 372.5Q163 317 127.0 247.0Q91 177 91 136Q91 119 105.0 108.5Q119 98 138 98Q185 98 244.0 161.5Q303 225 326 316Q329 331 343 334Z"/><path transform="translate(36.8,0) scale(0.01200,-0.01200)" d="M358 514Q401 514 432.5 459.0Q464 404 464.0 345.5Q464 287 430.0 228.5Q396 170 346.0 124.0Q296 78 235.5 47.5Q175 17 124 17Q104 17 86 22Q82 5 72.0 -39.0Q62 -83 55.0 -112.0Q48 -141 39 -174Q21 -242 7.0 -242.0Q-7 -242 -22.5 -220.5Q-38 -199 -38.0 -182.0Q-38 -165 -6 -36Q90 353 90 488Q90 518 112 518Q130 518 155.5 491.5Q181 465 181 433Q181 417 177 398Q266 514 358 514ZM114 95Q167 95 228.5 131.0Q290 167 333.5 226.5Q377 286 377 345Q377 428 338.0 428.0Q299 428 232.5 361.0Q166 294 127 187L104 95Z"/><path transform="translate(42.5,0) scale(0.01200,-0.01200)" d="M358 514Q401 514 432.5 459.0Q464 404 464.0 345.5Q464 287 430.0 228.5Q396 170 346.0 124.0Q296 78 235.5 47.5Q175 17 124 17Q104 17 86 22Q82 5 72.0 -39.0Q62 -83 55.0 -112.0Q48 -141 39 -174Q21 -242 7.0 -242.0Q-7 -242 -22.5 -220.5Q-38 -199 -38.0 -182.0Q-38 -165 -6 -36Q90 353 90 488Q90 518 112 518Q130 518 155.5 491.5Q181 465 181 433Q181 417 177 398Q266 514 358 514ZM114 95Q167 95 228.5 131.0Q290 167 333.5 226.5Q377 286 377 345Q377 428 338.0 428.0Q299 428 232.5 361.0Q166 294 127 187L104 95Z"/><path transform="translate(48.2,0) scale(0.01200,-0.01200)" d="M91 389 88 464Q88 511 110 511Q129 511 146.5 486.5Q164 462 164.0 428.5Q164 395 162 378Q249 510 327 510Q376 510 376 486Q376 474 365.0 464.0Q354 454 330 441Q277 418 240.5 370.5Q204 323 181.0 263.0Q158 203 144.5 162.0Q131 121 124.0 98.0Q117 75 108 53Q92 13 71 13Q54 13 43.5 32.5Q33 52 33.0 70.5Q33 89 50 144Q91 270 91 389Z"/><path transform="translate(52.2,0) scale(0.01200,-0.01200)" d="M333 341Q333 375 322.0 405.5Q311 436 290 450Q221 431 171.5 343.5Q122 256 122.0 179.0Q122 102 160 83Q232 97 282.5 181.5Q333 266 333 341ZM155 15Q104 15 70.0 62.0Q36 109 36.0 181.5Q36 254 70.5 332.0Q105 410 161.5 460.5Q218 511 277.5 511.0Q337 511 377.0 460.5Q417 410 417.0 337.5Q417 265 382.0 189.5Q347 114 285.5 64.5Q224 15 155 15Z"/><path transform="translate(57.6,0) scale(0.01200,-0.01200)" d="M376 511Q393 511 409.0 498.5Q425 486 425 471Q425 444 352.5 284.0Q280 124 249.5 68.5Q219 13 196 13Q183 13 164.0 32.0Q145 51 136 73Q109 136 78.0 276.0Q47 416 47 481Q47 511 65 511Q87 511 110.0 492.5Q133 474 142 446Q145 430 150 366Q164 208 198 123Q225 181 267.0 287.5Q309 394 335.5 452.5Q362 511 376 511Z"/><path transform="translate(62.7,0) scale(0.01200,-0.01200)" d="M111 241Q97 197 97.0 162.5Q97 128 118.5 109.0Q140 90 189.5 90.0Q239 90 291.5 107.5Q344 125 349 125Q375 125 375 105Q375 78 314.0 46.5Q253 15 195 15Q117 15 68.0 61.5Q19 108 19.0 179.0Q19 250 57.0 327.5Q95 405 155.0 458.0Q215 511 274.0 511.0Q333 511 381.5 455.0Q430 399 430.0 345.5Q430 292 372.5 258.5Q315 225 242.5 225.0Q170 225 111 241ZM279 432Q242 432 202.0 393.5Q162 355 134 298Q174 289 225.0 289.0Q276 289 314.0 305.5Q352 322 352.0 349.0Q352 376 327.5 404.0Q303 432 279 432Z"/><path transform="translate(68.1,0) scale(0.01200,-0.01200)" d="M459 791Q475 791 498.5 761.5Q522 732 522.0 706.0Q522 680 497.0 558.5Q472 437 439 307Q367 15 344 15Q330 15 313.5 32.5Q297 50 297.0 63.0Q297 76 304 115Q206 15 133 15Q89 15 53.5 55.0Q18 95 18 138Q18 200 51.5 285.5Q85 371 148.0 441.0Q211 511 282.0 511.0Q353 511 381 426Q432 638 437 761Q437 791 459 791ZM349 300Q349 354 330.5 391.0Q312 428 286 428Q243 428 198.0 375.0Q153 322 126.5 253.5Q100 185 100 135Q100 117 113.0 106.0Q126 95 144 95Q183 95 249.5 151.0Q316 207 346 283L349 295Z"/></g><rect x="24.0" y="92.0" width="150.0" height="24.0" rx="5" fill="none" stroke="#4f7a3f" stroke-width="1.4" filter="url(#r2)"/><path d="M32,104 l5,6 l10,-12" fill="none" stroke="#4f7a3f" stroke-width="2" filter="url(#r2)"/><g fill="#2a2620" transform="translate(52.0,109)"><path transform="translate(0.0,0) scale(0.01200,-0.01200)" d="M312 511Q353 511 384.0 474.0Q415 437 415 409Q415 401 410.0 395.5Q405 390 395.5 390.0Q386 390 362.0 408.0Q338 426 319 426Q265 426 193.0 331.0Q121 236 121 165Q121 134 140.5 116.0Q160 98 203.5 98.0Q247 98 283.5 108.5Q320 119 340.0 129.5Q360 140 371 140Q390 140 390 121Q390 92 320.5 53.5Q251 15 192.5 15.0Q134 15 83.0 60.5Q32 106 32.0 168.5Q32 231 74.0 313.0Q116 395 182.5 453.0Q249 511 312 511Z"/><path transform="translate(5.3,0) scale(0.01200,-0.01200)" d="M228 707Q228 519 150 219Q100 15 80 15Q66 15 47.5 37.0Q29 59 29.0 71.0Q29 83 58.0 195.0Q87 307 116.0 470.5Q145 634 145 765Q145 779 149.0 785.0Q153 791 166.0 791.0Q179 791 203.5 762.5Q228 734 228 707Z"/><path transform="translate(8.3,0) scale(0.01200,-0.01200)" d="M393 309Q405 294 405 283Q405 255 392.5 187.0Q380 119 377.5 98.0Q375 77 373.0 64.5Q371 52 368 40Q364 15 350 15Q332 15 320.5 46.5Q309 78 307 128Q218 15 142 15Q96 15 51.5 54.5Q7 94 7 136Q7 196 51.0 284.5Q95 373 165.0 442.0Q235 511 297 511Q342 511 380.0 465.5Q418 420 418.0 383.5Q418 347 393 309ZM343 335Q343 428 306 428Q267 428 215.0 372.5Q163 317 127.0 247.0Q91 177 91 136Q91 119 105.0 108.5Q119 98 138 98Q185 98 244.0 161.5Q303 225 326 316Q329 331 343 334Z"/><path transform="translate(13.9,0) scale(0.01200,-0.01200)" d="M270 601Q270 591 261.0 583.0Q252 575 242 575Q218 575 188.5 604.0Q159 633 159.0 653.0Q159 673 175.0 691.0Q191 709 207.5 709.0Q224 709 247.0 668.5Q270 628 270 601ZM154 511Q173 511 190.0 488.0Q207 465 207.0 443.0Q207 421 178.0 311.5Q149 202 105 66Q88 16 62 16Q48 16 38.0 27.5Q28 39 28.0 53.5Q28 68 35.5 99.5Q43 131 57.5 183.5Q72 236 80.5 269.0Q89 302 98.0 343.5Q107 385 112.5 410.5Q118 436 125 462Q139 511 154 511Z"/><path transform="translate(16.8,0) scale(0.01200,-0.01200)" d="M678 511Q708 511 731.5 469.5Q755 428 755.0 375.5Q755 323 736.5 239.0Q718 155 687.0 85.0Q656 15 626 15Q605 15 605.0 42.5Q605 70 639.5 177.5Q674 285 674.0 348.5Q674 412 654 412Q629 412 596.5 368.0Q564 324 527.0 262.0Q490 200 487.0 195.5Q484 191 479.5 183.0Q475 175 469.5 166.0Q464 157 441.5 112.0Q419 67 402.0 41.5Q385 16 372.5 16.0Q360 16 345.0 32.0Q330 48 330.0 62.0Q330 76 348 120Q400 250 400 362Q400 383 391.0 397.5Q382 412 371.0 412.0Q360 412 348.0 402.5Q336 393 318.0 368.5Q300 344 286.0 322.0Q272 300 243.5 253.5Q215 207 200.5 184.5Q186 162 167.0 132.5Q148 103 137.5 87.0Q127 71 114 52Q87 15 74.5 15.0Q62 15 42.0 37.5Q22 60 22.0 71.5Q22 83 26.0 100.0Q30 117 34.5 133.0Q39 149 48.5 180.5Q58 212 70.5 254.5Q83 297 89.5 371.5Q96 446 99.0 480.5Q102 515 116 515Q138 515 159.5 492.0Q181 469 181 446Q181 358 115 156Q227 366 256.0 405.0Q285 444 306 468Q345 511 385 511Q409 511 442.5 469.5Q476 428 476.0 386.0Q476 344 464 282Q582 511 678 511Z"/><path transform="translate(31.1,0) scale(0.01200,-0.01200)" d="M393 309Q405 294 405 283Q405 255 392.5 187.0Q380 119 377.5 98.0Q375 77 373.0 64.5Q371 52 368 40Q364 15 350 15Q332 15 320.5 46.5Q309 78 307 128Q218 15 142 15Q96 15 51.5 54.5Q7 94 7 136Q7 196 51.0 284.5Q95 373 165.0 442.0Q235 511 297 511Q342 511 380.0 465.5Q418 420 418.0 383.5Q418 347 393 309ZM343 335Q343 428 306 428Q267 428 215.0 372.5Q163 317 127.0 247.0Q91 177 91 136Q91 119 105.0 108.5Q119 98 138 98Q185 98 244.0 161.5Q303 225 326 316Q329 331 343 334Z"/><path transform="translate(36.8,0) scale(0.01200,-0.01200)" d="M358 514Q401 514 432.5 459.0Q464 404 464.0 345.5Q464 287 430.0 228.5Q396 170 346.0 124.0Q296 78 235.5 47.5Q175 17 124 17Q104 17 86 22Q82 5 72.0 -39.0Q62 -83 55.0 -112.0Q48 -141 39 -174Q21 -242 7.0 -242.0Q-7 -242 -22.5 -220.5Q-38 -199 -38.0 -182.0Q-38 -165 -6 -36Q90 353 90 488Q90 518 112 518Q130 518 155.5 491.5Q181 465 181 433Q181 417 177 398Q266 514 358 514ZM114 95Q167 95 228.5 131.0Q290 167 333.5 226.5Q377 286 377 345Q377 428 338.0 428.0Q299 428 232.5 361.0Q166 294 127 187L104 95Z"/><path transform="translate(42.5,0) scale(0.01200,-0.01200)" d="M358 514Q401 514 432.5 459.0Q464 404 464.0 345.5Q464 287 430.0 228.5Q396 170 346.0 124.0Q296 78 235.5 47.5Q175 17 124 17Q104 17 86 22Q82 5 72.0 -39.0Q62 -83 55.0 -112.0Q48 -141 39 -174Q21 -242 7.0 -242.0Q-7 -242 -22.5 -220.5Q-38 -199 -38.0 -182.0Q-38 -165 -6 -36Q90 353 90 488Q90 518 112 518Q130 518 155.5 491.5Q181 465 181 433Q181 417 177 398Q266 514 358 514ZM114 95Q167 95 228.5 131.0Q290 167 333.5 226.5Q377 286 377 345Q377 428 338.0 428.0Q299 428 232.5 361.0Q166 294 127 187L104 95Z"/><path transform="translate(48.2,0) scale(0.01200,-0.01200)" d="M91 389 88 464Q88 511 110 511Q129 511 146.5 486.5Q164 462 164.0 428.5Q164 395 162 378Q249 510 327 510Q376 510 376 486Q376 474 365.0 464.0Q354 454 330 441Q277 418 240.5 370.5Q204 323 181.0 263.0Q158 203 144.5 162.0Q131 121 124.0 98.0Q117 75 108 53Q92 13 71 13Q54 13 43.5 32.5Q33 52 33.0 70.5Q33 89 50 144Q91 270 91 389Z"/><path transform="translate(52.2,0) scale(0.01200,-0.01200)" d="M333 341Q333 375 322.0 405.5Q311 436 290 450Q221 431 171.5 343.5Q122 256 122.0 179.0Q122 102 160 83Q232 97 282.5 181.5Q333 266 333 341ZM155 15Q104 15 70.0 62.0Q36 109 36.0 181.5Q36 254 70.5 332.0Q105 410 161.5 460.5Q218 511 277.5 511.0Q337 511 377.0 460.5Q417 410 417.0 337.5Q417 265 382.0 189.5Q347 114 285.5 64.5Q224 15 155 15Z"/><path transform="translate(57.6,0) scale(0.01200,-0.01200)" d="M376 511Q393 511 409.0 498.5Q425 486 425 471Q425 444 352.5 284.0Q280 124 249.5 68.5Q219 13 196 13Q183 13 164.0 32.0Q145 51 136 73Q109 136 78.0 276.0Q47 416 47 481Q47 511 65 511Q87 511 110.0 492.5Q133 474 142 446Q145 430 150 366Q164 208 198 123Q225 181 267.0 287.5Q309 394 335.5 452.5Q362 511 376 511Z"/><path transform="translate(62.7,0) scale(0.01200,-0.01200)" d="M111 241Q97 197 97.0 162.5Q97 128 118.5 109.0Q140 90 189.5 90.0Q239 90 291.5 107.5Q344 125 349 125Q375 125 375 105Q375 78 314.0 46.5Q253 15 195 15Q117 15 68.0 61.5Q19 108 19.0 179.0Q19 250 57.0 327.5Q95 405 155.0 458.0Q215 511 274.0 511.0Q333 511 381.5 455.0Q430 399 430.0 345.5Q430 292 372.5 258.5Q315 225 242.5 225.0Q170 225 111 241ZM279 432Q242 432 202.0 393.5Q162 355 134 298Q174 289 225.0 289.0Q276 289 314.0 305.5Q352 322 352.0 349.0Q352 376 327.5 404.0Q303 432 279 432Z"/><path transform="translate(68.1,0) scale(0.01200,-0.01200)" d="M459 791Q475 791 498.5 761.5Q522 732 522.0 706.0Q522 680 497.0 558.5Q472 437 439 307Q367 15 344 15Q330 15 313.5 32.5Q297 50 297.0 63.0Q297 76 304 115Q206 15 133 15Q89 15 53.5 55.0Q18 95 18 138Q18 200 51.5 285.5Q85 371 148.0 441.0Q211 511 282.0 511.0Q353 511 381 426Q432 638 437 761Q437 791 459 791ZM349 300Q349 354 330.5 391.0Q312 428 286 428Q243 428 198.0 375.0Q153 322 126.5 253.5Q100 185 100 135Q100 117 113.0 106.0Q126 95 144 95Q183 95 249.5 151.0Q316 207 346 283L349 295Z"/></g><rect x="24.0" y="120.0" width="150.0" height="24.0" rx="5" fill="none" stroke="#c98a2b" stroke-width="1.4" filter="url(#r2)"/><path d="M30,126 l10,12 M40,126 l-10,12" stroke="#c98a2b" stroke-width="2"/><g fill="#2a2620" transform="translate(52.0,137)"><path transform="translate(0.0,0) scale(0.01200,-0.01200)" d="M74 15Q60 15 41.0 36.5Q22 58 22.0 77.0Q22 96 53.5 207.0Q85 318 116.5 474.5Q148 631 148 761Q148 791 170 791Q186 791 209.0 761.5Q232 732 232 704Q232 581 178 353Q297 514 394 514Q441 514 473.5 468.0Q506 422 506.0 358.5Q506 295 469.5 213.0Q433 131 371.0 72.5Q309 14 241.0 14.0Q173 14 107 83L106 82Q84 15 74 15ZM233 92Q298 92 360.5 180.5Q423 269 423 367Q423 426 387 426Q329 426 257.5 345.0Q186 264 134 152Q181 92 233 92Z"/><path transform="translate(6.3,0) scale(0.01200,-0.01200)" d="M333 341Q333 375 322.0 405.5Q311 436 290 450Q221 431 171.5 343.5Q122 256 122.0 179.0Q122 102 160 83Q232 97 282.5 181.5Q333 266 333 341ZM155 15Q104 15 70.0 62.0Q36 109 36.0 181.5Q36 254 70.5 332.0Q105 410 161.5 460.5Q218 511 277.5 511.0Q337 511 377.0 460.5Q417 410 417.0 337.5Q417 265 382.0 189.5Q347 114 285.5 64.5Q224 15 155 15Z"/><path transform="translate(11.7,0) scale(0.01200,-0.01200)" d="M463 435Q463 422 419.0 281.0Q375 140 351 57Q339 15 317 15Q304 15 295.0 26.0Q286 37 286.0 66.0Q286 95 309 171Q267 103 218.0 59.0Q169 15 128.5 15.0Q88 15 52.0 53.0Q16 91 16 131Q16 226 71.5 368.5Q127 511 164 511Q182 511 195.5 494.5Q209 478 209 457Q209 448 182.0 392.5Q155 337 128.0 262.5Q101 188 101 132Q101 116 111.0 105.5Q121 95 135 95Q173 95 225.5 162.0Q278 229 321.0 318.0Q364 407 385 483Q389 499 393.0 505.0Q397 511 410.5 511.0Q424 511 443.5 485.0Q463 459 463 435Z"/><path transform="translate(17.5,0) scale(0.01200,-0.01200)" d="M492 383Q492 311 459 207Q399 15 351 15Q329 15 329 45Q329 66 350.5 130.5Q372 195 390.5 257.5Q409 320 409.0 351.5Q409 383 399.5 398.0Q390 413 380.5 413.0Q371 413 361.0 407.0Q351 401 338.5 387.0Q326 373 315.0 359.5Q304 346 287.5 321.0Q271 296 260.0 278.5Q249 261 228.0 228.0Q207 195 196.0 178.0Q185 161 167.0 132.0Q149 103 138.5 87.0Q128 71 115 52Q90 15 75.5 15.0Q61 15 42.0 37.5Q23 60 23 77Q23 82 30 104Q49 162 72.0 247.5Q95 333 97 442Q100 515 118 515Q140 515 162.0 492.0Q184 469 184.0 441.5Q184 414 167.5 335.5Q151 257 129 189Q225 352 285.5 431.5Q346 511 384.5 511.0Q423 511 457.5 470.0Q492 429 492 383Z"/><path transform="translate(23.9,0) scale(0.01200,-0.01200)" d="M459 791Q475 791 498.5 761.5Q522 732 522.0 706.0Q522 680 497.0 558.5Q472 437 439 307Q367 15 344 15Q330 15 313.5 32.5Q297 50 297.0 63.0Q297 76 304 115Q206 15 133 15Q89 15 53.5 55.0Q18 95 18 138Q18 200 51.5 285.5Q85 371 148.0 441.0Q211 511 282.0 511.0Q353 511 381 426Q432 638 437 761Q437 791 459 791ZM349 300Q349 354 330.5 391.0Q312 428 286 428Q243 428 198.0 375.0Q153 322 126.5 253.5Q100 185 100 135Q100 117 113.0 106.0Q126 95 144 95Q183 95 249.5 151.0Q316 207 346 283L349 295Z"/><path transform="translate(29.9,0) scale(0.01200,-0.01200)" d="M393 309Q405 294 405 283Q405 255 392.5 187.0Q380 119 377.5 98.0Q375 77 373.0 64.5Q371 52 368 40Q364 15 350 15Q332 15 320.5 46.5Q309 78 307 128Q218 15 142 15Q96 15 51.5 54.5Q7 94 7 136Q7 196 51.0 284.5Q95 373 165.0 442.0Q235 511 297 511Q342 511 380.0 465.5Q418 420 418.0 383.5Q418 347 393 309ZM343 335Q343 428 306 428Q267 428 215.0 372.5Q163 317 127.0 247.0Q91 177 91 136Q91 119 105.0 108.5Q119 98 138 98Q185 98 244.0 161.5Q303 225 326 316Q329 331 343 334Z"/><path transform="translate(35.5,0) scale(0.01200,-0.01200)" d="M91 389 88 464Q88 511 110 511Q129 511 146.5 486.5Q164 462 164.0 428.5Q164 395 162 378Q249 510 327 510Q376 510 376 486Q376 474 365.0 464.0Q354 454 330 441Q277 418 240.5 370.5Q204 323 181.0 263.0Q158 203 144.5 162.0Q131 121 124.0 98.0Q117 75 108 53Q92 13 71 13Q54 13 43.5 32.5Q33 52 33.0 70.5Q33 89 50 144Q91 270 91 389Z"/><path transform="translate(39.5,0) scale(0.01200,-0.01200)" d="M475 435Q475 415 434.0 299.0Q393 183 378.5 141.5Q364 100 339.5 31.5Q315 -37 292 -102Q242 -245 142 -245Q85 -245 33.0 -210.5Q-19 -176 -19 -139Q-19 -125 -6.5 -108.0Q6 -91 15.0 -91.0Q24 -91 44 -113Q102 -179 143 -179Q174 -179 199.0 -124.5Q224 -70 246.5 -1.5Q269 67 271.5 74.0Q274 81 277.5 92.0Q281 103 284 112Q213 15 144 15Q102 15 66.5 54.0Q31 93 31.0 146.0Q31 199 57.0 289.0Q83 379 118.0 445.0Q153 511 175 511Q193 511 208.5 494.5Q224 478 224.0 461.0Q224 444 198 390Q117 224 117 132Q117 116 127.0 105.5Q137 95 151 95Q187 95 237.0 159.0Q287 223 329 311Q364 385 402 500Q406 511 422.0 511.0Q438 511 456.5 487.5Q475 464 475 435Z"/><path transform="translate(49.9,0) scale(0.01200,-0.01200)" d="M103 13Q90 13 75.0 32.0Q60 51 60.0 63.0Q60 75 70 110Q120 290 138 367Q95 357 79.0 357.0Q63 357 47.0 371.0Q31 385 31.0 402.0Q31 419 76 432Q134 446 156 450Q166 498 171 524Q195 662 236.0 723.0Q277 784 347 784Q397 784 429.0 744.5Q461 705 461.0 651.5Q461 598 433 598Q409 598 394 652Q389 672 377.0 689.0Q365 706 348.0 706.0Q331 706 317.0 690.5Q303 675 292 646Q263 565 252 498L244 463Q281 468 317.5 468.0Q354 468 370.5 460.0Q387 452 387 440Q387 421 354.0 411.0Q321 401 225 385Q154 97 128 42Q114 13 103 13Z"/><path transform="translate(54.4,0) scale(0.01200,-0.01200)" d="M228 707Q228 519 150 219Q100 15 80 15Q66 15 47.5 37.0Q29 59 29.0 71.0Q29 83 58.0 195.0Q87 307 116.0 470.5Q145 634 145 765Q145 779 149.0 785.0Q153 791 166.0 791.0Q179 791 203.5 762.5Q228 734 228 707Z"/><path transform="translate(57.4,0) scale(0.01200,-0.01200)" d="M393 309Q405 294 405 283Q405 255 392.5 187.0Q380 119 377.5 98.0Q375 77 373.0 64.5Q371 52 368 40Q364 15 350 15Q332 15 320.5 46.5Q309 78 307 128Q218 15 142 15Q96 15 51.5 54.5Q7 94 7 136Q7 196 51.0 284.5Q95 373 165.0 442.0Q235 511 297 511Q342 511 380.0 465.5Q418 420 418.0 383.5Q418 347 393 309ZM343 335Q343 428 306 428Q267 428 215.0 372.5Q163 317 127.0 247.0Q91 177 91 136Q91 119 105.0 108.5Q119 98 138 98Q185 98 244.0 161.5Q303 225 326 316Q329 331 343 334Z"/><path transform="translate(63.0,0) scale(0.01200,-0.01200)" d="M427 285Q427 245 392 194Q365 133 334.0 18.5Q303 -96 282 -145Q240 -247 153 -247Q82 -247 33.5 -208.5Q-15 -170 -15 -132Q-15 -116 -5.5 -100.0Q4 -84 14.5 -84.0Q25 -84 38.0 -99.0Q51 -114 62.5 -131.5Q74 -149 97.5 -164.0Q121 -179 143.0 -179.0Q165 -179 176.0 -172.5Q187 -166 197.0 -151.5Q207 -137 214.0 -122.5Q221 -108 229.5 -81.5Q238 -55 243.0 -36.0Q248 -17 257.0 17.5Q266 52 272 73Q194 15 145.0 15.0Q96 15 60.0 54.5Q24 94 24.0 146.5Q24 199 63.5 286.0Q103 373 170.0 442.0Q237 511 301 511Q342 511 370 480Q416 429 416 335Q416 323 415 318Q427 301 427 285ZM105 136Q105 119 116.0 108.5Q127 98 144 98Q194 98 262.0 157.5Q330 217 358 296Q354 309 351.0 336.0Q348 363 345.0 379.0Q342 395 332.0 411.5Q322 428 306 428Q267 428 218.0 372.0Q169 316 137.0 247.0Q105 178 105 136Z"/></g><rect x="24.0" y="148.0" width="150.0" height="24.0" rx="5" fill="none" stroke="#4f7a3f" stroke-width="1.4" filter="url(#r2)"/><path d="M32,160 l5,6 l10,-12" fill="none" stroke="#4f7a3f" stroke-width="2" filter="url(#r2)"/><g fill="#2a2620" transform="translate(52.0,165)"><path transform="translate(0.0,0) scale(0.01200,-0.01200)" d="M312 511Q353 511 384.0 474.0Q415 437 415 409Q415 401 410.0 395.5Q405 390 395.5 390.0Q386 390 362.0 408.0Q338 426 319 426Q265 426 193.0 331.0Q121 236 121 165Q121 134 140.5 116.0Q160 98 203.5 98.0Q247 98 283.5 108.5Q320 119 340.0 129.5Q360 140 371 140Q390 140 390 121Q390 92 320.5 53.5Q251 15 192.5 15.0Q134 15 83.0 60.5Q32 106 32.0 168.5Q32 231 74.0 313.0Q116 395 182.5 453.0Q249 511 312 511Z"/><path transform="translate(5.3,0) scale(0.01200,-0.01200)" d="M228 707Q228 519 150 219Q100 15 80 15Q66 15 47.5 37.0Q29 59 29.0 71.0Q29 83 58.0 195.0Q87 307 116.0 470.5Q145 634 145 765Q145 779 149.0 785.0Q153 791 166.0 791.0Q179 791 203.5 762.5Q228 734 228 707Z"/><path transform="translate(8.3,0) scale(0.01200,-0.01200)" d="M393 309Q405 294 405 283Q405 255 392.5 187.0Q380 119 377.5 98.0Q375 77 373.0 64.5Q371 52 368 40Q364 15 350 15Q332 15 320.5 46.5Q309 78 307 128Q218 15 142 15Q96 15 51.5 54.5Q7 94 7 136Q7 196 51.0 284.5Q95 373 165.0 442.0Q235 511 297 511Q342 511 380.0 465.5Q418 420 418.0 383.5Q418 347 393 309ZM343 335Q343 428 306 428Q267 428 215.0 372.5Q163 317 127.0 247.0Q91 177 91 136Q91 119 105.0 108.5Q119 98 138 98Q185 98 244.0 161.5Q303 225 326 316Q329 331 343 334Z"/><path transform="translate(13.9,0) scale(0.01200,-0.01200)" d="M270 601Q270 591 261.0 583.0Q252 575 242 575Q218 575 188.5 604.0Q159 633 159.0 653.0Q159 673 175.0 691.0Q191 709 207.5 709.0Q224 709 247.0 668.5Q270 628 270 601ZM154 511Q173 511 190.0 488.0Q207 465 207.0 443.0Q207 421 178.0 311.5Q149 202 105 66Q88 16 62 16Q48 16 38.0 27.5Q28 39 28.0 53.5Q28 68 35.5 99.5Q43 131 57.5 183.5Q72 236 80.5 269.0Q89 302 98.0 343.5Q107 385 112.5 410.5Q118 436 125 462Q139 511 154 511Z"/><path transform="translate(16.8,0) scale(0.01200,-0.01200)" d="M678 511Q708 511 731.5 469.5Q755 428 755.0 375.5Q755 323 736.5 239.0Q718 155 687.0 85.0Q656 15 626 15Q605 15 605.0 42.5Q605 70 639.5 177.5Q674 285 674.0 348.5Q674 412 654 412Q629 412 596.5 368.0Q564 324 527.0 262.0Q490 200 487.0 195.5Q484 191 479.5 183.0Q475 175 469.5 166.0Q464 157 441.5 112.0Q419 67 402.0 41.5Q385 16 372.5 16.0Q360 16 345.0 32.0Q330 48 330.0 62.0Q330 76 348 120Q400 250 400 362Q400 383 391.0 397.5Q382 412 371.0 412.0Q360 412 348.0 402.5Q336 393 318.0 368.5Q300 344 286.0 322.0Q272 300 243.5 253.5Q215 207 200.5 184.5Q186 162 167.0 132.5Q148 103 137.5 87.0Q127 71 114 52Q87 15 74.5 15.0Q62 15 42.0 37.5Q22 60 22.0 71.5Q22 83 26.0 100.0Q30 117 34.5 133.0Q39 149 48.5 180.5Q58 212 70.5 254.5Q83 297 89.5 371.5Q96 446 99.0 480.5Q102 515 116 515Q138 515 159.5 492.0Q181 469 181 446Q181 358 115 156Q227 366 256.0 405.0Q285 444 306 468Q345 511 385 511Q409 511 442.5 469.5Q476 428 476.0 386.0Q476 344 464 282Q582 511 678 511Z"/><path transform="translate(31.1,0) scale(0.01200,-0.01200)" d="M393 309Q405 294 405 283Q405 255 392.5 187.0Q380 119 377.5 98.0Q375 77 373.0 64.5Q371 52 368 40Q364 15 350 15Q332 15 320.5 46.5Q309 78 307 128Q218 15 142 15Q96 15 51.5 54.5Q7 94 7 136Q7 196 51.0 284.5Q95 373 165.0 442.0Q235 511 297 511Q342 511 380.0 465.5Q418 420 418.0 383.5Q418 347 393 309ZM343 335Q343 428 306 428Q267 428 215.0 372.5Q163 317 127.0 247.0Q91 177 91 136Q91 119 105.0 108.5Q119 98 138 98Q185 98 244.0 161.5Q303 225 326 316Q329 331 343 334Z"/><path transform="translate(36.8,0) scale(0.01200,-0.01200)" d="M358 514Q401 514 432.5 459.0Q464 404 464.0 345.5Q464 287 430.0 228.5Q396 170 346.0 124.0Q296 78 235.5 47.5Q175 17 124 17Q104 17 86 22Q82 5 72.0 -39.0Q62 -83 55.0 -112.0Q48 -141 39 -174Q21 -242 7.0 -242.0Q-7 -242 -22.5 -220.5Q-38 -199 -38.0 -182.0Q-38 -165 -6 -36Q90 353 90 488Q90 518 112 518Q130 518 155.5 491.5Q181 465 181 433Q181 417 177 398Q266 514 358 514ZM114 95Q167 95 228.5 131.0Q290 167 333.5 226.5Q377 286 377 345Q377 428 338.0 428.0Q299 428 232.5 361.0Q166 294 127 187L104 95Z"/><path transform="translate(42.5,0) scale(0.01200,-0.01200)" d="M358 514Q401 514 432.5 459.0Q464 404 464.0 345.5Q464 287 430.0 228.5Q396 170 346.0 124.0Q296 78 235.5 47.5Q175 17 124 17Q104 17 86 22Q82 5 72.0 -39.0Q62 -83 55.0 -112.0Q48 -141 39 -174Q21 -242 7.0 -242.0Q-7 -242 -22.5 -220.5Q-38 -199 -38.0 -182.0Q-38 -165 -6 -36Q90 353 90 488Q90 518 112 518Q130 518 155.5 491.5Q181 465 181 433Q181 417 177 398Q266 514 358 514ZM114 95Q167 95 228.5 131.0Q290 167 333.5 226.5Q377 286 377 345Q377 428 338.0 428.0Q299 428 232.5 361.0Q166 294 127 187L104 95Z"/><path transform="translate(48.2,0) scale(0.01200,-0.01200)" d="M91 389 88 464Q88 511 110 511Q129 511 146.5 486.5Q164 462 164.0 428.5Q164 395 162 378Q249 510 327 510Q376 510 376 486Q376 474 365.0 464.0Q354 454 330 441Q277 418 240.5 370.5Q204 323 181.0 263.0Q158 203 144.5 162.0Q131 121 124.0 98.0Q117 75 108 53Q92 13 71 13Q54 13 43.5 32.5Q33 52 33.0 70.5Q33 89 50 144Q91 270 91 389Z"/><path transform="translate(52.2,0) scale(0.01200,-0.01200)" d="M333 341Q333 375 322.0 405.5Q311 436 290 450Q221 431 171.5 343.5Q122 256 122.0 179.0Q122 102 160 83Q232 97 282.5 181.5Q333 266 333 341ZM155 15Q104 15 70.0 62.0Q36 109 36.0 181.5Q36 254 70.5 332.0Q105 410 161.5 460.5Q218 511 277.5 511.0Q337 511 377.0 460.5Q417 410 417.0 337.5Q417 265 382.0 189.5Q347 114 285.5 64.5Q224 15 155 15Z"/><path transform="translate(57.6,0) scale(0.01200,-0.01200)" d="M376 511Q393 511 409.0 498.5Q425 486 425 471Q425 444 352.5 284.0Q280 124 249.5 68.5Q219 13 196 13Q183 13 164.0 32.0Q145 51 136 73Q109 136 78.0 276.0Q47 416 47 481Q47 511 65 511Q87 511 110.0 492.5Q133 474 142 446Q145 430 150 366Q164 208 198 123Q225 181 267.0 287.5Q309 394 335.5 452.5Q362 511 376 511Z"/><path transform="translate(62.7,0) scale(0.01200,-0.01200)" d="M111 241Q97 197 97.0 162.5Q97 128 118.5 109.0Q140 90 189.5 90.0Q239 90 291.5 107.5Q344 125 349 125Q375 125 375 105Q375 78 314.0 46.5Q253 15 195 15Q117 15 68.0 61.5Q19 108 19.0 179.0Q19 250 57.0 327.5Q95 405 155.0 458.0Q215 511 274.0 511.0Q333 511 381.5 455.0Q430 399 430.0 345.5Q430 292 372.5 258.5Q315 225 242.5 225.0Q170 225 111 241ZM279 432Q242 432 202.0 393.5Q162 355 134 298Q174 289 225.0 289.0Q276 289 314.0 305.5Q352 322 352.0 349.0Q352 376 327.5 404.0Q303 432 279 432Z"/><path transform="translate(68.1,0) scale(0.01200,-0.01200)" d="M459 791Q475 791 498.5 761.5Q522 732 522.0 706.0Q522 680 497.0 558.5Q472 437 439 307Q367 15 344 15Q330 15 313.5 32.5Q297 50 297.0 63.0Q297 76 304 115Q206 15 133 15Q89 15 53.5 55.0Q18 95 18 138Q18 200 51.5 285.5Q85 371 148.0 441.0Q211 511 282.0 511.0Q353 511 381 426Q432 638 437 761Q437 791 459 791ZM349 300Q349 354 330.5 391.0Q312 428 286 428Q243 428 198.0 375.0Q153 322 126.5 253.5Q100 185 100 135Q100 117 113.0 106.0Q126 95 144 95Q183 95 249.5 151.0Q316 207 346 283L349 295Z"/></g><g fill="#8d8470" transform="translate(196.0,92)"><path transform="translate(0.0,0) scale(0.01200,-0.01200)" d="M358 514Q401 514 432.5 459.0Q464 404 464.0 345.5Q464 287 430.0 228.5Q396 170 346.0 124.0Q296 78 235.5 47.5Q175 17 124 17Q104 17 86 22Q82 5 72.0 -39.0Q62 -83 55.0 -112.0Q48 -141 39 -174Q21 -242 7.0 -242.0Q-7 -242 -22.5 -220.5Q-38 -199 -38.0 -182.0Q-38 -165 -6 -36Q90 353 90 488Q90 518 112 518Q130 518 155.5 491.5Q181 465 181 433Q181 417 177 398Q266 514 358 514ZM114 95Q167 95 228.5 131.0Q290 167 333.5 226.5Q377 286 377 345Q377 428 338.0 428.0Q299 428 232.5 361.0Q166 294 127 187L104 95Z"/><path transform="translate(5.7,0) scale(0.01200,-0.01200)" d="M91 389 88 464Q88 511 110 511Q129 511 146.5 486.5Q164 462 164.0 428.5Q164 395 162 378Q249 510 327 510Q376 510 376 486Q376 474 365.0 464.0Q354 454 330 441Q277 418 240.5 370.5Q204 323 181.0 263.0Q158 203 144.5 162.0Q131 121 124.0 98.0Q117 75 108 53Q92 13 71 13Q54 13 43.5 32.5Q33 52 33.0 70.5Q33 89 50 144Q91 270 91 389Z"/><path transform="translate(9.7,0) scale(0.01200,-0.01200)" d="M333 341Q333 375 322.0 405.5Q311 436 290 450Q221 431 171.5 343.5Q122 256 122.0 179.0Q122 102 160 83Q232 97 282.5 181.5Q333 266 333 341ZM155 15Q104 15 70.0 62.0Q36 109 36.0 181.5Q36 254 70.5 332.0Q105 410 161.5 460.5Q218 511 277.5 511.0Q337 511 377.0 460.5Q417 410 417.0 337.5Q417 265 382.0 189.5Q347 114 285.5 64.5Q224 15 155 15Z"/><path transform="translate(15.1,0) scale(0.01200,-0.01200)" d="M74 15Q60 15 41.0 36.5Q22 58 22.0 77.0Q22 96 53.5 207.0Q85 318 116.5 474.5Q148 631 148 761Q148 791 170 791Q186 791 209.0 761.5Q232 732 232 704Q232 581 178 353Q297 514 394 514Q441 514 473.5 468.0Q506 422 506.0 358.5Q506 295 469.5 213.0Q433 131 371.0 72.5Q309 14 241.0 14.0Q173 14 107 83L106 82Q84 15 74 15ZM233 92Q298 92 360.5 180.5Q423 269 423 367Q423 426 387 426Q329 426 257.5 345.0Q186 264 134 152Q181 92 233 92Z"/><path transform="translate(21.4,0) scale(0.01200,-0.01200)" d="M228 707Q228 519 150 219Q100 15 80 15Q66 15 47.5 37.0Q29 59 29.0 71.0Q29 83 58.0 195.0Q87 307 116.0 470.5Q145 634 145 765Q145 779 149.0 785.0Q153 791 166.0 791.0Q179 791 203.5 762.5Q228 734 228 707Z"/><path transform="translate(24.4,0) scale(0.01200,-0.01200)" d="M111 241Q97 197 97.0 162.5Q97 128 118.5 109.0Q140 90 189.5 90.0Q239 90 291.5 107.5Q344 125 349 125Q375 125 375 105Q375 78 314.0 46.5Q253 15 195 15Q117 15 68.0 61.5Q19 108 19.0 179.0Q19 250 57.0 327.5Q95 405 155.0 458.0Q215 511 274.0 511.0Q333 511 381.5 455.0Q430 399 430.0 345.5Q430 292 372.5 258.5Q315 225 242.5 225.0Q170 225 111 241ZM279 432Q242 432 202.0 393.5Q162 355 134 298Q174 289 225.0 289.0Q276 289 314.0 305.5Q352 322 352.0 349.0Q352 376 327.5 404.0Q303 432 279 432Z"/><path transform="translate(29.8,0) scale(0.01200,-0.01200)" d="M678 511Q708 511 731.5 469.5Q755 428 755.0 375.5Q755 323 736.5 239.0Q718 155 687.0 85.0Q656 15 626 15Q605 15 605.0 42.5Q605 70 639.5 177.5Q674 285 674.0 348.5Q674 412 654 412Q629 412 596.5 368.0Q564 324 527.0 262.0Q490 200 487.0 195.5Q484 191 479.5 183.0Q475 175 469.5 166.0Q464 157 441.5 112.0Q419 67 402.0 41.5Q385 16 372.5 16.0Q360 16 345.0 32.0Q330 48 330.0 62.0Q330 76 348 120Q400 250 400 362Q400 383 391.0 397.5Q382 412 371.0 412.0Q360 412 348.0 402.5Q336 393 318.0 368.5Q300 344 286.0 322.0Q272 300 243.5 253.5Q215 207 200.5 184.5Q186 162 167.0 132.5Q148 103 137.5 87.0Q127 71 114 52Q87 15 74.5 15.0Q62 15 42.0 37.5Q22 60 22.0 71.5Q22 83 26.0 100.0Q30 117 34.5 133.0Q39 149 48.5 180.5Q58 212 70.5 254.5Q83 297 89.5 371.5Q96 446 99.0 480.5Q102 515 116 515Q138 515 159.5 492.0Q181 469 181 446Q181 358 115 156Q227 366 256.0 405.0Q285 444 306 468Q345 511 385 511Q409 511 442.5 469.5Q476 428 476.0 386.0Q476 344 464 282Q582 511 678 511Z"/></g><g fill="#2a2620" transform="translate(196.0,110)"><path transform="translate(0.0,0) scale(0.01400,-0.01400)" d="M317 511Q351 511 381.0 473.5Q411 436 411 408Q411 391 395 391Q384 391 361.0 408.5Q338 426 314.0 426.0Q290 426 238.5 398.0Q187 370 187 339Q187 316 279 260Q314 238 342.5 203.5Q371 169 371.0 129.5Q371 90 316.5 52.5Q262 15 189.5 15.0Q117 15 61.5 50.0Q6 85 6 116Q6 129 12.5 136.5Q19 144 29.0 144.0Q39 144 57 131Q111 92 169.5 92.0Q228 92 254.0 105.5Q280 119 280.0 141.5Q280 164 251.0 189.5Q222 215 187.5 235.0Q153 255 124.0 284.0Q95 313 95 343Q95 396 178.5 453.5Q262 511 317 511Z"/><path transform="translate(6.0,0) scale(0.01400,-0.01400)" d="M312 511Q353 511 384.0 474.0Q415 437 415 409Q415 401 410.0 395.5Q405 390 395.5 390.0Q386 390 362.0 408.0Q338 426 319 426Q265 426 193.0 331.0Q121 236 121 165Q121 134 140.5 116.0Q160 98 203.5 98.0Q247 98 283.5 108.5Q320 119 340.0 129.5Q360 140 371 140Q390 140 390 121Q390 92 320.5 53.5Q251 15 192.5 15.0Q134 15 83.0 60.5Q32 106 32.0 168.5Q32 231 74.0 313.0Q116 395 182.5 453.0Q249 511 312 511Z"/><path transform="translate(12.2,0) scale(0.01400,-0.01400)" d="M333 341Q333 375 322.0 405.5Q311 436 290 450Q221 431 171.5 343.5Q122 256 122.0 179.0Q122 102 160 83Q232 97 282.5 181.5Q333 266 333 341ZM155 15Q104 15 70.0 62.0Q36 109 36.0 181.5Q36 254 70.5 332.0Q105 410 161.5 460.5Q218 511 277.5 511.0Q337 511 377.0 460.5Q417 410 417.0 337.5Q417 265 382.0 189.5Q347 114 285.5 64.5Q224 15 155 15Z"/><path transform="translate(18.5,0) scale(0.01400,-0.01400)" d="M358 514Q401 514 432.5 459.0Q464 404 464.0 345.5Q464 287 430.0 228.5Q396 170 346.0 124.0Q296 78 235.5 47.5Q175 17 124 17Q104 17 86 22Q82 5 72.0 -39.0Q62 -83 55.0 -112.0Q48 -141 39 -174Q21 -242 7.0 -242.0Q-7 -242 -22.5 -220.5Q-38 -199 -38.0 -182.0Q-38 -165 -6 -36Q90 353 90 488Q90 518 112 518Q130 518 155.5 491.5Q181 465 181 433Q181 417 177 398Q266 514 358 514ZM114 95Q167 95 228.5 131.0Q290 167 333.5 226.5Q377 286 377 345Q377 428 338.0 428.0Q299 428 232.5 361.0Q166 294 127 187L104 95Z"/><path transform="translate(25.2,0) scale(0.01400,-0.01400)" d="M111 241Q97 197 97.0 162.5Q97 128 118.5 109.0Q140 90 189.5 90.0Q239 90 291.5 107.5Q344 125 349 125Q375 125 375 105Q375 78 314.0 46.5Q253 15 195 15Q117 15 68.0 61.5Q19 108 19.0 179.0Q19 250 57.0 327.5Q95 405 155.0 458.0Q215 511 274.0 511.0Q333 511 381.5 455.0Q430 399 430.0 345.5Q430 292 372.5 258.5Q315 225 242.5 225.0Q170 225 111 241ZM279 432Q242 432 202.0 393.5Q162 355 134 298Q174 289 225.0 289.0Q276 289 314.0 305.5Q352 322 352.0 349.0Q352 376 327.5 404.0Q303 432 279 432Z"/><path transform="translate(37.1,0) scale(0.01400,-0.01400)" d="M459 791Q475 791 498.5 761.5Q522 732 522.0 706.0Q522 680 497.0 558.5Q472 437 439 307Q367 15 344 15Q330 15 313.5 32.5Q297 50 297.0 63.0Q297 76 304 115Q206 15 133 15Q89 15 53.5 55.0Q18 95 18 138Q18 200 51.5 285.5Q85 371 148.0 441.0Q211 511 282.0 511.0Q353 511 381 426Q432 638 437 761Q437 791 459 791ZM349 300Q349 354 330.5 391.0Q312 428 286 428Q243 428 198.0 375.0Q153 322 126.5 253.5Q100 185 100 135Q100 117 113.0 106.0Q126 95 144 95Q183 95 249.5 151.0Q316 207 346 283L349 295Z"/><path transform="translate(44.1,0) scale(0.01400,-0.01400)" d="M91 389 88 464Q88 511 110 511Q129 511 146.5 486.5Q164 462 164.0 428.5Q164 395 162 378Q249 510 327 510Q376 510 376 486Q376 474 365.0 464.0Q354 454 330 441Q277 418 240.5 370.5Q204 323 181.0 263.0Q158 203 144.5 162.0Q131 121 124.0 98.0Q117 75 108 53Q92 13 71 13Q54 13 43.5 32.5Q33 52 33.0 70.5Q33 89 50 144Q91 270 91 389Z"/><path transform="translate(48.8,0) scale(0.01400,-0.01400)" d="M270 601Q270 591 261.0 583.0Q252 575 242 575Q218 575 188.5 604.0Q159 633 159.0 653.0Q159 673 175.0 691.0Q191 709 207.5 709.0Q224 709 247.0 668.5Q270 628 270 601ZM154 511Q173 511 190.0 488.0Q207 465 207.0 443.0Q207 421 178.0 311.5Q149 202 105 66Q88 16 62 16Q48 16 38.0 27.5Q28 39 28.0 53.5Q28 68 35.5 99.5Q43 131 57.5 183.5Q72 236 80.5 269.0Q89 302 98.0 343.5Q107 385 112.5 410.5Q118 436 125 462Q139 511 154 511Z"/><path transform="translate(52.1,0) scale(0.01400,-0.01400)" d="M103 13Q90 13 75.0 32.0Q60 51 60.0 63.0Q60 75 70 110Q120 290 138 367Q95 357 79.0 357.0Q63 357 47.0 371.0Q31 385 31.0 402.0Q31 419 76 432Q134 446 156 450Q166 498 171 524Q195 662 236.0 723.0Q277 784 347 784Q397 784 429.0 744.5Q461 705 461.0 651.5Q461 598 433 598Q409 598 394 652Q389 672 377.0 689.0Q365 706 348.0 706.0Q331 706 317.0 690.5Q303 675 292 646Q263 565 252 498L244 463Q281 468 317.5 468.0Q354 468 370.5 460.0Q387 452 387 440Q387 421 354.0 411.0Q321 401 225 385Q154 97 128 42Q114 13 103 13Z"/><path transform="translate(57.4,0) scale(0.01400,-0.01400)" d="M143 115Q143 96 165 96Q203 96 257.5 117.5Q312 139 318 139Q336 139 336 120Q336 91 276.5 53.0Q217 15 168.5 15.0Q120 15 88.0 41.5Q56 68 56.0 96.0Q56 124 68.0 167.5Q80 211 102.5 282.5Q125 354 138 401Q91 390 75.0 390.0Q59 390 43.5 406.5Q28 423 28 438Q28 462 158 484Q176 567 176 631Q176 661 196 661Q213 661 238.0 639.5Q263 618 263.0 591.0Q263 564 246 496Q303 501 337 501Q397 501 397 475Q397 460 364.5 450.0Q332 440 228 419Q207 340 175.0 238.5Q143 137 143 115Z"/></g><g fill="#8d8470" transform="translate(196.0,132)"><path transform="translate(0.0,0) scale(0.01200,-0.01200)" d="M459 791Q475 791 498.5 761.5Q522 732 522.0 706.0Q522 680 497.0 558.5Q472 437 439 307Q367 15 344 15Q330 15 313.5 32.5Q297 50 297.0 63.0Q297 76 304 115Q206 15 133 15Q89 15 53.5 55.0Q18 95 18 138Q18 200 51.5 285.5Q85 371 148.0 441.0Q211 511 282.0 511.0Q353 511 381 426Q432 638 437 761Q437 791 459 791ZM349 300Q349 354 330.5 391.0Q312 428 286 428Q243 428 198.0 375.0Q153 322 126.5 253.5Q100 185 100 135Q100 117 113.0 106.0Q126 95 144 95Q183 95 249.5 151.0Q316 207 346 283L349 295Z"/><path transform="translate(6.0,0) scale(0.01200,-0.01200)" d="M111 241Q97 197 97.0 162.5Q97 128 118.5 109.0Q140 90 189.5 90.0Q239 90 291.5 107.5Q344 125 349 125Q375 125 375 105Q375 78 314.0 46.5Q253 15 195 15Q117 15 68.0 61.5Q19 108 19.0 179.0Q19 250 57.0 327.5Q95 405 155.0 458.0Q215 511 274.0 511.0Q333 511 381.5 455.0Q430 399 430.0 345.5Q430 292 372.5 258.5Q315 225 242.5 225.0Q170 225 111 241ZM279 432Q242 432 202.0 393.5Q162 355 134 298Q174 289 225.0 289.0Q276 289 314.0 305.5Q352 322 352.0 349.0Q352 376 327.5 404.0Q303 432 279 432Z"/><path transform="translate(11.4,0) scale(0.01200,-0.01200)" d="M103 13Q90 13 75.0 32.0Q60 51 60.0 63.0Q60 75 70 110Q120 290 138 367Q95 357 79.0 357.0Q63 357 47.0 371.0Q31 385 31.0 402.0Q31 419 76 432Q134 446 156 450Q166 498 171 524Q195 662 236.0 723.0Q277 784 347 784Q397 784 429.0 744.5Q461 705 461.0 651.5Q461 598 433 598Q409 598 394 652Q389 672 377.0 689.0Q365 706 348.0 706.0Q331 706 317.0 690.5Q303 675 292 646Q263 565 252 498L244 463Q281 468 317.5 468.0Q354 468 370.5 460.0Q387 452 387 440Q387 421 354.0 411.0Q321 401 225 385Q154 97 128 42Q114 13 103 13Z"/><path transform="translate(15.9,0) scale(0.01200,-0.01200)" d="M111 241Q97 197 97.0 162.5Q97 128 118.5 109.0Q140 90 189.5 90.0Q239 90 291.5 107.5Q344 125 349 125Q375 125 375 105Q375 78 314.0 46.5Q253 15 195 15Q117 15 68.0 61.5Q19 108 19.0 179.0Q19 250 57.0 327.5Q95 405 155.0 458.0Q215 511 274.0 511.0Q333 511 381.5 455.0Q430 399 430.0 345.5Q430 292 372.5 258.5Q315 225 242.5 225.0Q170 225 111 241ZM279 432Q242 432 202.0 393.5Q162 355 134 298Q174 289 225.0 289.0Q276 289 314.0 305.5Q352 322 352.0 349.0Q352 376 327.5 404.0Q303 432 279 432Z"/><path transform="translate(21.3,0) scale(0.01200,-0.01200)" d="M492 383Q492 311 459 207Q399 15 351 15Q329 15 329 45Q329 66 350.5 130.5Q372 195 390.5 257.5Q409 320 409.0 351.5Q409 383 399.5 398.0Q390 413 380.5 413.0Q371 413 361.0 407.0Q351 401 338.5 387.0Q326 373 315.0 359.5Q304 346 287.5 321.0Q271 296 260.0 278.5Q249 261 228.0 228.0Q207 195 196.0 178.0Q185 161 167.0 132.0Q149 103 138.5 87.0Q128 71 115 52Q90 15 75.5 15.0Q61 15 42.0 37.5Q23 60 23 77Q23 82 30 104Q49 162 72.0 247.5Q95 333 97 442Q100 515 118 515Q140 515 162.0 492.0Q184 469 184.0 441.5Q184 414 167.5 335.5Q151 257 129 189Q225 352 285.5 431.5Q346 511 384.5 511.0Q423 511 457.5 470.0Q492 429 492 383Z"/><path transform="translate(27.7,0) scale(0.01200,-0.01200)" d="M459 791Q475 791 498.5 761.5Q522 732 522.0 706.0Q522 680 497.0 558.5Q472 437 439 307Q367 15 344 15Q330 15 313.5 32.5Q297 50 297.0 63.0Q297 76 304 115Q206 15 133 15Q89 15 53.5 55.0Q18 95 18 138Q18 200 51.5 285.5Q85 371 148.0 441.0Q211 511 282.0 511.0Q353 511 381 426Q432 638 437 761Q437 791 459 791ZM349 300Q349 354 330.5 391.0Q312 428 286 428Q243 428 198.0 375.0Q153 322 126.5 253.5Q100 185 100 135Q100 117 113.0 106.0Q126 95 144 95Q183 95 249.5 151.0Q316 207 346 283L349 295Z"/><path transform="translate(33.7,0) scale(0.01200,-0.01200)" d="M111 241Q97 197 97.0 162.5Q97 128 118.5 109.0Q140 90 189.5 90.0Q239 90 291.5 107.5Q344 125 349 125Q375 125 375 105Q375 78 314.0 46.5Q253 15 195 15Q117 15 68.0 61.5Q19 108 19.0 179.0Q19 250 57.0 327.5Q95 405 155.0 458.0Q215 511 274.0 511.0Q333 511 381.5 455.0Q430 399 430.0 345.5Q430 292 372.5 258.5Q315 225 242.5 225.0Q170 225 111 241ZM279 432Q242 432 202.0 393.5Q162 355 134 298Q174 289 225.0 289.0Q276 289 314.0 305.5Q352 322 352.0 349.0Q352 376 327.5 404.0Q303 432 279 432Z"/><path transform="translate(39.1,0) scale(0.01200,-0.01200)" d="M459 791Q475 791 498.5 761.5Q522 732 522.0 706.0Q522 680 497.0 558.5Q472 437 439 307Q367 15 344 15Q330 15 313.5 32.5Q297 50 297.0 63.0Q297 76 304 115Q206 15 133 15Q89 15 53.5 55.0Q18 95 18 138Q18 200 51.5 285.5Q85 371 148.0 441.0Q211 511 282.0 511.0Q353 511 381 426Q432 638 437 761Q437 791 459 791ZM349 300Q349 354 330.5 391.0Q312 428 286 428Q243 428 198.0 375.0Q153 322 126.5 253.5Q100 185 100 135Q100 117 113.0 106.0Q126 95 144 95Q183 95 249.5 151.0Q316 207 346 283L349 295Z"/></g><g fill="#2a2620" transform="translate(196.0,150)"><path transform="translate(0.0,0) scale(0.01400,-0.01400)" d="M312 511Q353 511 384.0 474.0Q415 437 415 409Q415 401 410.0 395.5Q405 390 395.5 390.0Q386 390 362.0 408.0Q338 426 319 426Q265 426 193.0 331.0Q121 236 121 165Q121 134 140.5 116.0Q160 98 203.5 98.0Q247 98 283.5 108.5Q320 119 340.0 129.5Q360 140 371 140Q390 140 390 121Q390 92 320.5 53.5Q251 15 192.5 15.0Q134 15 83.0 60.5Q32 106 32.0 168.5Q32 231 74.0 313.0Q116 395 182.5 453.0Q249 511 312 511Z"/><path transform="translate(6.2,0) scale(0.01400,-0.01400)" d="M228 707Q228 519 150 219Q100 15 80 15Q66 15 47.5 37.0Q29 59 29.0 71.0Q29 83 58.0 195.0Q87 307 116.0 470.5Q145 634 145 765Q145 779 149.0 785.0Q153 791 166.0 791.0Q179 791 203.5 762.5Q228 734 228 707Z"/><path transform="translate(9.7,0) scale(0.01400,-0.01400)" d="M393 309Q405 294 405 283Q405 255 392.5 187.0Q380 119 377.5 98.0Q375 77 373.0 64.5Q371 52 368 40Q364 15 350 15Q332 15 320.5 46.5Q309 78 307 128Q218 15 142 15Q96 15 51.5 54.5Q7 94 7 136Q7 196 51.0 284.5Q95 373 165.0 442.0Q235 511 297 511Q342 511 380.0 465.5Q418 420 418.0 383.5Q418 347 393 309ZM343 335Q343 428 306 428Q267 428 215.0 372.5Q163 317 127.0 247.0Q91 177 91 136Q91 119 105.0 108.5Q119 98 138 98Q185 98 244.0 161.5Q303 225 326 316Q329 331 343 334Z"/><path transform="translate(16.2,0) scale(0.01400,-0.01400)" d="M270 601Q270 591 261.0 583.0Q252 575 242 575Q218 575 188.5 604.0Q159 633 159.0 653.0Q159 673 175.0 691.0Q191 709 207.5 709.0Q224 709 247.0 668.5Q270 628 270 601ZM154 511Q173 511 190.0 488.0Q207 465 207.0 443.0Q207 421 178.0 311.5Q149 202 105 66Q88 16 62 16Q48 16 38.0 27.5Q28 39 28.0 53.5Q28 68 35.5 99.5Q43 131 57.5 183.5Q72 236 80.5 269.0Q89 302 98.0 343.5Q107 385 112.5 410.5Q118 436 125 462Q139 511 154 511Z"/><path transform="translate(19.6,0) scale(0.01400,-0.01400)" d="M678 511Q708 511 731.5 469.5Q755 428 755.0 375.5Q755 323 736.5 239.0Q718 155 687.0 85.0Q656 15 626 15Q605 15 605.0 42.5Q605 70 639.5 177.5Q674 285 674.0 348.5Q674 412 654 412Q629 412 596.5 368.0Q564 324 527.0 262.0Q490 200 487.0 195.5Q484 191 479.5 183.0Q475 175 469.5 166.0Q464 157 441.5 112.0Q419 67 402.0 41.5Q385 16 372.5 16.0Q360 16 345.0 32.0Q330 48 330.0 62.0Q330 76 348 120Q400 250 400 362Q400 383 391.0 397.5Q382 412 371.0 412.0Q360 412 348.0 402.5Q336 393 318.0 368.5Q300 344 286.0 322.0Q272 300 243.5 253.5Q215 207 200.5 184.5Q186 162 167.0 132.5Q148 103 137.5 87.0Q127 71 114 52Q87 15 74.5 15.0Q62 15 42.0 37.5Q22 60 22.0 71.5Q22 83 26.0 100.0Q30 117 34.5 133.0Q39 149 48.5 180.5Q58 212 70.5 254.5Q83 297 89.5 371.5Q96 446 99.0 480.5Q102 515 116 515Q138 515 159.5 492.0Q181 469 181 446Q181 358 115 156Q227 366 256.0 405.0Q285 444 306 468Q345 511 385 511Q409 511 442.5 469.5Q476 428 476.0 386.0Q476 344 464 282Q582 511 678 511Z"/><path transform="translate(30.7,0) scale(0.01400,-0.01400)" d="M317 511Q351 511 381.0 473.5Q411 436 411 408Q411 391 395 391Q384 391 361.0 408.5Q338 426 314.0 426.0Q290 426 238.5 398.0Q187 370 187 339Q187 316 279 260Q314 238 342.5 203.5Q371 169 371.0 129.5Q371 90 316.5 52.5Q262 15 189.5 15.0Q117 15 61.5 50.0Q6 85 6 116Q6 129 12.5 136.5Q19 144 29.0 144.0Q39 144 57 131Q111 92 169.5 92.0Q228 92 254.0 105.5Q280 119 280.0 141.5Q280 164 251.0 189.5Q222 215 187.5 235.0Q153 255 124.0 284.0Q95 313 95 343Q95 396 178.5 453.5Q262 511 317 511Z"/><path transform="translate(42.3,0) scale(0.01400,-0.01400)" d="M393 309Q405 294 405 283Q405 255 392.5 187.0Q380 119 377.5 98.0Q375 77 373.0 64.5Q371 52 368 40Q364 15 350 15Q332 15 320.5 46.5Q309 78 307 128Q218 15 142 15Q96 15 51.5 54.5Q7 94 7 136Q7 196 51.0 284.5Q95 373 165.0 442.0Q235 511 297 511Q342 511 380.0 465.5Q418 420 418.0 383.5Q418 347 393 309ZM343 335Q343 428 306 428Q267 428 215.0 372.5Q163 317 127.0 247.0Q91 177 91 136Q91 119 105.0 108.5Q119 98 138 98Q185 98 244.0 161.5Q303 225 326 316Q329 331 343 334Z"/><path transform="translate(48.8,0) scale(0.01400,-0.01400)" d="M358 514Q401 514 432.5 459.0Q464 404 464.0 345.5Q464 287 430.0 228.5Q396 170 346.0 124.0Q296 78 235.5 47.5Q175 17 124 17Q104 17 86 22Q82 5 72.0 -39.0Q62 -83 55.0 -112.0Q48 -141 39 -174Q21 -242 7.0 -242.0Q-7 -242 -22.5 -220.5Q-38 -199 -38.0 -182.0Q-38 -165 -6 -36Q90 353 90 488Q90 518 112 518Q130 518 155.5 491.5Q181 465 181 433Q181 417 177 398Q266 514 358 514ZM114 95Q167 95 228.5 131.0Q290 167 333.5 226.5Q377 286 377 345Q377 428 338.0 428.0Q299 428 232.5 361.0Q166 294 127 187L104 95Z"/><path transform="translate(55.5,0) scale(0.01400,-0.01400)" d="M358 514Q401 514 432.5 459.0Q464 404 464.0 345.5Q464 287 430.0 228.5Q396 170 346.0 124.0Q296 78 235.5 47.5Q175 17 124 17Q104 17 86 22Q82 5 72.0 -39.0Q62 -83 55.0 -112.0Q48 -141 39 -174Q21 -242 7.0 -242.0Q-7 -242 -22.5 -220.5Q-38 -199 -38.0 -182.0Q-38 -165 -6 -36Q90 353 90 488Q90 518 112 518Q130 518 155.5 491.5Q181 465 181 433Q181 417 177 398Q266 514 358 514ZM114 95Q167 95 228.5 131.0Q290 167 333.5 226.5Q377 286 377 345Q377 428 338.0 428.0Q299 428 232.5 361.0Q166 294 127 187L104 95Z"/><path transform="translate(62.2,0) scale(0.01400,-0.01400)" d="M91 389 88 464Q88 511 110 511Q129 511 146.5 486.5Q164 462 164.0 428.5Q164 395 162 378Q249 510 327 510Q376 510 376 486Q376 474 365.0 464.0Q354 454 330 441Q277 418 240.5 370.5Q204 323 181.0 263.0Q158 203 144.5 162.0Q131 121 124.0 98.0Q117 75 108 53Q92 13 71 13Q54 13 43.5 32.5Q33 52 33.0 70.5Q33 89 50 144Q91 270 91 389Z"/><path transform="translate(66.9,0) scale(0.01400,-0.01400)" d="M333 341Q333 375 322.0 405.5Q311 436 290 450Q221 431 171.5 343.5Q122 256 122.0 179.0Q122 102 160 83Q232 97 282.5 181.5Q333 266 333 341ZM155 15Q104 15 70.0 62.0Q36 109 36.0 181.5Q36 254 70.5 332.0Q105 410 161.5 460.5Q218 511 277.5 511.0Q337 511 377.0 460.5Q417 410 417.0 337.5Q417 265 382.0 189.5Q347 114 285.5 64.5Q224 15 155 15Z"/><path transform="translate(73.2,0) scale(0.01400,-0.01400)" d="M376 511Q393 511 409.0 498.5Q425 486 425 471Q425 444 352.5 284.0Q280 124 249.5 68.5Q219 13 196 13Q183 13 164.0 32.0Q145 51 136 73Q109 136 78.0 276.0Q47 416 47 481Q47 511 65 511Q87 511 110.0 492.5Q133 474 142 446Q145 430 150 366Q164 208 198 123Q225 181 267.0 287.5Q309 394 335.5 452.5Q362 511 376 511Z"/><path transform="translate(79.1,0) scale(0.01400,-0.01400)" d="M111 241Q97 197 97.0 162.5Q97 128 118.5 109.0Q140 90 189.5 90.0Q239 90 291.5 107.5Q344 125 349 125Q375 125 375 105Q375 78 314.0 46.5Q253 15 195 15Q117 15 68.0 61.5Q19 108 19.0 179.0Q19 250 57.0 327.5Q95 405 155.0 458.0Q215 511 274.0 511.0Q333 511 381.5 455.0Q430 399 430.0 345.5Q430 292 372.5 258.5Q315 225 242.5 225.0Q170 225 111 241ZM279 432Q242 432 202.0 393.5Q162 355 134 298Q174 289 225.0 289.0Q276 289 314.0 305.5Q352 322 352.0 349.0Q352 376 327.5 404.0Q303 432 279 432Z"/><path transform="translate(85.4,0) scale(0.01400,-0.01400)" d="M459 791Q475 791 498.5 761.5Q522 732 522.0 706.0Q522 680 497.0 558.5Q472 437 439 307Q367 15 344 15Q330 15 313.5 32.5Q297 50 297.0 63.0Q297 76 304 115Q206 15 133 15Q89 15 53.5 55.0Q18 95 18 138Q18 200 51.5 285.5Q85 371 148.0 441.0Q211 511 282.0 511.0Q353 511 381 426Q432 638 437 761Q437 791 459 791ZM349 300Q349 354 330.5 391.0Q312 428 286 428Q243 428 198.0 375.0Q153 322 126.5 253.5Q100 185 100 135Q100 117 113.0 106.0Q126 95 144 95Q183 95 249.5 151.0Q316 207 346 283L349 295Z"/><path transform="translate(92.4,0) scale(0.01400,-0.01400)" d="M174 26Q174 -37 120.0 -106.5Q66 -176 27 -176Q7 -176 7 -162Q7 -151 28 -126Q91 -51 91 -1Q91 15 78.5 25.5Q66 36 53.0 45.0Q40 54 40.0 67.5Q40 81 57.0 101.5Q74 122 93 122Q125 122 149.5 92.5Q174 63 174 26Z"/><path transform="translate(101.2,0) scale(0.01400,-0.01400)" d="M270 601Q270 591 261.0 583.0Q252 575 242 575Q218 575 188.5 604.0Q159 633 159.0 653.0Q159 673 175.0 691.0Q191 709 207.5 709.0Q224 709 247.0 668.5Q270 628 270 601ZM154 511Q173 511 190.0 488.0Q207 465 207.0 443.0Q207 421 178.0 311.5Q149 202 105 66Q88 16 62 16Q48 16 38.0 27.5Q28 39 28.0 53.5Q28 68 35.5 99.5Q43 131 57.5 183.5Q72 236 80.5 269.0Q89 302 98.0 343.5Q107 385 112.5 410.5Q118 436 125 462Q139 511 154 511Z"/><path transform="translate(104.5,0) scale(0.01400,-0.01400)" d="M492 383Q492 311 459 207Q399 15 351 15Q329 15 329 45Q329 66 350.5 130.5Q372 195 390.5 257.5Q409 320 409.0 351.5Q409 383 399.5 398.0Q390 413 380.5 413.0Q371 413 361.0 407.0Q351 401 338.5 387.0Q326 373 315.0 359.5Q304 346 287.5 321.0Q271 296 260.0 278.5Q249 261 228.0 228.0Q207 195 196.0 178.0Q185 161 167.0 132.0Q149 103 138.5 87.0Q128 71 115 52Q90 15 75.5 15.0Q61 15 42.0 37.5Q23 60 23 77Q23 82 30 104Q49 162 72.0 247.5Q95 333 97 442Q100 515 118 515Q140 515 162.0 492.0Q184 469 184.0 441.5Q184 414 167.5 335.5Q151 257 129 189Q225 352 285.5 431.5Q346 511 384.5 511.0Q423 511 457.5 470.0Q492 429 492 383Z"/><path transform="translate(112.0,0) scale(0.01400,-0.01400)" d="M422 328Q422 312 389.5 302.0Q357 292 232.5 267.0Q108 242 96.5 242.0Q85 242 69.0 259.0Q53 276 53 290Q53 312 166.0 332.5Q279 353 362 353Q422 353 422 328Z"/><path transform="translate(118.4,0) scale(0.01400,-0.01400)" d="M74 15Q60 15 41.0 36.5Q22 58 22.0 77.0Q22 96 53.5 207.0Q85 318 116.5 474.5Q148 631 148 761Q148 791 170 791Q186 791 209.0 761.5Q232 732 232 704Q232 581 178 353Q297 514 394 514Q441 514 473.5 468.0Q506 422 506.0 358.5Q506 295 469.5 213.0Q433 131 371.0 72.5Q309 14 241.0 14.0Q173 14 107 83L106 82Q84 15 74 15ZM233 92Q298 92 360.5 180.5Q423 269 423 367Q423 426 387 426Q329 426 257.5 345.0Q186 264 134 152Q181 92 233 92Z"/><path transform="translate(125.8,0) scale(0.01400,-0.01400)" d="M333 341Q333 375 322.0 405.5Q311 436 290 450Q221 431 171.5 343.5Q122 256 122.0 179.0Q122 102 160 83Q232 97 282.5 181.5Q333 266 333 341ZM155 15Q104 15 70.0 62.0Q36 109 36.0 181.5Q36 254 70.5 332.0Q105 410 161.5 460.5Q218 511 277.5 511.0Q337 511 377.0 460.5Q417 410 417.0 337.5Q417 265 382.0 189.5Q347 114 285.5 64.5Q224 15 155 15Z"/><path transform="translate(132.1,0) scale(0.01400,-0.01400)" d="M463 435Q463 422 419.0 281.0Q375 140 351 57Q339 15 317 15Q304 15 295.0 26.0Q286 37 286.0 66.0Q286 95 309 171Q267 103 218.0 59.0Q169 15 128.5 15.0Q88 15 52.0 53.0Q16 91 16 131Q16 226 71.5 368.5Q127 511 164 511Q182 511 195.5 494.5Q209 478 209 457Q209 448 182.0 392.5Q155 337 128.0 262.5Q101 188 101 132Q101 116 111.0 105.5Q121 95 135 95Q173 95 225.5 162.0Q278 229 321.0 318.0Q364 407 385 483Q389 499 393.0 505.0Q397 511 410.5 511.0Q424 511 443.5 485.0Q463 459 463 435Z"/><path transform="translate(138.9,0) scale(0.01400,-0.01400)" d="M492 383Q492 311 459 207Q399 15 351 15Q329 15 329 45Q329 66 350.5 130.5Q372 195 390.5 257.5Q409 320 409.0 351.5Q409 383 399.5 398.0Q390 413 380.5 413.0Q371 413 361.0 407.0Q351 401 338.5 387.0Q326 373 315.0 359.5Q304 346 287.5 321.0Q271 296 260.0 278.5Q249 261 228.0 228.0Q207 195 196.0 178.0Q185 161 167.0 132.0Q149 103 138.5 87.0Q128 71 115 52Q90 15 75.5 15.0Q61 15 42.0 37.5Q23 60 23 77Q23 82 30 104Q49 162 72.0 247.5Q95 333 97 442Q100 515 118 515Q140 515 162.0 492.0Q184 469 184.0 441.5Q184 414 167.5 335.5Q151 257 129 189Q225 352 285.5 431.5Q346 511 384.5 511.0Q423 511 457.5 470.0Q492 429 492 383Z"/><path transform="translate(146.3,0) scale(0.01400,-0.01400)" d="M459 791Q475 791 498.5 761.5Q522 732 522.0 706.0Q522 680 497.0 558.5Q472 437 439 307Q367 15 344 15Q330 15 313.5 32.5Q297 50 297.0 63.0Q297 76 304 115Q206 15 133 15Q89 15 53.5 55.0Q18 95 18 138Q18 200 51.5 285.5Q85 371 148.0 441.0Q211 511 282.0 511.0Q353 511 381 426Q432 638 437 761Q437 791 459 791ZM349 300Q349 354 330.5 391.0Q312 428 286 428Q243 428 198.0 375.0Q153 322 126.5 253.5Q100 185 100 135Q100 117 113.0 106.0Q126 95 144 95Q183 95 249.5 151.0Q316 207 346 283L349 295Z"/><path transform="translate(153.3,0) scale(0.01400,-0.01400)" d="M393 309Q405 294 405 283Q405 255 392.5 187.0Q380 119 377.5 98.0Q375 77 373.0 64.5Q371 52 368 40Q364 15 350 15Q332 15 320.5 46.5Q309 78 307 128Q218 15 142 15Q96 15 51.5 54.5Q7 94 7 136Q7 196 51.0 284.5Q95 373 165.0 442.0Q235 511 297 511Q342 511 380.0 465.5Q418 420 418.0 383.5Q418 347 393 309ZM343 335Q343 428 306 428Q267 428 215.0 372.5Q163 317 127.0 247.0Q91 177 91 136Q91 119 105.0 108.5Q119 98 138 98Q185 98 244.0 161.5Q303 225 326 316Q329 331 343 334Z"/><path transform="translate(159.9,0) scale(0.01400,-0.01400)" d="M91 389 88 464Q88 511 110 511Q129 511 146.5 486.5Q164 462 164.0 428.5Q164 395 162 378Q249 510 327 510Q376 510 376 486Q376 474 365.0 464.0Q354 454 330 441Q277 418 240.5 370.5Q204 323 181.0 263.0Q158 203 144.5 162.0Q131 121 124.0 98.0Q117 75 108 53Q92 13 71 13Q54 13 43.5 32.5Q33 52 33.0 70.5Q33 89 50 144Q91 270 91 389Z"/><path transform="translate(164.5,0) scale(0.01400,-0.01400)" d="M475 435Q475 415 434.0 299.0Q393 183 378.5 141.5Q364 100 339.5 31.5Q315 -37 292 -102Q242 -245 142 -245Q85 -245 33.0 -210.5Q-19 -176 -19 -139Q-19 -125 -6.5 -108.0Q6 -91 15.0 -91.0Q24 -91 44 -113Q102 -179 143 -179Q174 -179 199.0 -124.5Q224 -70 246.5 -1.5Q269 67 271.5 74.0Q274 81 277.5 92.0Q281 103 284 112Q213 15 144 15Q102 15 66.5 54.0Q31 93 31.0 146.0Q31 199 57.0 289.0Q83 379 118.0 445.0Q153 511 175 511Q193 511 208.5 494.5Q224 478 224.0 461.0Q224 444 198 390Q117 224 117 132Q117 116 127.0 105.5Q137 95 151 95Q187 95 237.0 159.0Q287 223 329 311Q364 385 402 500Q406 511 422.0 511.0Q438 511 456.5 487.5Q475 464 475 435Z"/></g><g fill="#8d8470" transform="translate(196.0,172)"><path transform="translate(0.0,0) scale(0.01200,-0.01200)" d="M333 341Q333 375 322.0 405.5Q311 436 290 450Q221 431 171.5 343.5Q122 256 122.0 179.0Q122 102 160 83Q232 97 282.5 181.5Q333 266 333 341ZM155 15Q104 15 70.0 62.0Q36 109 36.0 181.5Q36 254 70.5 332.0Q105 410 161.5 460.5Q218 511 277.5 511.0Q337 511 377.0 460.5Q417 410 417.0 337.5Q417 265 382.0 189.5Q347 114 285.5 64.5Q224 15 155 15Z"/><path transform="translate(5.4,0) scale(0.01200,-0.01200)" d="M463 435Q463 422 419.0 281.0Q375 140 351 57Q339 15 317 15Q304 15 295.0 26.0Q286 37 286.0 66.0Q286 95 309 171Q267 103 218.0 59.0Q169 15 128.5 15.0Q88 15 52.0 53.0Q16 91 16 131Q16 226 71.5 368.5Q127 511 164 511Q182 511 195.5 494.5Q209 478 209 457Q209 448 182.0 392.5Q155 337 128.0 262.5Q101 188 101 132Q101 116 111.0 105.5Q121 95 135 95Q173 95 225.5 162.0Q278 229 321.0 318.0Q364 407 385 483Q389 499 393.0 505.0Q397 511 410.5 511.0Q424 511 443.5 485.0Q463 459 463 435Z"/><path transform="translate(11.2,0) scale(0.01200,-0.01200)" d="M143 115Q143 96 165 96Q203 96 257.5 117.5Q312 139 318 139Q336 139 336 120Q336 91 276.5 53.0Q217 15 168.5 15.0Q120 15 88.0 41.5Q56 68 56.0 96.0Q56 124 68.0 167.5Q80 211 102.5 282.5Q125 354 138 401Q91 390 75.0 390.0Q59 390 43.5 406.5Q28 423 28 438Q28 462 158 484Q176 567 176 631Q176 661 196 661Q213 661 238.0 639.5Q263 618 263.0 591.0Q263 564 246 496Q303 501 337 501Q397 501 397 475Q397 460 364.5 450.0Q332 440 228 419Q207 340 175.0 238.5Q143 137 143 115Z"/><path transform="translate(15.9,0) scale(0.01200,-0.01200)" d="M312 511Q353 511 384.0 474.0Q415 437 415 409Q415 401 410.0 395.5Q405 390 395.5 390.0Q386 390 362.0 408.0Q338 426 319 426Q265 426 193.0 331.0Q121 236 121 165Q121 134 140.5 116.0Q160 98 203.5 98.0Q247 98 283.5 108.5Q320 119 340.0 129.5Q360 140 371 140Q390 140 390 121Q390 92 320.5 53.5Q251 15 192.5 15.0Q134 15 83.0 60.5Q32 106 32.0 168.5Q32 231 74.0 313.0Q116 395 182.5 453.0Q249 511 312 511Z"/><path transform="translate(21.2,0) scale(0.01200,-0.01200)" d="M333 341Q333 375 322.0 405.5Q311 436 290 450Q221 431 171.5 343.5Q122 256 122.0 179.0Q122 102 160 83Q232 97 282.5 181.5Q333 266 333 341ZM155 15Q104 15 70.0 62.0Q36 109 36.0 181.5Q36 254 70.5 332.0Q105 410 161.5 460.5Q218 511 277.5 511.0Q337 511 377.0 460.5Q417 410 417.0 337.5Q417 265 382.0 189.5Q347 114 285.5 64.5Q224 15 155 15Z"/><path transform="translate(26.6,0) scale(0.01200,-0.01200)" d="M678 511Q708 511 731.5 469.5Q755 428 755.0 375.5Q755 323 736.5 239.0Q718 155 687.0 85.0Q656 15 626 15Q605 15 605.0 42.5Q605 70 639.5 177.5Q674 285 674.0 348.5Q674 412 654 412Q629 412 596.5 368.0Q564 324 527.0 262.0Q490 200 487.0 195.5Q484 191 479.5 183.0Q475 175 469.5 166.0Q464 157 441.5 112.0Q419 67 402.0 41.5Q385 16 372.5 16.0Q360 16 345.0 32.0Q330 48 330.0 62.0Q330 76 348 120Q400 250 400 362Q400 383 391.0 397.5Q382 412 371.0 412.0Q360 412 348.0 402.5Q336 393 318.0 368.5Q300 344 286.0 322.0Q272 300 243.5 253.5Q215 207 200.5 184.5Q186 162 167.0 132.5Q148 103 137.5 87.0Q127 71 114 52Q87 15 74.5 15.0Q62 15 42.0 37.5Q22 60 22.0 71.5Q22 83 26.0 100.0Q30 117 34.5 133.0Q39 149 48.5 180.5Q58 212 70.5 254.5Q83 297 89.5 371.5Q96 446 99.0 480.5Q102 515 116 515Q138 515 159.5 492.0Q181 469 181 446Q181 358 115 156Q227 366 256.0 405.0Q285 444 306 468Q345 511 385 511Q409 511 442.5 469.5Q476 428 476.0 386.0Q476 344 464 282Q582 511 678 511Z"/><path transform="translate(36.2,0) scale(0.01200,-0.01200)" d="M111 241Q97 197 97.0 162.5Q97 128 118.5 109.0Q140 90 189.5 90.0Q239 90 291.5 107.5Q344 125 349 125Q375 125 375 105Q375 78 314.0 46.5Q253 15 195 15Q117 15 68.0 61.5Q19 108 19.0 179.0Q19 250 57.0 327.5Q95 405 155.0 458.0Q215 511 274.0 511.0Q333 511 381.5 455.0Q430 399 430.0 345.5Q430 292 372.5 258.5Q315 225 242.5 225.0Q170 225 111 241ZM279 432Q242 432 202.0 393.5Q162 355 134 298Q174 289 225.0 289.0Q276 289 314.0 305.5Q352 322 352.0 349.0Q352 376 327.5 404.0Q303 432 279 432Z"/></g><g fill="#4f7a3f" transform="translate(196.0,190)"><path transform="translate(0.0,0) scale(0.01400,-0.01400)" d="M358 514Q401 514 432.5 459.0Q464 404 464.0 345.5Q464 287 430.0 228.5Q396 170 346.0 124.0Q296 78 235.5 47.5Q175 17 124 17Q104 17 86 22Q82 5 72.0 -39.0Q62 -83 55.0 -112.0Q48 -141 39 -174Q21 -242 7.0 -242.0Q-7 -242 -22.5 -220.5Q-38 -199 -38.0 -182.0Q-38 -165 -6 -36Q90 353 90 488Q90 518 112 518Q130 518 155.5 491.5Q181 465 181 433Q181 417 177 398Q266 514 358 514ZM114 95Q167 95 228.5 131.0Q290 167 333.5 226.5Q377 286 377 345Q377 428 338.0 428.0Q299 428 232.5 361.0Q166 294 127 187L104 95Z"/><path transform="translate(6.7,0) scale(0.01400,-0.01400)" d="M463 435Q463 422 419.0 281.0Q375 140 351 57Q339 15 317 15Q304 15 295.0 26.0Q286 37 286.0 66.0Q286 95 309 171Q267 103 218.0 59.0Q169 15 128.5 15.0Q88 15 52.0 53.0Q16 91 16 131Q16 226 71.5 368.5Q127 511 164 511Q182 511 195.5 494.5Q209 478 209 457Q209 448 182.0 392.5Q155 337 128.0 262.5Q101 188 101 132Q101 116 111.0 105.5Q121 95 135 95Q173 95 225.5 162.0Q278 229 321.0 318.0Q364 407 385 483Q389 499 393.0 505.0Q397 511 410.5 511.0Q424 511 443.5 485.0Q463 459 463 435Z"/><path transform="translate(13.4,0) scale(0.01400,-0.01400)" d="M74 15Q60 15 41.0 36.5Q22 58 22.0 77.0Q22 96 53.5 207.0Q85 318 116.5 474.5Q148 631 148 761Q148 791 170 791Q186 791 209.0 761.5Q232 732 232 704Q232 581 178 353Q297 514 394 514Q441 514 473.5 468.0Q506 422 506.0 358.5Q506 295 469.5 213.0Q433 131 371.0 72.5Q309 14 241.0 14.0Q173 14 107 83L106 82Q84 15 74 15ZM233 92Q298 92 360.5 180.5Q423 269 423 367Q423 426 387 426Q329 426 257.5 345.0Q186 264 134 152Q181 92 233 92Z"/><path transform="translate(20.8,0) scale(0.01400,-0.01400)" d="M228 707Q228 519 150 219Q100 15 80 15Q66 15 47.5 37.0Q29 59 29.0 71.0Q29 83 58.0 195.0Q87 307 116.0 470.5Q145 634 145 765Q145 779 149.0 785.0Q153 791 166.0 791.0Q179 791 203.5 762.5Q228 734 228 707Z"/><path transform="translate(24.2,0) scale(0.01400,-0.01400)" d="M270 601Q270 591 261.0 583.0Q252 575 242 575Q218 575 188.5 604.0Q159 633 159.0 653.0Q159 673 175.0 691.0Q191 709 207.5 709.0Q224 709 247.0 668.5Q270 628 270 601ZM154 511Q173 511 190.0 488.0Q207 465 207.0 443.0Q207 421 178.0 311.5Q149 202 105 66Q88 16 62 16Q48 16 38.0 27.5Q28 39 28.0 53.5Q28 68 35.5 99.5Q43 131 57.5 183.5Q72 236 80.5 269.0Q89 302 98.0 343.5Q107 385 112.5 410.5Q118 436 125 462Q139 511 154 511Z"/><path transform="translate(27.5,0) scale(0.01400,-0.01400)" d="M317 511Q351 511 381.0 473.5Q411 436 411 408Q411 391 395 391Q384 391 361.0 408.5Q338 426 314.0 426.0Q290 426 238.5 398.0Q187 370 187 339Q187 316 279 260Q314 238 342.5 203.5Q371 169 371.0 129.5Q371 90 316.5 52.5Q262 15 189.5 15.0Q117 15 61.5 50.0Q6 85 6 116Q6 129 12.5 136.5Q19 144 29.0 144.0Q39 144 57 131Q111 92 169.5 92.0Q228 92 254.0 105.5Q280 119 280.0 141.5Q280 164 251.0 189.5Q222 215 187.5 235.0Q153 255 124.0 284.0Q95 313 95 343Q95 396 178.5 453.5Q262 511 317 511Z"/><path transform="translate(33.5,0) scale(0.01400,-0.01400)" d="M149 752Q149 791 173 791Q192 791 213.5 761.0Q235 731 235 703Q235 638 202.5 481.5Q170 325 118 169Q218 350 285.5 430.5Q353 511 401 511Q427 511 461.5 466.0Q496 421 496.0 376.0Q496 331 471 241Q409 15 354 15Q332 15 332.0 45.0Q332 75 356 146Q409 301 409 355Q409 373 400.0 385.0Q391 397 378.0 397.0Q365 397 346.0 383.0Q327 369 300 334Q266 289 229.5 233.0Q193 177 185.5 165.5Q178 154 159.5 124.0Q141 94 132.0 79.5Q123 65 110 48Q87 15 75.0 15.0Q63 15 43.0 37.5Q23 60 23.0 75.5Q23 91 34 134Q84 326 97 397Q149 657 149 752Z"/><path transform="translate(41.0,0) scale(0.01400,-0.01400)" d="M422 328Q422 312 389.5 302.0Q357 292 232.5 267.0Q108 242 96.5 242.0Q85 242 69.0 259.0Q53 276 53 290Q53 312 166.0 332.5Q279 353 362 353Q422 353 422 328Z"/><path transform="translate(47.4,0) scale(0.01400,-0.01400)" d="M91 389 88 464Q88 511 110 511Q129 511 146.5 486.5Q164 462 164.0 428.5Q164 395 162 378Q249 510 327 510Q376 510 376 486Q376 474 365.0 464.0Q354 454 330 441Q277 418 240.5 370.5Q204 323 181.0 263.0Q158 203 144.5 162.0Q131 121 124.0 98.0Q117 75 108 53Q92 13 71 13Q54 13 43.5 32.5Q33 52 33.0 70.5Q33 89 50 144Q91 270 91 389Z"/><path transform="translate(52.1,0) scale(0.01400,-0.01400)" d="M111 241Q97 197 97.0 162.5Q97 128 118.5 109.0Q140 90 189.5 90.0Q239 90 291.5 107.5Q344 125 349 125Q375 125 375 105Q375 78 314.0 46.5Q253 15 195 15Q117 15 68.0 61.5Q19 108 19.0 179.0Q19 250 57.0 327.5Q95 405 155.0 458.0Q215 511 274.0 511.0Q333 511 381.5 455.0Q430 399 430.0 345.5Q430 292 372.5 258.5Q315 225 242.5 225.0Q170 225 111 241ZM279 432Q242 432 202.0 393.5Q162 355 134 298Q174 289 225.0 289.0Q276 289 314.0 305.5Q352 322 352.0 349.0Q352 376 327.5 404.0Q303 432 279 432Z"/><path transform="translate(58.4,0) scale(0.01400,-0.01400)" d="M393 309Q405 294 405 283Q405 255 392.5 187.0Q380 119 377.5 98.0Q375 77 373.0 64.5Q371 52 368 40Q364 15 350 15Q332 15 320.5 46.5Q309 78 307 128Q218 15 142 15Q96 15 51.5 54.5Q7 94 7 136Q7 196 51.0 284.5Q95 373 165.0 442.0Q235 511 297 511Q342 511 380.0 465.5Q418 420 418.0 383.5Q418 347 393 309ZM343 335Q343 428 306 428Q267 428 215.0 372.5Q163 317 127.0 247.0Q91 177 91 136Q91 119 105.0 108.5Q119 98 138 98Q185 98 244.0 161.5Q303 225 326 316Q329 331 343 334Z"/><path transform="translate(64.9,0) scale(0.01400,-0.01400)" d="M459 791Q475 791 498.5 761.5Q522 732 522.0 706.0Q522 680 497.0 558.5Q472 437 439 307Q367 15 344 15Q330 15 313.5 32.5Q297 50 297.0 63.0Q297 76 304 115Q206 15 133 15Q89 15 53.5 55.0Q18 95 18 138Q18 200 51.5 285.5Q85 371 148.0 441.0Q211 511 282.0 511.0Q353 511 381 426Q432 638 437 761Q437 791 459 791ZM349 300Q349 354 330.5 391.0Q312 428 286 428Q243 428 198.0 375.0Q153 322 126.5 253.5Q100 185 100 135Q100 117 113.0 106.0Q126 95 144 95Q183 95 249.5 151.0Q316 207 346 283L349 295Z"/><path transform="translate(71.9,0) scale(0.01400,-0.01400)" d="M475 435Q475 415 434.0 299.0Q393 183 378.5 141.5Q364 100 339.5 31.5Q315 -37 292 -102Q242 -245 142 -245Q85 -245 33.0 -210.5Q-19 -176 -19 -139Q-19 -125 -6.5 -108.0Q6 -91 15.0 -91.0Q24 -91 44 -113Q102 -179 143 -179Q174 -179 199.0 -124.5Q224 -70 246.5 -1.5Q269 67 271.5 74.0Q274 81 277.5 92.0Q281 103 284 112Q213 15 144 15Q102 15 66.5 54.0Q31 93 31.0 146.0Q31 199 57.0 289.0Q83 379 118.0 445.0Q153 511 175 511Q193 511 208.5 494.5Q224 478 224.0 461.0Q224 444 198 390Q117 224 117 132Q117 116 127.0 105.5Q137 95 151 95Q187 95 237.0 159.0Q287 223 329 311Q364 385 402 500Q406 511 422.0 511.0Q438 511 456.5 487.5Q475 464 475 435Z"/><path transform="translate(78.5,0) scale(0.01400,-0.01400)" d="M174 26Q174 -37 120.0 -106.5Q66 -176 27 -176Q7 -176 7 -162Q7 -151 28 -126Q91 -51 91 -1Q91 15 78.5 25.5Q66 36 53.0 45.0Q40 54 40.0 67.5Q40 81 57.0 101.5Q74 122 93 122Q125 122 149.5 92.5Q174 63 174 26Z"/><path transform="translate(87.3,0) scale(0.01400,-0.01400)" d="M333 341Q333 375 322.0 405.5Q311 436 290 450Q221 431 171.5 343.5Q122 256 122.0 179.0Q122 102 160 83Q232 97 282.5 181.5Q333 266 333 341ZM155 15Q104 15 70.0 62.0Q36 109 36.0 181.5Q36 254 70.5 332.0Q105 410 161.5 460.5Q218 511 277.5 511.0Q337 511 377.0 460.5Q417 410 417.0 337.5Q417 265 382.0 189.5Q347 114 285.5 64.5Q224 15 155 15Z"/><path transform="translate(93.6,0) scale(0.01400,-0.01400)" d="M492 383Q492 311 459 207Q399 15 351 15Q329 15 329 45Q329 66 350.5 130.5Q372 195 390.5 257.5Q409 320 409.0 351.5Q409 383 399.5 398.0Q390 413 380.5 413.0Q371 413 361.0 407.0Q351 401 338.5 387.0Q326 373 315.0 359.5Q304 346 287.5 321.0Q271 296 260.0 278.5Q249 261 228.0 228.0Q207 195 196.0 178.0Q185 161 167.0 132.0Q149 103 138.5 87.0Q128 71 115 52Q90 15 75.5 15.0Q61 15 42.0 37.5Q23 60 23 77Q23 82 30 104Q49 162 72.0 247.5Q95 333 97 442Q100 515 118 515Q140 515 162.0 492.0Q184 469 184.0 441.5Q184 414 167.5 335.5Q151 257 129 189Q225 352 285.5 431.5Q346 511 384.5 511.0Q423 511 457.5 470.0Q492 429 492 383Z"/><path transform="translate(101.1,0) scale(0.01400,-0.01400)" d="M422 328Q422 312 389.5 302.0Q357 292 232.5 267.0Q108 242 96.5 242.0Q85 242 69.0 259.0Q53 276 53 290Q53 312 166.0 332.5Q279 353 362 353Q422 353 422 328Z"/><path transform="translate(107.5,0) scale(0.01400,-0.01400)" d="M317 511Q351 511 381.0 473.5Q411 436 411 408Q411 391 395 391Q384 391 361.0 408.5Q338 426 314.0 426.0Q290 426 238.5 398.0Q187 370 187 339Q187 316 279 260Q314 238 342.5 203.5Q371 169 371.0 129.5Q371 90 316.5 52.5Q262 15 189.5 15.0Q117 15 61.5 50.0Q6 85 6 116Q6 129 12.5 136.5Q19 144 29.0 144.0Q39 144 57 131Q111 92 169.5 92.0Q228 92 254.0 105.5Q280 119 280.0 141.5Q280 164 251.0 189.5Q222 215 187.5 235.0Q153 255 124.0 284.0Q95 313 95 343Q95 396 178.5 453.5Q262 511 317 511Z"/><path transform="translate(113.5,0) scale(0.01400,-0.01400)" d="M312 511Q353 511 384.0 474.0Q415 437 415 409Q415 401 410.0 395.5Q405 390 395.5 390.0Q386 390 362.0 408.0Q338 426 319 426Q265 426 193.0 331.0Q121 236 121 165Q121 134 140.5 116.0Q160 98 203.5 98.0Q247 98 283.5 108.5Q320 119 340.0 129.5Q360 140 371 140Q390 140 390 121Q390 92 320.5 53.5Q251 15 192.5 15.0Q134 15 83.0 60.5Q32 106 32.0 168.5Q32 231 74.0 313.0Q116 395 182.5 453.0Q249 511 312 511Z"/><path transform="translate(119.7,0) scale(0.01400,-0.01400)" d="M333 341Q333 375 322.0 405.5Q311 436 290 450Q221 431 171.5 343.5Q122 256 122.0 179.0Q122 102 160 83Q232 97 282.5 181.5Q333 266 333 341ZM155 15Q104 15 70.0 62.0Q36 109 36.0 181.5Q36 254 70.5 332.0Q105 410 161.5 460.5Q218 511 277.5 511.0Q337 511 377.0 460.5Q417 410 417.0 337.5Q417 265 382.0 189.5Q347 114 285.5 64.5Q224 15 155 15Z"/><path transform="translate(126.1,0) scale(0.01400,-0.01400)" d="M358 514Q401 514 432.5 459.0Q464 404 464.0 345.5Q464 287 430.0 228.5Q396 170 346.0 124.0Q296 78 235.5 47.5Q175 17 124 17Q104 17 86 22Q82 5 72.0 -39.0Q62 -83 55.0 -112.0Q48 -141 39 -174Q21 -242 7.0 -242.0Q-7 -242 -22.5 -220.5Q-38 -199 -38.0 -182.0Q-38 -165 -6 -36Q90 353 90 488Q90 518 112 518Q130 518 155.5 491.5Q181 465 181 433Q181 417 177 398Q266 514 358 514ZM114 95Q167 95 228.5 131.0Q290 167 333.5 226.5Q377 286 377 345Q377 428 338.0 428.0Q299 428 232.5 361.0Q166 294 127 187L104 95Z"/><path transform="translate(132.7,0) scale(0.01400,-0.01400)" d="M111 241Q97 197 97.0 162.5Q97 128 118.5 109.0Q140 90 189.5 90.0Q239 90 291.5 107.5Q344 125 349 125Q375 125 375 105Q375 78 314.0 46.5Q253 15 195 15Q117 15 68.0 61.5Q19 108 19.0 179.0Q19 250 57.0 327.5Q95 405 155.0 458.0Q215 511 274.0 511.0Q333 511 381.5 455.0Q430 399 430.0 345.5Q430 292 372.5 258.5Q315 225 242.5 225.0Q170 225 111 241ZM279 432Q242 432 202.0 393.5Q162 355 134 298Q174 289 225.0 289.0Q276 289 314.0 305.5Q352 322 352.0 349.0Q352 376 327.5 404.0Q303 432 279 432Z"/></g></svg>