<svg xmlns="http://www.w3.org/2000/svg" viewBox="0 0 400 220" width="400" height="220" role="img" aria-label="home-loan-planner. problem: prepayment math is opaque. defended: clarity over a spreadsheet. outcome: a decision, not a number."><defs><filter id="r"><feTurbulence type="fractalNoise" baseFrequency="0.012 0.016" numOctaves="2" seed="57" result="n"/><feDisplacementMap in="SourceGraphic" in2="n" scale="2.2"/></filter><filter id="r2"><feTurbulence type="fractalNoise" baseFrequency="0.022" numOctaves="2" seed="68" result="n"/><feDisplacementMap in="SourceGraphic" in2="n" scale="3"/></filter></defs><rect width="400" height="220" rx="6" fill="#f3ead5"/><circle cx="37" cy="126" r="0.4" fill="#2a2620" opacity="0.08"/><circle cx="370" cy="73" r="1.1" fill="#2a2620" opacity="0.09"/><circle cx="337" cy="25" r="0.9" fill="#2a2620" opacity="0.08"/><circle cx="237" cy="89" r="1.1" fill="#2a2620" opacity="0.09"/><circle cx="280" cy="142" r="0.8" fill="#2a2620" opacity="0.11"/><circle cx="241" cy="121" r="0.5" fill="#2a2620" opacity="0.08"/><circle cx="77" cy="125" r="0.7" fill="#2a2620" opacity="0.10"/><circle cx="232" cy="86" r="0.8" fill="#2a2620" opacity="0.06"/><circle cx="371" cy="173" r="0.7" fill="#2a2620" opacity="0.06"/><circle cx="181" cy="134" r="0.7" fill="#2a2620" opacity="0.12"/><circle cx="40" cy="82" r="0.8" fill="#2a2620" opacity="0.04"/><circle cx="188" cy="123" r="0.6" fill="#2a2620" opacity="0.12"/><circle cx="146" cy="87" r="0.8" fill="#2a2620" opacity="0.06"/><circle cx="190" cy="50" r="0.4" fill="#2a2620" opacity="0.09"/><circle cx="121" cy="50" r="0.6" fill="#2a2620" opacity="0.07"/><circle cx="74" cy="144" r="0.9" fill="#2a2620" opacity="0.12"/><circle cx="37" cy="77" r="0.9" fill="#2a2620" opacity="0.11"/><circle cx="110" cy="175" r="0.4" fill="#2a2620" opacity="0.08"/><circle cx="31" cy="50" r="0.9" fill="#2a2620" opacity="0.08"/><circle cx="346" cy="187" r="0.7" fill="#2a2620" opacity="0.08"/><circle cx="157" cy="51" r="0.7" fill="#2a2620" opacity="0.10"/><circle cx="169" cy="164" r="0.5" fill="#2a2620" opacity="0.05"/><circle cx="371" cy="63" r="0.5" fill="#2a2620" opacity="0.11"/><circle cx="291" cy="177" r="1.0" fill="#2a2620" opacity="0.05"/><circle cx="227" cy="135" r="0.6" fill="#2a2620" opacity="0.09"/><circle cx="148" cy="78" r="0.7" fill="#2a2620" opacity="0.08"/><circle cx="87" cy="152" r="0.7" fill="#2a2620" opacity="0.07"/><circle cx="170" cy="122" r="1.1" fill="#2a2620" opacity="0.11"/><circle cx="207" cy="43" r="0.5" fill="#2a2620" opacity="0.11"/><circle cx="25" cy="70" r="0.8" fill="#2a2620" opacity="0.04"/><rect x="12" y="12" width="376" height="196" rx="3" fill="none" stroke="#2a2620" stroke-width="1.5" opacity="0.8" filter="url(#r)"/><rect x="178" y="2" width="46" height="18" rx="2" fill="#c98a2b" opacity="0.5" transform="rotate(-4 201 11)" filter="url(#r2)"/><g fill="#b5462f" transform="translate(20.0,40)"><path transform="translate(0.0,0) scale(0.01800,-0.01800)" d="M150 766Q150 808 183 808Q210 808 245.0 763.0Q280 718 280.0 686.0Q280 654 267.0 596.0Q254 538 240.5 490.0Q227 442 200.0 353.5Q173 265 163 230Q228 362 300.5 445.0Q373 528 422 528Q453 528 493.0 473.5Q533 419 533.0 375.5Q533 332 517.0 249.0Q501 166 461.0 89.0Q421 12 379 12Q346 12 346 59Q346 93 366 170Q395 285 395.0 310.0Q395 335 387 335Q329 335 217 142Q179 76 153.5 44.0Q128 12 105.0 12.0Q82 12 49.5 49.0Q17 86 17.0 106.5Q17 127 25.5 167.0Q34 207 51.5 281.0Q69 355 109.5 549.5Q150 744 150 766Z"/><path transform="translate(10.1,0) scale(0.01800,-0.01800)" d="M282 436Q239 411 196.5 331.0Q154 251 154.0 190.5Q154 130 166 114Q220 138 260.0 211.0Q300 284 300.0 348.0Q300 412 282 436ZM155 12Q100 12 60.0 61.0Q20 110 20 180Q20 305 97.5 417.0Q175 529 251.0 529.0Q327 529 379.0 475.5Q431 422 431.0 346.5Q431 271 395.0 193.0Q359 115 294.0 63.5Q229 12 155 12Z"/><path transform="translate(18.3,0) scale(0.01800,-0.01800)" d="M698 528Q737 528 763.0 476.0Q789 424 789.0 381.0Q789 338 772.5 253.5Q756 169 720.5 90.5Q685 12 644 12Q611 12 611.0 57.0Q611 102 637.0 204.0Q663 306 663.0 338.0Q663 370 653 370Q632 370 603.0 324.0Q574 278 533.5 201.0Q493 124 483.0 102.0Q473 80 466.5 67.0Q460 54 452 40Q420 -13 367 40Q340 67 340 89Q340 93 356.5 165.5Q373 238 373 331Q373 370 364 370Q352 370 336.0 346.0Q320 322 287.0 259.0Q254 196 230 155Q146 12 102 12Q80 12 47.5 49.0Q15 86 15.0 105.5Q15 125 37.5 199.5Q60 274 66.5 358.0Q73 442 78.5 489.0Q84 536 102 536Q140 536 175.5 504.5Q211 473 211 447Q211 388 168 241Q238 408 286 467Q337 528 384 528Q410 528 448.5 480.0Q487 432 487.0 390.5Q487 349 486 318Q517 396 580.0 462.0Q643 528 698 528Z"/><path transform="translate(33.1,0) scale(0.01800,-0.01800)" d="M155 224Q146 197 146.0 170.0Q146 143 155.0 131.5Q164 120 200 120Q275 120 328.5 134.0Q382 148 384 148Q425 148 425 121Q425 82 360.5 47.0Q296 12 211.5 12.0Q127 12 76.0 65.0Q25 118 25.0 190.5Q25 263 67.5 342.0Q110 421 174.0 474.5Q238 528 301.5 528.0Q365 528 419.0 465.5Q473 403 473 341Q473 292 406.5 253.0Q340 214 270.0 214.0Q200 214 155 224ZM194 310Q203 309 220 309Q357 309 357 357Q357 367 336.0 386.0Q315 405 296.5 405.0Q278 405 249.0 378.5Q220 352 194 310Z"/><path transform="translate(41.9,0) scale(0.01800,-0.01800)" d="M497 335Q497 309 436 292Q388 278 326.0 265.5Q264 253 222 242Q134 221 114.0 221.0Q94 221 72.0 248.5Q50 276 50 301Q50 329 166.5 349.0Q283 369 421 369Q497 369 497 335Z"/><path transform="translate(51.4,0) scale(0.01800,-0.01800)" d="M229 374Q146 12 113 12Q91 12 58.5 47.5Q26 83 26 106Q26 108 53.0 210.0Q80 312 107.5 472.5Q135 633 135 779Q135 808 166 808Q190 808 228.0 764.0Q266 720 266.0 680.0Q266 640 254.0 537.5Q242 435 229 374Z"/><path transform="translate(56.2,0) scale(0.01800,-0.01800)" d="M282 436Q239 411 196.5 331.0Q154 251 154.0 190.5Q154 130 166 114Q220 138 260.0 211.0Q300 284 300.0 348.0Q300 412 282 436ZM155 12Q100 12 60.0 61.0Q20 110 20 180Q20 305 97.5 417.0Q175 529 251.0 529.0Q327 529 379.0 475.5Q431 422 431.0 346.5Q431 271 395.0 193.0Q359 115 294.0 63.5Q229 12 155 12Z"/><path transform="translate(64.4,0) scale(0.01800,-0.01800)" d="M450 296Q468 280 468.0 267.0Q468 254 456.0 213.0Q444 172 440.0 149.5Q436 127 433.5 114.0Q431 101 430.0 93.5Q429 86 426.5 75.0Q424 64 422.5 57.5Q421 51 418.5 42.5Q416 34 413.0 29.5Q410 25 406 20Q400 12 386.0 12.0Q372 12 351.5 40.0Q331 68 321 108Q227 12 163 12Q120 12 70.0 59.5Q20 107 20.0 154.5Q20 202 63.0 290.0Q106 378 180.5 453.0Q255 528 328 528Q370 528 425.0 479.0Q480 430 480.0 389.5Q480 349 450 296ZM159 138Q199 138 265.5 192.5Q332 247 348 330Q349 342 365 344Q362 401 346 401Q306 401 256.5 349.0Q207 297 175.5 238.0Q144 179 144 151Q144 143 146.5 140.5Q149 138 159 138Z"/><path transform="translate(73.6,0) scale(0.01800,-0.01800)" d="M393 528Q445 528 484.5 481.5Q524 435 524 382Q524 297 496.5 204.5Q469 112 436.5 62.0Q404 12 370.5 12.0Q337 12 337 59Q337 95 370 204Q395 294 395.0 333.0Q395 372 385 372Q372 372 359.5 359.0Q347 346 339.0 336.0Q331 326 320.5 310.5Q310 295 302.5 282.5Q295 270 283.5 250.5Q272 231 265.0 218.5Q258 206 247 186Q154 12 101 12Q80 12 48.0 48.5Q16 85 16 102Q16 113 30.5 149.5Q45 186 51.5 205.5Q58 225 62.5 247.0Q67 269 70.0 294.5Q73 320 74.5 334.0Q76 348 78 378Q87 508 93.5 522.0Q100 536 108 536Q146 536 181.0 504.5Q216 473 216 447Q216 385 184 269Q249 383 302.5 455.5Q356 528 393 528Z"/><path transform="translate(83.6,0) scale(0.01800,-0.01800)" d="M497 335Q497 309 436 292Q388 278 326.0 265.5Q264 253 222 242Q134 221 114.0 221.0Q94 221 72.0 248.5Q50 276 50 301Q50 329 166.5 349.0Q283 369 421 369Q497 369 497 335Z"/><path transform="translate(93.1,0) scale(0.01800,-0.01800)" d="M388 527Q425 527 467.5 461.0Q510 395 510 329Q510 289 476.0 234.0Q442 179 390.5 130.5Q339 82 271.5 48.0Q204 14 143 14H131Q68 -248 42 -248Q21 -248 -2.5 -213.0Q-26 -178 -26.0 -155.0Q-26 -132 3 -14Q89 336 89 514Q89 544 118 544Q142 544 179.0 517.0Q216 490 225 447Q310 527 388 527ZM350 394Q308 394 261 346Q242 326 219.0 287.0Q196 248 179 196L162 133Q240 148 309.5 219.0Q379 290 379.0 342.0Q379 394 350 394Z"/><path transform="translate(102.8,0) scale(0.01800,-0.01800)" d="M229 374Q146 12 113 12Q91 12 58.5 47.5Q26 83 26 106Q26 108 53.0 210.0Q80 312 107.5 472.5Q135 633 135 779Q135 808 166 808Q190 808 228.0 764.0Q266 720 266.0 680.0Q266 640 254.0 537.5Q242 435 229 374Z"/><path transform="translate(107.6,0) scale(0.01800,-0.01800)" d="M450 296Q468 280 468.0 267.0Q468 254 456.0 213.0Q444 172 440.0 149.5Q436 127 433.5 114.0Q431 101 430.0 93.5Q429 86 426.5 75.0Q424 64 422.5 57.5Q421 51 418.5 42.5Q416 34 413.0 29.5Q410 25 406 20Q400 12 386.0 12.0Q372 12 351.5 40.0Q331 68 321 108Q227 12 163 12Q120 12 70.0 59.5Q20 107 20.0 154.5Q20 202 63.0 290.0Q106 378 180.5 453.0Q255 528 328 528Q370 528 425.0 479.0Q480 430 480.0 389.5Q480 349 450 296ZM159 138Q199 138 265.5 192.5Q332 247 348 330Q349 342 365 344Q362 401 346 401Q306 401 256.5 349.0Q207 297 175.5 238.0Q144 179 144 151Q144 143 146.5 140.5Q149 138 159 138Z"/><path transform="translate(116.8,0) scale(0.01800,-0.01800)" d="M393 528Q445 528 484.5 481.5Q524 435 524 382Q524 297 496.5 204.5Q469 112 436.5 62.0Q404 12 370.5 12.0Q337 12 337 59Q337 95 370 204Q395 294 395.0 333.0Q395 372 385 372Q372 372 359.5 359.0Q347 346 339.0 336.0Q331 326 320.5 310.5Q310 295 302.5 282.5Q295 270 283.5 250.5Q272 231 265.0 218.5Q258 206 247 186Q154 12 101 12Q80 12 48.0 48.5Q16 85 16 102Q16 113 30.5 149.5Q45 186 51.5 205.5Q58 225 62.5 247.0Q67 269 70.0 294.5Q73 320 74.5 334.0Q76 348 78 378Q87 508 93.5 522.0Q100 536 108 536Q146 536 181.0 504.5Q216 473 216 447Q216 385 184 269Q249 383 302.5 455.5Q356 528 393 528Z"/><path transform="translate(126.8,0) scale(0.01800,-0.01800)" d="M393 528Q445 528 484.5 481.5Q524 435 524 382Q524 297 496.5 204.5Q469 112 436.5 62.0Q404 12 370.5 12.0Q337 12 337 59Q337 95 370 204Q395 294 395.0 333.0Q395 372 385 372Q372 372 359.5 359.0Q347 346 339.0 336.0Q331 326 320.5 310.5Q310 295 302.5 282.5Q295 270 283.5 250.5Q272 231 265.0 218.5Q258 206 247 186Q154 12 101 12Q80 12 48.0 48.5Q16 85 16 102Q16 113 30.5 149.5Q45 186 51.5 205.5Q58 225 62.5 247.0Q67 269 70.0 294.5Q73 320 74.5 334.0Q76 348 78 378Q87 508 93.5 522.0Q100 536 108 536Q146 536 181.0 504.5Q216 473 216 447Q216 385 184 269Q249 383 302.5 455.5Q356 528 393 528Z"/><path transform="translate(136.7,0) scale(0.01800,-0.01800)" d="M155 224Q146 197 146.0 170.0Q146 143 155.0 131.5Q164 120 200 120Q275 120 328.5 134.0Q382 148 384 148Q425 148 425 121Q425 82 360.5 47.0Q296 12 211.5 12.0Q127 12 76.0 65.0Q25 118 25.0 190.5Q25 263 67.5 342.0Q110 421 174.0 474.5Q238 528 301.5 528.0Q365 528 419.0 465.5Q473 403 473 341Q473 292 406.5 253.0Q340 214 270.0 214.0Q200 214 155 224ZM194 310Q203 309 220 309Q357 309 357 357Q357 367 336.0 386.0Q315 405 296.5 405.0Q278 405 249.0 378.5Q220 352 194 310Z"/><path transform="translate(145.5,0) scale(0.01800,-0.01800)" d="M80 359 74 472Q74 528 109 528Q129 528 148.5 513.0Q168 498 178 466Q212 496 252.5 514.5Q293 533 324 533Q397 533 397 498Q397 480 390.5 471.5Q384 463 380.5 459.0Q377 455 368.5 448.5Q360 442 356 439Q333 424 323 418Q278 390 246.0 350.5Q214 311 198 241Q171 126 145.5 69.5Q120 13 88.5 13.0Q57 13 41.5 43.0Q26 73 26.0 99.5Q26 126 45.5 179.0Q65 232 72.5 270.5Q80 309 80 359Z"/></g><path d="M20.0,48.0 L173.0,48.0" stroke="#b5462f" stroke-width="2" fill="none" filter="url(#r2)"/><rect x="34" y="76" width="20" height="84" fill="#c98a2b" opacity="0.85" filter="url(#r2)"/><rect x="64" y="92" width="20" height="68" fill="#c98a2b" opacity="0.85" filter="url(#r2)"/><rect x="94" y="106" width="20" height="54" fill="#c98a2b" opacity="0.85" filter="url(#r2)"/><rect x="124" y="118" width="20" height="42" fill="#c98a2b" opacity="0.85" filter="url(#r2)"/><rect x="150" y="86" width="22" height="74" fill="#4f7a3f" filter="url(#r2)"/><g fill="#4f7a3f" transform="translate(146.4,78)"><path transform="translate(0.0,0) scale(0.01200,-0.01200)" d="M317 511Q351 511 381.0 473.5Q411 436 411 408Q411 391 395 391Q384 391 361.0 408.5Q338 426 314.0 426.0Q290 426 238.5 398.0Q187 370 187 339Q187 316 279 260Q314 238 342.5 203.5Q371 169 371.0 129.5Q371 90 316.5 52.5Q262 15 189.5 15.0Q117 15 61.5 50.0Q6 85 6 116Q6 129 12.5 136.5Q19 144 29.0 144.0Q39 144 57 131Q111 92 169.5 92.0Q228 92 254.0 105.5Q280 119 280.0 141.5Q280 164 251.0 189.5Q222 215 187.5 235.0Q153 255 124.0 284.0Q95 313 95 343Q95 396 178.5 453.5Q262 511 317 511Z"/><path transform="translate(5.1,0) scale(0.01200,-0.01200)" d="M393 309Q405 294 405 283Q405 255 392.5 187.0Q380 119 377.5 98.0Q375 77 373.0 64.5Q371 52 368 40Q364 15 350 15Q332 15 320.5 46.5Q309 78 307 128Q218 15 142 15Q96 15 51.5 54.5Q7 94 7 136Q7 196 51.0 284.5Q95 373 165.0 442.0Q235 511 297 511Q342 511 380.0 465.5Q418 420 418.0 383.5Q418 347 393 309ZM343 335Q343 428 306 428Q267 428 215.0 372.5Q163 317 127.0 247.0Q91 177 91 136Q91 119 105.0 108.5Q119 98 138 98Q185 98 244.0 161.5Q303 225 326 316Q329 331 343 334Z"/><path transform="translate(10.7,0) scale(0.01200,-0.01200)" d="M376 511Q393 511 409.0 498.5Q425 486 425 471Q425 444 352.5 284.0Q280 124 249.5 68.5Q219 13 196 13Q183 13 164.0 32.0Q145 51 136 73Q109 136 78.0 276.0Q47 416 47 481Q47 511 65 511Q87 511 110.0 492.5Q133 474 142 446Q145 430 150 366Q164 208 198 123Q225 181 267.0 287.5Q309 394 335.5 452.5Q362 511 376 511Z"/><path transform="translate(15.8,0) scale(0.01200,-0.01200)" d="M111 241Q97 197 97.0 162.5Q97 128 118.5 109.0Q140 90 189.5 90.0Q239 90 291.5 107.5Q344 125 349 125Q375 125 375 105Q375 78 314.0 46.5Q253 15 195 15Q117 15 68.0 61.5Q19 108 19.0 179.0Q19 250 57.0 327.5Q95 405 155.0 458.0Q215 511 274.0 511.0Q333 511 381.5 455.0Q430 399 430.0 345.5Q430 292 372.5 258.5Q315 225 242.5 225.0Q170 225 111 241ZM279 432Q242 432 202.0 393.5Q162 355 134 298Q174 289 225.0 289.0Q276 289 314.0 305.5Q352 322 352.0 349.0Q352 376 327.5 404.0Q303 432 279 432Z"/><path transform="translate(21.2,0) scale(0.01200,-0.01200)" d="M459 791Q475 791 498.5 761.5Q522 732 522.0 706.0Q522 680 497.0 558.5Q472 437 439 307Q367 15 344 15Q330 15 313.5 32.5Q297 50 297.0 63.0Q297 76 304 115Q206 15 133 15Q89 15 53.5 55.0Q18 95 18 138Q18 200 51.5 285.5Q85 371 148.0 441.0Q211 511 282.0 511.0Q353 511 381 426Q432 638 437 761Q437 791 459 791ZM349 300Q349 354 330.5 391.0Q312 428 286 428Q243 428 198.0 375.0Q153 322 126.5 253.5Q100 185 100 135Q100 117 113.0 106.0Q126 95 144 95Q183 95 249.5 151.0Q316 207 346 283L349 295Z"/></g><g fill="#8d8470" transform="translate(196.0,92)"><path transform="translate(0.0,0) scale(0.01200,-0.01200)" d="M358 514Q401 514 432.5 459.0Q464 404 464.0 345.5Q464 287 430.0 228.5Q396 170 346.0 124.0Q296 78 235.5 47.5Q175 17 124 17Q104 17 86 22Q82 5 72.0 -39.0Q62 -83 55.0 -112.0Q48 -141 39 -174Q21 -242 7.0 -242.0Q-7 -242 -22.5 -220.5Q-38 -199 -38.0 -182.0Q-38 -165 -6 -36Q90 353 90 488Q90 518 112 518Q130 518 155.5 491.5Q181 465 181 433Q181 417 177 398Q266 514 358 514ZM114 95Q167 95 228.5 131.0Q290 167 333.5 226.5Q377 286 377 345Q377 428 338.0 428.0Q299 428 232.5 361.0Q166 294 127 187L104 95Z"/><path transform="translate(5.7,0) scale(0.01200,-0.01200)" d="M91 389 88 464Q88 511 110 511Q129 511 146.5 486.5Q164 462 164.0 428.5Q164 395 162 378Q249 510 327 510Q376 510 376 486Q376 474 365.0 464.0Q354 454 330 441Q277 418 240.5 370.5Q204 323 181.0 263.0Q158 203 144.5 162.0Q131 121 124.0 98.0Q117 75 108 53Q92 13 71 13Q54 13 43.5 32.5Q33 52 33.0 70.5Q33 89 50 144Q91 270 91 389Z"/><path transform="translate(9.7,0) scale(0.01200,-0.01200)" d="M333 341Q333 375 322.0 405.5Q311 436 290 450Q221 431 171.5 343.5Q122 256 122.0 179.0Q122 102 160 83Q232 97 282.5 181.5Q333 266 333 341ZM155 15Q104 15 70.0 62.0Q36 109 36.0 181.5Q36 254 70.5 332.0Q105 410 161.5 460.5Q218 511 277.5 511.0Q337 511 377.0 460.5Q417 410 417.0 337.5Q417 265 382.0 189.5Q347 114 285.5 64.5Q224 15 155 15Z"/><path transform="translate(15.1,0) scale(0.01200,-0.01200)" d="M74 15Q60 15 41.0 36.5Q22 58 22.0 77.0Q22 96 53.5 207.0Q85 318 116.5 474.5Q148 631 148 761Q148 791 170 791Q186 791 209.0 761.5Q232 732 232 704Q232 581 178 353Q297 514 394 514Q441 514 473.5 468.0Q506 422 506.0 358.5Q506 295 469.5 213.0Q433 131 371.0 72.5Q309 14 241.0 14.0Q173 14 107 83L106 82Q84 15 74 15ZM233 92Q298 92 360.5 180.5Q423 269 423 367Q423 426 387 426Q329 426 257.5 345.0Q186 264 134 152Q181 92 233 92Z"/><path transform="translate(21.4,0) scale(0.01200,-0.01200)" d="M228 707Q228 519 150 219Q100 15 80 15Q66 15 47.5 37.0Q29 59 29.0 71.0Q29 83 58.0 195.0Q87 307 116.0 470.5Q145 634 145 765Q145 779 149.0 785.0Q153 791 166.0 791.0Q179 791 203.5 762.5Q228 734 228 707Z"/><path transform="translate(24.4,0) scale(0.01200,-0.01200)" d="M111 241Q97 197 97.0 162.5Q97 128 118.5 109.0Q140 90 189.5 90.0Q239 90 291.5 107.5Q344 125 349 125Q375 125 375 105Q375 78 314.0 46.5Q253 15 195 15Q117 15 68.0 61.5Q19 108 19.0 179.0Q19 250 57.0 327.5Q95 405 155.0 458.0Q215 511 274.0 511.0Q333 511 381.5 455.0Q430 399 430.0 345.5Q430 292 372.5 258.5Q315 225 242.5 225.0Q170 225 111 241ZM279 432Q242 432 202.0 393.5Q162 355 134 298Q174 289 225.0 289.0Q276 289 314.0 305.5Q352 322 352.0 349.0Q352 376 327.5 404.0Q303 432 279 432Z"/><path transform="translate(29.8,0) scale(0.01200,-0.01200)" d="M678 511Q708 511 731.5 469.5Q755 428 755.0 375.5Q755 323 736.5 239.0Q718 155 687.0 85.0Q656 15 626 15Q605 15 605.0 42.5Q605 70 639.5 177.5Q674 285 674.0 348.5Q674 412 654 412Q629 412 596.5 368.0Q564 324 527.0 262.0Q490 200 487.0 195.5Q484 191 479.5 183.0Q475 175 469.5 166.0Q464 157 441.5 112.0Q419 67 402.0 41.5Q385 16 372.5 16.0Q360 16 345.0 32.0Q330 48 330.0 62.0Q330 76 348 120Q400 250 400 362Q400 383 391.0 397.5Q382 412 371.0 412.0Q360 412 348.0 402.5Q336 393 318.0 368.5Q300 344 286.0 322.0Q272 300 243.5 253.5Q215 207 200.5 184.5Q186 162 167.0 132.5Q148 103 137.5 87.0Q127 71 114 52Q87 15 74.5 15.0Q62 15 42.0 37.5Q22 60 22.0 71.5Q22 83 26.0 100.0Q30 117 34.5 133.0Q39 149 48.5 180.5Q58 212 70.5 254.5Q83 297 89.5 371.5Q96 446 99.0 480.5Q102 515 116 515Q138 515 159.5 492.0Q181 469 181 446Q181 358 115 156Q227 366 256.0 405.0Q285 444 306 468Q345 511 385 511Q409 511 442.5 469.5Q476 428 476.0 386.0Q476 344 464 282Q582 511 678 511Z"/></g><g fill="#2a2620" transform="translate(196.0,110)"><path transform="translate(0.0,0) scale(0.01400,-0.01400)" d="M358 514Q401 514 432.5 459.0Q464 404 464.0 345.5Q464 287 430.0 228.5Q396 170 346.0 124.0Q296 78 235.5 47.5Q175 17 124 17Q104 17 86 22Q82 5 72.0 -39.0Q62 -83 55.0 -112.0Q48 -141 39 -174Q21 -242 7.0 -242.0Q-7 -242 -22.5 -220.5Q-38 -199 -38.0 -182.0Q-38 -165 -6 -36Q90 353 90 488Q90 518 112 518Q130 518 155.5 491.5Q181 465 181 433Q181 417 177 398Q266 514 358 514ZM114 95Q167 95 228.5 131.0Q290 167 333.5 226.5Q377 286 377 345Q377 428 338.0 428.0Q299 428 232.5 361.0Q166 294 127 187L104 95Z"/><path transform="translate(6.7,0) scale(0.01400,-0.01400)" d="M91 389 88 464Q88 511 110 511Q129 511 146.5 486.5Q164 462 164.0 428.5Q164 395 162 378Q249 510 327 510Q376 510 376 486Q376 474 365.0 464.0Q354 454 330 441Q277 418 240.5 370.5Q204 323 181.0 263.0Q158 203 144.5 162.0Q131 121 124.0 98.0Q117 75 108 53Q92 13 71 13Q54 13 43.5 32.5Q33 52 33.0 70.5Q33 89 50 144Q91 270 91 389Z"/><path transform="translate(11.3,0) scale(0.01400,-0.01400)" d="M111 241Q97 197 97.0 162.5Q97 128 118.5 109.0Q140 90 189.5 90.0Q239 90 291.5 107.5Q344 125 349 125Q375 125 375 105Q375 78 314.0 46.5Q253 15 195 15Q117 15 68.0 61.5Q19 108 19.0 179.0Q19 250 57.0 327.5Q95 405 155.0 458.0Q215 511 274.0 511.0Q333 511 381.5 455.0Q430 399 430.0 345.5Q430 292 372.5 258.5Q315 225 242.5 225.0Q170 225 111 241ZM279 432Q242 432 202.0 393.5Q162 355 134 298Q174 289 225.0 289.0Q276 289 314.0 305.5Q352 322 352.0 349.0Q352 376 327.5 404.0Q303 432 279 432Z"/><path transform="translate(17.6,0) scale(0.01400,-0.01400)" d="M358 514Q401 514 432.5 459.0Q464 404 464.0 345.5Q464 287 430.0 228.5Q396 170 346.0 124.0Q296 78 235.5 47.5Q175 17 124 17Q104 17 86 22Q82 5 72.0 -39.0Q62 -83 55.0 -112.0Q48 -141 39 -174Q21 -242 7.0 -242.0Q-7 -242 -22.5 -220.5Q-38 -199 -38.0 -182.0Q-38 -165 -6 -36Q90 353 90 488Q90 518 112 518Q130 518 155.5 491.5Q181 465 181 433Q181 417 177 398Q266 514 358 514ZM114 95Q167 95 228.5 131.0Q290 167 333.5 226.5Q377 286 377 345Q377 428 338.0 428.0Q299 428 232.5 361.0Q166 294 127 187L104 95Z"/><path transform="translate(24.3,0) scale(0.01400,-0.01400)" d="M393 309Q405 294 405 283Q405 255 392.5 187.0Q380 119 377.5 98.0Q375 77 373.0 64.5Q371 52 368 40Q364 15 350 15Q332 15 320.5 46.5Q309 78 307 128Q218 15 142 15Q96 15 51.5 54.5Q7 94 7 136Q7 196 51.0 284.5Q95 373 165.0 442.0Q235 511 297 511Q342 511 380.0 465.5Q418 420 418.0 383.5Q418 347 393 309ZM343 335Q343 428 306 428Q267 428 215.0 372.5Q163 317 127.0 247.0Q91 177 91 136Q91 119 105.0 108.5Q119 98 138 98Q185 98 244.0 161.5Q303 225 326 316Q329 331 343 334Z"/><path transform="translate(30.9,0) scale(0.01400,-0.01400)" d="M475 435Q475 415 434.0 299.0Q393 183 378.5 141.5Q364 100 339.5 31.5Q315 -37 292 -102Q242 -245 142 -245Q85 -245 33.0 -210.5Q-19 -176 -19 -139Q-19 -125 -6.5 -108.0Q6 -91 15.0 -91.0Q24 -91 44 -113Q102 -179 143 -179Q174 -179 199.0 -124.5Q224 -70 246.5 -1.5Q269 67 271.5 74.0Q274 81 277.5 92.0Q281 103 284 112Q213 15 144 15Q102 15 66.5 54.0Q31 93 31.0 146.0Q31 199 57.0 289.0Q83 379 118.0 445.0Q153 511 175 511Q193 511 208.5 494.5Q224 478 224.0 461.0Q224 444 198 390Q117 224 117 132Q117 116 127.0 105.5Q137 95 151 95Q187 95 237.0 159.0Q287 223 329 311Q364 385 402 500Q406 511 422.0 511.0Q438 511 456.5 487.5Q475 464 475 435Z"/><path transform="translate(37.5,0) scale(0.01400,-0.01400)" d="M678 511Q708 511 731.5 469.5Q755 428 755.0 375.5Q755 323 736.5 239.0Q718 155 687.0 85.0Q656 15 626 15Q605 15 605.0 42.5Q605 70 639.5 177.5Q674 285 674.0 348.5Q674 412 654 412Q629 412 596.5 368.0Q564 324 527.0 262.0Q490 200 487.0 195.5Q484 191 479.5 183.0Q475 175 469.5 166.0Q464 157 441.5 112.0Q419 67 402.0 41.5Q385 16 372.5 16.0Q360 16 345.0 32.0Q330 48 330.0 62.0Q330 76 348 120Q400 250 400 362Q400 383 391.0 397.5Q382 412 371.0 412.0Q360 412 348.0 402.5Q336 393 318.0 368.5Q300 344 286.0 322.0Q272 300 243.5 253.5Q215 207 200.5 184.5Q186 162 167.0 132.5Q148 103 137.5 87.0Q127 71 114 52Q87 15 74.5 15.0Q62 15 42.0 37.5Q22 60 22.0 71.5Q22 83 26.0 100.0Q30 117 34.5 133.0Q39 149 48.5 180.5Q58 212 70.5 254.5Q83 297 89.5 371.5Q96 446 99.0 480.5Q102 515 116 515Q138 515 159.5 492.0Q181 469 181 446Q181 358 115 156Q227 366 256.0 405.0Q285 444 306 468Q345 511 385 511Q409 511 442.5 469.5Q476 428 476.0 386.0Q476 344 464 282Q582 511 678 511Z"/><path transform="translate(48.6,0) scale(0.01400,-0.01400)" d="M111 241Q97 197 97.0 162.5Q97 128 118.5 109.0Q140 90 189.5 90.0Q239 90 291.5 107.5Q344 125 349 125Q375 125 375 105Q375 78 314.0 46.5Q253 15 195 15Q117 15 68.0 61.5Q19 108 19.0 179.0Q19 250 57.0 327.5Q95 405 155.0 458.0Q215 511 274.0 511.0Q333 511 381.5 455.0Q430 399 430.0 345.5Q430 292 372.5 258.5Q315 225 242.5 225.0Q170 225 111 241ZM279 432Q242 432 202.0 393.5Q162 355 134 298Q174 289 225.0 289.0Q276 289 314.0 305.5Q352 322 352.0 349.0Q352 376 327.5 404.0Q303 432 279 432Z"/><path transform="translate(54.9,0) scale(0.01400,-0.01400)" d="M492 383Q492 311 459 207Q399 15 351 15Q329 15 329 45Q329 66 350.5 130.5Q372 195 390.5 257.5Q409 320 409.0 351.5Q409 383 399.5 398.0Q390 413 380.5 413.0Q371 413 361.0 407.0Q351 401 338.5 387.0Q326 373 315.0 359.5Q304 346 287.5 321.0Q271 296 260.0 278.5Q249 261 228.0 228.0Q207 195 196.0 178.0Q185 161 167.0 132.0Q149 103 138.5 87.0Q128 71 115 52Q90 15 75.5 15.0Q61 15 42.0 37.5Q23 60 23 77Q23 82 30 104Q49 162 72.0 247.5Q95 333 97 442Q100 515 118 515Q140 515 162.0 492.0Q184 469 184.0 441.5Q184 414 167.5 335.5Q151 257 129 189Q225 352 285.5 431.5Q346 511 384.5 511.0Q423 511 457.5 470.0Q492 429 492 383Z"/><path transform="translate(62.4,0) scale(0.01400,-0.01400)" d="M143 115Q143 96 165 96Q203 96 257.5 117.5Q312 139 318 139Q336 139 336 120Q336 91 276.5 53.0Q217 15 168.5 15.0Q120 15 88.0 41.5Q56 68 56.0 96.0Q56 124 68.0 167.5Q80 211 102.5 282.5Q125 354 138 401Q91 390 75.0 390.0Q59 390 43.5 406.5Q28 423 28 438Q28 462 158 484Q176 567 176 631Q176 661 196 661Q213 661 238.0 639.5Q263 618 263.0 591.0Q263 564 246 496Q303 501 337 501Q397 501 397 475Q397 460 364.5 450.0Q332 440 228 419Q207 340 175.0 238.5Q143 137 143 115Z"/><path transform="translate(73.4,0) scale(0.01400,-0.01400)" d="M678 511Q708 511 731.5 469.5Q755 428 755.0 375.5Q755 323 736.5 239.0Q718 155 687.0 85.0Q656 15 626 15Q605 15 605.0 42.5Q605 70 639.5 177.5Q674 285 674.0 348.5Q674 412 654 412Q629 412 596.5 368.0Q564 324 527.0 262.0Q490 200 487.0 195.5Q484 191 479.5 183.0Q475 175 469.5 166.0Q464 157 441.5 112.0Q419 67 402.0 41.5Q385 16 372.5 16.0Q360 16 345.0 32.0Q330 48 330.0 62.0Q330 76 348 120Q400 250 400 362Q400 383 391.0 397.5Q382 412 371.0 412.0Q360 412 348.0 402.5Q336 393 318.0 368.5Q300 344 286.0 322.0Q272 300 243.5 253.5Q215 207 200.5 184.5Q186 162 167.0 132.5Q148 103 137.5 87.0Q127 71 114 52Q87 15 74.5 15.0Q62 15 42.0 37.5Q22 60 22.0 71.5Q22 83 26.0 100.0Q30 117 34.5 133.0Q39 149 48.5 180.5Q58 212 70.5 254.5Q83 297 89.5 371.5Q96 446 99.0 480.5Q102 515 116 515Q138 515 159.5 492.0Q181 469 181 446Q181 358 115 156Q227 366 256.0 405.0Q285 444 306 468Q345 511 385 511Q409 511 442.5 469.5Q476 428 476.0 386.0Q476 344 464 282Q582 511 678 511Z"/><path transform="translate(84.5,0) scale(0.01400,-0.01400)" d="M393 309Q405 294 405 283Q405 255 392.5 187.0Q380 119 377.5 98.0Q375 77 373.0 64.5Q371 52 368 40Q364 15 350 15Q332 15 320.5 46.5Q309 78 307 128Q218 15 142 15Q96 15 51.5 54.5Q7 94 7 136Q7 196 51.0 284.5Q95 373 165.0 442.0Q235 511 297 511Q342 511 380.0 465.5Q418 420 418.0 383.5Q418 347 393 309ZM343 335Q343 428 306 428Q267 428 215.0 372.5Q163 317 127.0 247.0Q91 177 91 136Q91 119 105.0 108.5Q119 98 138 98Q185 98 244.0 161.5Q303 225 326 316Q329 331 343 334Z"/><path transform="translate(91.1,0) scale(0.01400,-0.01400)" d="M143 115Q143 96 165 96Q203 96 257.5 117.5Q312 139 318 139Q336 139 336 120Q336 91 276.5 53.0Q217 15 168.5 15.0Q120 15 88.0 41.5Q56 68 56.0 96.0Q56 124 68.0 167.5Q80 211 102.5 282.5Q125 354 138 401Q91 390 75.0 390.0Q59 390 43.5 406.5Q28 423 28 438Q28 462 158 484Q176 567 176 631Q176 661 196 661Q213 661 238.0 639.5Q263 618 263.0 591.0Q263 564 246 496Q303 501 337 501Q397 501 397 475Q397 460 364.5 450.0Q332 440 228 419Q207 340 175.0 238.5Q143 137 143 115Z"/><path transform="translate(96.5,0) scale(0.01400,-0.01400)" d="M149 752Q149 791 173 791Q192 791 213.5 761.0Q235 731 235 703Q235 638 202.5 481.5Q170 325 118 169Q218 350 285.5 430.5Q353 511 401 511Q427 511 461.5 466.0Q496 421 496.0 376.0Q496 331 471 241Q409 15 354 15Q332 15 332.0 45.0Q332 75 356 146Q409 301 409 355Q409 373 400.0 385.0Q391 397 378.0 397.0Q365 397 346.0 383.0Q327 369 300 334Q266 289 229.5 233.0Q193 177 185.5 165.5Q178 154 159.5 124.0Q141 94 132.0 79.5Q123 65 110 48Q87 15 75.0 15.0Q63 15 43.0 37.5Q23 60 23.0 75.5Q23 91 34 134Q84 326 97 397Q149 657 149 752Z"/><path transform="translate(109.6,0) scale(0.01400,-0.01400)" d="M270 601Q270 591 261.0 583.0Q252 575 242 575Q218 575 188.5 604.0Q159 633 159.0 653.0Q159 673 175.0 691.0Q191 709 207.5 709.0Q224 709 247.0 668.5Q270 628 270 601ZM154 511Q173 511 190.0 488.0Q207 465 207.0 443.0Q207 421 178.0 311.5Q149 202 105 66Q88 16 62 16Q48 16 38.0 27.5Q28 39 28.0 53.5Q28 68 35.5 99.5Q43 131 57.5 183.5Q72 236 80.5 269.0Q89 302 98.0 343.5Q107 385 112.5 410.5Q118 436 125 462Q139 511 154 511Z"/><path transform="translate(113.0,0) scale(0.01400,-0.01400)" d="M317 511Q351 511 381.0 473.5Q411 436 411 408Q411 391 395 391Q384 391 361.0 408.5Q338 426 314.0 426.0Q290 426 238.5 398.0Q187 370 187 339Q187 316 279 260Q314 238 342.5 203.5Q371 169 371.0 129.5Q371 90 316.5 52.5Q262 15 189.5 15.0Q117 15 61.5 50.0Q6 85 6 116Q6 129 12.5 136.5Q19 144 29.0 144.0Q39 144 57 131Q111 92 169.5 92.0Q228 92 254.0 105.5Q280 119 280.0 141.5Q280 164 251.0 189.5Q222 215 187.5 235.0Q153 255 124.0 284.0Q95 313 95 343Q95 396 178.5 453.5Q262 511 317 511Z"/><path transform="translate(124.5,0) scale(0.01400,-0.01400)" d="M333 341Q333 375 322.0 405.5Q311 436 290 450Q221 431 171.5 343.5Q122 256 122.0 179.0Q122 102 160 83Q232 97 282.5 181.5Q333 266 333 341ZM155 15Q104 15 70.0 62.0Q36 109 36.0 181.5Q36 254 70.5 332.0Q105 410 161.5 460.5Q218 511 277.5 511.0Q337 511 377.0 460.5Q417 410 417.0 337.5Q417 265 382.0 189.5Q347 114 285.5 64.5Q224 15 155 15Z"/><path transform="translate(130.9,0) scale(0.01400,-0.01400)" d="M358 514Q401 514 432.5 459.0Q464 404 464.0 345.5Q464 287 430.0 228.5Q396 170 346.0 124.0Q296 78 235.5 47.5Q175 17 124 17Q104 17 86 22Q82 5 72.0 -39.0Q62 -83 55.0 -112.0Q48 -141 39 -174Q21 -242 7.0 -242.0Q-7 -242 -22.5 -220.5Q-38 -199 -38.0 -182.0Q-38 -165 -6 -36Q90 353 90 488Q90 518 112 518Q130 518 155.5 491.5Q181 465 181 433Q181 417 177 398Q266 514 358 514ZM114 95Q167 95 228.5 131.0Q290 167 333.5 226.5Q377 286 377 345Q377 428 338.0 428.0Q299 428 232.5 361.0Q166 294 127 187L104 95Z"/><path transform="translate(137.6,0) scale(0.01400,-0.01400)" d="M393 309Q405 294 405 283Q405 255 392.5 187.0Q380 119 377.5 98.0Q375 77 373.0 64.5Q371 52 368 40Q364 15 350 15Q332 15 320.5 46.5Q309 78 307 128Q218 15 142 15Q96 15 51.5 54.5Q7 94 7 136Q7 196 51.0 284.5Q95 373 165.0 442.0Q235 511 297 511Q342 511 380.0 465.5Q418 420 418.0 383.5Q418 347 393 309ZM343 335Q343 428 306 428Q267 428 215.0 372.5Q163 317 127.0 247.0Q91 177 91 136Q91 119 105.0 108.5Q119 98 138 98Q185 98 244.0 161.5Q303 225 326 316Q329 331 343 334Z"/><path transform="translate(144.1,0) scale(0.01400,-0.01400)" d="M396 -78Q406 -78 415.0 -86.5Q424 -95 424 -105Q424 -121 384.5 -144.5Q345 -168 310.0 -193.0Q275 -218 255.0 -231.5Q235 -245 223.0 -245.0Q211 -245 198.0 -223.5Q185 -202 185.0 -190.0Q185 -178 186.5 -170.5Q188 -163 192.0 -150.0Q196 -137 201.0 -123.5Q206 -110 214.5 -86.0Q223 -62 231.0 -40.5Q239 -19 252.5 18.0Q266 55 278 87Q244 54 204.0 34.5Q164 15 129.0 15.0Q94 15 55.0 57.0Q16 99 16.0 142.5Q16 186 43.5 249.5Q71 313 112.0 371.0Q153 429 208.5 470.0Q264 511 309.5 511.0Q355 511 392.0 474.0Q429 437 429.0 411.5Q429 386 412 386Q400 386 373.5 408.5Q347 431 327 431Q283 431 226.5 374.5Q170 318 132.0 248.0Q94 178 94 136Q94 120 105.0 109.0Q116 98 132 98Q187 98 257.0 160.0Q327 222 352 319Q356 334 372.0 334.0Q388 334 409.5 318.5Q431 303 431.0 288.5Q431 274 414.0 226.5Q397 179 355.5 70.0Q314 -39 283 -127Q356 -78 396 -78Z"/><path transform="translate(150.8,0) scale(0.01400,-0.01400)" d="M463 435Q463 422 419.0 281.0Q375 140 351 57Q339 15 317 15Q304 15 295.0 26.0Q286 37 286.0 66.0Q286 95 309 171Q267 103 218.0 59.0Q169 15 128.5 15.0Q88 15 52.0 53.0Q16 91 16 131Q16 226 71.5 368.5Q127 511 164 511Q182 511 195.5 494.5Q209 478 209 457Q209 448 182.0 392.5Q155 337 128.0 262.5Q101 188 101 132Q101 116 111.0 105.5Q121 95 135 95Q173 95 225.5 162.0Q278 229 321.0 318.0Q364 407 385 483Q389 499 393.0 505.0Q397 511 410.5 511.0Q424 511 443.5 485.0Q463 459 463 435Z"/><path transform="translate(157.5,0) scale(0.01400,-0.01400)" d="M111 241Q97 197 97.0 162.5Q97 128 118.5 109.0Q140 90 189.5 90.0Q239 90 291.5 107.5Q344 125 349 125Q375 125 375 105Q375 78 314.0 46.5Q253 15 195 15Q117 15 68.0 61.5Q19 108 19.0 179.0Q19 250 57.0 327.5Q95 405 155.0 458.0Q215 511 274.0 511.0Q333 511 381.5 455.0Q430 399 430.0 345.5Q430 292 372.5 258.5Q315 225 242.5 225.0Q170 225 111 241ZM279 432Q242 432 202.0 393.5Q162 355 134 298Q174 289 225.0 289.0Q276 289 314.0 305.5Q352 322 352.0 349.0Q352 376 327.5 404.0Q303 432 279 432Z"/></g><g fill="#8d8470" transform="translate(196.0,132)"><path transform="translate(0.0,0) scale(0.01200,-0.01200)" d="M459 791Q475 791 498.5 761.5Q522 732 522.0 706.0Q522 680 497.0 558.5Q472 437 439 307Q367 15 344 15Q330 15 313.5 32.5Q297 50 297.0 63.0Q297 76 304 115Q206 15 133 15Q89 15 53.5 55.0Q18 95 18 138Q18 200 51.5 285.5Q85 371 148.0 441.0Q211 511 282.0 511.0Q353 511 381 426Q432 638 437 761Q437 791 459 791ZM349 300Q349 354 330.5 391.0Q312 428 286 428Q243 428 198.0 375.0Q153 322 126.5 253.5Q100 185 100 135Q100 117 113.0 106.0Q126 95 144 95Q183 95 249.5 151.0Q316 207 346 283L349 295Z"/><path transform="translate(6.0,0) scale(0.01200,-0.01200)" d="M111 241Q97 197 97.0 162.5Q97 128 118.5 109.0Q140 90 189.5 90.0Q239 90 291.5 107.5Q344 125 349 125Q375 125 375 105Q375 78 314.0 46.5Q253 15 195 15Q117 15 68.0 61.5Q19 108 19.0 179.0Q19 250 57.0 327.5Q95 405 155.0 458.0Q215 511 274.0 511.0Q333 511 381.5 455.0Q430 399 430.0 345.5Q430 292 372.5 258.5Q315 225 242.5 225.0Q170 225 111 241ZM279 432Q242 432 202.0 393.5Q162 355 134 298Q174 289 225.0 289.0Q276 289 314.0 305.5Q352 322 352.0 349.0Q352 376 327.5 404.0Q303 432 279 432Z"/><path transform="translate(11.4,0) scale(0.01200,-0.01200)" d="M103 13Q90 13 75.0 32.0Q60 51 60.0 63.0Q60 75 70 110Q120 290 138 367Q95 357 79.0 357.0Q63 357 47.0 371.0Q31 385 31.0 402.0Q31 419 76 432Q134 446 156 450Q166 498 171 524Q195 662 236.0 723.0Q277 784 347 784Q397 784 429.0 744.5Q461 705 461.0 651.5Q461 598 433 598Q409 598 394 652Q389 672 377.0 689.0Q365 706 348.0 706.0Q331 706 317.0 690.5Q303 675 292 646Q263 565 252 498L244 463Q281 468 317.5 468.0Q354 468 370.5 460.0Q387 452 387 440Q387 421 354.0 411.0Q321 401 225 385Q154 97 128 42Q114 13 103 13Z"/><path transform="translate(15.9,0) scale(0.01200,-0.01200)" d="M111 241Q97 197 97.0 162.5Q97 128 118.5 109.0Q140 90 189.5 90.0Q239 90 291.5 107.5Q344 125 349 125Q375 125 375 105Q375 78 314.0 46.5Q253 15 195 15Q117 15 68.0 61.5Q19 108 19.0 179.0Q19 250 57.0 327.5Q95 405 155.0 458.0Q215 511 274.0 511.0Q333 511 381.5 455.0Q430 399 430.0 345.5Q430 292 372.5 258.5Q315 225 242.5 225.0Q170 225 111 241ZM279 432Q242 432 202.0 393.5Q162 355 134 298Q174 289 225.0 289.0Q276 289 314.0 305.5Q352 322 352.0 349.0Q352 376 327.5 404.0Q303 432 279 432Z"/><path transform="translate(21.3,0) scale(0.01200,-0.01200)" d="M492 383Q492 311 459 207Q399 15 351 15Q329 15 329 45Q329 66 350.5 130.5Q372 195 390.5 257.5Q409 320 409.0 351.5Q409 383 399.5 398.0Q390 413 380.5 413.0Q371 413 361.0 407.0Q351 401 338.5 387.0Q326 373 315.0 359.5Q304 346 287.5 321.0Q271 296 260.0 278.5Q249 261 228.0 228.0Q207 195 196.0 178.0Q185 161 167.0 132.0Q149 103 138.5 87.0Q128 71 115 52Q90 15 75.5 15.0Q61 15 42.0 37.5Q23 60 23 77Q23 82 30 104Q49 162 72.0 247.5Q95 333 97 442Q100 515 118 515Q140 515 162.0 492.0Q184 469 184.0 441.5Q184 414 167.5 335.5Q151 257 129 189Q225 352 285.5 431.5Q346 511 384.5 511.0Q423 511 457.5 470.0Q492 429 492 383Z"/><path transform="translate(27.7,0) scale(0.01200,-0.01200)" d="M459 791Q475 791 498.5 761.5Q522 732 522.0 706.0Q522 680 497.0 558.5Q472 437 439 307Q367 15 344 15Q330 15 313.5 32.5Q297 50 297.0 63.0Q297 76 304 115Q206 15 133 15Q89 15 53.5 55.0Q18 95 18 138Q18 200 51.5 285.5Q85 371 148.0 441.0Q211 511 282.0 511.0Q353 511 381 426Q432 638 437 761Q437 791 459 791ZM349 300Q349 354 330.5 391.0Q312 428 286 428Q243 428 198.0 375.0Q153 322 126.5 253.5Q100 185 100 135Q100 117 113.0 106.0Q126 95 144 95Q183 95 249.5 151.0Q316 207 346 283L349 295Z"/><path transform="translate(33.7,0) scale(0.01200,-0.01200)" d="M111 241Q97 197 97.0 162.5Q97 128 118.5 109.0Q140 90 189.5 90.0Q239 90 291.5 107.5Q344 125 349 125Q375 125 375 105Q375 78 314.0 46.5Q253 15 195 15Q117 15 68.0 61.5Q19 108 19.0 179.0Q19 250 57.0 327.5Q95 405 155.0 458.0Q215 511 274.0 511.0Q333 511 381.5 455.0Q430 399 430.0 345.5Q430 292 372.5 258.5Q315 225 242.5 225.0Q170 225 111 241ZM279 432Q242 432 202.0 393.5Q162 355 134 298Q174 289 225.0 289.0Q276 289 314.0 305.5Q352 322 352.0 349.0Q352 376 327.5 404.0Q303 432 279 432Z"/><path transform="translate(39.1,0) scale(0.01200,-0.01200)" d="M459 791Q475 791 498.5 761.5Q522 732 522.0 706.0Q522 680 497.0 558.5Q472 437 439 307Q367 15 344 15Q330 15 313.5 32.5Q297 50 297.0 63.0Q297 76 304 115Q206 15 133 15Q89 15 53.5 55.0Q18 95 18 138Q18 200 51.5 285.5Q85 371 148.0 441.0Q211 511 282.0 511.0Q353 511 381 426Q432 638 437 761Q437 791 459 791ZM349 300Q349 354 330.5 391.0Q312 428 286 428Q243 428 198.0 375.0Q153 322 126.5 253.5Q100 185 100 135Q100 117 113.0 106.0Q126 95 144 95Q183 95 249.5 151.0Q316 207 346 283L349 295Z"/></g><g fill="#2a2620" transform="translate(196.0,150)"><path transform="translate(0.0,0) scale(0.01400,-0.01400)" d="M312 511Q353 511 384.0 474.0Q415 437 415 409Q415 401 410.0 395.5Q405 390 395.5 390.0Q386 390 362.0 408.0Q338 426 319 426Q265 426 193.0 331.0Q121 236 121 165Q121 134 140.5 116.0Q160 98 203.5 98.0Q247 98 283.5 108.5Q320 119 340.0 129.5Q360 140 371 140Q390 140 390 121Q390 92 320.5 53.5Q251 15 192.5 15.0Q134 15 83.0 60.5Q32 106 32.0 168.5Q32 231 74.0 313.0Q116 395 182.5 453.0Q249 511 312 511Z"/><path transform="translate(6.2,0) scale(0.01400,-0.01400)" d="M228 707Q228 519 150 219Q100 15 80 15Q66 15 47.5 37.0Q29 59 29.0 71.0Q29 83 58.0 195.0Q87 307 116.0 470.5Q145 634 145 765Q145 779 149.0 785.0Q153 791 166.0 791.0Q179 791 203.5 762.5Q228 734 228 707Z"/><path transform="translate(9.7,0) scale(0.01400,-0.01400)" d="M393 309Q405 294 405 283Q405 255 392.5 187.0Q380 119 377.5 98.0Q375 77 373.0 64.5Q371 52 368 40Q364 15 350 15Q332 15 320.5 46.5Q309 78 307 128Q218 15 142 15Q96 15 51.5 54.5Q7 94 7 136Q7 196 51.0 284.5Q95 373 165.0 442.0Q235 511 297 511Q342 511 380.0 465.5Q418 420 418.0 383.5Q418 347 393 309ZM343 335Q343 428 306 428Q267 428 215.0 372.5Q163 317 127.0 247.0Q91 177 91 136Q91 119 105.0 108.5Q119 98 138 98Q185 98 244.0 161.5Q303 225 326 316Q329 331 343 334Z"/><path transform="translate(16.2,0) scale(0.01400,-0.01400)" d="M91 389 88 464Q88 511 110 511Q129 511 146.5 486.5Q164 462 164.0 428.5Q164 395 162 378Q249 510 327 510Q376 510 376 486Q376 474 365.0 464.0Q354 454 330 441Q277 418 240.5 370.5Q204 323 181.0 263.0Q158 203 144.5 162.0Q131 121 124.0 98.0Q117 75 108 53Q92 13 71 13Q54 13 43.5 32.5Q33 52 33.0 70.5Q33 89 50 144Q91 270 91 389Z"/><path transform="translate(20.9,0) scale(0.01400,-0.01400)" d="M270 601Q270 591 261.0 583.0Q252 575 242 575Q218 575 188.5 604.0Q159 633 159.0 653.0Q159 673 175.0 691.0Q191 709 207.5 709.0Q224 709 247.0 668.5Q270 628 270 601ZM154 511Q173 511 190.0 488.0Q207 465 207.0 443.0Q207 421 178.0 311.5Q149 202 105 66Q88 16 62 16Q48 16 38.0 27.5Q28 39 28.0 53.5Q28 68 35.5 99.5Q43 131 57.5 183.5Q72 236 80.5 269.0Q89 302 98.0 343.5Q107 385 112.5 410.5Q118 436 125 462Q139 511 154 511Z"/><path transform="translate(24.2,0) scale(0.01400,-0.01400)" d="M143 115Q143 96 165 96Q203 96 257.5 117.5Q312 139 318 139Q336 139 336 120Q336 91 276.5 53.0Q217 15 168.5 15.0Q120 15 88.0 41.5Q56 68 56.0 96.0Q56 124 68.0 167.5Q80 211 102.5 282.5Q125 354 138 401Q91 390 75.0 390.0Q59 390 43.5 406.5Q28 423 28 438Q28 462 158 484Q176 567 176 631Q176 661 196 661Q213 661 238.0 639.5Q263 618 263.0 591.0Q263 564 246 496Q303 501 337 501Q397 501 397 475Q397 460 364.5 450.0Q332 440 228 419Q207 340 175.0 238.5Q143 137 143 115Z"/><path transform="translate(29.6,0) scale(0.01400,-0.01400)" d="M475 435Q475 415 434.0 299.0Q393 183 378.5 141.5Q364 100 339.5 31.5Q315 -37 292 -102Q242 -245 142 -245Q85 -245 33.0 -210.5Q-19 -176 -19 -139Q-19 -125 -6.5 -108.0Q6 -91 15.0 -91.0Q24 -91 44 -113Q102 -179 143 -179Q174 -179 199.0 -124.5Q224 -70 246.5 -1.5Q269 67 271.5 74.0Q274 81 277.5 92.0Q281 103 284 112Q213 15 144 15Q102 15 66.5 54.0Q31 93 31.0 146.0Q31 199 57.0 289.0Q83 379 118.0 445.0Q153 511 175 511Q193 511 208.5 494.5Q224 478 224.0 461.0Q224 444 198 390Q117 224 117 132Q117 116 127.0 105.5Q137 95 151 95Q187 95 237.0 159.0Q287 223 329 311Q364 385 402 500Q406 511 422.0 511.0Q438 511 456.5 487.5Q475 464 475 435Z"/><path transform="translate(41.8,0) scale(0.01400,-0.01400)" d="M333 341Q333 375 322.0 405.5Q311 436 290 450Q221 431 171.5 343.5Q122 256 122.0 179.0Q122 102 160 83Q232 97 282.5 181.5Q333 266 333 341ZM155 15Q104 15 70.0 62.0Q36 109 36.0 181.5Q36 254 70.5 332.0Q105 410 161.5 460.5Q218 511 277.5 511.0Q337 511 377.0 460.5Q417 410 417.0 337.5Q417 265 382.0 189.5Q347 114 285.5 64.5Q224 15 155 15Z"/><path transform="translate(48.1,0) scale(0.01400,-0.01400)" d="M376 511Q393 511 409.0 498.5Q425 486 425 471Q425 444 352.5 284.0Q280 124 249.5 68.5Q219 13 196 13Q183 13 164.0 32.0Q145 51 136 73Q109 136 78.0 276.0Q47 416 47 481Q47 511 65 511Q87 511 110.0 492.5Q133 474 142 446Q145 430 150 366Q164 208 198 123Q225 181 267.0 287.5Q309 394 335.5 452.5Q362 511 376 511Z"/><path transform="translate(54.0,0) scale(0.01400,-0.01400)" d="M111 241Q97 197 97.0 162.5Q97 128 118.5 109.0Q140 90 189.5 90.0Q239 90 291.5 107.5Q344 125 349 125Q375 125 375 105Q375 78 314.0 46.5Q253 15 195 15Q117 15 68.0 61.5Q19 108 19.0 179.0Q19 250 57.0 327.5Q95 405 155.0 458.0Q215 511 274.0 511.0Q333 511 381.5 455.0Q430 399 430.0 345.5Q430 292 372.5 258.5Q315 225 242.5 225.0Q170 225 111 241ZM279 432Q242 432 202.0 393.5Q162 355 134 298Q174 289 225.0 289.0Q276 289 314.0 305.5Q352 322 352.0 349.0Q352 376 327.5 404.0Q303 432 279 432Z"/><path transform="translate(60.3,0) scale(0.01400,-0.01400)" d="M91 389 88 464Q88 511 110 511Q129 511 146.5 486.5Q164 462 164.0 428.5Q164 395 162 378Q249 510 327 510Q376 510 376 486Q376 474 365.0 464.0Q354 454 330 441Q277 418 240.5 370.5Q204 323 181.0 263.0Q158 203 144.5 162.0Q131 121 124.0 98.0Q117 75 108 53Q92 13 71 13Q54 13 43.5 32.5Q33 52 33.0 70.5Q33 89 50 144Q91 270 91 389Z"/><path transform="translate(70.6,0) scale(0.01400,-0.01400)" d="M393 309Q405 294 405 283Q405 255 392.5 187.0Q380 119 377.5 98.0Q375 77 373.0 64.5Q371 52 368 40Q364 15 350 15Q332 15 320.5 46.5Q309 78 307 128Q218 15 142 15Q96 15 51.5 54.5Q7 94 7 136Q7 196 51.0 284.5Q95 373 165.0 442.0Q235 511 297 511Q342 511 380.0 465.5Q418 420 418.0 383.5Q418 347 393 309ZM343 335Q343 428 306 428Q267 428 215.0 372.5Q163 317 127.0 247.0Q91 177 91 136Q91 119 105.0 108.5Q119 98 138 98Q185 98 244.0 161.5Q303 225 326 316Q329 331 343 334Z"/><path transform="translate(82.8,0) scale(0.01400,-0.01400)" d="M317 511Q351 511 381.0 473.5Q411 436 411 408Q411 391 395 391Q384 391 361.0 408.5Q338 426 314.0 426.0Q290 426 238.5 398.0Q187 370 187 339Q187 316 279 260Q314 238 342.5 203.5Q371 169 371.0 129.5Q371 90 316.5 52.5Q262 15 189.5 15.0Q117 15 61.5 50.0Q6 85 6 116Q6 129 12.5 136.5Q19 144 29.0 144.0Q39 144 57 131Q111 92 169.5 92.0Q228 92 254.0 105.5Q280 119 280.0 141.5Q280 164 251.0 189.5Q222 215 187.5 235.0Q153 255 124.0 284.0Q95 313 95 343Q95 396 178.5 453.5Q262 511 317 511Z"/><path transform="translate(88.7,0) scale(0.01400,-0.01400)" d="M358 514Q401 514 432.5 459.0Q464 404 464.0 345.5Q464 287 430.0 228.5Q396 170 346.0 124.0Q296 78 235.5 47.5Q175 17 124 17Q104 17 86 22Q82 5 72.0 -39.0Q62 -83 55.0 -112.0Q48 -141 39 -174Q21 -242 7.0 -242.0Q-7 -242 -22.5 -220.5Q-38 -199 -38.0 -182.0Q-38 -165 -6 -36Q90 353 90 488Q90 518 112 518Q130 518 155.5 491.5Q181 465 181 433Q181 417 177 398Q266 514 358 514ZM114 95Q167 95 228.5 131.0Q290 167 333.5 226.5Q377 286 377 345Q377 428 338.0 428.0Q299 428 232.5 361.0Q166 294 127 187L104 95Z"/><path transform="translate(95.4,0) scale(0.01400,-0.01400)" d="M91 389 88 464Q88 511 110 511Q129 511 146.5 486.5Q164 462 164.0 428.5Q164 395 162 378Q249 510 327 510Q376 510 376 486Q376 474 365.0 464.0Q354 454 330 441Q277 418 240.5 370.5Q204 323 181.0 263.0Q158 203 144.5 162.0Q131 121 124.0 98.0Q117 75 108 53Q92 13 71 13Q54 13 43.5 32.5Q33 52 33.0 70.5Q33 89 50 144Q91 270 91 389Z"/><path transform="translate(100.1,0) scale(0.01400,-0.01400)" d="M111 241Q97 197 97.0 162.5Q97 128 118.5 109.0Q140 90 189.5 90.0Q239 90 291.5 107.5Q344 125 349 125Q375 125 375 105Q375 78 314.0 46.5Q253 15 195 15Q117 15 68.0 61.5Q19 108 19.0 179.0Q19 250 57.0 327.5Q95 405 155.0 458.0Q215 511 274.0 511.0Q333 511 381.5 455.0Q430 399 430.0 345.5Q430 292 372.5 258.5Q315 225 242.5 225.0Q170 225 111 241ZM279 432Q242 432 202.0 393.5Q162 355 134 298Q174 289 225.0 289.0Q276 289 314.0 305.5Q352 322 352.0 349.0Q352 376 327.5 404.0Q303 432 279 432Z"/><path transform="translate(106.4,0) scale(0.01400,-0.01400)" d="M393 309Q405 294 405 283Q405 255 392.5 187.0Q380 119 377.5 98.0Q375 77 373.0 64.5Q371 52 368 40Q364 15 350 15Q332 15 320.5 46.5Q309 78 307 128Q218 15 142 15Q96 15 51.5 54.5Q7 94 7 136Q7 196 51.0 284.5Q95 373 165.0 442.0Q235 511 297 511Q342 511 380.0 465.5Q418 420 418.0 383.5Q418 347 393 309ZM343 335Q343 428 306 428Q267 428 215.0 372.5Q163 317 127.0 247.0Q91 177 91 136Q91 119 105.0 108.5Q119 98 138 98Q185 98 244.0 161.5Q303 225 326 316Q329 331 343 334Z"/><path transform="translate(112.9,0) scale(0.01400,-0.01400)" d="M459 791Q475 791 498.5 761.5Q522 732 522.0 706.0Q522 680 497.0 558.5Q472 437 439 307Q367 15 344 15Q330 15 313.5 32.5Q297 50 297.0 63.0Q297 76 304 115Q206 15 133 15Q89 15 53.5 55.0Q18 95 18 138Q18 200 51.5 285.5Q85 371 148.0 441.0Q211 511 282.0 511.0Q353 511 381 426Q432 638 437 761Q437 791 459 791ZM349 300Q349 354 330.5 391.0Q312 428 286 428Q243 428 198.0 375.0Q153 322 126.5 253.5Q100 185 100 135Q100 117 113.0 106.0Q126 95 144 95Q183 95 249.5 151.0Q316 207 346 283L349 295Z"/><path transform="translate(119.9,0) scale(0.01400,-0.01400)" d="M317 511Q351 511 381.0 473.5Q411 436 411 408Q411 391 395 391Q384 391 361.0 408.5Q338 426 314.0 426.0Q290 426 238.5 398.0Q187 370 187 339Q187 316 279 260Q314 238 342.5 203.5Q371 169 371.0 129.5Q371 90 316.5 52.5Q262 15 189.5 15.0Q117 15 61.5 50.0Q6 85 6 116Q6 129 12.5 136.5Q19 144 29.0 144.0Q39 144 57 131Q111 92 169.5 92.0Q228 92 254.0 105.5Q280 119 280.0 141.5Q280 164 251.0 189.5Q222 215 187.5 235.0Q153 255 124.0 284.0Q95 313 95 343Q95 396 178.5 453.5Q262 511 317 511Z"/><path transform="translate(125.9,0) scale(0.01400,-0.01400)" d="M149 752Q149 791 173 791Q192 791 213.5 761.0Q235 731 235 703Q235 638 202.5 481.5Q170 325 118 169Q218 350 285.5 430.5Q353 511 401 511Q427 511 461.5 466.0Q496 421 496.0 376.0Q496 331 471 241Q409 15 354 15Q332 15 332.0 45.0Q332 75 356 146Q409 301 409 355Q409 373 400.0 385.0Q391 397 378.0 397.0Q365 397 346.0 383.0Q327 369 300 334Q266 289 229.5 233.0Q193 177 185.5 165.5Q178 154 159.5 124.0Q141 94 132.0 79.5Q123 65 110 48Q87 15 75.0 15.0Q63 15 43.0 37.5Q23 60 23.0 75.5Q23 91 34 134Q84 326 97 397Q149 657 149 752Z"/><path transform="translate(133.4,0) scale(0.01400,-0.01400)" d="M111 241Q97 197 97.0 162.5Q97 128 118.5 109.0Q140 90 189.5 90.0Q239 90 291.5 107.5Q344 125 349 125Q375 125 375 105Q375 78 314.0 46.5Q253 15 195 15Q117 15 68.0 61.5Q19 108 19.0 179.0Q19 250 57.0 327.5Q95 405 155.0 458.0Q215 511 274.0 511.0Q333 511 381.5 455.0Q430 399 430.0 345.5Q430 292 372.5 258.5Q315 225 242.5 225.0Q170 225 111 241ZM279 432Q242 432 202.0 393.5Q162 355 134 298Q174 289 225.0 289.0Q276 289 314.0 305.5Q352 322 352.0 349.0Q352 376 327.5 404.0Q303 432 279 432Z"/><path transform="translate(139.7,0) scale(0.01400,-0.01400)" d="M111 241Q97 197 97.0 162.5Q97 128 118.5 109.0Q140 90 189.5 90.0Q239 90 291.5 107.5Q344 125 349 125Q375 125 375 105Q375 78 314.0 46.5Q253 15 195 15Q117 15 68.0 61.5Q19 108 19.0 179.0Q19 250 57.0 327.5Q95 405 155.0 458.0Q215 511 274.0 511.0Q333 511 381.5 455.0Q430 399 430.0 345.5Q430 292 372.5 258.5Q315 225 242.5 225.0Q170 225 111 241ZM279 432Q242 432 202.0 393.5Q162 355 134 298Q174 289 225.0 289.0Q276 289 314.0 305.5Q352 322 352.0 349.0Q352 376 327.5 404.0Q303 432 279 432Z"/><path transform="translate(146.0,0) scale(0.01400,-0.01400)" d="M143 115Q143 96 165 96Q203 96 257.5 117.5Q312 139 318 139Q336 139 336 120Q336 91 276.5 53.0Q217 15 168.5 15.0Q120 15 88.0 41.5Q56 68 56.0 96.0Q56 124 68.0 167.5Q80 211 102.5 282.5Q125 354 138 401Q91 390 75.0 390.0Q59 390 43.5 406.5Q28 423 28 438Q28 462 158 484Q176 567 176 631Q176 661 196 661Q213 661 238.0 639.5Q263 618 263.0 591.0Q263 564 246 496Q303 501 337 501Q397 501 397 475Q397 460 364.5 450.0Q332 440 228 419Q207 340 175.0 238.5Q143 137 143 115Z"/></g><g fill="#8d8470" transform="translate(196.0,172)"><path transform="translate(0.0,0) scale(0.01200,-0.01200)" d="M333 341Q333 375 322.0 405.5Q311 436 290 450Q221 431 171.5 343.5Q122 256 122.0 179.0Q122 102 160 83Q232 97 282.5 181.5Q333 266 333 341ZM155 15Q104 15 70.0 62.0Q36 109 36.0 181.5Q36 254 70.5 332.0Q105 410 161.5 460.5Q218 511 277.5 511.0Q337 511 377.0 460.5Q417 410 417.0 337.5Q417 265 382.0 189.5Q347 114 285.5 64.5Q224 15 155 15Z"/><path transform="translate(5.4,0) scale(0.01200,-0.01200)" d="M463 435Q463 422 419.0 281.0Q375 140 351 57Q339 15 317 15Q304 15 295.0 26.0Q286 37 286.0 66.0Q286 95 309 171Q267 103 218.0 59.0Q169 15 128.5 15.0Q88 15 52.0 53.0Q16 91 16 131Q16 226 71.5 368.5Q127 511 164 511Q182 511 195.5 494.5Q209 478 209 457Q209 448 182.0 392.5Q155 337 128.0 262.5Q101 188 101 132Q101 116 111.0 105.5Q121 95 135 95Q173 95 225.5 162.0Q278 229 321.0 318.0Q364 407 385 483Q389 499 393.0 505.0Q397 511 410.5 511.0Q424 511 443.5 485.0Q463 459 463 435Z"/><path transform="translate(11.2,0) scale(0.01200,-0.01200)" d="M143 115Q143 96 165 96Q203 96 257.5 117.5Q312 139 318 139Q336 139 336 120Q336 91 276.5 53.0Q217 15 168.5 15.0Q120 15 88.0 41.5Q56 68 56.0 96.0Q56 124 68.0 167.5Q80 211 102.5 282.5Q125 354 138 401Q91 390 75.0 390.0Q59 390 43.5 406.5Q28 423 28 438Q28 462 158 484Q176 567 176 631Q176 661 196 661Q213 661 238.0 639.5Q263 618 263.0 591.0Q263 564 246 496Q303 501 337 501Q397 501 397 475Q397 460 364.5 450.0Q332 440 228 419Q207 340 175.0 238.5Q143 137 143 115Z"/><path transform="translate(15.9,0) scale(0.01200,-0.01200)" d="M312 511Q353 511 384.0 474.0Q415 437 415 409Q415 401 410.0 395.5Q405 390 395.5 390.0Q386 390 362.0 408.0Q338 426 319 426Q265 426 193.0 331.0Q121 236 121 165Q121 134 140.5 116.0Q160 98 203.5 98.0Q247 98 283.5 108.5Q320 119 340.0 129.5Q360 140 371 140Q390 140 390 121Q390 92 320.5 53.5Q251 15 192.5 15.0Q134 15 83.0 60.5Q32 106 32.0 168.5Q32 231 74.0 313.0Q116 395 182.5 453.0Q249 511 312 511Z"/><path transform="translate(21.2,0) scale(0.01200,-0.01200)" d="M333 341Q333 375 322.0 405.5Q311 436 290 450Q221 431 171.5 343.5Q122 256 122.0 179.0Q122 102 160 83Q232 97 282.5 181.5Q333 266 333 341ZM155 15Q104 15 70.0 62.0Q36 109 36.0 181.5Q36 254 70.5 332.0Q105 410 161.5 460.5Q218 511 277.5 511.0Q337 511 377.0 460.5Q417 410 417.0 337.5Q417 265 382.0 189.5Q347 114 285.5 64.5Q224 15 155 15Z"/><path transform="translate(26.6,0) scale(0.01200,-0.01200)" d="M678 511Q708 511 731.5 469.5Q755 428 755.0 375.5Q755 323 736.5 239.0Q718 155 687.0 85.0Q656 15 626 15Q605 15 605.0 42.5Q605 70 639.5 177.5Q674 285 674.0 348.5Q674 412 654 412Q629 412 596.5 368.0Q564 324 527.0 262.0Q490 200 487.0 195.5Q484 191 479.5 183.0Q475 175 469.5 166.0Q464 157 441.5 112.0Q419 67 402.0 41.5Q385 16 372.5 16.0Q360 16 345.0 32.0Q330 48 330.0 62.0Q330 76 348 120Q400 250 400 362Q400 383 391.0 397.5Q382 412 371.0 412.0Q360 412 348.0 402.5Q336 393 318.0 368.5Q300 344 286.0 322.0Q272 300 243.5 253.5Q215 207 200.5 184.5Q186 162 167.0 132.5Q148 103 137.5 87.0Q127 71 114 52Q87 15 74.5 15.0Q62 15 42.0 37.5Q22 60 22.0 71.5Q22 83 26.0 100.0Q30 117 34.5 133.0Q39 149 48.5 180.5Q58 212 70.5 254.5Q83 297 89.5 371.5Q96 446 99.0 480.5Q102 515 116 515Q138 515 159.5 492.0Q181 469 181 446Q181 358 115 156Q227 366 256.0 405.0Q285 444 306 468Q345 511 385 511Q409 511 442.5 469.5Q476 428 476.0 386.0Q476 344 464 282Q582 511 678 511Z"/><path transform="translate(36.2,0) scale(0.01200,-0.01200)" d="M111 241Q97 197 97.0 162.5Q97 128 118.5 109.0Q140 90 189.5 90.0Q239 90 291.5 107.5Q344 125 349 125Q375 125 375 105Q375 78 314.0 46.5Q253 15 195 15Q117 15 68.0 61.5Q19 108 19.0 179.0Q19 250 57.0 327.5Q95 405 155.0 458.0Q215 511 274.0 511.0Q333 511 381.5 455.0Q430 399 430.0 345.5Q430 292 372.5 258.5Q315 225 242.5 225.0Q170 225 111 241ZM279 432Q242 432 202.0 393.5Q162 355 134 298Q174 289 225.0 289.0Q276 289 314.0 305.5Q352 322 352.0 349.0Q352 376 327.5 404.0Q303 432 279 432Z"/></g><g fill="#b5462f" transform="translate(196.0,190)"><path transform="translate(0.0,0) scale(0.01400,-0.01400)" d="M393 309Q405 294 405 283Q405 255 392.5 187.0Q380 119 377.5 98.0Q375 77 373.0 64.5Q371 52 368 40Q364 15 350 15Q332 15 320.5 46.5Q309 78 307 128Q218 15 142 15Q96 15 51.5 54.5Q7 94 7 136Q7 196 51.0 284.5Q95 373 165.0 442.0Q235 511 297 511Q342 511 380.0 465.5Q418 420 418.0 383.5Q418 347 393 309ZM343 335Q343 428 306 428Q267 428 215.0 372.5Q163 317 127.0 247.0Q91 177 91 136Q91 119 105.0 108.5Q119 98 138 98Q185 98 244.0 161.5Q303 225 326 316Q329 331 343 334Z"/><path transform="translate(12.2,0) scale(0.01400,-0.01400)" d="M459 791Q475 791 498.5 761.5Q522 732 522.0 706.0Q522 680 497.0 558.5Q472 437 439 307Q367 15 344 15Q330 15 313.5 32.5Q297 50 297.0 63.0Q297 76 304 115Q206 15 133 15Q89 15 53.5 55.0Q18 95 18 138Q18 200 51.5 285.5Q85 371 148.0 441.0Q211 511 282.0 511.0Q353 511 381 426Q432 638 437 761Q437 791 459 791ZM349 300Q349 354 330.5 391.0Q312 428 286 428Q243 428 198.0 375.0Q153 322 126.5 253.5Q100 185 100 135Q100 117 113.0 106.0Q126 95 144 95Q183 95 249.5 151.0Q316 207 346 283L349 295Z"/><path transform="translate(19.2,0) scale(0.01400,-0.01400)" d="M111 241Q97 197 97.0 162.5Q97 128 118.5 109.0Q140 90 189.5 90.0Q239 90 291.5 107.5Q344 125 349 125Q375 125 375 105Q375 78 314.0 46.5Q253 15 195 15Q117 15 68.0 61.5Q19 108 19.0 179.0Q19 250 57.0 327.5Q95 405 155.0 458.0Q215 511 274.0 511.0Q333 511 381.5 455.0Q430 399 430.0 345.5Q430 292 372.5 258.5Q315 225 242.5 225.0Q170 225 111 241ZM279 432Q242 432 202.0 393.5Q162 355 134 298Q174 289 225.0 289.0Q276 289 314.0 305.5Q352 322 352.0 349.0Q352 376 327.5 404.0Q303 432 279 432Z"/><path transform="translate(25.5,0) scale(0.01400,-0.01400)" d="M312 511Q353 511 384.0 474.0Q415 437 415 409Q415 401 410.0 395.5Q405 390 395.5 390.0Q386 390 362.0 408.0Q338 426 319 426Q265 426 193.0 331.0Q121 236 121 165Q121 134 140.5 116.0Q160 98 203.5 98.0Q247 98 283.5 108.5Q320 119 340.0 129.5Q360 140 371 140Q390 140 390 121Q390 92 320.5 53.5Q251 15 192.5 15.0Q134 15 83.0 60.5Q32 106 32.0 168.5Q32 231 74.0 313.0Q116 395 182.5 453.0Q249 511 312 511Z"/><path transform="translate(31.7,0) scale(0.01400,-0.01400)" d="M270 601Q270 591 261.0 583.0Q252 575 242 575Q218 575 188.5 604.0Q159 633 159.0 653.0Q159 673 175.0 691.0Q191 709 207.5 709.0Q224 709 247.0 668.5Q270 628 270 601ZM154 511Q173 511 190.0 488.0Q207 465 207.0 443.0Q207 421 178.0 311.5Q149 202 105 66Q88 16 62 16Q48 16 38.0 27.5Q28 39 28.0 53.5Q28 68 35.5 99.5Q43 131 57.5 183.5Q72 236 80.5 269.0Q89 302 98.0 343.5Q107 385 112.5 410.5Q118 436 125 462Q139 511 154 511Z"/><path transform="translate(35.0,0) scale(0.01400,-0.01400)" d="M317 511Q351 511 381.0 473.5Q411 436 411 408Q411 391 395 391Q384 391 361.0 408.5Q338 426 314.0 426.0Q290 426 238.5 398.0Q187 370 187 339Q187 316 279 260Q314 238 342.5 203.5Q371 169 371.0 129.5Q371 90 316.5 52.5Q262 15 189.5 15.0Q117 15 61.5 50.0Q6 85 6 116Q6 129 12.5 136.5Q19 144 29.0 144.0Q39 144 57 131Q111 92 169.5 92.0Q228 92 254.0 105.5Q280 119 280.0 141.5Q280 164 251.0 189.5Q222 215 187.5 235.0Q153 255 124.0 284.0Q95 313 95 343Q95 396 178.5 453.5Q262 511 317 511Z"/><path transform="translate(41.0,0) scale(0.01400,-0.01400)" d="M270 601Q270 591 261.0 583.0Q252 575 242 575Q218 575 188.5 604.0Q159 633 159.0 653.0Q159 673 175.0 691.0Q191 709 207.5 709.0Q224 709 247.0 668.5Q270 628 270 601ZM154 511Q173 511 190.0 488.0Q207 465 207.0 443.0Q207 421 178.0 311.5Q149 202 105 66Q88 16 62 16Q48 16 38.0 27.5Q28 39 28.0 53.5Q28 68 35.5 99.5Q43 131 57.5 183.5Q72 236 80.5 269.0Q89 302 98.0 343.5Q107 385 112.5 410.5Q118 436 125 462Q139 511 154 511Z"/><path transform="translate(44.3,0) scale(0.01400,-0.01400)" d="M333 341Q333 375 322.0 405.5Q311 436 290 450Q221 431 171.5 343.5Q122 256 122.0 179.0Q122 102 160 83Q232 97 282.5 181.5Q333 266 333 341ZM155 15Q104 15 70.0 62.0Q36 109 36.0 181.5Q36 254 70.5 332.0Q105 410 161.5 460.5Q218 511 277.5 511.0Q337 511 377.0 460.5Q417 410 417.0 337.5Q417 265 382.0 189.5Q347 114 285.5 64.5Q224 15 155 15Z"/><path transform="translate(50.7,0) scale(0.01400,-0.01400)" d="M492 383Q492 311 459 207Q399 15 351 15Q329 15 329 45Q329 66 350.5 130.5Q372 195 390.5 257.5Q409 320 409.0 351.5Q409 383 399.5 398.0Q390 413 380.5 413.0Q371 413 361.0 407.0Q351 401 338.5 387.0Q326 373 315.0 359.5Q304 346 287.5 321.0Q271 296 260.0 278.5Q249 261 228.0 228.0Q207 195 196.0 178.0Q185 161 167.0 132.0Q149 103 138.5 87.0Q128 71 115 52Q90 15 75.5 15.0Q61 15 42.0 37.5Q23 60 23 77Q23 82 30 104Q49 162 72.0 247.5Q95 333 97 442Q100 515 118 515Q140 515 162.0 492.0Q184 469 184.0 441.5Q184 414 167.5 335.5Q151 257 129 189Q225 352 285.5 431.5Q346 511 384.5 511.0Q423 511 457.5 470.0Q492 429 492 383Z"/><path transform="translate(58.1,0) scale(0.01400,-0.01400)" d="M174 26Q174 -37 120.0 -106.5Q66 -176 27 -176Q7 -176 7 -162Q7 -151 28 -126Q91 -51 91 -1Q91 15 78.5 25.5Q66 36 53.0 45.0Q40 54 40.0 67.5Q40 81 57.0 101.5Q74 122 93 122Q125 122 149.5 92.5Q174 63 174 26Z"/><path transform="translate(66.9,0) scale(0.01400,-0.01400)" d="M492 383Q492 311 459 207Q399 15 351 15Q329 15 329 45Q329 66 350.5 130.5Q372 195 390.5 257.5Q409 320 409.0 351.5Q409 383 399.5 398.0Q390 413 380.5 413.0Q371 413 361.0 407.0Q351 401 338.5 387.0Q326 373 315.0 359.5Q304 346 287.5 321.0Q271 296 260.0 278.5Q249 261 228.0 228.0Q207 195 196.0 178.0Q185 161 167.0 132.0Q149 103 138.5 87.0Q128 71 115 52Q90 15 75.5 15.0Q61 15 42.0 37.5Q23 60 23 77Q23 82 30 104Q49 162 72.0 247.5Q95 333 97 442Q100 515 118 515Q140 515 162.0 492.0Q184 469 184.0 441.5Q184 414 167.5 335.5Q151 257 129 189Q225 352 285.5 431.5Q346 511 384.5 511.0Q423 511 457.5 470.0Q492 429 492 383Z"/><path transform="translate(74.4,0) scale(0.01400,-0.01400)" d="M333 341Q333 375 322.0 405.5Q311 436 290 450Q221 431 171.5 343.5Q122 256 122.0 179.0Q122 102 160 83Q232 97 282.5 181.5Q333 266 333 341ZM155 15Q104 15 70.0 62.0Q36 109 36.0 181.5Q36 254 70.5 332.0Q105 410 161.5 460.5Q218 511 277.5 511.0Q337 511 377.0 460.5Q417 410 417.0 337.5Q417 265 382.0 189.5Q347 114 285.5 64.5Q224 15 155 15Z"/><path transform="translate(80.7,0) scale(0.01400,-0.01400)" d="M143 115Q143 96 165 96Q203 96 257.5 117.5Q312 139 318 139Q336 139 336 120Q336 91 276.5 53.0Q217 15 168.5 15.0Q120 15 88.0 41.5Q56 68 56.0 96.0Q56 124 68.0 167.5Q80 211 102.5 282.5Q125 354 138 401Q91 390 75.0 390.0Q59 390 43.5 406.5Q28 423 28 438Q28 462 158 484Q176 567 176 631Q176 661 196 661Q213 661 238.0 639.5Q263 618 263.0 591.0Q263 564 246 496Q303 501 337 501Q397 501 397 475Q397 460 364.5 450.0Q332 440 228 419Q207 340 175.0 238.5Q143 137 143 115Z"/><path transform="translate(91.8,0) scale(0.01400,-0.01400)" d="M393 309Q405 294 405 283Q405 255 392.5 187.0Q380 119 377.5 98.0Q375 77 373.0 64.5Q371 52 368 40Q364 15 350 15Q332 15 320.5 46.5Q309 78 307 128Q218 15 142 15Q96 15 51.5 54.5Q7 94 7 136Q7 196 51.0 284.5Q95 373 165.0 442.0Q235 511 297 511Q342 511 380.0 465.5Q418 420 418.0 383.5Q418 347 393 309ZM343 335Q343 428 306 428Q267 428 215.0 372.5Q163 317 127.0 247.0Q91 177 91 136Q91 119 105.0 108.5Q119 98 138 98Q185 98 244.0 161.5Q303 225 326 316Q329 331 343 334Z"/><path transform="translate(104.0,0) scale(0.01400,-0.01400)" d="M492 383Q492 311 459 207Q399 15 351 15Q329 15 329 45Q329 66 350.5 130.5Q372 195 390.5 257.5Q409 320 409.0 351.5Q409 383 399.5 398.0Q390 413 380.5 413.0Q371 413 361.0 407.0Q351 401 338.5 387.0Q326 373 315.0 359.5Q304 346 287.5 321.0Q271 296 260.0 278.5Q249 261 228.0 228.0Q207 195 196.0 178.0Q185 161 167.0 132.0Q149 103 138.5 87.0Q128 71 115 52Q90 15 75.5 15.0Q61 15 42.0 37.5Q23 60 23 77Q23 82 30 104Q49 162 72.0 247.5Q95 333 97 442Q100 515 118 515Q140 515 162.0 492.0Q184 469 184.0 441.5Q184 414 167.5 335.5Q151 257 129 189Q225 352 285.5 431.5Q346 511 384.5 511.0Q423 511 457.5 470.0Q492 429 492 383Z"/><path transform="translate(111.4,0) scale(0.01400,-0.01400)" d="M463 435Q463 422 419.0 281.0Q375 140 351 57Q339 15 317 15Q304 15 295.0 26.0Q286 37 286.0 66.0Q286 95 309 171Q267 103 218.0 59.0Q169 15 128.5 15.0Q88 15 52.0 53.0Q16 91 16 131Q16 226 71.5 368.5Q127 511 164 511Q182 511 195.5 494.5Q209 478 209 457Q209 448 182.0 392.5Q155 337 128.0 262.5Q101 188 101 132Q101 116 111.0 105.5Q121 95 135 95Q173 95 225.5 162.0Q278 229 321.0 318.0Q364 407 385 483Q389 499 393.0 505.0Q397 511 410.5 511.0Q424 511 443.5 485.0Q463 459 463 435Z"/><path transform="translate(118.1,0) scale(0.01400,-0.01400)" d="M678 511Q708 511 731.5 469.5Q755 428 755.0 375.5Q755 323 736.5 239.0Q718 155 687.0 85.0Q656 15 626 15Q605 15 605.0 42.5Q605 70 639.5 177.5Q674 285 674.0 348.5Q674 412 654 412Q629 412 596.5 368.0Q564 324 527.0 262.0Q490 200 487.0 195.5Q484 191 479.5 183.0Q475 175 469.5 166.0Q464 157 441.5 112.0Q419 67 402.0 41.5Q385 16 372.5 16.0Q360 16 345.0 32.0Q330 48 330.0 62.0Q330 76 348 120Q400 250 400 362Q400 383 391.0 397.5Q382 412 371.0 412.0Q360 412 348.0 402.5Q336 393 318.0 368.5Q300 344 286.0 322.0Q272 300 243.5 253.5Q215 207 200.5 184.5Q186 162 167.0 132.5Q148 103 137.5 87.0Q127 71 114 52Q87 15 74.5 15.0Q62 15 42.0 37.5Q22 60 22.0 71.5Q22 83 26.0 100.0Q30 117 34.5 133.0Q39 149 48.5 180.5Q58 212 70.5 254.5Q83 297 89.5 371.5Q96 446 99.0 480.5Q102 515 116 515Q138 515 159.5 492.0Q181 469 181 446Q181 358 115 156Q227 366 256.0 405.0Q285 444 306 468Q345 511 385 511Q409 511 442.5 469.5Q476 428 476.0 386.0Q476 344 464 282Q582 511 678 511Z"/><path transform="translate(129.3,0) scale(0.01400,-0.01400)" d="M74 15Q60 15 41.0 36.5Q22 58 22.0 77.0Q22 96 53.5 207.0Q85 318 116.5 474.5Q148 631 148 761Q148 791 170 791Q186 791 209.0 761.5Q232 732 232 704Q232 581 178 353Q297 514 394 514Q441 514 473.5 468.0Q506 422 506.0 358.5Q506 295 469.5 213.0Q433 131 371.0 72.5Q309 14 241.0 14.0Q173 14 107 83L106 82Q84 15 74 15ZM233 92Q298 92 360.5 180.5Q423 269 423 367Q423 426 387 426Q329 426 257.5 345.0Q186 264 134 152Q181 92 233 92Z"/><path transform="translate(136.6,0) scale(0.01400,-0.01400)" d="M111 241Q97 197 97.0 162.5Q97 128 118.5 109.0Q140 90 189.5 90.0Q239 90 291.5 107.5Q344 125 349 125Q375 125 375 105Q375 78 314.0 46.5Q253 15 195 15Q117 15 68.0 61.5Q19 108 19.0 179.0Q19 250 57.0 327.5Q95 405 155.0 458.0Q215 511 274.0 511.0Q333 511 381.5 455.0Q430 399 430.0 345.5Q430 292 372.5 258.5Q315 225 242.5 225.0Q170 225 111 241ZM279 432Q242 432 202.0 393.5Q162 355 134 298Q174 289 225.0 289.0Q276 289 314.0 305.5Q352 322 352.0 349.0Q352 376 327.5 404.0Q303 432 279 432Z"/><path transform="translate(142.9,0) scale(0.01400,-0.01400)" d="M91 389 88 464Q88 511 110 511Q129 511 146.5 486.5Q164 462 164.0 428.5Q164 395 162 378Q249 510 327 510Q376 510 376 486Q376 474 365.0 464.0Q354 454 330 441Q277 418 240.5 370.5Q204 323 181.0 263.0Q158 203 144.5 162.0Q131 121 124.0 98.0Q117 75 108 53Q92 13 71 13Q54 13 43.5 32.5Q33 52 33.0 70.5Q33 89 50 144Q91 270 91 389Z"/></g></svg>