<svg xmlns="http://www.w3.org/2000/svg" viewBox="0 0 820 250" width="820" height="250" role="img" aria-label="Hand-drawn content pipeline with a validate gate that can fail back, looping to the next cycle."><defs><filter id="r"><feTurbulence type="fractalNoise" baseFrequency="0.012 0.016" numOctaves="2" seed="45" result="n"/><feDisplacementMap in="SourceGraphic" in2="n" scale="2.2"/></filter><filter id="r2"><feTurbulence type="fractalNoise" baseFrequency="0.022" numOctaves="2" seed="56" result="n"/><feDisplacementMap in="SourceGraphic" in2="n" scale="3"/></filter></defs><rect width="820" height="250" rx="6" fill="#f3ead5"/><circle cx="233" cy="123" r="0.5" fill="#2a2620" opacity="0.07"/><circle cx="78" cy="24" r="0.6" fill="#2a2620" opacity="0.05"/><circle cx="263" cy="175" r="0.4" fill="#2a2620" opacity="0.09"/><circle cx="127" cy="186" r="0.9" fill="#2a2620" opacity="0.06"/><circle cx="680" cy="170" r="0.5" fill="#2a2620" opacity="0.07"/><circle cx="566" cy="212" r="0.5" fill="#2a2620" opacity="0.06"/><circle cx="623" cy="220" r="0.5" fill="#2a2620" opacity="0.05"/><circle cx="605" cy="87" r="0.7" fill="#2a2620" opacity="0.11"/><circle cx="601" cy="158" r="1.0" fill="#2a2620" opacity="0.10"/><circle cx="651" cy="155" r="0.8" fill="#2a2620" opacity="0.04"/><circle cx="728" cy="210" r="0.6" fill="#2a2620" opacity="0.09"/><circle cx="35" cy="125" r="0.8" fill="#2a2620" opacity="0.06"/><circle cx="344" cy="194" r="0.5" fill="#2a2620" opacity="0.08"/><circle cx="89" cy="101" r="1.0" fill="#2a2620" opacity="0.09"/><circle cx="45" cy="199" r="0.9" fill="#2a2620" opacity="0.08"/><circle cx="246" cy="84" r="0.5" fill="#2a2620" opacity="0.09"/><circle cx="61" cy="217" r="0.5" fill="#2a2620" opacity="0.09"/><circle cx="469" cy="97" r="0.6" fill="#2a2620" opacity="0.08"/><circle cx="278" cy="222" r="0.9" fill="#2a2620" opacity="0.08"/><circle cx="537" cy="124" r="0.5" fill="#2a2620" opacity="0.04"/><circle cx="775" cy="196" r="0.5" fill="#2a2620" opacity="0.09"/><circle cx="631" cy="206" r="0.4" fill="#2a2620" opacity="0.05"/><circle cx="326" cy="146" r="0.5" fill="#2a2620" opacity="0.10"/><circle cx="608" cy="114" r="1.0" fill="#2a2620" opacity="0.07"/><circle cx="669" cy="101" r="0.7" fill="#2a2620" opacity="0.07"/><circle cx="573" cy="204" r="0.5" fill="#2a2620" opacity="0.09"/><circle cx="670" cy="165" r="0.6" fill="#2a2620" opacity="0.07"/><circle cx="710" cy="66" r="1.1" fill="#2a2620" opacity="0.07"/><circle cx="426" cy="168" r="0.9" fill="#2a2620" opacity="0.09"/><circle cx="695" cy="154" r="1.0" fill="#2a2620" opacity="0.09"/><rect x="12" y="12" width="796" height="226" rx="3" fill="none" stroke="#2a2620" stroke-width="1.5" opacity="0.8" filter="url(#r)"/><g fill="#2a2620" transform="translate(40.0,52)"><path transform="translate(0.0,0) scale(0.02200,-0.02200)" d="M472 13Q458 13 430.0 33.0Q402 53 390 78Q369 119 369 318Q326 178 271.0 95.5Q216 13 182 13Q167 13 138.5 33.0Q110 53 102 73Q80 127 60.0 279.0Q40 431 40 487Q40 528 68 528Q106 528 146.0 482.0Q186 436 186 410Q186 265 189 179Q229 240 261.5 331.0Q294 422 314.0 475.0Q334 528 356 528Q400 528 443.0 485.5Q486 443 486 399Q486 379 479.5 316.0Q473 253 473.0 221.0Q473 189 477 168Q510 201 534.5 265.0Q559 329 570 386Q598 528 625.5 528.0Q653 528 686.5 509.0Q720 490 720.0 469.0Q720 448 686.0 327.0Q652 206 579.5 109.5Q507 13 472 13Z"/><path transform="translate(15.6,0) scale(0.02200,-0.02200)" d="M450 296Q468 280 468.0 267.0Q468 254 456.0 213.0Q444 172 440.0 149.5Q436 127 433.5 114.0Q431 101 430.0 93.5Q429 86 426.5 75.0Q424 64 422.5 57.5Q421 51 418.5 42.5Q416 34 413.0 29.5Q410 25 406 20Q400 12 386.0 12.0Q372 12 351.5 40.0Q331 68 321 108Q227 12 163 12Q120 12 70.0 59.5Q20 107 20.0 154.5Q20 202 63.0 290.0Q106 378 180.5 453.0Q255 528 328 528Q370 528 425.0 479.0Q480 430 480.0 389.5Q480 349 450 296ZM159 138Q199 138 265.5 192.5Q332 247 348 330Q349 342 365 344Q362 401 346 401Q306 401 256.5 349.0Q207 297 175.5 238.0Q144 179 144 151Q144 143 146.5 140.5Q149 138 159 138Z"/><path transform="translate(26.8,0) scale(0.02200,-0.02200)" d="M368 175Q393 175 393.0 141.0Q393 107 326.0 59.5Q259 12 186 12Q154 12 110.0 47.0Q66 82 66 118Q66 148 96.5 244.5Q127 341 138 377Q99 366 79.0 366.0Q59 366 37.0 393.5Q15 421 15 446Q15 478 170 500Q189 593 189 661Q189 691 219 691Q245 691 285.5 659.5Q326 628 326.0 597.5Q326 567 313 512Q361 514 386 514Q461 514 461 480Q461 458 417.5 442.5Q374 427 284 409Q276 382 260.5 333.5Q245 285 222.5 212.0Q200 139 200.0 134.5Q200 130 216.5 130.0Q233 130 295.0 152.5Q357 175 368 175Z"/><path transform="translate(36.8,0) scale(0.02200,-0.02200)" d="M25 169Q25 239 69.0 323.0Q113 407 184.5 467.0Q256 527 325 527Q360 527 397.0 481.5Q434 436 434 400Q434 374 410 374Q398 374 377.0 385.0Q356 396 334.0 396.0Q312 396 271.5 358.5Q231 321 199.5 268.5Q168 216 168.0 186.0Q168 156 179.5 147.0Q191 138 235.5 138.0Q280 138 316.5 146.0Q353 154 370.5 162.5Q388 171 402 171Q430 171 430 147Q430 103 353.0 57.5Q276 12 199 12Q150 12 87.5 66.5Q25 121 25 169Z"/><path transform="translate(47.5,0) scale(0.02200,-0.02200)" d="M150 766Q150 808 183 808Q210 808 245.0 763.0Q280 718 280.0 686.0Q280 654 267.0 596.0Q254 538 240.5 490.0Q227 442 200.0 353.5Q173 265 163 230Q228 362 300.5 445.0Q373 528 422 528Q453 528 493.0 473.5Q533 419 533.0 375.5Q533 332 517.0 249.0Q501 166 461.0 89.0Q421 12 379 12Q346 12 346 59Q346 93 366 170Q395 285 395.0 310.0Q395 335 387 335Q329 335 217 142Q179 76 153.5 44.0Q128 12 105.0 12.0Q82 12 49.5 49.0Q17 86 17.0 106.5Q17 127 25.5 167.0Q34 207 51.5 281.0Q69 355 109.5 549.5Q150 744 150 766Z"/><path transform="translate(68.4,0) scale(0.02200,-0.02200)" d="M228 551Q199 551 161.0 589.0Q123 627 123.0 653.0Q123 679 146.5 706.5Q170 734 192.5 734.0Q215 734 246.0 680.0Q277 626 277.0 601.5Q277 577 261.0 564.0Q245 551 228 551ZM138 528Q173 528 200.5 488.0Q228 448 228 411Q228 392 193.5 274.5Q159 157 125 52Q113 13 76 13Q54 13 37.5 29.5Q21 46 21.0 72.5Q21 99 46.5 204.5Q72 310 85.5 384.5Q99 459 110.5 493.5Q122 528 138 528Z"/><path transform="translate(74.1,0) scale(0.02200,-0.02200)" d="M368 175Q393 175 393.0 141.0Q393 107 326.0 59.5Q259 12 186 12Q154 12 110.0 47.0Q66 82 66 118Q66 148 96.5 244.5Q127 341 138 377Q99 366 79.0 366.0Q59 366 37.0 393.5Q15 421 15 446Q15 478 170 500Q189 593 189 661Q189 691 219 691Q245 691 285.5 659.5Q326 628 326.0 597.5Q326 567 313 512Q361 514 386 514Q461 514 461 480Q461 458 417.5 442.5Q374 427 284 409Q276 382 260.5 333.5Q245 285 222.5 212.0Q200 139 200.0 134.5Q200 130 216.5 130.0Q233 130 295.0 152.5Q357 175 368 175Z"/><path transform="translate(92.5,0) scale(0.02200,-0.02200)" d="M80 359 74 472Q74 528 109 528Q129 528 148.5 513.0Q168 498 178 466Q212 496 252.5 514.5Q293 533 324 533Q397 533 397 498Q397 480 390.5 471.5Q384 463 380.5 459.0Q377 455 368.5 448.5Q360 442 356 439Q333 424 323 418Q278 390 246.0 350.5Q214 311 198 241Q171 126 145.5 69.5Q120 13 88.5 13.0Q57 13 41.5 43.0Q26 73 26.0 99.5Q26 126 45.5 179.0Q65 232 72.5 270.5Q80 309 80 359Z"/><path transform="translate(100.5,0) scale(0.02200,-0.02200)" d="M376 503Q384 528 408.0 528.0Q432 528 463.5 487.0Q495 446 495 416Q495 405 449.0 269.0Q403 133 378 54Q364 12 331 12Q311 12 297.5 26.5Q284 41 284.0 72.0Q284 103 296 160Q193 12 132 12Q100 12 55.0 53.5Q10 95 10 134Q10 230 64.5 379.0Q119 528 167 528Q196 528 218.5 502.0Q241 476 241 445Q241 433 216 378Q140 213 140 145Q140 139 145 139Q160 139 201.5 186.5Q243 234 294.5 322.5Q346 411 376 503Z"/><path transform="translate(111.1,0) scale(0.02200,-0.02200)" d="M393 528Q445 528 484.5 481.5Q524 435 524 382Q524 297 496.5 204.5Q469 112 436.5 62.0Q404 12 370.5 12.0Q337 12 337 59Q337 95 370 204Q395 294 395.0 333.0Q395 372 385 372Q372 372 359.5 359.0Q347 346 339.0 336.0Q331 326 320.5 310.5Q310 295 302.5 282.5Q295 270 283.5 250.5Q272 231 265.0 218.5Q258 206 247 186Q154 12 101 12Q80 12 48.0 48.5Q16 85 16 102Q16 113 30.5 149.5Q45 186 51.5 205.5Q58 225 62.5 247.0Q67 269 70.0 294.5Q73 320 74.5 334.0Q76 348 78 378Q87 508 93.5 522.0Q100 536 108 536Q146 536 181.0 504.5Q216 473 216 447Q216 385 184 269Q249 383 302.5 455.5Q356 528 393 528Z"/><path transform="translate(131.8,0) scale(0.02200,-0.02200)" d="M497 335Q497 309 436 292Q388 278 326.0 265.5Q264 253 222 242Q134 221 114.0 221.0Q94 221 72.0 248.5Q50 276 50 301Q50 329 166.5 349.0Q283 369 421 369Q497 369 497 335Z"/><path transform="translate(152.0,0) scale(0.02200,-0.02200)" d="M368 175Q393 175 393.0 141.0Q393 107 326.0 59.5Q259 12 186 12Q154 12 110.0 47.0Q66 82 66 118Q66 148 96.5 244.5Q127 341 138 377Q99 366 79.0 366.0Q59 366 37.0 393.5Q15 421 15 446Q15 478 170 500Q189 593 189 661Q189 691 219 691Q245 691 285.5 659.5Q326 628 326.0 597.5Q326 567 313 512Q361 514 386 514Q461 514 461 480Q461 458 417.5 442.5Q374 427 284 409Q276 382 260.5 333.5Q245 285 222.5 212.0Q200 139 200.0 134.5Q200 130 216.5 130.0Q233 130 295.0 152.5Q357 175 368 175Z"/><path transform="translate(161.9,0) scale(0.02200,-0.02200)" d="M150 766Q150 808 183 808Q210 808 245.0 763.0Q280 718 280.0 686.0Q280 654 267.0 596.0Q254 538 240.5 490.0Q227 442 200.0 353.5Q173 265 163 230Q228 362 300.5 445.0Q373 528 422 528Q453 528 493.0 473.5Q533 419 533.0 375.5Q533 332 517.0 249.0Q501 166 461.0 89.0Q421 12 379 12Q346 12 346 59Q346 93 366 170Q395 285 395.0 310.0Q395 335 387 335Q329 335 217 142Q179 76 153.5 44.0Q128 12 105.0 12.0Q82 12 49.5 49.0Q17 86 17.0 106.5Q17 127 25.5 167.0Q34 207 51.5 281.0Q69 355 109.5 549.5Q150 744 150 766Z"/><path transform="translate(174.3,0) scale(0.02200,-0.02200)" d="M155 224Q146 197 146.0 170.0Q146 143 155.0 131.5Q164 120 200 120Q275 120 328.5 134.0Q382 148 384 148Q425 148 425 121Q425 82 360.5 47.0Q296 12 211.5 12.0Q127 12 76.0 65.0Q25 118 25.0 190.5Q25 263 67.5 342.0Q110 421 174.0 474.5Q238 528 301.5 528.0Q365 528 419.0 465.5Q473 403 473 341Q473 292 406.5 253.0Q340 214 270.0 214.0Q200 214 155 224ZM194 310Q203 309 220 309Q357 309 357 357Q357 367 336.0 386.0Q315 405 296.5 405.0Q278 405 249.0 378.5Q220 352 194 310Z"/><path transform="translate(193.5,0) scale(0.02200,-0.02200)" d="M25 169Q25 239 69.0 323.0Q113 407 184.5 467.0Q256 527 325 527Q360 527 397.0 481.5Q434 436 434 400Q434 374 410 374Q398 374 377.0 385.0Q356 396 334.0 396.0Q312 396 271.5 358.5Q231 321 199.5 268.5Q168 216 168.0 186.0Q168 156 179.5 147.0Q191 138 235.5 138.0Q280 138 316.5 146.0Q353 154 370.5 162.5Q388 171 402 171Q430 171 430 147Q430 103 353.0 57.5Q276 12 199 12Q150 12 87.5 66.5Q25 121 25 169Z"/><path transform="translate(204.2,0) scale(0.02200,-0.02200)" d="M282 436Q239 411 196.5 331.0Q154 251 154.0 190.5Q154 130 166 114Q220 138 260.0 211.0Q300 284 300.0 348.0Q300 412 282 436ZM155 12Q100 12 60.0 61.0Q20 110 20 180Q20 305 97.5 417.0Q175 529 251.0 529.0Q327 529 379.0 475.5Q431 422 431.0 346.5Q431 271 395.0 193.0Q359 115 294.0 63.5Q229 12 155 12Z"/><path transform="translate(214.3,0) scale(0.02200,-0.02200)" d="M393 528Q445 528 484.5 481.5Q524 435 524 382Q524 297 496.5 204.5Q469 112 436.5 62.0Q404 12 370.5 12.0Q337 12 337 59Q337 95 370 204Q395 294 395.0 333.0Q395 372 385 372Q372 372 359.5 359.0Q347 346 339.0 336.0Q331 326 320.5 310.5Q310 295 302.5 282.5Q295 270 283.5 250.5Q272 231 265.0 218.5Q258 206 247 186Q154 12 101 12Q80 12 48.0 48.5Q16 85 16 102Q16 113 30.5 149.5Q45 186 51.5 205.5Q58 225 62.5 247.0Q67 269 70.0 294.5Q73 320 74.5 334.0Q76 348 78 378Q87 508 93.5 522.0Q100 536 108 536Q146 536 181.0 504.5Q216 473 216 447Q216 385 184 269Q249 383 302.5 455.5Q356 528 393 528Z"/><path transform="translate(226.4,0) scale(0.02200,-0.02200)" d="M368 175Q393 175 393.0 141.0Q393 107 326.0 59.5Q259 12 186 12Q154 12 110.0 47.0Q66 82 66 118Q66 148 96.5 244.5Q127 341 138 377Q99 366 79.0 366.0Q59 366 37.0 393.5Q15 421 15 446Q15 478 170 500Q189 593 189 661Q189 691 219 691Q245 691 285.5 659.5Q326 628 326.0 597.5Q326 567 313 512Q361 514 386 514Q461 514 461 480Q461 458 417.5 442.5Q374 427 284 409Q276 382 260.5 333.5Q245 285 222.5 212.0Q200 139 200.0 134.5Q200 130 216.5 130.0Q233 130 295.0 152.5Q357 175 368 175Z"/><path transform="translate(236.4,0) scale(0.02200,-0.02200)" d="M155 224Q146 197 146.0 170.0Q146 143 155.0 131.5Q164 120 200 120Q275 120 328.5 134.0Q382 148 384 148Q425 148 425 121Q425 82 360.5 47.0Q296 12 211.5 12.0Q127 12 76.0 65.0Q25 118 25.0 190.5Q25 263 67.5 342.0Q110 421 174.0 474.5Q238 528 301.5 528.0Q365 528 419.0 465.5Q473 403 473 341Q473 292 406.5 253.0Q340 214 270.0 214.0Q200 214 155 224ZM194 310Q203 309 220 309Q357 309 357 357Q357 367 336.0 386.0Q315 405 296.5 405.0Q278 405 249.0 378.5Q220 352 194 310Z"/><path transform="translate(247.1,0) scale(0.02200,-0.02200)" d="M393 528Q445 528 484.5 481.5Q524 435 524 382Q524 297 496.5 204.5Q469 112 436.5 62.0Q404 12 370.5 12.0Q337 12 337 59Q337 95 370 204Q395 294 395.0 333.0Q395 372 385 372Q372 372 359.5 359.0Q347 346 339.0 336.0Q331 326 320.5 310.5Q310 295 302.5 282.5Q295 270 283.5 250.5Q272 231 265.0 218.5Q258 206 247 186Q154 12 101 12Q80 12 48.0 48.5Q16 85 16 102Q16 113 30.5 149.5Q45 186 51.5 205.5Q58 225 62.5 247.0Q67 269 70.0 294.5Q73 320 74.5 334.0Q76 348 78 378Q87 508 93.5 522.0Q100 536 108 536Q146 536 181.0 504.5Q216 473 216 447Q216 385 184 269Q249 383 302.5 455.5Q356 528 393 528Z"/><path transform="translate(259.3,0) scale(0.02200,-0.02200)" d="M368 175Q393 175 393.0 141.0Q393 107 326.0 59.5Q259 12 186 12Q154 12 110.0 47.0Q66 82 66 118Q66 148 96.5 244.5Q127 341 138 377Q99 366 79.0 366.0Q59 366 37.0 393.5Q15 421 15 446Q15 478 170 500Q189 593 189 661Q189 691 219 691Q245 691 285.5 659.5Q326 628 326.0 597.5Q326 567 313 512Q361 514 386 514Q461 514 461 480Q461 458 417.5 442.5Q374 427 284 409Q276 382 260.5 333.5Q245 285 222.5 212.0Q200 139 200.0 134.5Q200 130 216.5 130.0Q233 130 295.0 152.5Q357 175 368 175Z"/><path transform="translate(277.7,0) scale(0.02200,-0.02200)" d="M229 374Q146 12 113 12Q91 12 58.5 47.5Q26 83 26 106Q26 108 53.0 210.0Q80 312 107.5 472.5Q135 633 135 779Q135 808 166 808Q190 808 228.0 764.0Q266 720 266.0 680.0Q266 640 254.0 537.5Q242 435 229 374Z"/><path transform="translate(283.5,0) scale(0.02200,-0.02200)" d="M228 551Q199 551 161.0 589.0Q123 627 123.0 653.0Q123 679 146.5 706.5Q170 734 192.5 734.0Q215 734 246.0 680.0Q277 626 277.0 601.5Q277 577 261.0 564.0Q245 551 228 551ZM138 528Q173 528 200.5 488.0Q228 448 228 411Q228 392 193.5 274.5Q159 157 125 52Q113 13 76 13Q54 13 37.5 29.5Q21 46 21.0 72.5Q21 99 46.5 204.5Q72 310 85.5 384.5Q99 459 110.5 493.5Q122 528 138 528Z"/><path transform="translate(289.3,0) scale(0.02200,-0.02200)" d="M393 528Q445 528 484.5 481.5Q524 435 524 382Q524 297 496.5 204.5Q469 112 436.5 62.0Q404 12 370.5 12.0Q337 12 337 59Q337 95 370 204Q395 294 395.0 333.0Q395 372 385 372Q372 372 359.5 359.0Q347 346 339.0 336.0Q331 326 320.5 310.5Q310 295 302.5 282.5Q295 270 283.5 250.5Q272 231 265.0 218.5Q258 206 247 186Q154 12 101 12Q80 12 48.0 48.5Q16 85 16 102Q16 113 30.5 149.5Q45 186 51.5 205.5Q58 225 62.5 247.0Q67 269 70.0 294.5Q73 320 74.5 334.0Q76 348 78 378Q87 508 93.5 522.0Q100 536 108 536Q146 536 181.0 504.5Q216 473 216 447Q216 385 184 269Q249 383 302.5 455.5Q356 528 393 528Z"/><path transform="translate(301.4,0) scale(0.02200,-0.02200)" d="M155 224Q146 197 146.0 170.0Q146 143 155.0 131.5Q164 120 200 120Q275 120 328.5 134.0Q382 148 384 148Q425 148 425 121Q425 82 360.5 47.0Q296 12 211.5 12.0Q127 12 76.0 65.0Q25 118 25.0 190.5Q25 263 67.5 342.0Q110 421 174.0 474.5Q238 528 301.5 528.0Q365 528 419.0 465.5Q473 403 473 341Q473 292 406.5 253.0Q340 214 270.0 214.0Q200 214 155 224ZM194 310Q203 309 220 309Q357 309 357 357Q357 367 336.0 386.0Q315 405 296.5 405.0Q278 405 249.0 378.5Q220 352 194 310Z"/></g><path d="M40,62 q156,5 287,1" stroke="#b5462f" stroke-width="2.6" fill="none" stroke-linecap="round" filter="url(#r2)"/><rect x="47.5" y="136.0" width="89.0" height="32.0" rx="5" fill="none" stroke="#2a2620" stroke-width="1.6" filter="url(#r2)"/><g fill="#2a2620" transform="translate(66.0,156)"><path transform="translate(0.0,0) scale(0.01500,-0.01500)" d="M105 20Q91 20 72.5 43.5Q54 67 54.0 92.5Q54 118 119.0 370.0Q184 622 184 686Q184 704 188.0 711.0Q192 718 206.5 718.0Q221 718 241.0 687.0Q261 656 261.0 616.0Q261 576 209 379Q300 503 401.0 607.5Q502 712 529 712Q549 712 566.5 699.0Q584 686 584.0 673.5Q584 661 536.5 617.5Q489 574 409.0 496.0Q329 418 272 340Q272 299 294 251Q329 171 438 118Q485 95 511.5 79.0Q538 63 538 46Q538 20 499.0 20.0Q460 20 417.0 36.5Q374 53 331.0 83.0Q288 113 252.5 162.5Q217 212 204 271Q173 216 146 126Q113 20 106 20Z"/><path transform="translate(8.9,0) scale(0.01500,-0.01500)" d="M111 241Q97 197 97.0 162.5Q97 128 118.5 109.0Q140 90 189.5 90.0Q239 90 291.5 107.5Q344 125 349 125Q375 125 375 105Q375 78 314.0 46.5Q253 15 195 15Q117 15 68.0 61.5Q19 108 19.0 179.0Q19 250 57.0 327.5Q95 405 155.0 458.0Q215 511 274.0 511.0Q333 511 381.5 455.0Q430 399 430.0 345.5Q430 292 372.5 258.5Q315 225 242.5 225.0Q170 225 111 241ZM279 432Q242 432 202.0 393.5Q162 355 134 298Q174 289 225.0 289.0Q276 289 314.0 305.5Q352 322 352.0 349.0Q352 376 327.5 404.0Q303 432 279 432Z"/><path transform="translate(15.6,0) scale(0.01500,-0.01500)" d="M475 435Q475 415 434.0 299.0Q393 183 378.5 141.5Q364 100 339.5 31.5Q315 -37 292 -102Q242 -245 142 -245Q85 -245 33.0 -210.5Q-19 -176 -19 -139Q-19 -125 -6.5 -108.0Q6 -91 15.0 -91.0Q24 -91 44 -113Q102 -179 143 -179Q174 -179 199.0 -124.5Q224 -70 246.5 -1.5Q269 67 271.5 74.0Q274 81 277.5 92.0Q281 103 284 112Q213 15 144 15Q102 15 66.5 54.0Q31 93 31.0 146.0Q31 199 57.0 289.0Q83 379 118.0 445.0Q153 511 175 511Q193 511 208.5 494.5Q224 478 224.0 461.0Q224 444 198 390Q117 224 117 132Q117 116 127.0 105.5Q137 95 151 95Q187 95 237.0 159.0Q287 223 329 311Q364 385 402 500Q406 511 422.0 511.0Q438 511 456.5 487.5Q475 464 475 435Z"/><path transform="translate(22.6,0) scale(0.01500,-0.01500)" d="M433 405 426 217Q426 139 433 104Q476 149 507.5 209.5Q539 270 554.5 322.0Q570 374 581.5 419.5Q593 465 603.0 492.0Q613 519 626 519Q645 519 660.0 503.5Q675 488 675 468Q675 417 629 300Q590 192 527.0 102.5Q464 13 429.0 13.0Q394 13 376.5 52.0Q359 91 357.0 201.5Q355 312 360 393Q291 205 238.0 109.0Q185 13 154 13Q140 13 124.5 26.0Q109 39 100 60Q78 113 62.5 262.5Q47 412 47 476Q47 517 72 517Q94 517 112.5 492.0Q131 467 134.0 442.5Q137 418 139.5 306.5Q142 195 158 108Q199 179 240.5 286.0Q282 393 308.5 454.0Q335 515 357 515Q390 515 411.5 484.5Q433 454 433 405Z"/><path transform="translate(32.7,0) scale(0.01500,-0.01500)" d="M333 341Q333 375 322.0 405.5Q311 436 290 450Q221 431 171.5 343.5Q122 256 122.0 179.0Q122 102 160 83Q232 97 282.5 181.5Q333 266 333 341ZM155 15Q104 15 70.0 62.0Q36 109 36.0 181.5Q36 254 70.5 332.0Q105 410 161.5 460.5Q218 511 277.5 511.0Q337 511 377.0 460.5Q417 410 417.0 337.5Q417 265 382.0 189.5Q347 114 285.5 64.5Q224 15 155 15Z"/><path transform="translate(39.5,0) scale(0.01500,-0.01500)" d="M91 389 88 464Q88 511 110 511Q129 511 146.5 486.5Q164 462 164.0 428.5Q164 395 162 378Q249 510 327 510Q376 510 376 486Q376 474 365.0 464.0Q354 454 330 441Q277 418 240.5 370.5Q204 323 181.0 263.0Q158 203 144.5 162.0Q131 121 124.0 98.0Q117 75 108 53Q92 13 71 13Q54 13 43.5 32.5Q33 52 33.0 70.5Q33 89 50 144Q91 270 91 389Z"/><path transform="translate(44.5,0) scale(0.01500,-0.01500)" d="M459 791Q475 791 498.5 761.5Q522 732 522.0 706.0Q522 680 497.0 558.5Q472 437 439 307Q367 15 344 15Q330 15 313.5 32.5Q297 50 297.0 63.0Q297 76 304 115Q206 15 133 15Q89 15 53.5 55.0Q18 95 18 138Q18 200 51.5 285.5Q85 371 148.0 441.0Q211 511 282.0 511.0Q353 511 381 426Q432 638 437 761Q437 791 459 791ZM349 300Q349 354 330.5 391.0Q312 428 286 428Q243 428 198.0 375.0Q153 322 126.5 253.5Q100 185 100 135Q100 117 113.0 106.0Q126 95 144 95Q183 95 249.5 151.0Q316 207 346 283L349 295Z"/></g><rect x="192.5" y="136.0" width="71.0" height="32.0" rx="5" fill="none" stroke="#2a2620" stroke-width="1.6" filter="url(#r2)"/><g fill="#2a2620" transform="translate(212.8,156)"><path transform="translate(0.0,0) scale(0.01500,-0.01500)" d="M575 254Q575 195 514.0 139.5Q453 84 356.0 50.5Q259 17 158 17Q99 17 52.5 50.0Q6 83 6.0 111.5Q6 140 23 140Q27 140 62.5 118.5Q98 97 137 96Q123 103 110.5 122.0Q98 141 98.0 158.0Q98 175 122 253Q196 488 198 614H190Q172 614 153.0 636.5Q134 659 134 673Q134 690 176.5 702.5Q219 715 279 715Q419 715 495.0 677.0Q571 639 571 567Q571 507 520.5 458.0Q470 409 373 379L382 378Q466 373 520.5 337.0Q575 301 575 254ZM251 620Q279 590 279.0 562.5Q279 535 244 397Q268 412 319.0 431.5Q370 451 399.5 466.0Q429 481 442.5 492.5Q456 504 468.5 523.0Q481 542 481 562Q481 595 447.5 613.5Q414 632 366.5 632.0Q319 632 251 620ZM488 258Q488 288 418.5 308.5Q349 329 280 329Q253 329 233 357Q172 116 153 96Q224 98 302.0 121.5Q380 145 434.0 183.0Q488 221 488 258Z"/><path transform="translate(9.6,0) scale(0.01500,-0.01500)" d="M91 389 88 464Q88 511 110 511Q129 511 146.5 486.5Q164 462 164.0 428.5Q164 395 162 378Q249 510 327 510Q376 510 376 486Q376 474 365.0 464.0Q354 454 330 441Q277 418 240.5 370.5Q204 323 181.0 263.0Q158 203 144.5 162.0Q131 121 124.0 98.0Q117 75 108 53Q92 13 71 13Q54 13 43.5 32.5Q33 52 33.0 70.5Q33 89 50 144Q91 270 91 389Z"/><path transform="translate(14.5,0) scale(0.01500,-0.01500)" d="M270 601Q270 591 261.0 583.0Q252 575 242 575Q218 575 188.5 604.0Q159 633 159.0 653.0Q159 673 175.0 691.0Q191 709 207.5 709.0Q224 709 247.0 668.5Q270 628 270 601ZM154 511Q173 511 190.0 488.0Q207 465 207.0 443.0Q207 421 178.0 311.5Q149 202 105 66Q88 16 62 16Q48 16 38.0 27.5Q28 39 28.0 53.5Q28 68 35.5 99.5Q43 131 57.5 183.5Q72 236 80.5 269.0Q89 302 98.0 343.5Q107 385 112.5 410.5Q118 436 125 462Q139 511 154 511Z"/><path transform="translate(18.1,0) scale(0.01500,-0.01500)" d="M111 241Q97 197 97.0 162.5Q97 128 118.5 109.0Q140 90 189.5 90.0Q239 90 291.5 107.5Q344 125 349 125Q375 125 375 105Q375 78 314.0 46.5Q253 15 195 15Q117 15 68.0 61.5Q19 108 19.0 179.0Q19 250 57.0 327.5Q95 405 155.0 458.0Q215 511 274.0 511.0Q333 511 381.5 455.0Q430 399 430.0 345.5Q430 292 372.5 258.5Q315 225 242.5 225.0Q170 225 111 241ZM279 432Q242 432 202.0 393.5Q162 355 134 298Q174 289 225.0 289.0Q276 289 314.0 305.5Q352 322 352.0 349.0Q352 376 327.5 404.0Q303 432 279 432Z"/><path transform="translate(24.8,0) scale(0.01500,-0.01500)" d="M103 13Q90 13 75.0 32.0Q60 51 60.0 63.0Q60 75 70 110Q120 290 138 367Q95 357 79.0 357.0Q63 357 47.0 371.0Q31 385 31.0 402.0Q31 419 76 432Q134 446 156 450Q166 498 171 524Q195 662 236.0 723.0Q277 784 347 784Q397 784 429.0 744.5Q461 705 461.0 651.5Q461 598 433 598Q409 598 394 652Q389 672 377.0 689.0Q365 706 348.0 706.0Q331 706 317.0 690.5Q303 675 292 646Q263 565 252 498L244 463Q281 468 317.5 468.0Q354 468 370.5 460.0Q387 452 387 440Q387 421 354.0 411.0Q321 401 225 385Q154 97 128 42Q114 13 103 13Z"/></g><rect x="332.5" y="136.0" width="71.0" height="32.0" rx="5" fill="none" stroke="#2a2620" stroke-width="1.6" filter="url(#r2)"/><g fill="#2a2620" transform="translate(351.4,156)"><path transform="translate(0.0,0) scale(0.01500,-0.01500)" d="M151 721Q245 721 351.5 672.0Q458 623 535.0 536.5Q612 450 612 357Q612 296 527.5 213.5Q443 131 332.0 72.5Q221 14 148 14Q129 14 104.5 46.5Q80 79 80.0 112.5Q80 146 138.0 354.0Q196 562 201 628Q169 641 150.0 662.0Q131 683 131.0 702.0Q131 721 151 721ZM520 368Q520 430 446.0 502.5Q372 575 274 607Q279 589 279.0 564.5Q279 540 261.5 473.0Q244 406 198 249Q179 183 167 104Q236 113 321.5 164.5Q407 216 463.5 275.0Q520 334 520 368Z"/><path transform="translate(9.7,0) scale(0.01500,-0.01500)" d="M91 389 88 464Q88 511 110 511Q129 511 146.5 486.5Q164 462 164.0 428.5Q164 395 162 378Q249 510 327 510Q376 510 376 486Q376 474 365.0 464.0Q354 454 330 441Q277 418 240.5 370.5Q204 323 181.0 263.0Q158 203 144.5 162.0Q131 121 124.0 98.0Q117 75 108 53Q92 13 71 13Q54 13 43.5 32.5Q33 52 33.0 70.5Q33 89 50 144Q91 270 91 389Z"/><path transform="translate(14.6,0) scale(0.01500,-0.01500)" d="M393 309Q405 294 405 283Q405 255 392.5 187.0Q380 119 377.5 98.0Q375 77 373.0 64.5Q371 52 368 40Q364 15 350 15Q332 15 320.5 46.5Q309 78 307 128Q218 15 142 15Q96 15 51.5 54.5Q7 94 7 136Q7 196 51.0 284.5Q95 373 165.0 442.0Q235 511 297 511Q342 511 380.0 465.5Q418 420 418.0 383.5Q418 347 393 309ZM343 335Q343 428 306 428Q267 428 215.0 372.5Q163 317 127.0 247.0Q91 177 91 136Q91 119 105.0 108.5Q119 98 138 98Q185 98 244.0 161.5Q303 225 326 316Q329 331 343 334Z"/><path transform="translate(21.7,0) scale(0.01500,-0.01500)" d="M103 13Q90 13 75.0 32.0Q60 51 60.0 63.0Q60 75 70 110Q120 290 138 367Q95 357 79.0 357.0Q63 357 47.0 371.0Q31 385 31.0 402.0Q31 419 76 432Q134 446 156 450Q166 498 171 524Q195 662 236.0 723.0Q277 784 347 784Q397 784 429.0 744.5Q461 705 461.0 651.5Q461 598 433 598Q409 598 394 652Q389 672 377.0 689.0Q365 706 348.0 706.0Q331 706 317.0 690.5Q303 675 292 646Q263 565 252 498L244 463Q281 468 317.5 468.0Q354 468 370.5 460.0Q387 452 387 440Q387 421 354.0 411.0Q321 401 225 385Q154 97 128 42Q114 13 103 13Z"/><path transform="translate(27.3,0) scale(0.01500,-0.01500)" d="M143 115Q143 96 165 96Q203 96 257.5 117.5Q312 139 318 139Q336 139 336 120Q336 91 276.5 53.0Q217 15 168.5 15.0Q120 15 88.0 41.5Q56 68 56.0 96.0Q56 124 68.0 167.5Q80 211 102.5 282.5Q125 354 138 401Q91 390 75.0 390.0Q59 390 43.5 406.5Q28 423 28 438Q28 462 158 484Q176 567 176 631Q176 661 196 661Q213 661 238.0 639.5Q263 618 263.0 591.0Q263 564 246 496Q303 501 337 501Q397 501 397 475Q397 460 364.5 450.0Q332 440 228 419Q207 340 175.0 238.5Q143 137 143 115Z"/></g><rect x="595.5" y="136.0" width="89.0" height="32.0" rx="5" fill="none" stroke="#2a2620" stroke-width="1.6" filter="url(#r2)"/><g fill="#2a2620" transform="translate(617.5,156)"><path transform="translate(0.0,0) scale(0.01500,-0.01500)" d="M559 553Q559 445 455.5 370.0Q352 295 182 262Q109 15 95.0 15.0Q81 15 62.0 37.5Q43 60 43.0 82.5Q43 105 72 202Q162 501 166 619Q142 641 142 659Q142 684 210.0 707.0Q278 730 340 730Q436 730 497.5 681.0Q559 632 559 553ZM471 547Q471 591 437.5 619.5Q404 648 357.0 648.0Q310 648 243 618Q253 596 253 577Q253 521 204 340Q324 372 397.5 428.5Q471 485 471 547Z"/><path transform="translate(8.1,0) scale(0.01500,-0.01500)" d="M463 435Q463 422 419.0 281.0Q375 140 351 57Q339 15 317 15Q304 15 295.0 26.0Q286 37 286.0 66.0Q286 95 309 171Q267 103 218.0 59.0Q169 15 128.5 15.0Q88 15 52.0 53.0Q16 91 16 131Q16 226 71.5 368.5Q127 511 164 511Q182 511 195.5 494.5Q209 478 209 457Q209 448 182.0 392.5Q155 337 128.0 262.5Q101 188 101 132Q101 116 111.0 105.5Q121 95 135 95Q173 95 225.5 162.0Q278 229 321.0 318.0Q364 407 385 483Q389 499 393.0 505.0Q397 511 410.5 511.0Q424 511 443.5 485.0Q463 459 463 435Z"/><path transform="translate(15.4,0) scale(0.01500,-0.01500)" d="M74 15Q60 15 41.0 36.5Q22 58 22.0 77.0Q22 96 53.5 207.0Q85 318 116.5 474.5Q148 631 148 761Q148 791 170 791Q186 791 209.0 761.5Q232 732 232 704Q232 581 178 353Q297 514 394 514Q441 514 473.5 468.0Q506 422 506.0 358.5Q506 295 469.5 213.0Q433 131 371.0 72.5Q309 14 241.0 14.0Q173 14 107 83L106 82Q84 15 74 15ZM233 92Q298 92 360.5 180.5Q423 269 423 367Q423 426 387 426Q329 426 257.5 345.0Q186 264 134 152Q181 92 233 92Z"/><path transform="translate(23.2,0) scale(0.01500,-0.01500)" d="M228 707Q228 519 150 219Q100 15 80 15Q66 15 47.5 37.0Q29 59 29.0 71.0Q29 83 58.0 195.0Q87 307 116.0 470.5Q145 634 145 765Q145 779 149.0 785.0Q153 791 166.0 791.0Q179 791 203.5 762.5Q228 734 228 707Z"/><path transform="translate(26.9,0) scale(0.01500,-0.01500)" d="M270 601Q270 591 261.0 583.0Q252 575 242 575Q218 575 188.5 604.0Q159 633 159.0 653.0Q159 673 175.0 691.0Q191 709 207.5 709.0Q224 709 247.0 668.5Q270 628 270 601ZM154 511Q173 511 190.0 488.0Q207 465 207.0 443.0Q207 421 178.0 311.5Q149 202 105 66Q88 16 62 16Q48 16 38.0 27.5Q28 39 28.0 53.5Q28 68 35.5 99.5Q43 131 57.5 183.5Q72 236 80.5 269.0Q89 302 98.0 343.5Q107 385 112.5 410.5Q118 436 125 462Q139 511 154 511Z"/><path transform="translate(30.5,0) scale(0.01500,-0.01500)" d="M317 511Q351 511 381.0 473.5Q411 436 411 408Q411 391 395 391Q384 391 361.0 408.5Q338 426 314.0 426.0Q290 426 238.5 398.0Q187 370 187 339Q187 316 279 260Q314 238 342.5 203.5Q371 169 371.0 129.5Q371 90 316.5 52.5Q262 15 189.5 15.0Q117 15 61.5 50.0Q6 85 6 116Q6 129 12.5 136.5Q19 144 29.0 144.0Q39 144 57 131Q111 92 169.5 92.0Q228 92 254.0 105.5Q280 119 280.0 141.5Q280 164 251.0 189.5Q222 215 187.5 235.0Q153 255 124.0 284.0Q95 313 95 343Q95 396 178.5 453.5Q262 511 317 511Z"/><path transform="translate(36.9,0) scale(0.01500,-0.01500)" d="M149 752Q149 791 173 791Q192 791 213.5 761.0Q235 731 235 703Q235 638 202.5 481.5Q170 325 118 169Q218 350 285.5 430.5Q353 511 401 511Q427 511 461.5 466.0Q496 421 496.0 376.0Q496 331 471 241Q409 15 354 15Q332 15 332.0 45.0Q332 75 356 146Q409 301 409 355Q409 373 400.0 385.0Q391 397 378.0 397.0Q365 397 346.0 383.0Q327 369 300 334Q266 289 229.5 233.0Q193 177 185.5 165.5Q178 154 159.5 124.0Q141 94 132.0 79.5Q123 65 110 48Q87 15 75.0 15.0Q63 15 43.0 37.5Q23 60 23.0 75.5Q23 91 34 134Q84 326 97 397Q149 657 149 752Z"/></g><rect x="720.0" y="136.0" width="80.0" height="32.0" rx="5" fill="none" stroke="#2a2620" stroke-width="1.6" filter="url(#r2)"/><g fill="#2a2620" transform="translate(739.9,156)"><path transform="translate(0.0,0) scale(0.01500,-0.01500)" d="M100 16Q85 16 66.0 38.0Q47 60 47.0 82.5Q47 105 102.0 299.0Q157 493 165 594Q152 602 142.0 619.0Q132 636 132 649Q132 672 200.0 696.5Q268 721 350.5 721.0Q433 721 493.5 681.5Q554 642 554 570Q554 521 526.5 478.5Q499 436 459.5 409.0Q420 382 381.0 361.0Q342 340 314.5 326.5Q287 313 287 307Q287 285 321.5 250.0Q356 215 370.0 202.0Q384 189 407.0 167.5Q430 146 450.5 129.0Q471 112 483.5 101.0Q496 90 509 78Q534 55 534 41Q534 17 501 17Q441 17 330.0 121.5Q219 226 194 299Q147 143 140.0 118.5Q133 94 124 68Q108 16 100 16ZM251 567Q251 502 209 352Q226 365 274.0 390.5Q322 416 360.5 437.5Q399 459 431.0 495.0Q463 531 463 570Q463 632 355 632Q306 632 241 607Q251 585 251 567Z"/><path transform="translate(8.8,0) scale(0.01500,-0.01500)" d="M111 241Q97 197 97.0 162.5Q97 128 118.5 109.0Q140 90 189.5 90.0Q239 90 291.5 107.5Q344 125 349 125Q375 125 375 105Q375 78 314.0 46.5Q253 15 195 15Q117 15 68.0 61.5Q19 108 19.0 179.0Q19 250 57.0 327.5Q95 405 155.0 458.0Q215 511 274.0 511.0Q333 511 381.5 455.0Q430 399 430.0 345.5Q430 292 372.5 258.5Q315 225 242.5 225.0Q170 225 111 241ZM279 432Q242 432 202.0 393.5Q162 355 134 298Q174 289 225.0 289.0Q276 289 314.0 305.5Q352 322 352.0 349.0Q352 376 327.5 404.0Q303 432 279 432Z"/><path transform="translate(15.5,0) scale(0.01500,-0.01500)" d="M358 514Q401 514 432.5 459.0Q464 404 464.0 345.5Q464 287 430.0 228.5Q396 170 346.0 124.0Q296 78 235.5 47.5Q175 17 124 17Q104 17 86 22Q82 5 72.0 -39.0Q62 -83 55.0 -112.0Q48 -141 39 -174Q21 -242 7.0 -242.0Q-7 -242 -22.5 -220.5Q-38 -199 -38.0 -182.0Q-38 -165 -6 -36Q90 353 90 488Q90 518 112 518Q130 518 155.5 491.5Q181 465 181 433Q181 417 177 398Q266 514 358 514ZM114 95Q167 95 228.5 131.0Q290 167 333.5 226.5Q377 286 377 345Q377 428 338.0 428.0Q299 428 232.5 361.0Q166 294 127 187L104 95Z"/><path transform="translate(22.7,0) scale(0.01500,-0.01500)" d="M333 341Q333 375 322.0 405.5Q311 436 290 450Q221 431 171.5 343.5Q122 256 122.0 179.0Q122 102 160 83Q232 97 282.5 181.5Q333 266 333 341ZM155 15Q104 15 70.0 62.0Q36 109 36.0 181.5Q36 254 70.5 332.0Q105 410 161.5 460.5Q218 511 277.5 511.0Q337 511 377.0 460.5Q417 410 417.0 337.5Q417 265 382.0 189.5Q347 114 285.5 64.5Q224 15 155 15Z"/><path transform="translate(29.5,0) scale(0.01500,-0.01500)" d="M91 389 88 464Q88 511 110 511Q129 511 146.5 486.5Q164 462 164.0 428.5Q164 395 162 378Q249 510 327 510Q376 510 376 486Q376 474 365.0 464.0Q354 454 330 441Q277 418 240.5 370.5Q204 323 181.0 263.0Q158 203 144.5 162.0Q131 121 124.0 98.0Q117 75 108 53Q92 13 71 13Q54 13 43.5 32.5Q33 52 33.0 70.5Q33 89 50 144Q91 270 91 389Z"/><path transform="translate(34.4,0) scale(0.01500,-0.01500)" d="M143 115Q143 96 165 96Q203 96 257.5 117.5Q312 139 318 139Q336 139 336 120Q336 91 276.5 53.0Q217 15 168.5 15.0Q120 15 88.0 41.5Q56 68 56.0 96.0Q56 124 68.0 167.5Q80 211 102.5 282.5Q125 354 138 401Q91 390 75.0 390.0Q59 390 43.5 406.5Q28 423 28 438Q28 462 158 484Q176 567 176 631Q176 661 196 661Q213 661 238.0 639.5Q263 618 263.0 591.0Q263 564 246 496Q303 501 337 501Q397 501 397 475Q397 460 364.5 450.0Q332 440 228 419Q207 340 175.0 238.5Q143 137 143 115Z"/></g><path d="M508,126 L532,152 L508,178 L484,152 Z" fill="none" stroke="#4f7a3f" stroke-width="2" filter="url(#r2)"/><path d="M498,152 l7,8 l13,-16" fill="none" stroke="#4f7a3f" stroke-width="2.2" stroke-linecap="round" stroke-linejoin="round" filter="url(#r2)"/><g fill="#4f7a3f" transform="translate(487.3,202)"><path transform="translate(0.0,0) scale(0.01300,-0.01300)" d="M376 511Q393 511 409.0 498.5Q425 486 425 471Q425 444 352.5 284.0Q280 124 249.5 68.5Q219 13 196 13Q183 13 164.0 32.0Q145 51 136 73Q109 136 78.0 276.0Q47 416 47 481Q47 511 65 511Q87 511 110.0 492.5Q133 474 142 446Q145 430 150 366Q164 208 198 123Q225 181 267.0 287.5Q309 394 335.5 452.5Q362 511 376 511Z"/><path transform="translate(5.5,0) scale(0.01300,-0.01300)" d="M393 309Q405 294 405 283Q405 255 392.5 187.0Q380 119 377.5 98.0Q375 77 373.0 64.5Q371 52 368 40Q364 15 350 15Q332 15 320.5 46.5Q309 78 307 128Q218 15 142 15Q96 15 51.5 54.5Q7 94 7 136Q7 196 51.0 284.5Q95 373 165.0 442.0Q235 511 297 511Q342 511 380.0 465.5Q418 420 418.0 383.5Q418 347 393 309ZM343 335Q343 428 306 428Q267 428 215.0 372.5Q163 317 127.0 247.0Q91 177 91 136Q91 119 105.0 108.5Q119 98 138 98Q185 98 244.0 161.5Q303 225 326 316Q329 331 343 334Z"/><path transform="translate(11.6,0) scale(0.01300,-0.01300)" d="M228 707Q228 519 150 219Q100 15 80 15Q66 15 47.5 37.0Q29 59 29.0 71.0Q29 83 58.0 195.0Q87 307 116.0 470.5Q145 634 145 765Q145 779 149.0 785.0Q153 791 166.0 791.0Q179 791 203.5 762.5Q228 734 228 707Z"/><path transform="translate(14.8,0) scale(0.01300,-0.01300)" d="M270 601Q270 591 261.0 583.0Q252 575 242 575Q218 575 188.5 604.0Q159 633 159.0 653.0Q159 673 175.0 691.0Q191 709 207.5 709.0Q224 709 247.0 668.5Q270 628 270 601ZM154 511Q173 511 190.0 488.0Q207 465 207.0 443.0Q207 421 178.0 311.5Q149 202 105 66Q88 16 62 16Q48 16 38.0 27.5Q28 39 28.0 53.5Q28 68 35.5 99.5Q43 131 57.5 183.5Q72 236 80.5 269.0Q89 302 98.0 343.5Q107 385 112.5 410.5Q118 436 125 462Q139 511 154 511Z"/><path transform="translate(17.9,0) scale(0.01300,-0.01300)" d="M459 791Q475 791 498.5 761.5Q522 732 522.0 706.0Q522 680 497.0 558.5Q472 437 439 307Q367 15 344 15Q330 15 313.5 32.5Q297 50 297.0 63.0Q297 76 304 115Q206 15 133 15Q89 15 53.5 55.0Q18 95 18 138Q18 200 51.5 285.5Q85 371 148.0 441.0Q211 511 282.0 511.0Q353 511 381 426Q432 638 437 761Q437 791 459 791ZM349 300Q349 354 330.5 391.0Q312 428 286 428Q243 428 198.0 375.0Q153 322 126.5 253.5Q100 185 100 135Q100 117 113.0 106.0Q126 95 144 95Q183 95 249.5 151.0Q316 207 346 283L349 295Z"/><path transform="translate(24.3,0) scale(0.01300,-0.01300)" d="M393 309Q405 294 405 283Q405 255 392.5 187.0Q380 119 377.5 98.0Q375 77 373.0 64.5Q371 52 368 40Q364 15 350 15Q332 15 320.5 46.5Q309 78 307 128Q218 15 142 15Q96 15 51.5 54.5Q7 94 7 136Q7 196 51.0 284.5Q95 373 165.0 442.0Q235 511 297 511Q342 511 380.0 465.5Q418 420 418.0 383.5Q418 347 393 309ZM343 335Q343 428 306 428Q267 428 215.0 372.5Q163 317 127.0 247.0Q91 177 91 136Q91 119 105.0 108.5Q119 98 138 98Q185 98 244.0 161.5Q303 225 326 316Q329 331 343 334Z"/><path transform="translate(30.4,0) scale(0.01300,-0.01300)" d="M143 115Q143 96 165 96Q203 96 257.5 117.5Q312 139 318 139Q336 139 336 120Q336 91 276.5 53.0Q217 15 168.5 15.0Q120 15 88.0 41.5Q56 68 56.0 96.0Q56 124 68.0 167.5Q80 211 102.5 282.5Q125 354 138 401Q91 390 75.0 390.0Q59 390 43.5 406.5Q28 423 28 438Q28 462 158 484Q176 567 176 631Q176 661 196 661Q213 661 238.0 639.5Q263 618 263.0 591.0Q263 564 246 496Q303 501 337 501Q397 501 397 475Q397 460 364.5 450.0Q332 440 228 419Q207 340 175.0 238.5Q143 137 143 115Z"/><path transform="translate(35.5,0) scale(0.01300,-0.01300)" d="M111 241Q97 197 97.0 162.5Q97 128 118.5 109.0Q140 90 189.5 90.0Q239 90 291.5 107.5Q344 125 349 125Q375 125 375 105Q375 78 314.0 46.5Q253 15 195 15Q117 15 68.0 61.5Q19 108 19.0 179.0Q19 250 57.0 327.5Q95 405 155.0 458.0Q215 511 274.0 511.0Q333 511 381.5 455.0Q430 399 430.0 345.5Q430 292 372.5 258.5Q315 225 242.5 225.0Q170 225 111 241ZM279 432Q242 432 202.0 393.5Q162 355 134 298Q174 289 225.0 289.0Q276 289 314.0 305.5Q352 322 352.0 349.0Q352 376 327.5 404.0Q303 432 279 432Z"/></g><path d="M118,152 L194,152" stroke="#2a2620" stroke-width="1.3" fill="none" filter="url(#r2)"/><path d="M194,152 l-7,-4 l0,8 z" fill="#2a2620"/><path d="M254,152 L334,152" stroke="#2a2620" stroke-width="1.3" fill="none" filter="url(#r2)"/><path d="M334,152 l-7,-4 l0,8 z" fill="#2a2620"/><path d="M394,152 L476,152" stroke="#2a2620" stroke-width="1.3" fill="none" filter="url(#r2)"/><path d="M476,152 l-7,-4 l0,8 z" fill="#2a2620"/><path d="M532,152 L594,152" stroke="#2a2620" stroke-width="1.3" fill="none" filter="url(#r2)"/><path d="M594,152 l-7,-4 l0,8 z" fill="#2a2620"/><path d="M666,152 L726,152" stroke="#2a2620" stroke-width="1.3" fill="none" filter="url(#r2)"/><path d="M726,152 l-7,-4 l0,8 z" fill="#2a2620"/><path d="M505,130 C465,94 408,94 372,130" fill="none" stroke="#b5462f" stroke-width="1.5" stroke-dasharray="4 4" filter="url(#r2)"/><g fill="#b5462f" transform="translate(403.3,90)"><path transform="translate(0.0,0) scale(0.01300,-0.01300)" d="M103 13Q90 13 75.0 32.0Q60 51 60.0 63.0Q60 75 70 110Q120 290 138 367Q95 357 79.0 357.0Q63 357 47.0 371.0Q31 385 31.0 402.0Q31 419 76 432Q134 446 156 450Q166 498 171 524Q195 662 236.0 723.0Q277 784 347 784Q397 784 429.0 744.5Q461 705 461.0 651.5Q461 598 433 598Q409 598 394 652Q389 672 377.0 689.0Q365 706 348.0 706.0Q331 706 317.0 690.5Q303 675 292 646Q263 565 252 498L244 463Q281 468 317.5 468.0Q354 468 370.5 460.0Q387 452 387 440Q387 421 354.0 411.0Q321 401 225 385Q154 97 128 42Q114 13 103 13Z"/><path transform="translate(4.9,0) scale(0.01300,-0.01300)" d="M393 309Q405 294 405 283Q405 255 392.5 187.0Q380 119 377.5 98.0Q375 77 373.0 64.5Q371 52 368 40Q364 15 350 15Q332 15 320.5 46.5Q309 78 307 128Q218 15 142 15Q96 15 51.5 54.5Q7 94 7 136Q7 196 51.0 284.5Q95 373 165.0 442.0Q235 511 297 511Q342 511 380.0 465.5Q418 420 418.0 383.5Q418 347 393 309ZM343 335Q343 428 306 428Q267 428 215.0 372.5Q163 317 127.0 247.0Q91 177 91 136Q91 119 105.0 108.5Q119 98 138 98Q185 98 244.0 161.5Q303 225 326 316Q329 331 343 334Z"/><path transform="translate(11.0,0) scale(0.01300,-0.01300)" d="M270 601Q270 591 261.0 583.0Q252 575 242 575Q218 575 188.5 604.0Q159 633 159.0 653.0Q159 673 175.0 691.0Q191 709 207.5 709.0Q224 709 247.0 668.5Q270 628 270 601ZM154 511Q173 511 190.0 488.0Q207 465 207.0 443.0Q207 421 178.0 311.5Q149 202 105 66Q88 16 62 16Q48 16 38.0 27.5Q28 39 28.0 53.5Q28 68 35.5 99.5Q43 131 57.5 183.5Q72 236 80.5 269.0Q89 302 98.0 343.5Q107 385 112.5 410.5Q118 436 125 462Q139 511 154 511Z"/><path transform="translate(14.1,0) scale(0.01300,-0.01300)" d="M228 707Q228 519 150 219Q100 15 80 15Q66 15 47.5 37.0Q29 59 29.0 71.0Q29 83 58.0 195.0Q87 307 116.0 470.5Q145 634 145 765Q145 779 149.0 785.0Q153 791 166.0 791.0Q179 791 203.5 762.5Q228 734 228 707Z"/><path transform="translate(17.3,0) scale(0.01300,-0.01300)" d="M317 511Q351 511 381.0 473.5Q411 436 411 408Q411 391 395 391Q384 391 361.0 408.5Q338 426 314.0 426.0Q290 426 238.5 398.0Q187 370 187 339Q187 316 279 260Q314 238 342.5 203.5Q371 169 371.0 129.5Q371 90 316.5 52.5Q262 15 189.5 15.0Q117 15 61.5 50.0Q6 85 6 116Q6 129 12.5 136.5Q19 144 29.0 144.0Q39 144 57 131Q111 92 169.5 92.0Q228 92 254.0 105.5Q280 119 280.0 141.5Q280 164 251.0 189.5Q222 215 187.5 235.0Q153 255 124.0 284.0Q95 313 95 343Q95 396 178.5 453.5Q262 511 317 511Z"/><path transform="translate(28.0,0) scale(0.01300,-0.01300)" d="M422 328Q422 312 389.5 302.0Q357 292 232.5 267.0Q108 242 96.5 242.0Q85 242 69.0 259.0Q53 276 53 290Q53 312 166.0 332.5Q279 353 362 353Q422 353 422 328Z"/><path transform="translate(39.2,0) scale(0.01300,-0.01300)" d="M91 389 88 464Q88 511 110 511Q129 511 146.5 486.5Q164 462 164.0 428.5Q164 395 162 378Q249 510 327 510Q376 510 376 486Q376 474 365.0 464.0Q354 454 330 441Q277 418 240.5 370.5Q204 323 181.0 263.0Q158 203 144.5 162.0Q131 121 124.0 98.0Q117 75 108 53Q92 13 71 13Q54 13 43.5 32.5Q33 52 33.0 70.5Q33 89 50 144Q91 270 91 389Z"/><path transform="translate(43.5,0) scale(0.01300,-0.01300)" d="M111 241Q97 197 97.0 162.5Q97 128 118.5 109.0Q140 90 189.5 90.0Q239 90 291.5 107.5Q344 125 349 125Q375 125 375 105Q375 78 314.0 46.5Q253 15 195 15Q117 15 68.0 61.5Q19 108 19.0 179.0Q19 250 57.0 327.5Q95 405 155.0 458.0Q215 511 274.0 511.0Q333 511 381.5 455.0Q430 399 430.0 345.5Q430 292 372.5 258.5Q315 225 242.5 225.0Q170 225 111 241ZM279 432Q242 432 202.0 393.5Q162 355 134 298Q174 289 225.0 289.0Q276 289 314.0 305.5Q352 322 352.0 349.0Q352 376 327.5 404.0Q303 432 279 432Z"/><path transform="translate(49.3,0) scale(0.01300,-0.01300)" d="M376 511Q393 511 409.0 498.5Q425 486 425 471Q425 444 352.5 284.0Q280 124 249.5 68.5Q219 13 196 13Q183 13 164.0 32.0Q145 51 136 73Q109 136 78.0 276.0Q47 416 47 481Q47 511 65 511Q87 511 110.0 492.5Q133 474 142 446Q145 430 150 366Q164 208 198 123Q225 181 267.0 287.5Q309 394 335.5 452.5Q362 511 376 511Z"/><path transform="translate(54.8,0) scale(0.01300,-0.01300)" d="M270 601Q270 591 261.0 583.0Q252 575 242 575Q218 575 188.5 604.0Q159 633 159.0 653.0Q159 673 175.0 691.0Q191 709 207.5 709.0Q224 709 247.0 668.5Q270 628 270 601ZM154 511Q173 511 190.0 488.0Q207 465 207.0 443.0Q207 421 178.0 311.5Q149 202 105 66Q88 16 62 16Q48 16 38.0 27.5Q28 39 28.0 53.5Q28 68 35.5 99.5Q43 131 57.5 183.5Q72 236 80.5 269.0Q89 302 98.0 343.5Q107 385 112.5 410.5Q118 436 125 462Q139 511 154 511Z"/><path transform="translate(57.9,0) scale(0.01300,-0.01300)" d="M317 511Q351 511 381.0 473.5Q411 436 411 408Q411 391 395 391Q384 391 361.0 408.5Q338 426 314.0 426.0Q290 426 238.5 398.0Q187 370 187 339Q187 316 279 260Q314 238 342.5 203.5Q371 169 371.0 129.5Q371 90 316.5 52.5Q262 15 189.5 15.0Q117 15 61.5 50.0Q6 85 6 116Q6 129 12.5 136.5Q19 144 29.0 144.0Q39 144 57 131Q111 92 169.5 92.0Q228 92 254.0 105.5Q280 119 280.0 141.5Q280 164 251.0 189.5Q222 215 187.5 235.0Q153 255 124.0 284.0Q95 313 95 343Q95 396 178.5 453.5Q262 511 317 511Z"/><path transform="translate(63.5,0) scale(0.01300,-0.01300)" d="M111 241Q97 197 97.0 162.5Q97 128 118.5 109.0Q140 90 189.5 90.0Q239 90 291.5 107.5Q344 125 349 125Q375 125 375 105Q375 78 314.0 46.5Q253 15 195 15Q117 15 68.0 61.5Q19 108 19.0 179.0Q19 250 57.0 327.5Q95 405 155.0 458.0Q215 511 274.0 511.0Q333 511 381.5 455.0Q430 399 430.0 345.5Q430 292 372.5 258.5Q315 225 242.5 225.0Q170 225 111 241ZM279 432Q242 432 202.0 393.5Q162 355 134 298Q174 289 225.0 289.0Q276 289 314.0 305.5Q352 322 352.0 349.0Q352 376 327.5 404.0Q303 432 279 432Z"/></g><path d="M760,168 C760,214 96,214 92,170" fill="none" stroke="#8d8470" stroke-width="1.3" filter="url(#r2)"/><g fill="#8d8470" transform="translate(361.2,226)"><path transform="translate(0.0,0) scale(0.01200,-0.01200)" d="M91 389 88 464Q88 511 110 511Q129 511 146.5 486.5Q164 462 164.0 428.5Q164 395 162 378Q249 510 327 510Q376 510 376 486Q376 474 365.0 464.0Q354 454 330 441Q277 418 240.5 370.5Q204 323 181.0 263.0Q158 203 144.5 162.0Q131 121 124.0 98.0Q117 75 108 53Q92 13 71 13Q54 13 43.5 32.5Q33 52 33.0 70.5Q33 89 50 144Q91 270 91 389Z"/><path transform="translate(4.0,0) scale(0.01200,-0.01200)" d="M111 241Q97 197 97.0 162.5Q97 128 118.5 109.0Q140 90 189.5 90.0Q239 90 291.5 107.5Q344 125 349 125Q375 125 375 105Q375 78 314.0 46.5Q253 15 195 15Q117 15 68.0 61.5Q19 108 19.0 179.0Q19 250 57.0 327.5Q95 405 155.0 458.0Q215 511 274.0 511.0Q333 511 381.5 455.0Q430 399 430.0 345.5Q430 292 372.5 258.5Q315 225 242.5 225.0Q170 225 111 241ZM279 432Q242 432 202.0 393.5Q162 355 134 298Q174 289 225.0 289.0Q276 289 314.0 305.5Q352 322 352.0 349.0Q352 376 327.5 404.0Q303 432 279 432Z"/><path transform="translate(9.4,0) scale(0.01200,-0.01200)" d="M358 514Q401 514 432.5 459.0Q464 404 464.0 345.5Q464 287 430.0 228.5Q396 170 346.0 124.0Q296 78 235.5 47.5Q175 17 124 17Q104 17 86 22Q82 5 72.0 -39.0Q62 -83 55.0 -112.0Q48 -141 39 -174Q21 -242 7.0 -242.0Q-7 -242 -22.5 -220.5Q-38 -199 -38.0 -182.0Q-38 -165 -6 -36Q90 353 90 488Q90 518 112 518Q130 518 155.5 491.5Q181 465 181 433Q181 417 177 398Q266 514 358 514ZM114 95Q167 95 228.5 131.0Q290 167 333.5 226.5Q377 286 377 345Q377 428 338.0 428.0Q299 428 232.5 361.0Q166 294 127 187L104 95Z"/><path transform="translate(15.1,0) scale(0.01200,-0.01200)" d="M333 341Q333 375 322.0 405.5Q311 436 290 450Q221 431 171.5 343.5Q122 256 122.0 179.0Q122 102 160 83Q232 97 282.5 181.5Q333 266 333 341ZM155 15Q104 15 70.0 62.0Q36 109 36.0 181.5Q36 254 70.5 332.0Q105 410 161.5 460.5Q218 511 277.5 511.0Q337 511 377.0 460.5Q417 410 417.0 337.5Q417 265 382.0 189.5Q347 114 285.5 64.5Q224 15 155 15Z"/><path transform="translate(20.5,0) scale(0.01200,-0.01200)" d="M91 389 88 464Q88 511 110 511Q129 511 146.5 486.5Q164 462 164.0 428.5Q164 395 162 378Q249 510 327 510Q376 510 376 486Q376 474 365.0 464.0Q354 454 330 441Q277 418 240.5 370.5Q204 323 181.0 263.0Q158 203 144.5 162.0Q131 121 124.0 98.0Q117 75 108 53Q92 13 71 13Q54 13 43.5 32.5Q33 52 33.0 70.5Q33 89 50 144Q91 270 91 389Z"/><path transform="translate(24.5,0) scale(0.01200,-0.01200)" d="M143 115Q143 96 165 96Q203 96 257.5 117.5Q312 139 318 139Q336 139 336 120Q336 91 276.5 53.0Q217 15 168.5 15.0Q120 15 88.0 41.5Q56 68 56.0 96.0Q56 124 68.0 167.5Q80 211 102.5 282.5Q125 354 138 401Q91 390 75.0 390.0Q59 390 43.5 406.5Q28 423 28 438Q28 462 158 484Q176 567 176 631Q176 661 196 661Q213 661 238.0 639.5Q263 618 263.0 591.0Q263 564 246 496Q303 501 337 501Q397 501 397 475Q397 460 364.5 450.0Q332 440 228 419Q207 340 175.0 238.5Q143 137 143 115Z"/><path transform="translate(34.0,0) scale(0.01200,-0.01200)" d="M103 13Q90 13 75.0 32.0Q60 51 60.0 63.0Q60 75 70 110Q120 290 138 367Q95 357 79.0 357.0Q63 357 47.0 371.0Q31 385 31.0 402.0Q31 419 76 432Q134 446 156 450Q166 498 171 524Q195 662 236.0 723.0Q277 784 347 784Q397 784 429.0 744.5Q461 705 461.0 651.5Q461 598 433 598Q409 598 394 652Q389 672 377.0 689.0Q365 706 348.0 706.0Q331 706 317.0 690.5Q303 675 292 646Q263 565 252 498L244 463Q281 468 317.5 468.0Q354 468 370.5 460.0Q387 452 387 440Q387 421 354.0 411.0Q321 401 225 385Q154 97 128 42Q114 13 103 13Z"/><path transform="translate(38.5,0) scale(0.01200,-0.01200)" d="M111 241Q97 197 97.0 162.5Q97 128 118.5 109.0Q140 90 189.5 90.0Q239 90 291.5 107.5Q344 125 349 125Q375 125 375 105Q375 78 314.0 46.5Q253 15 195 15Q117 15 68.0 61.5Q19 108 19.0 179.0Q19 250 57.0 327.5Q95 405 155.0 458.0Q215 511 274.0 511.0Q333 511 381.5 455.0Q430 399 430.0 345.5Q430 292 372.5 258.5Q315 225 242.5 225.0Q170 225 111 241ZM279 432Q242 432 202.0 393.5Q162 355 134 298Q174 289 225.0 289.0Q276 289 314.0 305.5Q352 322 352.0 349.0Q352 376 327.5 404.0Q303 432 279 432Z"/><path transform="translate(43.9,0) scale(0.01200,-0.01200)" d="M111 241Q97 197 97.0 162.5Q97 128 118.5 109.0Q140 90 189.5 90.0Q239 90 291.5 107.5Q344 125 349 125Q375 125 375 105Q375 78 314.0 46.5Q253 15 195 15Q117 15 68.0 61.5Q19 108 19.0 179.0Q19 250 57.0 327.5Q95 405 155.0 458.0Q215 511 274.0 511.0Q333 511 381.5 455.0Q430 399 430.0 345.5Q430 292 372.5 258.5Q315 225 242.5 225.0Q170 225 111 241ZM279 432Q242 432 202.0 393.5Q162 355 134 298Q174 289 225.0 289.0Q276 289 314.0 305.5Q352 322 352.0 349.0Q352 376 327.5 404.0Q303 432 279 432Z"/><path transform="translate(49.3,0) scale(0.01200,-0.01200)" d="M459 791Q475 791 498.5 761.5Q522 732 522.0 706.0Q522 680 497.0 558.5Q472 437 439 307Q367 15 344 15Q330 15 313.5 32.5Q297 50 297.0 63.0Q297 76 304 115Q206 15 133 15Q89 15 53.5 55.0Q18 95 18 138Q18 200 51.5 285.5Q85 371 148.0 441.0Q211 511 282.0 511.0Q353 511 381 426Q432 638 437 761Q437 791 459 791ZM349 300Q349 354 330.5 391.0Q312 428 286 428Q243 428 198.0 375.0Q153 322 126.5 253.5Q100 185 100 135Q100 117 113.0 106.0Q126 95 144 95Q183 95 249.5 151.0Q316 207 346 283L349 295Z"/><path transform="translate(55.3,0) scale(0.01200,-0.01200)" d="M317 511Q351 511 381.0 473.5Q411 436 411 408Q411 391 395 391Q384 391 361.0 408.5Q338 426 314.0 426.0Q290 426 238.5 398.0Q187 370 187 339Q187 316 279 260Q314 238 342.5 203.5Q371 169 371.0 129.5Q371 90 316.5 52.5Q262 15 189.5 15.0Q117 15 61.5 50.0Q6 85 6 116Q6 129 12.5 136.5Q19 144 29.0 144.0Q39 144 57 131Q111 92 169.5 92.0Q228 92 254.0 105.5Q280 119 280.0 141.5Q280 164 251.0 189.5Q222 215 187.5 235.0Q153 255 124.0 284.0Q95 313 95 343Q95 396 178.5 453.5Q262 511 317 511Z"/><path transform="translate(65.2,0) scale(0.01200,-0.01200)" d="M143 115Q143 96 165 96Q203 96 257.5 117.5Q312 139 318 139Q336 139 336 120Q336 91 276.5 53.0Q217 15 168.5 15.0Q120 15 88.0 41.5Q56 68 56.0 96.0Q56 124 68.0 167.5Q80 211 102.5 282.5Q125 354 138 401Q91 390 75.0 390.0Q59 390 43.5 406.5Q28 423 28 438Q28 462 158 484Q176 567 176 631Q176 661 196 661Q213 661 238.0 639.5Q263 618 263.0 591.0Q263 564 246 496Q303 501 337 501Q397 501 397 475Q397 460 364.5 450.0Q332 440 228 419Q207 340 175.0 238.5Q143 137 143 115Z"/><path transform="translate(69.8,0) scale(0.01200,-0.01200)" d="M149 752Q149 791 173 791Q192 791 213.5 761.0Q235 731 235 703Q235 638 202.5 481.5Q170 325 118 169Q218 350 285.5 430.5Q353 511 401 511Q427 511 461.5 466.0Q496 421 496.0 376.0Q496 331 471 241Q409 15 354 15Q332 15 332.0 45.0Q332 75 356 146Q409 301 409 355Q409 373 400.0 385.0Q391 397 378.0 397.0Q365 397 346.0 383.0Q327 369 300 334Q266 289 229.5 233.0Q193 177 185.5 165.5Q178 154 159.5 124.0Q141 94 132.0 79.5Q123 65 110 48Q87 15 75.0 15.0Q63 15 43.0 37.5Q23 60 23.0 75.5Q23 91 34 134Q84 326 97 397Q149 657 149 752Z"/><path transform="translate(76.3,0) scale(0.01200,-0.01200)" d="M111 241Q97 197 97.0 162.5Q97 128 118.5 109.0Q140 90 189.5 90.0Q239 90 291.5 107.5Q344 125 349 125Q375 125 375 105Q375 78 314.0 46.5Q253 15 195 15Q117 15 68.0 61.5Q19 108 19.0 179.0Q19 250 57.0 327.5Q95 405 155.0 458.0Q215 511 274.0 511.0Q333 511 381.5 455.0Q430 399 430.0 345.5Q430 292 372.5 258.5Q315 225 242.5 225.0Q170 225 111 241ZM279 432Q242 432 202.0 393.5Q162 355 134 298Q174 289 225.0 289.0Q276 289 314.0 305.5Q352 322 352.0 349.0Q352 376 327.5 404.0Q303 432 279 432Z"/><path transform="translate(86.5,0) scale(0.01200,-0.01200)" d="M492 383Q492 311 459 207Q399 15 351 15Q329 15 329 45Q329 66 350.5 130.5Q372 195 390.5 257.5Q409 320 409.0 351.5Q409 383 399.5 398.0Q390 413 380.5 413.0Q371 413 361.0 407.0Q351 401 338.5 387.0Q326 373 315.0 359.5Q304 346 287.5 321.0Q271 296 260.0 278.5Q249 261 228.0 228.0Q207 195 196.0 178.0Q185 161 167.0 132.0Q149 103 138.5 87.0Q128 71 115 52Q90 15 75.5 15.0Q61 15 42.0 37.5Q23 60 23 77Q23 82 30 104Q49 162 72.0 247.5Q95 333 97 442Q100 515 118 515Q140 515 162.0 492.0Q184 469 184.0 441.5Q184 414 167.5 335.5Q151 257 129 189Q225 352 285.5 431.5Q346 511 384.5 511.0Q423 511 457.5 470.0Q492 429 492 383Z"/><path transform="translate(92.9,0) scale(0.01200,-0.01200)" d="M111 241Q97 197 97.0 162.5Q97 128 118.5 109.0Q140 90 189.5 90.0Q239 90 291.5 107.5Q344 125 349 125Q375 125 375 105Q375 78 314.0 46.5Q253 15 195 15Q117 15 68.0 61.5Q19 108 19.0 179.0Q19 250 57.0 327.5Q95 405 155.0 458.0Q215 511 274.0 511.0Q333 511 381.5 455.0Q430 399 430.0 345.5Q430 292 372.5 258.5Q315 225 242.5 225.0Q170 225 111 241ZM279 432Q242 432 202.0 393.5Q162 355 134 298Q174 289 225.0 289.0Q276 289 314.0 305.5Q352 322 352.0 349.0Q352 376 327.5 404.0Q303 432 279 432Z"/><path transform="translate(98.3,0) scale(0.01200,-0.01200)" d="M250 237Q256 228 268.5 207.0Q281 186 289.5 172.0Q298 158 311.5 136.5Q325 115 334.0 101.5Q343 88 351 74Q367 48 367.0 38.0Q367 28 360.0 21.5Q353 15 343 15Q298 15 199 176Q68 15 40 15Q24 15 7.0 31.5Q-10 48 -10 62Q-10 67 12 89Q109 186 157 247Q111 329 79.0 399.0Q47 469 47.0 483.5Q47 498 48 502Q50 511 70.0 511.0Q90 511 119.0 499.0Q148 487 148 470Q148 428 207 314Q288 423 327.5 467.0Q367 511 386.0 511.0Q405 511 423.5 495.0Q442 479 442.0 467.5Q442 456 435.0 448.5Q428 441 412.5 428.0Q397 415 383.5 400.5Q370 386 349.0 360.5Q328 335 298.5 297.5Q269 260 250 237Z"/><path transform="translate(103.4,0) scale(0.01200,-0.01200)" d="M143 115Q143 96 165 96Q203 96 257.5 117.5Q312 139 318 139Q336 139 336 120Q336 91 276.5 53.0Q217 15 168.5 15.0Q120 15 88.0 41.5Q56 68 56.0 96.0Q56 124 68.0 167.5Q80 211 102.5 282.5Q125 354 138 401Q91 390 75.0 390.0Q59 390 43.5 406.5Q28 423 28 438Q28 462 158 484Q176 567 176 631Q176 661 196 661Q213 661 238.0 639.5Q263 618 263.0 591.0Q263 564 246 496Q303 501 337 501Q397 501 397 475Q397 460 364.5 450.0Q332 440 228 419Q207 340 175.0 238.5Q143 137 143 115Z"/><path transform="translate(112.9,0) scale(0.01200,-0.01200)" d="M312 511Q353 511 384.0 474.0Q415 437 415 409Q415 401 410.0 395.5Q405 390 395.5 390.0Q386 390 362.0 408.0Q338 426 319 426Q265 426 193.0 331.0Q121 236 121 165Q121 134 140.5 116.0Q160 98 203.5 98.0Q247 98 283.5 108.5Q320 119 340.0 129.5Q360 140 371 140Q390 140 390 121Q390 92 320.5 53.5Q251 15 192.5 15.0Q134 15 83.0 60.5Q32 106 32.0 168.5Q32 231 74.0 313.0Q116 395 182.5 453.0Q249 511 312 511Z"/><path transform="translate(118.2,0) scale(0.01200,-0.01200)" d="M475 435Q475 415 434.0 299.0Q393 183 378.5 141.5Q364 100 339.5 31.5Q315 -37 292 -102Q242 -245 142 -245Q85 -245 33.0 -210.5Q-19 -176 -19 -139Q-19 -125 -6.5 -108.0Q6 -91 15.0 -91.0Q24 -91 44 -113Q102 -179 143 -179Q174 -179 199.0 -124.5Q224 -70 246.5 -1.5Q269 67 271.5 74.0Q274 81 277.5 92.0Q281 103 284 112Q213 15 144 15Q102 15 66.5 54.0Q31 93 31.0 146.0Q31 199 57.0 289.0Q83 379 118.0 445.0Q153 511 175 511Q193 511 208.5 494.5Q224 478 224.0 461.0Q224 444 198 390Q117 224 117 132Q117 116 127.0 105.5Q137 95 151 95Q187 95 237.0 159.0Q287 223 329 311Q364 385 402 500Q406 511 422.0 511.0Q438 511 456.5 487.5Q475 464 475 435Z"/><path transform="translate(123.8,0) scale(0.01200,-0.01200)" d="M312 511Q353 511 384.0 474.0Q415 437 415 409Q415 401 410.0 395.5Q405 390 395.5 390.0Q386 390 362.0 408.0Q338 426 319 426Q265 426 193.0 331.0Q121 236 121 165Q121 134 140.5 116.0Q160 98 203.5 98.0Q247 98 283.5 108.5Q320 119 340.0 129.5Q360 140 371 140Q390 140 390 121Q390 92 320.5 53.5Q251 15 192.5 15.0Q134 15 83.0 60.5Q32 106 32.0 168.5Q32 231 74.0 313.0Q116 395 182.5 453.0Q249 511 312 511Z"/><path transform="translate(129.2,0) scale(0.01200,-0.01200)" d="M228 707Q228 519 150 219Q100 15 80 15Q66 15 47.5 37.0Q29 59 29.0 71.0Q29 83 58.0 195.0Q87 307 116.0 470.5Q145 634 145 765Q145 779 149.0 785.0Q153 791 166.0 791.0Q179 791 203.5 762.5Q228 734 228 707Z"/><path transform="translate(132.1,0) scale(0.01200,-0.01200)" d="M111 241Q97 197 97.0 162.5Q97 128 118.5 109.0Q140 90 189.5 90.0Q239 90 291.5 107.5Q344 125 349 125Q375 125 375 105Q375 78 314.0 46.5Q253 15 195 15Q117 15 68.0 61.5Q19 108 19.0 179.0Q19 250 57.0 327.5Q95 405 155.0 458.0Q215 511 274.0 511.0Q333 511 381.5 455.0Q430 399 430.0 345.5Q430 292 372.5 258.5Q315 225 242.5 225.0Q170 225 111 241ZM279 432Q242 432 202.0 393.5Q162 355 134 298Q174 289 225.0 289.0Q276 289 314.0 305.5Q352 322 352.0 349.0Q352 376 327.5 404.0Q303 432 279 432Z"/></g></svg>