<svg xmlns="http://www.w3.org/2000/svg" viewBox="0 0 860 290" width="860" height="290" role="img" aria-label="Dharmik Shingala — product and content for IT operations at Motadata. Decide what to defend first, write second; specificity is the only luxury that scales; build the small tool when none exists.">
  <defs>
    <filter id="rough"><feTurbulence type="fractalNoise" baseFrequency="0.012 0.016" numOctaves="2" seed="7" result="n"/><feDisplacementMap in="SourceGraphic" in2="n" scale="2.2"/></filter>
    <filter id="rough2"><feTurbulence type="fractalNoise" baseFrequency="0.02" numOctaves="2" seed="3" result="n"/><feDisplacementMap in="SourceGraphic" in2="n" scale="2.8"/></filter>
  </defs>
  <rect width="860" height="290" rx="6" fill="#f3ead5"/>
  <rect x="12" y="12" width="836" height="266" rx="3" fill="none" stroke="#2a2620" stroke-width="1.6" filter="url(#rough)" opacity="0.8"/>
  <!-- hand underline under the name -->
  <path d="M48,118 q70,-6 150,-2 q120,5 250,-3" fill="none" stroke="#b5462f" stroke-width="3" stroke-linecap="round" filter="url(#rough2)"/>
  <!-- hand-drawn kite doodle (Uttarayan) bottom-right -->
  <g transform="translate(700,150)" filter="url(#rough2)">
    <polygon points="0,-34 24,0 0,44 -24,0" fill="none" stroke="#2a2620" stroke-width="2"/>
    <path d="M0,-34 V44 M-24,0 H24" stroke="#2a2620" stroke-width="1.4" fill="none"/>
    <path d="M0,44 q9,12 -4,20 q-12,8 3,18" fill="none" stroke="#b5462f" stroke-width="2"/>
    <path d="M0,44 q40,40 96,70" fill="none" stroke="#8a8170" stroke-width="1.2"/>
  </g>
<g fill="#2a2620" transform="translate(46,108) rotate(-1.2)" filter="url(#rough)"><path transform="translate(0.0,0) scale(0.05600,-0.05600)" d="M110 747Q188 747 280.5 715.0Q373 683 452.5 631.0Q532 579 585.5 506.0Q639 433 639 358Q639 302 548.5 218.5Q458 135 339.0 74.0Q220 13 144 13Q127 13 89.5 57.5Q52 102 52 123Q52 164 106.5 351.5Q161 539 174 609Q138 633 114.0 666.5Q90 700 90.0 723.5Q90 747 110 747ZM495 386Q495 418 436.0 470.5Q377 523 299 558Q293 483 214 237Q210 224 201.5 194.5Q193 165 189 155Q287 188 391.0 266.5Q495 345 495 386Z"/><path transform="translate(37.3,0) scale(0.05600,-0.05600)" d="M150 766Q150 808 183 808Q210 808 245.0 763.0Q280 718 280.0 686.0Q280 654 267.0 596.0Q254 538 240.5 490.0Q227 442 200.0 353.5Q173 265 163 230Q228 362 300.5 445.0Q373 528 422 528Q453 528 493.0 473.5Q533 419 533.0 375.5Q533 332 517.0 249.0Q501 166 461.0 89.0Q421 12 379 12Q346 12 346 59Q346 93 366 170Q395 285 395.0 310.0Q395 335 387 335Q329 335 217 142Q179 76 153.5 44.0Q128 12 105.0 12.0Q82 12 49.5 49.0Q17 86 17.0 106.5Q17 127 25.5 167.0Q34 207 51.5 281.0Q69 355 109.5 549.5Q150 744 150 766Z"/><path transform="translate(68.8,0) scale(0.05600,-0.05600)" d="M450 296Q468 280 468.0 267.0Q468 254 456.0 213.0Q444 172 440.0 149.5Q436 127 433.5 114.0Q431 101 430.0 93.5Q429 86 426.5 75.0Q424 64 422.5 57.5Q421 51 418.5 42.5Q416 34 413.0 29.5Q410 25 406 20Q400 12 386.0 12.0Q372 12 351.5 40.0Q331 68 321 108Q227 12 163 12Q120 12 70.0 59.5Q20 107 20.0 154.5Q20 202 63.0 290.0Q106 378 180.5 453.0Q255 528 328 528Q370 528 425.0 479.0Q480 430 480.0 389.5Q480 349 450 296ZM159 138Q199 138 265.5 192.5Q332 247 348 330Q349 342 365 344Q362 401 346 401Q306 401 256.5 349.0Q207 297 175.5 238.0Q144 179 144 151Q144 143 146.5 140.5Q149 138 159 138Z"/><path transform="translate(97.4,0) scale(0.05600,-0.05600)" d="M80 359 74 472Q74 528 109 528Q129 528 148.5 513.0Q168 498 178 466Q212 496 252.5 514.5Q293 533 324 533Q397 533 397 498Q397 480 390.5 471.5Q384 463 380.5 459.0Q377 455 368.5 448.5Q360 442 356 439Q333 424 323 418Q278 390 246.0 350.5Q214 311 198 241Q171 126 145.5 69.5Q120 13 88.5 13.0Q57 13 41.5 43.0Q26 73 26.0 99.5Q26 126 45.5 179.0Q65 232 72.5 270.5Q80 309 80 359Z"/><path transform="translate(117.7,0) scale(0.05600,-0.05600)" d="M698 528Q737 528 763.0 476.0Q789 424 789.0 381.0Q789 338 772.5 253.5Q756 169 720.5 90.5Q685 12 644 12Q611 12 611.0 57.0Q611 102 637.0 204.0Q663 306 663.0 338.0Q663 370 653 370Q632 370 603.0 324.0Q574 278 533.5 201.0Q493 124 483.0 102.0Q473 80 466.5 67.0Q460 54 452 40Q420 -13 367 40Q340 67 340 89Q340 93 356.5 165.5Q373 238 373 331Q373 370 364 370Q352 370 336.0 346.0Q320 322 287.0 259.0Q254 196 230 155Q146 12 102 12Q80 12 47.5 49.0Q15 86 15.0 105.5Q15 125 37.5 199.5Q60 274 66.5 358.0Q73 442 78.5 489.0Q84 536 102 536Q140 536 175.5 504.5Q211 473 211 447Q211 388 168 241Q238 408 286 467Q337 528 384 528Q410 528 448.5 480.0Q487 432 487.0 390.5Q487 349 486 318Q517 396 580.0 462.0Q643 528 698 528Z"/><path transform="translate(163.5,0) scale(0.05600,-0.05600)" d="M228 551Q199 551 161.0 589.0Q123 627 123.0 653.0Q123 679 146.5 706.5Q170 734 192.5 734.0Q215 734 246.0 680.0Q277 626 277.0 601.5Q277 577 261.0 564.0Q245 551 228 551ZM138 528Q173 528 200.5 488.0Q228 448 228 411Q228 392 193.5 274.5Q159 157 125 52Q113 13 76 13Q54 13 37.5 29.5Q21 46 21.0 72.5Q21 99 46.5 204.5Q72 310 85.5 384.5Q99 459 110.5 493.5Q122 528 138 528Z"/><path transform="translate(178.1,0) scale(0.05600,-0.05600)" d="M118 12Q95 12 60.5 49.0Q26 86 26 108Q26 114 59.5 227.0Q93 340 126.5 499.0Q160 658 160 777Q160 808 188 808Q212 808 251.5 764.5Q291 721 291 683Q291 628 251.5 475.0Q212 322 173 234Q186 251 208.5 279.5Q231 308 245.0 326.0Q259 344 279.5 370.0Q300 396 314.0 412.5Q328 429 345.0 449.5Q362 470 374.5 482.5Q387 495 400 506Q424 528 437 528Q462 528 492.0 494.5Q522 461 522 436Q522 426 479.5 390.0Q437 354 394.5 310.0Q352 266 352.0 231.5Q352 197 372.5 164.5Q393 132 417.0 115.0Q441 98 461.5 80.5Q482 63 482 51Q482 12 429 12Q366 12 262 118L238 142Q148 12 118 12Z"/><path transform="translate(227.2,0) scale(0.05600,-0.05600)" d="M499 220Q499 135 418.0 74.0Q337 13 233.0 13.0Q129 13 65.5 64.5Q2 116 2.0 171.0Q2 226 33 226Q57 226 83.0 202.0Q109 178 141.5 154.0Q174 130 215.0 130.0Q256 130 308.0 164.0Q360 198 360.0 221.0Q360 244 303.5 298.0Q247 352 190.5 409.5Q134 467 134.0 498.5Q134 530 145.5 567.0Q157 604 174 618Q228 671 313.5 709.5Q399 748 464 748Q502 748 527.0 715.5Q552 683 552 648Q552 634 529.5 625.5Q507 617 464.5 608.0Q422 599 378 582Q276 544 276 518Q276 506 311.0 474.5Q346 443 387.5 408.5Q429 374 464.0 321.5Q499 269 499 220Z"/><path transform="translate(258.2,0) scale(0.05600,-0.05600)" d="M150 766Q150 808 183 808Q210 808 245.0 763.0Q280 718 280.0 686.0Q280 654 267.0 596.0Q254 538 240.5 490.0Q227 442 200.0 353.5Q173 265 163 230Q228 362 300.5 445.0Q373 528 422 528Q453 528 493.0 473.5Q533 419 533.0 375.5Q533 332 517.0 249.0Q501 166 461.0 89.0Q421 12 379 12Q346 12 346 59Q346 93 366 170Q395 285 395.0 310.0Q395 335 387 335Q329 335 217 142Q179 76 153.5 44.0Q128 12 105.0 12.0Q82 12 49.5 49.0Q17 86 17.0 106.5Q17 127 25.5 167.0Q34 207 51.5 281.0Q69 355 109.5 549.5Q150 744 150 766Z"/><path transform="translate(289.7,0) scale(0.05600,-0.05600)" d="M228 551Q199 551 161.0 589.0Q123 627 123.0 653.0Q123 679 146.5 706.5Q170 734 192.5 734.0Q215 734 246.0 680.0Q277 626 277.0 601.5Q277 577 261.0 564.0Q245 551 228 551ZM138 528Q173 528 200.5 488.0Q228 448 228 411Q228 392 193.5 274.5Q159 157 125 52Q113 13 76 13Q54 13 37.5 29.5Q21 46 21.0 72.5Q21 99 46.5 204.5Q72 310 85.5 384.5Q99 459 110.5 493.5Q122 528 138 528Z"/><path transform="translate(304.2,0) scale(0.05600,-0.05600)" d="M393 528Q445 528 484.5 481.5Q524 435 524 382Q524 297 496.5 204.5Q469 112 436.5 62.0Q404 12 370.5 12.0Q337 12 337 59Q337 95 370 204Q395 294 395.0 333.0Q395 372 385 372Q372 372 359.5 359.0Q347 346 339.0 336.0Q331 326 320.5 310.5Q310 295 302.5 282.5Q295 270 283.5 250.5Q272 231 265.0 218.5Q258 206 247 186Q154 12 101 12Q80 12 48.0 48.5Q16 85 16 102Q16 113 30.5 149.5Q45 186 51.5 205.5Q58 225 62.5 247.0Q67 269 70.0 294.5Q73 320 74.5 334.0Q76 348 78 378Q87 508 93.5 522.0Q100 536 108 536Q146 536 181.0 504.5Q216 473 216 447Q216 385 184 269Q249 383 302.5 455.5Q356 528 393 528Z"/><path transform="translate(335.3,0) scale(0.05600,-0.05600)" d="M420 312Q435 295 435.0 271.0Q435 247 415 212Q390 152 371.0 63.0Q352 -26 333.5 -79.5Q315 -133 293.5 -171.0Q272 -209 235.0 -234.0Q198 -259 150 -259Q83 -259 30.0 -215.0Q-23 -171 -23.0 -139.5Q-23 -108 -6.0 -82.5Q11 -57 25.5 -57.0Q40 -57 53.5 -73.0Q67 -89 78.5 -107.5Q90 -126 109.0 -142.0Q128 -158 151.0 -158.0Q174 -158 193.0 -128.0Q212 -98 222 -63Q247 19 253 54Q185 12 142.5 12.0Q100 12 60.0 58.5Q20 105 20.0 146.5Q20 188 42.5 250.5Q65 313 100.5 375.5Q136 438 190.5 483.0Q245 528 300 528Q337 528 363.0 509.5Q389 491 401 460Q422 406 422 338Q422 328 420 312ZM143 151Q143 138 154 138Q183 138 248.0 191.0Q313 244 335 296V315Q335 380 323 394Q317 401 307 401Q259 401 201.0 300.0Q143 199 143 151Z"/><path transform="translate(362.2,0) scale(0.05600,-0.05600)" d="M450 296Q468 280 468.0 267.0Q468 254 456.0 213.0Q444 172 440.0 149.5Q436 127 433.5 114.0Q431 101 430.0 93.5Q429 86 426.5 75.0Q424 64 422.5 57.5Q421 51 418.5 42.5Q416 34 413.0 29.5Q410 25 406 20Q400 12 386.0 12.0Q372 12 351.5 40.0Q331 68 321 108Q227 12 163 12Q120 12 70.0 59.5Q20 107 20.0 154.5Q20 202 63.0 290.0Q106 378 180.5 453.0Q255 528 328 528Q370 528 425.0 479.0Q480 430 480.0 389.5Q480 349 450 296ZM159 138Q199 138 265.5 192.5Q332 247 348 330Q349 342 365 344Q362 401 346 401Q306 401 256.5 349.0Q207 297 175.5 238.0Q144 179 144 151Q144 143 146.5 140.5Q149 138 159 138Z"/><path transform="translate(390.8,0) scale(0.05600,-0.05600)" d="M229 374Q146 12 113 12Q91 12 58.5 47.5Q26 83 26 106Q26 108 53.0 210.0Q80 312 107.5 472.5Q135 633 135 779Q135 808 166 808Q190 808 228.0 764.0Q266 720 266.0 680.0Q266 640 254.0 537.5Q242 435 229 374Z"/><path transform="translate(405.7,0) scale(0.05600,-0.05600)" d="M450 296Q468 280 468.0 267.0Q468 254 456.0 213.0Q444 172 440.0 149.5Q436 127 433.5 114.0Q431 101 430.0 93.5Q429 86 426.5 75.0Q424 64 422.5 57.5Q421 51 418.5 42.5Q416 34 413.0 29.5Q410 25 406 20Q400 12 386.0 12.0Q372 12 351.5 40.0Q331 68 321 108Q227 12 163 12Q120 12 70.0 59.5Q20 107 20.0 154.5Q20 202 63.0 290.0Q106 378 180.5 453.0Q255 528 328 528Q370 528 425.0 479.0Q480 430 480.0 389.5Q480 349 450 296ZM159 138Q199 138 265.5 192.5Q332 247 348 330Q349 342 365 344Q362 401 346 401Q306 401 256.5 349.0Q207 297 175.5 238.0Q144 179 144 151Q144 143 146.5 140.5Q149 138 159 138Z"/></g>
<g fill="#2a2620" transform="translate(48,146)"><path transform="translate(0.0,0) scale(0.02200,-0.02200)" d="M559 553Q559 445 455.5 370.0Q352 295 182 262Q109 15 95.0 15.0Q81 15 62.0 37.5Q43 60 43.0 82.5Q43 105 72 202Q162 501 166 619Q142 641 142 659Q142 684 210.0 707.0Q278 730 340 730Q436 730 497.5 681.0Q559 632 559 553ZM471 547Q471 591 437.5 619.5Q404 648 357.0 648.0Q310 648 243 618Q253 596 253 577Q253 521 204 340Q324 372 397.5 428.5Q471 485 471 547Z"/><path transform="translate(11.9,0) scale(0.02200,-0.02200)" d="M91 389 88 464Q88 511 110 511Q129 511 146.5 486.5Q164 462 164.0 428.5Q164 395 162 378Q249 510 327 510Q376 510 376 486Q376 474 365.0 464.0Q354 454 330 441Q277 418 240.5 370.5Q204 323 181.0 263.0Q158 203 144.5 162.0Q131 121 124.0 98.0Q117 75 108 53Q92 13 71 13Q54 13 43.5 32.5Q33 52 33.0 70.5Q33 89 50 144Q91 270 91 389Z"/><path transform="translate(19.2,0) scale(0.02200,-0.02200)" d="M333 341Q333 375 322.0 405.5Q311 436 290 450Q221 431 171.5 343.5Q122 256 122.0 179.0Q122 102 160 83Q232 97 282.5 181.5Q333 266 333 341ZM155 15Q104 15 70.0 62.0Q36 109 36.0 181.5Q36 254 70.5 332.0Q105 410 161.5 460.5Q218 511 277.5 511.0Q337 511 377.0 460.5Q417 410 417.0 337.5Q417 265 382.0 189.5Q347 114 285.5 64.5Q224 15 155 15Z"/><path transform="translate(29.2,0) scale(0.02200,-0.02200)" d="M459 791Q475 791 498.5 761.5Q522 732 522.0 706.0Q522 680 497.0 558.5Q472 437 439 307Q367 15 344 15Q330 15 313.5 32.5Q297 50 297.0 63.0Q297 76 304 115Q206 15 133 15Q89 15 53.5 55.0Q18 95 18 138Q18 200 51.5 285.5Q85 371 148.0 441.0Q211 511 282.0 511.0Q353 511 381 426Q432 638 437 761Q437 791 459 791ZM349 300Q349 354 330.5 391.0Q312 428 286 428Q243 428 198.0 375.0Q153 322 126.5 253.5Q100 185 100 135Q100 117 113.0 106.0Q126 95 144 95Q183 95 249.5 151.0Q316 207 346 283L349 295Z"/><path transform="translate(40.2,0) scale(0.02200,-0.02200)" d="M463 435Q463 422 419.0 281.0Q375 140 351 57Q339 15 317 15Q304 15 295.0 26.0Q286 37 286.0 66.0Q286 95 309 171Q267 103 218.0 59.0Q169 15 128.5 15.0Q88 15 52.0 53.0Q16 91 16 131Q16 226 71.5 368.5Q127 511 164 511Q182 511 195.5 494.5Q209 478 209 457Q209 448 182.0 392.5Q155 337 128.0 262.5Q101 188 101 132Q101 116 111.0 105.5Q121 95 135 95Q173 95 225.5 162.0Q278 229 321.0 318.0Q364 407 385 483Q389 499 393.0 505.0Q397 511 410.5 511.0Q424 511 443.5 485.0Q463 459 463 435Z"/><path transform="translate(50.8,0) scale(0.02200,-0.02200)" d="M312 511Q353 511 384.0 474.0Q415 437 415 409Q415 401 410.0 395.5Q405 390 395.5 390.0Q386 390 362.0 408.0Q338 426 319 426Q265 426 193.0 331.0Q121 236 121 165Q121 134 140.5 116.0Q160 98 203.5 98.0Q247 98 283.5 108.5Q320 119 340.0 129.5Q360 140 371 140Q390 140 390 121Q390 92 320.5 53.5Q251 15 192.5 15.0Q134 15 83.0 60.5Q32 106 32.0 168.5Q32 231 74.0 313.0Q116 395 182.5 453.0Q249 511 312 511Z"/><path transform="translate(60.5,0) scale(0.02200,-0.02200)" d="M143 115Q143 96 165 96Q203 96 257.5 117.5Q312 139 318 139Q336 139 336 120Q336 91 276.5 53.0Q217 15 168.5 15.0Q120 15 88.0 41.5Q56 68 56.0 96.0Q56 124 68.0 167.5Q80 211 102.5 282.5Q125 354 138 401Q91 390 75.0 390.0Q59 390 43.5 406.5Q28 423 28 438Q28 462 158 484Q176 567 176 631Q176 661 196 661Q213 661 238.0 639.5Q263 618 263.0 591.0Q263 564 246 496Q303 501 337 501Q397 501 397 475Q397 460 364.5 450.0Q332 440 228 419Q207 340 175.0 238.5Q143 137 143 115Z"/><path transform="translate(77.9,0) scale(0.02200,-0.02200)" d="M569 91Q618 91 636.0 86.0Q654 81 654 67Q654 20 557.5 20.0Q461 20 367 107Q207 9 130 9Q91 9 53.0 46.5Q15 84 15.0 125.5Q15 167 191 310Q196 315 199.0 317.0Q202 319 206.5 323.0Q211 327 215 330Q179 418 179.0 493.5Q179 569 234.0 625.0Q289 681 373 681Q437 681 464.5 642.5Q492 604 492 557Q492 468 309 310Q335 254 371 207Q412 235 478 283Q607 376 620 376Q651 376 651 343Q651 324 585.0 266.0Q519 208 429 147Q496 91 569 91ZM282 386Q403 493 403 549Q403 573 390.5 589.0Q378 605 353 605Q316 605 291.5 570.0Q267 535 267.0 486.5Q267 438 282 386ZM131 87Q183 87 310 168Q279 206 249 259Q127 157 115.0 139.5Q103 122 103.0 111.5Q103 101 111.0 94.0Q119 87 131 87Z"/><path transform="translate(102.2,0) scale(0.02200,-0.02200)" d="M312 511Q353 511 384.0 474.0Q415 437 415 409Q415 401 410.0 395.5Q405 390 395.5 390.0Q386 390 362.0 408.0Q338 426 319 426Q265 426 193.0 331.0Q121 236 121 165Q121 134 140.5 116.0Q160 98 203.5 98.0Q247 98 283.5 108.5Q320 119 340.0 129.5Q360 140 371 140Q390 140 390 121Q390 92 320.5 53.5Q251 15 192.5 15.0Q134 15 83.0 60.5Q32 106 32.0 168.5Q32 231 74.0 313.0Q116 395 182.5 453.0Q249 511 312 511Z"/><path transform="translate(112.0,0) scale(0.02200,-0.02200)" d="M333 341Q333 375 322.0 405.5Q311 436 290 450Q221 431 171.5 343.5Q122 256 122.0 179.0Q122 102 160 83Q232 97 282.5 181.5Q333 266 333 341ZM155 15Q104 15 70.0 62.0Q36 109 36.0 181.5Q36 254 70.5 332.0Q105 410 161.5 460.5Q218 511 277.5 511.0Q337 511 377.0 460.5Q417 410 417.0 337.5Q417 265 382.0 189.5Q347 114 285.5 64.5Q224 15 155 15Z"/><path transform="translate(121.9,0) scale(0.02200,-0.02200)" d="M492 383Q492 311 459 207Q399 15 351 15Q329 15 329 45Q329 66 350.5 130.5Q372 195 390.5 257.5Q409 320 409.0 351.5Q409 383 399.5 398.0Q390 413 380.5 413.0Q371 413 361.0 407.0Q351 401 338.5 387.0Q326 373 315.0 359.5Q304 346 287.5 321.0Q271 296 260.0 278.5Q249 261 228.0 228.0Q207 195 196.0 178.0Q185 161 167.0 132.0Q149 103 138.5 87.0Q128 71 115 52Q90 15 75.5 15.0Q61 15 42.0 37.5Q23 60 23 77Q23 82 30 104Q49 162 72.0 247.5Q95 333 97 442Q100 515 118 515Q140 515 162.0 492.0Q184 469 184.0 441.5Q184 414 167.5 335.5Q151 257 129 189Q225 352 285.5 431.5Q346 511 384.5 511.0Q423 511 457.5 470.0Q492 429 492 383Z"/><path transform="translate(133.7,0) scale(0.02200,-0.02200)" d="M143 115Q143 96 165 96Q203 96 257.5 117.5Q312 139 318 139Q336 139 336 120Q336 91 276.5 53.0Q217 15 168.5 15.0Q120 15 88.0 41.5Q56 68 56.0 96.0Q56 124 68.0 167.5Q80 211 102.5 282.5Q125 354 138 401Q91 390 75.0 390.0Q59 390 43.5 406.5Q28 423 28 438Q28 462 158 484Q176 567 176 631Q176 661 196 661Q213 661 238.0 639.5Q263 618 263.0 591.0Q263 564 246 496Q303 501 337 501Q397 501 397 475Q397 460 364.5 450.0Q332 440 228 419Q207 340 175.0 238.5Q143 137 143 115Z"/><path transform="translate(142.2,0) scale(0.02200,-0.02200)" d="M111 241Q97 197 97.0 162.5Q97 128 118.5 109.0Q140 90 189.5 90.0Q239 90 291.5 107.5Q344 125 349 125Q375 125 375 105Q375 78 314.0 46.5Q253 15 195 15Q117 15 68.0 61.5Q19 108 19.0 179.0Q19 250 57.0 327.5Q95 405 155.0 458.0Q215 511 274.0 511.0Q333 511 381.5 455.0Q430 399 430.0 345.5Q430 292 372.5 258.5Q315 225 242.5 225.0Q170 225 111 241ZM279 432Q242 432 202.0 393.5Q162 355 134 298Q174 289 225.0 289.0Q276 289 314.0 305.5Q352 322 352.0 349.0Q352 376 327.5 404.0Q303 432 279 432Z"/><path transform="translate(152.1,0) scale(0.02200,-0.02200)" d="M492 383Q492 311 459 207Q399 15 351 15Q329 15 329 45Q329 66 350.5 130.5Q372 195 390.5 257.5Q409 320 409.0 351.5Q409 383 399.5 398.0Q390 413 380.5 413.0Q371 413 361.0 407.0Q351 401 338.5 387.0Q326 373 315.0 359.5Q304 346 287.5 321.0Q271 296 260.0 278.5Q249 261 228.0 228.0Q207 195 196.0 178.0Q185 161 167.0 132.0Q149 103 138.5 87.0Q128 71 115 52Q90 15 75.5 15.0Q61 15 42.0 37.5Q23 60 23 77Q23 82 30 104Q49 162 72.0 247.5Q95 333 97 442Q100 515 118 515Q140 515 162.0 492.0Q184 469 184.0 441.5Q184 414 167.5 335.5Q151 257 129 189Q225 352 285.5 431.5Q346 511 384.5 511.0Q423 511 457.5 470.0Q492 429 492 383Z"/><path transform="translate(163.8,0) scale(0.02200,-0.02200)" d="M143 115Q143 96 165 96Q203 96 257.5 117.5Q312 139 318 139Q336 139 336 120Q336 91 276.5 53.0Q217 15 168.5 15.0Q120 15 88.0 41.5Q56 68 56.0 96.0Q56 124 68.0 167.5Q80 211 102.5 282.5Q125 354 138 401Q91 390 75.0 390.0Q59 390 43.5 406.5Q28 423 28 438Q28 462 158 484Q176 567 176 631Q176 661 196 661Q213 661 238.0 639.5Q263 618 263.0 591.0Q263 564 246 496Q303 501 337 501Q397 501 397 475Q397 460 364.5 450.0Q332 440 228 419Q207 340 175.0 238.5Q143 137 143 115Z"/><path transform="translate(181.1,0) scale(0.02200,-0.02200)" d="M103 13Q90 13 75.0 32.0Q60 51 60.0 63.0Q60 75 70 110Q120 290 138 367Q95 357 79.0 357.0Q63 357 47.0 371.0Q31 385 31.0 402.0Q31 419 76 432Q134 446 156 450Q166 498 171 524Q195 662 236.0 723.0Q277 784 347 784Q397 784 429.0 744.5Q461 705 461.0 651.5Q461 598 433 598Q409 598 394 652Q389 672 377.0 689.0Q365 706 348.0 706.0Q331 706 317.0 690.5Q303 675 292 646Q263 565 252 498L244 463Q281 468 317.5 468.0Q354 468 370.5 460.0Q387 452 387 440Q387 421 354.0 411.0Q321 401 225 385Q154 97 128 42Q114 13 103 13Z"/><path transform="translate(189.4,0) scale(0.02200,-0.02200)" d="M333 341Q333 375 322.0 405.5Q311 436 290 450Q221 431 171.5 343.5Q122 256 122.0 179.0Q122 102 160 83Q232 97 282.5 181.5Q333 266 333 341ZM155 15Q104 15 70.0 62.0Q36 109 36.0 181.5Q36 254 70.5 332.0Q105 410 161.5 460.5Q218 511 277.5 511.0Q337 511 377.0 460.5Q417 410 417.0 337.5Q417 265 382.0 189.5Q347 114 285.5 64.5Q224 15 155 15Z"/><path transform="translate(199.4,0) scale(0.02200,-0.02200)" d="M91 389 88 464Q88 511 110 511Q129 511 146.5 486.5Q164 462 164.0 428.5Q164 395 162 378Q249 510 327 510Q376 510 376 486Q376 474 365.0 464.0Q354 454 330 441Q277 418 240.5 370.5Q204 323 181.0 263.0Q158 203 144.5 162.0Q131 121 124.0 98.0Q117 75 108 53Q92 13 71 13Q54 13 43.5 32.5Q33 52 33.0 70.5Q33 89 50 144Q91 270 91 389Z"/><path transform="translate(215.5,0) scale(0.02200,-0.02200)" d="M188 688Q188 705 192.5 711.5Q197 718 211.5 718.0Q226 718 249.5 687.0Q273 656 273.0 620.5Q273 585 201 292Q194 265 182.0 214.5Q170 164 163.0 137.0Q156 110 148 78Q131 19 119.0 19.0Q107 19 87.5 43.0Q68 67 68.0 87.0Q68 107 127.5 366.5Q187 626 188 688Z"/><path transform="translate(222.3,0) scale(0.02200,-0.02200)" d="M284 632 113 624Q97 624 80.0 645.0Q63 666 63 686Q63 704 120.5 709.0Q178 714 373 714Q474 714 539.5 692.0Q605 670 605 643Q605 624 572.0 624.0Q539 624 480.0 628.0Q421 632 367 633Q370 623 370 611Q370 574 292 267Q284 235 268.0 167.0Q252 99 244 72Q230 19 219 19Q204 19 185.5 41.5Q167 64 167.0 87.0Q167 110 221.0 323.5Q275 537 284 632Z"/><path transform="translate(242.9,0) scale(0.02200,-0.02200)" d="M333 341Q333 375 322.0 405.5Q311 436 290 450Q221 431 171.5 343.5Q122 256 122.0 179.0Q122 102 160 83Q232 97 282.5 181.5Q333 266 333 341ZM155 15Q104 15 70.0 62.0Q36 109 36.0 181.5Q36 254 70.5 332.0Q105 410 161.5 460.5Q218 511 277.5 511.0Q337 511 377.0 460.5Q417 410 417.0 337.5Q417 265 382.0 189.5Q347 114 285.5 64.5Q224 15 155 15Z"/><path transform="translate(252.9,0) scale(0.02200,-0.02200)" d="M358 514Q401 514 432.5 459.0Q464 404 464.0 345.5Q464 287 430.0 228.5Q396 170 346.0 124.0Q296 78 235.5 47.5Q175 17 124 17Q104 17 86 22Q82 5 72.0 -39.0Q62 -83 55.0 -112.0Q48 -141 39 -174Q21 -242 7.0 -242.0Q-7 -242 -22.5 -220.5Q-38 -199 -38.0 -182.0Q-38 -165 -6 -36Q90 353 90 488Q90 518 112 518Q130 518 155.5 491.5Q181 465 181 433Q181 417 177 398Q266 514 358 514ZM114 95Q167 95 228.5 131.0Q290 167 333.5 226.5Q377 286 377 345Q377 428 338.0 428.0Q299 428 232.5 361.0Q166 294 127 187L104 95Z"/><path transform="translate(263.4,0) scale(0.02200,-0.02200)" d="M111 241Q97 197 97.0 162.5Q97 128 118.5 109.0Q140 90 189.5 90.0Q239 90 291.5 107.5Q344 125 349 125Q375 125 375 105Q375 78 314.0 46.5Q253 15 195 15Q117 15 68.0 61.5Q19 108 19.0 179.0Q19 250 57.0 327.5Q95 405 155.0 458.0Q215 511 274.0 511.0Q333 511 381.5 455.0Q430 399 430.0 345.5Q430 292 372.5 258.5Q315 225 242.5 225.0Q170 225 111 241ZM279 432Q242 432 202.0 393.5Q162 355 134 298Q174 289 225.0 289.0Q276 289 314.0 305.5Q352 322 352.0 349.0Q352 376 327.5 404.0Q303 432 279 432Z"/><path transform="translate(273.3,0) scale(0.02200,-0.02200)" d="M91 389 88 464Q88 511 110 511Q129 511 146.5 486.5Q164 462 164.0 428.5Q164 395 162 378Q249 510 327 510Q376 510 376 486Q376 474 365.0 464.0Q354 454 330 441Q277 418 240.5 370.5Q204 323 181.0 263.0Q158 203 144.5 162.0Q131 121 124.0 98.0Q117 75 108 53Q92 13 71 13Q54 13 43.5 32.5Q33 52 33.0 70.5Q33 89 50 144Q91 270 91 389Z"/><path transform="translate(280.6,0) scale(0.02200,-0.02200)" d="M393 309Q405 294 405 283Q405 255 392.5 187.0Q380 119 377.5 98.0Q375 77 373.0 64.5Q371 52 368 40Q364 15 350 15Q332 15 320.5 46.5Q309 78 307 128Q218 15 142 15Q96 15 51.5 54.5Q7 94 7 136Q7 196 51.0 284.5Q95 373 165.0 442.0Q235 511 297 511Q342 511 380.0 465.5Q418 420 418.0 383.5Q418 347 393 309ZM343 335Q343 428 306 428Q267 428 215.0 372.5Q163 317 127.0 247.0Q91 177 91 136Q91 119 105.0 108.5Q119 98 138 98Q185 98 244.0 161.5Q303 225 326 316Q329 331 343 334Z"/><path transform="translate(290.9,0) scale(0.02200,-0.02200)" d="M143 115Q143 96 165 96Q203 96 257.5 117.5Q312 139 318 139Q336 139 336 120Q336 91 276.5 53.0Q217 15 168.5 15.0Q120 15 88.0 41.5Q56 68 56.0 96.0Q56 124 68.0 167.5Q80 211 102.5 282.5Q125 354 138 401Q91 390 75.0 390.0Q59 390 43.5 406.5Q28 423 28 438Q28 462 158 484Q176 567 176 631Q176 661 196 661Q213 661 238.0 639.5Q263 618 263.0 591.0Q263 564 246 496Q303 501 337 501Q397 501 397 475Q397 460 364.5 450.0Q332 440 228 419Q207 340 175.0 238.5Q143 137 143 115Z"/><path transform="translate(299.4,0) scale(0.02200,-0.02200)" d="M270 601Q270 591 261.0 583.0Q252 575 242 575Q218 575 188.5 604.0Q159 633 159.0 653.0Q159 673 175.0 691.0Q191 709 207.5 709.0Q224 709 247.0 668.5Q270 628 270 601ZM154 511Q173 511 190.0 488.0Q207 465 207.0 443.0Q207 421 178.0 311.5Q149 202 105 66Q88 16 62 16Q48 16 38.0 27.5Q28 39 28.0 53.5Q28 68 35.5 99.5Q43 131 57.5 183.5Q72 236 80.5 269.0Q89 302 98.0 343.5Q107 385 112.5 410.5Q118 436 125 462Q139 511 154 511Z"/><path transform="translate(304.6,0) scale(0.02200,-0.02200)" d="M333 341Q333 375 322.0 405.5Q311 436 290 450Q221 431 171.5 343.5Q122 256 122.0 179.0Q122 102 160 83Q232 97 282.5 181.5Q333 266 333 341ZM155 15Q104 15 70.0 62.0Q36 109 36.0 181.5Q36 254 70.5 332.0Q105 410 161.5 460.5Q218 511 277.5 511.0Q337 511 377.0 460.5Q417 410 417.0 337.5Q417 265 382.0 189.5Q347 114 285.5 64.5Q224 15 155 15Z"/><path transform="translate(314.6,0) scale(0.02200,-0.02200)" d="M492 383Q492 311 459 207Q399 15 351 15Q329 15 329 45Q329 66 350.5 130.5Q372 195 390.5 257.5Q409 320 409.0 351.5Q409 383 399.5 398.0Q390 413 380.5 413.0Q371 413 361.0 407.0Q351 401 338.5 387.0Q326 373 315.0 359.5Q304 346 287.5 321.0Q271 296 260.0 278.5Q249 261 228.0 228.0Q207 195 196.0 178.0Q185 161 167.0 132.0Q149 103 138.5 87.0Q128 71 115 52Q90 15 75.5 15.0Q61 15 42.0 37.5Q23 60 23 77Q23 82 30 104Q49 162 72.0 247.5Q95 333 97 442Q100 515 118 515Q140 515 162.0 492.0Q184 469 184.0 441.5Q184 414 167.5 335.5Q151 257 129 189Q225 352 285.5 431.5Q346 511 384.5 511.0Q423 511 457.5 470.0Q492 429 492 383Z"/><path transform="translate(326.3,0) scale(0.02200,-0.02200)" d="M317 511Q351 511 381.0 473.5Q411 436 411 408Q411 391 395 391Q384 391 361.0 408.5Q338 426 314.0 426.0Q290 426 238.5 398.0Q187 370 187 339Q187 316 279 260Q314 238 342.5 203.5Q371 169 371.0 129.5Q371 90 316.5 52.5Q262 15 189.5 15.0Q117 15 61.5 50.0Q6 85 6 116Q6 129 12.5 136.5Q19 144 29.0 144.0Q39 144 57 131Q111 92 169.5 92.0Q228 92 254.0 105.5Q280 119 280.0 141.5Q280 164 251.0 189.5Q222 215 187.5 235.0Q153 255 124.0 284.0Q95 313 95 343Q95 396 178.5 453.5Q262 511 317 511Z"/><path transform="translate(344.5,0) scale(0.02200,-0.02200)" d="M145 246Q120 246 88.0 278.0Q56 310 56.0 332.0Q56 354 73.5 375.0Q91 396 109.5 396.0Q128 396 152.5 347.0Q177 298 177 273Q177 265 166.0 255.5Q155 246 145 246Z"/><path transform="translate(358.6,0) scale(0.02200,-0.02200)" d="M283 643Q287 607 321.0 515.5Q355 424 399 330Q455 396 540.0 505.5Q625 615 666.0 661.0Q707 707 725.0 707.0Q743 707 763.0 687.0Q783 667 783.0 649.0Q783 631 779.0 608.0Q775 585 765.5 547.5Q756 510 748.5 482.5Q741 455 724.0 397.0Q707 339 698.0 304.5Q689 270 677.0 220.5Q665 171 657.5 139.5Q650 108 642 78Q627 20 613.5 20.0Q600 20 587.0 44.0Q574 68 574.0 108.5Q574 149 608.5 294.0Q643 439 683 548Q499 318 456.5 273.0Q414 228 386.5 228.0Q359 228 335 259Q299 311 238 505Q221 400 200.5 325.5Q180 251 173.5 226.5Q167 202 162.5 186.0Q158 170 152.0 148.5Q146 127 141.5 113.0Q137 99 132.0 82.5Q127 66 123.5 56.0Q120 46 116 37Q108 20 104 20Q92 20 74.0 46.0Q56 72 56.0 96.0Q56 120 120.5 372.0Q185 624 185 688Q185 705 189.5 711.5Q194 718 206.5 718.0Q219 718 250.0 691.0Q281 664 283 643Z"/><path transform="translate(375.9,0) scale(0.02200,-0.02200)" d="M333 341Q333 375 322.0 405.5Q311 436 290 450Q221 431 171.5 343.5Q122 256 122.0 179.0Q122 102 160 83Q232 97 282.5 181.5Q333 266 333 341ZM155 15Q104 15 70.0 62.0Q36 109 36.0 181.5Q36 254 70.5 332.0Q105 410 161.5 460.5Q218 511 277.5 511.0Q337 511 377.0 460.5Q417 410 417.0 337.5Q417 265 382.0 189.5Q347 114 285.5 64.5Q224 15 155 15Z"/><path transform="translate(385.9,0) scale(0.02200,-0.02200)" d="M143 115Q143 96 165 96Q203 96 257.5 117.5Q312 139 318 139Q336 139 336 120Q336 91 276.5 53.0Q217 15 168.5 15.0Q120 15 88.0 41.5Q56 68 56.0 96.0Q56 124 68.0 167.5Q80 211 102.5 282.5Q125 354 138 401Q91 390 75.0 390.0Q59 390 43.5 406.5Q28 423 28 438Q28 462 158 484Q176 567 176 631Q176 661 196 661Q213 661 238.0 639.5Q263 618 263.0 591.0Q263 564 246 496Q303 501 337 501Q397 501 397 475Q397 460 364.5 450.0Q332 440 228 419Q207 340 175.0 238.5Q143 137 143 115Z"/><path transform="translate(394.4,0) scale(0.02200,-0.02200)" d="M393 309Q405 294 405 283Q405 255 392.5 187.0Q380 119 377.5 98.0Q375 77 373.0 64.5Q371 52 368 40Q364 15 350 15Q332 15 320.5 46.5Q309 78 307 128Q218 15 142 15Q96 15 51.5 54.5Q7 94 7 136Q7 196 51.0 284.5Q95 373 165.0 442.0Q235 511 297 511Q342 511 380.0 465.5Q418 420 418.0 383.5Q418 347 393 309ZM343 335Q343 428 306 428Q267 428 215.0 372.5Q163 317 127.0 247.0Q91 177 91 136Q91 119 105.0 108.5Q119 98 138 98Q185 98 244.0 161.5Q303 225 326 316Q329 331 343 334Z"/><path transform="translate(404.7,0) scale(0.02200,-0.02200)" d="M459 791Q475 791 498.5 761.5Q522 732 522.0 706.0Q522 680 497.0 558.5Q472 437 439 307Q367 15 344 15Q330 15 313.5 32.5Q297 50 297.0 63.0Q297 76 304 115Q206 15 133 15Q89 15 53.5 55.0Q18 95 18 138Q18 200 51.5 285.5Q85 371 148.0 441.0Q211 511 282.0 511.0Q353 511 381 426Q432 638 437 761Q437 791 459 791ZM349 300Q349 354 330.5 391.0Q312 428 286 428Q243 428 198.0 375.0Q153 322 126.5 253.5Q100 185 100 135Q100 117 113.0 106.0Q126 95 144 95Q183 95 249.5 151.0Q316 207 346 283L349 295Z"/><path transform="translate(415.7,0) scale(0.02200,-0.02200)" d="M393 309Q405 294 405 283Q405 255 392.5 187.0Q380 119 377.5 98.0Q375 77 373.0 64.5Q371 52 368 40Q364 15 350 15Q332 15 320.5 46.5Q309 78 307 128Q218 15 142 15Q96 15 51.5 54.5Q7 94 7 136Q7 196 51.0 284.5Q95 373 165.0 442.0Q235 511 297 511Q342 511 380.0 465.5Q418 420 418.0 383.5Q418 347 393 309ZM343 335Q343 428 306 428Q267 428 215.0 372.5Q163 317 127.0 247.0Q91 177 91 136Q91 119 105.0 108.5Q119 98 138 98Q185 98 244.0 161.5Q303 225 326 316Q329 331 343 334Z"/><path transform="translate(426.0,0) scale(0.02200,-0.02200)" d="M143 115Q143 96 165 96Q203 96 257.5 117.5Q312 139 318 139Q336 139 336 120Q336 91 276.5 53.0Q217 15 168.5 15.0Q120 15 88.0 41.5Q56 68 56.0 96.0Q56 124 68.0 167.5Q80 211 102.5 282.5Q125 354 138 401Q91 390 75.0 390.0Q59 390 43.5 406.5Q28 423 28 438Q28 462 158 484Q176 567 176 631Q176 661 196 661Q213 661 238.0 639.5Q263 618 263.0 591.0Q263 564 246 496Q303 501 337 501Q397 501 397 475Q397 460 364.5 450.0Q332 440 228 419Q207 340 175.0 238.5Q143 137 143 115Z"/><path transform="translate(434.5,0) scale(0.02200,-0.02200)" d="M393 309Q405 294 405 283Q405 255 392.5 187.0Q380 119 377.5 98.0Q375 77 373.0 64.5Q371 52 368 40Q364 15 350 15Q332 15 320.5 46.5Q309 78 307 128Q218 15 142 15Q96 15 51.5 54.5Q7 94 7 136Q7 196 51.0 284.5Q95 373 165.0 442.0Q235 511 297 511Q342 511 380.0 465.5Q418 420 418.0 383.5Q418 347 393 309ZM343 335Q343 428 306 428Q267 428 215.0 372.5Q163 317 127.0 247.0Q91 177 91 136Q91 119 105.0 108.5Q119 98 138 98Q185 98 244.0 161.5Q303 225 326 316Q329 331 343 334Z"/></g>
<g fill="#b5462f" transform="translate(70,192)"><path transform="translate(0.0,0) scale(0.01800,-0.01800)" d="M459 791Q475 791 498.5 761.5Q522 732 522.0 706.0Q522 680 497.0 558.5Q472 437 439 307Q367 15 344 15Q330 15 313.5 32.5Q297 50 297.0 63.0Q297 76 304 115Q206 15 133 15Q89 15 53.5 55.0Q18 95 18 138Q18 200 51.5 285.5Q85 371 148.0 441.0Q211 511 282.0 511.0Q353 511 381 426Q432 638 437 761Q437 791 459 791ZM349 300Q349 354 330.5 391.0Q312 428 286 428Q243 428 198.0 375.0Q153 322 126.5 253.5Q100 185 100 135Q100 117 113.0 106.0Q126 95 144 95Q183 95 249.5 151.0Q316 207 346 283L349 295Z"/><path transform="translate(9.0,0) scale(0.01800,-0.01800)" d="M111 241Q97 197 97.0 162.5Q97 128 118.5 109.0Q140 90 189.5 90.0Q239 90 291.5 107.5Q344 125 349 125Q375 125 375 105Q375 78 314.0 46.5Q253 15 195 15Q117 15 68.0 61.5Q19 108 19.0 179.0Q19 250 57.0 327.5Q95 405 155.0 458.0Q215 511 274.0 511.0Q333 511 381.5 455.0Q430 399 430.0 345.5Q430 292 372.5 258.5Q315 225 242.5 225.0Q170 225 111 241ZM279 432Q242 432 202.0 393.5Q162 355 134 298Q174 289 225.0 289.0Q276 289 314.0 305.5Q352 322 352.0 349.0Q352 376 327.5 404.0Q303 432 279 432Z"/><path transform="translate(17.1,0) scale(0.01800,-0.01800)" d="M312 511Q353 511 384.0 474.0Q415 437 415 409Q415 401 410.0 395.5Q405 390 395.5 390.0Q386 390 362.0 408.0Q338 426 319 426Q265 426 193.0 331.0Q121 236 121 165Q121 134 140.5 116.0Q160 98 203.5 98.0Q247 98 283.5 108.5Q320 119 340.0 129.5Q360 140 371 140Q390 140 390 121Q390 92 320.5 53.5Q251 15 192.5 15.0Q134 15 83.0 60.5Q32 106 32.0 168.5Q32 231 74.0 313.0Q116 395 182.5 453.0Q249 511 312 511Z"/><path transform="translate(25.1,0) scale(0.01800,-0.01800)" d="M270 601Q270 591 261.0 583.0Q252 575 242 575Q218 575 188.5 604.0Q159 633 159.0 653.0Q159 673 175.0 691.0Q191 709 207.5 709.0Q224 709 247.0 668.5Q270 628 270 601ZM154 511Q173 511 190.0 488.0Q207 465 207.0 443.0Q207 421 178.0 311.5Q149 202 105 66Q88 16 62 16Q48 16 38.0 27.5Q28 39 28.0 53.5Q28 68 35.5 99.5Q43 131 57.5 183.5Q72 236 80.5 269.0Q89 302 98.0 343.5Q107 385 112.5 410.5Q118 436 125 462Q139 511 154 511Z"/><path transform="translate(29.4,0) scale(0.01800,-0.01800)" d="M459 791Q475 791 498.5 761.5Q522 732 522.0 706.0Q522 680 497.0 558.5Q472 437 439 307Q367 15 344 15Q330 15 313.5 32.5Q297 50 297.0 63.0Q297 76 304 115Q206 15 133 15Q89 15 53.5 55.0Q18 95 18 138Q18 200 51.5 285.5Q85 371 148.0 441.0Q211 511 282.0 511.0Q353 511 381 426Q432 638 437 761Q437 791 459 791ZM349 300Q349 354 330.5 391.0Q312 428 286 428Q243 428 198.0 375.0Q153 322 126.5 253.5Q100 185 100 135Q100 117 113.0 106.0Q126 95 144 95Q183 95 249.5 151.0Q316 207 346 283L349 295Z"/><path transform="translate(38.4,0) scale(0.01800,-0.01800)" d="M111 241Q97 197 97.0 162.5Q97 128 118.5 109.0Q140 90 189.5 90.0Q239 90 291.5 107.5Q344 125 349 125Q375 125 375 105Q375 78 314.0 46.5Q253 15 195 15Q117 15 68.0 61.5Q19 108 19.0 179.0Q19 250 57.0 327.5Q95 405 155.0 458.0Q215 511 274.0 511.0Q333 511 381.5 455.0Q430 399 430.0 345.5Q430 292 372.5 258.5Q315 225 242.5 225.0Q170 225 111 241ZM279 432Q242 432 202.0 393.5Q162 355 134 298Q174 289 225.0 289.0Q276 289 314.0 305.5Q352 322 352.0 349.0Q352 376 327.5 404.0Q303 432 279 432Z"/><path transform="translate(53.7,0) scale(0.01800,-0.01800)" d="M433 405 426 217Q426 139 433 104Q476 149 507.5 209.5Q539 270 554.5 322.0Q570 374 581.5 419.5Q593 465 603.0 492.0Q613 519 626 519Q645 519 660.0 503.5Q675 488 675 468Q675 417 629 300Q590 192 527.0 102.5Q464 13 429.0 13.0Q394 13 376.5 52.0Q359 91 357.0 201.5Q355 312 360 393Q291 205 238.0 109.0Q185 13 154 13Q140 13 124.5 26.0Q109 39 100 60Q78 113 62.5 262.5Q47 412 47 476Q47 517 72 517Q94 517 112.5 492.0Q131 467 134.0 442.5Q137 418 139.5 306.5Q142 195 158 108Q199 179 240.5 286.0Q282 393 308.5 454.0Q335 515 357 515Q390 515 411.5 484.5Q433 454 433 405Z"/><path transform="translate(65.8,0) scale(0.01800,-0.01800)" d="M149 752Q149 791 173 791Q192 791 213.5 761.0Q235 731 235 703Q235 638 202.5 481.5Q170 325 118 169Q218 350 285.5 430.5Q353 511 401 511Q427 511 461.5 466.0Q496 421 496.0 376.0Q496 331 471 241Q409 15 354 15Q332 15 332.0 45.0Q332 75 356 146Q409 301 409 355Q409 373 400.0 385.0Q391 397 378.0 397.0Q365 397 346.0 383.0Q327 369 300 334Q266 289 229.5 233.0Q193 177 185.5 165.5Q178 154 159.5 124.0Q141 94 132.0 79.5Q123 65 110 48Q87 15 75.0 15.0Q63 15 43.0 37.5Q23 60 23.0 75.5Q23 91 34 134Q84 326 97 397Q149 657 149 752Z"/><path transform="translate(75.4,0) scale(0.01800,-0.01800)" d="M393 309Q405 294 405 283Q405 255 392.5 187.0Q380 119 377.5 98.0Q375 77 373.0 64.5Q371 52 368 40Q364 15 350 15Q332 15 320.5 46.5Q309 78 307 128Q218 15 142 15Q96 15 51.5 54.5Q7 94 7 136Q7 196 51.0 284.5Q95 373 165.0 442.0Q235 511 297 511Q342 511 380.0 465.5Q418 420 418.0 383.5Q418 347 393 309ZM343 335Q343 428 306 428Q267 428 215.0 372.5Q163 317 127.0 247.0Q91 177 91 136Q91 119 105.0 108.5Q119 98 138 98Q185 98 244.0 161.5Q303 225 326 316Q329 331 343 334Z"/><path transform="translate(83.9,0) scale(0.01800,-0.01800)" d="M143 115Q143 96 165 96Q203 96 257.5 117.5Q312 139 318 139Q336 139 336 120Q336 91 276.5 53.0Q217 15 168.5 15.0Q120 15 88.0 41.5Q56 68 56.0 96.0Q56 124 68.0 167.5Q80 211 102.5 282.5Q125 354 138 401Q91 390 75.0 390.0Q59 390 43.5 406.5Q28 423 28 438Q28 462 158 484Q176 567 176 631Q176 661 196 661Q213 661 238.0 639.5Q263 618 263.0 591.0Q263 564 246 496Q303 501 337 501Q397 501 397 475Q397 460 364.5 450.0Q332 440 228 419Q207 340 175.0 238.5Q143 137 143 115Z"/><path transform="translate(98.1,0) scale(0.01800,-0.01800)" d="M143 115Q143 96 165 96Q203 96 257.5 117.5Q312 139 318 139Q336 139 336 120Q336 91 276.5 53.0Q217 15 168.5 15.0Q120 15 88.0 41.5Q56 68 56.0 96.0Q56 124 68.0 167.5Q80 211 102.5 282.5Q125 354 138 401Q91 390 75.0 390.0Q59 390 43.5 406.5Q28 423 28 438Q28 462 158 484Q176 567 176 631Q176 661 196 661Q213 661 238.0 639.5Q263 618 263.0 591.0Q263 564 246 496Q303 501 337 501Q397 501 397 475Q397 460 364.5 450.0Q332 440 228 419Q207 340 175.0 238.5Q143 137 143 115Z"/><path transform="translate(105.0,0) scale(0.01800,-0.01800)" d="M333 341Q333 375 322.0 405.5Q311 436 290 450Q221 431 171.5 343.5Q122 256 122.0 179.0Q122 102 160 83Q232 97 282.5 181.5Q333 266 333 341ZM155 15Q104 15 70.0 62.0Q36 109 36.0 181.5Q36 254 70.5 332.0Q105 410 161.5 460.5Q218 511 277.5 511.0Q337 511 377.0 460.5Q417 410 417.0 337.5Q417 265 382.0 189.5Q347 114 285.5 64.5Q224 15 155 15Z"/><path transform="translate(120.4,0) scale(0.01800,-0.01800)" d="M459 791Q475 791 498.5 761.5Q522 732 522.0 706.0Q522 680 497.0 558.5Q472 437 439 307Q367 15 344 15Q330 15 313.5 32.5Q297 50 297.0 63.0Q297 76 304 115Q206 15 133 15Q89 15 53.5 55.0Q18 95 18 138Q18 200 51.5 285.5Q85 371 148.0 441.0Q211 511 282.0 511.0Q353 511 381 426Q432 638 437 761Q437 791 459 791ZM349 300Q349 354 330.5 391.0Q312 428 286 428Q243 428 198.0 375.0Q153 322 126.5 253.5Q100 185 100 135Q100 117 113.0 106.0Q126 95 144 95Q183 95 249.5 151.0Q316 207 346 283L349 295Z"/><path transform="translate(129.4,0) scale(0.01800,-0.01800)" d="M111 241Q97 197 97.0 162.5Q97 128 118.5 109.0Q140 90 189.5 90.0Q239 90 291.5 107.5Q344 125 349 125Q375 125 375 105Q375 78 314.0 46.5Q253 15 195 15Q117 15 68.0 61.5Q19 108 19.0 179.0Q19 250 57.0 327.5Q95 405 155.0 458.0Q215 511 274.0 511.0Q333 511 381.5 455.0Q430 399 430.0 345.5Q430 292 372.5 258.5Q315 225 242.5 225.0Q170 225 111 241ZM279 432Q242 432 202.0 393.5Q162 355 134 298Q174 289 225.0 289.0Q276 289 314.0 305.5Q352 322 352.0 349.0Q352 376 327.5 404.0Q303 432 279 432Z"/><path transform="translate(137.5,0) scale(0.01800,-0.01800)" d="M103 13Q90 13 75.0 32.0Q60 51 60.0 63.0Q60 75 70 110Q120 290 138 367Q95 357 79.0 357.0Q63 357 47.0 371.0Q31 385 31.0 402.0Q31 419 76 432Q134 446 156 450Q166 498 171 524Q195 662 236.0 723.0Q277 784 347 784Q397 784 429.0 744.5Q461 705 461.0 651.5Q461 598 433 598Q409 598 394 652Q389 672 377.0 689.0Q365 706 348.0 706.0Q331 706 317.0 690.5Q303 675 292 646Q263 565 252 498L244 463Q281 468 317.5 468.0Q354 468 370.5 460.0Q387 452 387 440Q387 421 354.0 411.0Q321 401 225 385Q154 97 128 42Q114 13 103 13Z"/><path transform="translate(144.3,0) scale(0.01800,-0.01800)" d="M111 241Q97 197 97.0 162.5Q97 128 118.5 109.0Q140 90 189.5 90.0Q239 90 291.5 107.5Q344 125 349 125Q375 125 375 105Q375 78 314.0 46.5Q253 15 195 15Q117 15 68.0 61.5Q19 108 19.0 179.0Q19 250 57.0 327.5Q95 405 155.0 458.0Q215 511 274.0 511.0Q333 511 381.5 455.0Q430 399 430.0 345.5Q430 292 372.5 258.5Q315 225 242.5 225.0Q170 225 111 241ZM279 432Q242 432 202.0 393.5Q162 355 134 298Q174 289 225.0 289.0Q276 289 314.0 305.5Q352 322 352.0 349.0Q352 376 327.5 404.0Q303 432 279 432Z"/><path transform="translate(152.4,0) scale(0.01800,-0.01800)" d="M492 383Q492 311 459 207Q399 15 351 15Q329 15 329 45Q329 66 350.5 130.5Q372 195 390.5 257.5Q409 320 409.0 351.5Q409 383 399.5 398.0Q390 413 380.5 413.0Q371 413 361.0 407.0Q351 401 338.5 387.0Q326 373 315.0 359.5Q304 346 287.5 321.0Q271 296 260.0 278.5Q249 261 228.0 228.0Q207 195 196.0 178.0Q185 161 167.0 132.0Q149 103 138.5 87.0Q128 71 115 52Q90 15 75.5 15.0Q61 15 42.0 37.5Q23 60 23 77Q23 82 30 104Q49 162 72.0 247.5Q95 333 97 442Q100 515 118 515Q140 515 162.0 492.0Q184 469 184.0 441.5Q184 414 167.5 335.5Q151 257 129 189Q225 352 285.5 431.5Q346 511 384.5 511.0Q423 511 457.5 470.0Q492 429 492 383Z"/><path transform="translate(161.9,0) scale(0.01800,-0.01800)" d="M459 791Q475 791 498.5 761.5Q522 732 522.0 706.0Q522 680 497.0 558.5Q472 437 439 307Q367 15 344 15Q330 15 313.5 32.5Q297 50 297.0 63.0Q297 76 304 115Q206 15 133 15Q89 15 53.5 55.0Q18 95 18 138Q18 200 51.5 285.5Q85 371 148.0 441.0Q211 511 282.0 511.0Q353 511 381 426Q432 638 437 761Q437 791 459 791ZM349 300Q349 354 330.5 391.0Q312 428 286 428Q243 428 198.0 375.0Q153 322 126.5 253.5Q100 185 100 135Q100 117 113.0 106.0Q126 95 144 95Q183 95 249.5 151.0Q316 207 346 283L349 295Z"/><path transform="translate(178.1,0) scale(0.01800,-0.01800)" d="M103 13Q90 13 75.0 32.0Q60 51 60.0 63.0Q60 75 70 110Q120 290 138 367Q95 357 79.0 357.0Q63 357 47.0 371.0Q31 385 31.0 402.0Q31 419 76 432Q134 446 156 450Q166 498 171 524Q195 662 236.0 723.0Q277 784 347 784Q397 784 429.0 744.5Q461 705 461.0 651.5Q461 598 433 598Q409 598 394 652Q389 672 377.0 689.0Q365 706 348.0 706.0Q331 706 317.0 690.5Q303 675 292 646Q263 565 252 498L244 463Q281 468 317.5 468.0Q354 468 370.5 460.0Q387 452 387 440Q387 421 354.0 411.0Q321 401 225 385Q154 97 128 42Q114 13 103 13Z"/><path transform="translate(184.9,0) scale(0.01800,-0.01800)" d="M270 601Q270 591 261.0 583.0Q252 575 242 575Q218 575 188.5 604.0Q159 633 159.0 653.0Q159 673 175.0 691.0Q191 709 207.5 709.0Q224 709 247.0 668.5Q270 628 270 601ZM154 511Q173 511 190.0 488.0Q207 465 207.0 443.0Q207 421 178.0 311.5Q149 202 105 66Q88 16 62 16Q48 16 38.0 27.5Q28 39 28.0 53.5Q28 68 35.5 99.5Q43 131 57.5 183.5Q72 236 80.5 269.0Q89 302 98.0 343.5Q107 385 112.5 410.5Q118 436 125 462Q139 511 154 511Z"/><path transform="translate(189.2,0) scale(0.01800,-0.01800)" d="M91 389 88 464Q88 511 110 511Q129 511 146.5 486.5Q164 462 164.0 428.5Q164 395 162 378Q249 510 327 510Q376 510 376 486Q376 474 365.0 464.0Q354 454 330 441Q277 418 240.5 370.5Q204 323 181.0 263.0Q158 203 144.5 162.0Q131 121 124.0 98.0Q117 75 108 53Q92 13 71 13Q54 13 43.5 32.5Q33 52 33.0 70.5Q33 89 50 144Q91 270 91 389Z"/><path transform="translate(195.2,0) scale(0.01800,-0.01800)" d="M317 511Q351 511 381.0 473.5Q411 436 411 408Q411 391 395 391Q384 391 361.0 408.5Q338 426 314.0 426.0Q290 426 238.5 398.0Q187 370 187 339Q187 316 279 260Q314 238 342.5 203.5Q371 169 371.0 129.5Q371 90 316.5 52.5Q262 15 189.5 15.0Q117 15 61.5 50.0Q6 85 6 116Q6 129 12.5 136.5Q19 144 29.0 144.0Q39 144 57 131Q111 92 169.5 92.0Q228 92 254.0 105.5Q280 119 280.0 141.5Q280 164 251.0 189.5Q222 215 187.5 235.0Q153 255 124.0 284.0Q95 313 95 343Q95 396 178.5 453.5Q262 511 317 511Z"/><path transform="translate(202.8,0) scale(0.01800,-0.01800)" d="M143 115Q143 96 165 96Q203 96 257.5 117.5Q312 139 318 139Q336 139 336 120Q336 91 276.5 53.0Q217 15 168.5 15.0Q120 15 88.0 41.5Q56 68 56.0 96.0Q56 124 68.0 167.5Q80 211 102.5 282.5Q125 354 138 401Q91 390 75.0 390.0Q59 390 43.5 406.5Q28 423 28 438Q28 462 158 484Q176 567 176 631Q176 661 196 661Q213 661 238.0 639.5Q263 618 263.0 591.0Q263 564 246 496Q303 501 337 501Q397 501 397 475Q397 460 364.5 450.0Q332 440 228 419Q207 340 175.0 238.5Q143 137 143 115Z"/><path transform="translate(209.8,0) scale(0.01800,-0.01800)" d="M174 26Q174 -37 120.0 -106.5Q66 -176 27 -176Q7 -176 7 -162Q7 -151 28 -126Q91 -51 91 -1Q91 15 78.5 25.5Q66 36 53.0 45.0Q40 54 40.0 67.5Q40 81 57.0 101.5Q74 122 93 122Q125 122 149.5 92.5Q174 63 174 26Z"/><path transform="translate(221.1,0) scale(0.01800,-0.01800)" d="M433 405 426 217Q426 139 433 104Q476 149 507.5 209.5Q539 270 554.5 322.0Q570 374 581.5 419.5Q593 465 603.0 492.0Q613 519 626 519Q645 519 660.0 503.5Q675 488 675 468Q675 417 629 300Q590 192 527.0 102.5Q464 13 429.0 13.0Q394 13 376.5 52.0Q359 91 357.0 201.5Q355 312 360 393Q291 205 238.0 109.0Q185 13 154 13Q140 13 124.5 26.0Q109 39 100 60Q78 113 62.5 262.5Q47 412 47 476Q47 517 72 517Q94 517 112.5 492.0Q131 467 134.0 442.5Q137 418 139.5 306.5Q142 195 158 108Q199 179 240.5 286.0Q282 393 308.5 454.0Q335 515 357 515Q390 515 411.5 484.5Q433 454 433 405Z"/><path transform="translate(233.2,0) scale(0.01800,-0.01800)" d="M91 389 88 464Q88 511 110 511Q129 511 146.5 486.5Q164 462 164.0 428.5Q164 395 162 378Q249 510 327 510Q376 510 376 486Q376 474 365.0 464.0Q354 454 330 441Q277 418 240.5 370.5Q204 323 181.0 263.0Q158 203 144.5 162.0Q131 121 124.0 98.0Q117 75 108 53Q92 13 71 13Q54 13 43.5 32.5Q33 52 33.0 70.5Q33 89 50 144Q91 270 91 389Z"/><path transform="translate(239.2,0) scale(0.01800,-0.01800)" d="M270 601Q270 591 261.0 583.0Q252 575 242 575Q218 575 188.5 604.0Q159 633 159.0 653.0Q159 673 175.0 691.0Q191 709 207.5 709.0Q224 709 247.0 668.5Q270 628 270 601ZM154 511Q173 511 190.0 488.0Q207 465 207.0 443.0Q207 421 178.0 311.5Q149 202 105 66Q88 16 62 16Q48 16 38.0 27.5Q28 39 28.0 53.5Q28 68 35.5 99.5Q43 131 57.5 183.5Q72 236 80.5 269.0Q89 302 98.0 343.5Q107 385 112.5 410.5Q118 436 125 462Q139 511 154 511Z"/><path transform="translate(243.5,0) scale(0.01800,-0.01800)" d="M143 115Q143 96 165 96Q203 96 257.5 117.5Q312 139 318 139Q336 139 336 120Q336 91 276.5 53.0Q217 15 168.5 15.0Q120 15 88.0 41.5Q56 68 56.0 96.0Q56 124 68.0 167.5Q80 211 102.5 282.5Q125 354 138 401Q91 390 75.0 390.0Q59 390 43.5 406.5Q28 423 28 438Q28 462 158 484Q176 567 176 631Q176 661 196 661Q213 661 238.0 639.5Q263 618 263.0 591.0Q263 564 246 496Q303 501 337 501Q397 501 397 475Q397 460 364.5 450.0Q332 440 228 419Q207 340 175.0 238.5Q143 137 143 115Z"/><path transform="translate(250.4,0) scale(0.01800,-0.01800)" d="M111 241Q97 197 97.0 162.5Q97 128 118.5 109.0Q140 90 189.5 90.0Q239 90 291.5 107.5Q344 125 349 125Q375 125 375 105Q375 78 314.0 46.5Q253 15 195 15Q117 15 68.0 61.5Q19 108 19.0 179.0Q19 250 57.0 327.5Q95 405 155.0 458.0Q215 511 274.0 511.0Q333 511 381.5 455.0Q430 399 430.0 345.5Q430 292 372.5 258.5Q315 225 242.5 225.0Q170 225 111 241ZM279 432Q242 432 202.0 393.5Q162 355 134 298Q174 289 225.0 289.0Q276 289 314.0 305.5Q352 322 352.0 349.0Q352 376 327.5 404.0Q303 432 279 432Z"/><path transform="translate(265.8,0) scale(0.01800,-0.01800)" d="M317 511Q351 511 381.0 473.5Q411 436 411 408Q411 391 395 391Q384 391 361.0 408.5Q338 426 314.0 426.0Q290 426 238.5 398.0Q187 370 187 339Q187 316 279 260Q314 238 342.5 203.5Q371 169 371.0 129.5Q371 90 316.5 52.5Q262 15 189.5 15.0Q117 15 61.5 50.0Q6 85 6 116Q6 129 12.5 136.5Q19 144 29.0 144.0Q39 144 57 131Q111 92 169.5 92.0Q228 92 254.0 105.5Q280 119 280.0 141.5Q280 164 251.0 189.5Q222 215 187.5 235.0Q153 255 124.0 284.0Q95 313 95 343Q95 396 178.5 453.5Q262 511 317 511Z"/><path transform="translate(273.4,0) scale(0.01800,-0.01800)" d="M111 241Q97 197 97.0 162.5Q97 128 118.5 109.0Q140 90 189.5 90.0Q239 90 291.5 107.5Q344 125 349 125Q375 125 375 105Q375 78 314.0 46.5Q253 15 195 15Q117 15 68.0 61.5Q19 108 19.0 179.0Q19 250 57.0 327.5Q95 405 155.0 458.0Q215 511 274.0 511.0Q333 511 381.5 455.0Q430 399 430.0 345.5Q430 292 372.5 258.5Q315 225 242.5 225.0Q170 225 111 241ZM279 432Q242 432 202.0 393.5Q162 355 134 298Q174 289 225.0 289.0Q276 289 314.0 305.5Q352 322 352.0 349.0Q352 376 327.5 404.0Q303 432 279 432Z"/><path transform="translate(281.5,0) scale(0.01800,-0.01800)" d="M312 511Q353 511 384.0 474.0Q415 437 415 409Q415 401 410.0 395.5Q405 390 395.5 390.0Q386 390 362.0 408.0Q338 426 319 426Q265 426 193.0 331.0Q121 236 121 165Q121 134 140.5 116.0Q160 98 203.5 98.0Q247 98 283.5 108.5Q320 119 340.0 129.5Q360 140 371 140Q390 140 390 121Q390 92 320.5 53.5Q251 15 192.5 15.0Q134 15 83.0 60.5Q32 106 32.0 168.5Q32 231 74.0 313.0Q116 395 182.5 453.0Q249 511 312 511Z"/><path transform="translate(289.5,0) scale(0.01800,-0.01800)" d="M333 341Q333 375 322.0 405.5Q311 436 290 450Q221 431 171.5 343.5Q122 256 122.0 179.0Q122 102 160 83Q232 97 282.5 181.5Q333 266 333 341ZM155 15Q104 15 70.0 62.0Q36 109 36.0 181.5Q36 254 70.5 332.0Q105 410 161.5 460.5Q218 511 277.5 511.0Q337 511 377.0 460.5Q417 410 417.0 337.5Q417 265 382.0 189.5Q347 114 285.5 64.5Q224 15 155 15Z"/><path transform="translate(297.7,0) scale(0.01800,-0.01800)" d="M492 383Q492 311 459 207Q399 15 351 15Q329 15 329 45Q329 66 350.5 130.5Q372 195 390.5 257.5Q409 320 409.0 351.5Q409 383 399.5 398.0Q390 413 380.5 413.0Q371 413 361.0 407.0Q351 401 338.5 387.0Q326 373 315.0 359.5Q304 346 287.5 321.0Q271 296 260.0 278.5Q249 261 228.0 228.0Q207 195 196.0 178.0Q185 161 167.0 132.0Q149 103 138.5 87.0Q128 71 115 52Q90 15 75.5 15.0Q61 15 42.0 37.5Q23 60 23 77Q23 82 30 104Q49 162 72.0 247.5Q95 333 97 442Q100 515 118 515Q140 515 162.0 492.0Q184 469 184.0 441.5Q184 414 167.5 335.5Q151 257 129 189Q225 352 285.5 431.5Q346 511 384.5 511.0Q423 511 457.5 470.0Q492 429 492 383Z"/><path transform="translate(307.3,0) scale(0.01800,-0.01800)" d="M459 791Q475 791 498.5 761.5Q522 732 522.0 706.0Q522 680 497.0 558.5Q472 437 439 307Q367 15 344 15Q330 15 313.5 32.5Q297 50 297.0 63.0Q297 76 304 115Q206 15 133 15Q89 15 53.5 55.0Q18 95 18 138Q18 200 51.5 285.5Q85 371 148.0 441.0Q211 511 282.0 511.0Q353 511 381 426Q432 638 437 761Q437 791 459 791ZM349 300Q349 354 330.5 391.0Q312 428 286 428Q243 428 198.0 375.0Q153 322 126.5 253.5Q100 185 100 135Q100 117 113.0 106.0Q126 95 144 95Q183 95 249.5 151.0Q316 207 346 283L349 295Z"/></g>
<g fill="#2a2620" transform="translate(70,222)"><path transform="translate(0.0,0) scale(0.01800,-0.01800)" d="M317 511Q351 511 381.0 473.5Q411 436 411 408Q411 391 395 391Q384 391 361.0 408.5Q338 426 314.0 426.0Q290 426 238.5 398.0Q187 370 187 339Q187 316 279 260Q314 238 342.5 203.5Q371 169 371.0 129.5Q371 90 316.5 52.5Q262 15 189.5 15.0Q117 15 61.5 50.0Q6 85 6 116Q6 129 12.5 136.5Q19 144 29.0 144.0Q39 144 57 131Q111 92 169.5 92.0Q228 92 254.0 105.5Q280 119 280.0 141.5Q280 164 251.0 189.5Q222 215 187.5 235.0Q153 255 124.0 284.0Q95 313 95 343Q95 396 178.5 453.5Q262 511 317 511Z"/><path transform="translate(7.7,0) scale(0.01800,-0.01800)" d="M358 514Q401 514 432.5 459.0Q464 404 464.0 345.5Q464 287 430.0 228.5Q396 170 346.0 124.0Q296 78 235.5 47.5Q175 17 124 17Q104 17 86 22Q82 5 72.0 -39.0Q62 -83 55.0 -112.0Q48 -141 39 -174Q21 -242 7.0 -242.0Q-7 -242 -22.5 -220.5Q-38 -199 -38.0 -182.0Q-38 -165 -6 -36Q90 353 90 488Q90 518 112 518Q130 518 155.5 491.5Q181 465 181 433Q181 417 177 398Q266 514 358 514ZM114 95Q167 95 228.5 131.0Q290 167 333.5 226.5Q377 286 377 345Q377 428 338.0 428.0Q299 428 232.5 361.0Q166 294 127 187L104 95Z"/><path transform="translate(16.3,0) scale(0.01800,-0.01800)" d="M111 241Q97 197 97.0 162.5Q97 128 118.5 109.0Q140 90 189.5 90.0Q239 90 291.5 107.5Q344 125 349 125Q375 125 375 105Q375 78 314.0 46.5Q253 15 195 15Q117 15 68.0 61.5Q19 108 19.0 179.0Q19 250 57.0 327.5Q95 405 155.0 458.0Q215 511 274.0 511.0Q333 511 381.5 455.0Q430 399 430.0 345.5Q430 292 372.5 258.5Q315 225 242.5 225.0Q170 225 111 241ZM279 432Q242 432 202.0 393.5Q162 355 134 298Q174 289 225.0 289.0Q276 289 314.0 305.5Q352 322 352.0 349.0Q352 376 327.5 404.0Q303 432 279 432Z"/><path transform="translate(24.4,0) scale(0.01800,-0.01800)" d="M312 511Q353 511 384.0 474.0Q415 437 415 409Q415 401 410.0 395.5Q405 390 395.5 390.0Q386 390 362.0 408.0Q338 426 319 426Q265 426 193.0 331.0Q121 236 121 165Q121 134 140.5 116.0Q160 98 203.5 98.0Q247 98 283.5 108.5Q320 119 340.0 129.5Q360 140 371 140Q390 140 390 121Q390 92 320.5 53.5Q251 15 192.5 15.0Q134 15 83.0 60.5Q32 106 32.0 168.5Q32 231 74.0 313.0Q116 395 182.5 453.0Q249 511 312 511Z"/><path transform="translate(32.4,0) scale(0.01800,-0.01800)" d="M270 601Q270 591 261.0 583.0Q252 575 242 575Q218 575 188.5 604.0Q159 633 159.0 653.0Q159 673 175.0 691.0Q191 709 207.5 709.0Q224 709 247.0 668.5Q270 628 270 601ZM154 511Q173 511 190.0 488.0Q207 465 207.0 443.0Q207 421 178.0 311.5Q149 202 105 66Q88 16 62 16Q48 16 38.0 27.5Q28 39 28.0 53.5Q28 68 35.5 99.5Q43 131 57.5 183.5Q72 236 80.5 269.0Q89 302 98.0 343.5Q107 385 112.5 410.5Q118 436 125 462Q139 511 154 511Z"/><path transform="translate(36.7,0) scale(0.01800,-0.01800)" d="M103 13Q90 13 75.0 32.0Q60 51 60.0 63.0Q60 75 70 110Q120 290 138 367Q95 357 79.0 357.0Q63 357 47.0 371.0Q31 385 31.0 402.0Q31 419 76 432Q134 446 156 450Q166 498 171 524Q195 662 236.0 723.0Q277 784 347 784Q397 784 429.0 744.5Q461 705 461.0 651.5Q461 598 433 598Q409 598 394 652Q389 672 377.0 689.0Q365 706 348.0 706.0Q331 706 317.0 690.5Q303 675 292 646Q263 565 252 498L244 463Q281 468 317.5 468.0Q354 468 370.5 460.0Q387 452 387 440Q387 421 354.0 411.0Q321 401 225 385Q154 97 128 42Q114 13 103 13Z"/><path transform="translate(43.4,0) scale(0.01800,-0.01800)" d="M270 601Q270 591 261.0 583.0Q252 575 242 575Q218 575 188.5 604.0Q159 633 159.0 653.0Q159 673 175.0 691.0Q191 709 207.5 709.0Q224 709 247.0 668.5Q270 628 270 601ZM154 511Q173 511 190.0 488.0Q207 465 207.0 443.0Q207 421 178.0 311.5Q149 202 105 66Q88 16 62 16Q48 16 38.0 27.5Q28 39 28.0 53.5Q28 68 35.5 99.5Q43 131 57.5 183.5Q72 236 80.5 269.0Q89 302 98.0 343.5Q107 385 112.5 410.5Q118 436 125 462Q139 511 154 511Z"/><path transform="translate(47.7,0) scale(0.01800,-0.01800)" d="M312 511Q353 511 384.0 474.0Q415 437 415 409Q415 401 410.0 395.5Q405 390 395.5 390.0Q386 390 362.0 408.0Q338 426 319 426Q265 426 193.0 331.0Q121 236 121 165Q121 134 140.5 116.0Q160 98 203.5 98.0Q247 98 283.5 108.5Q320 119 340.0 129.5Q360 140 371 140Q390 140 390 121Q390 92 320.5 53.5Q251 15 192.5 15.0Q134 15 83.0 60.5Q32 106 32.0 168.5Q32 231 74.0 313.0Q116 395 182.5 453.0Q249 511 312 511Z"/><path transform="translate(55.7,0) scale(0.01800,-0.01800)" d="M270 601Q270 591 261.0 583.0Q252 575 242 575Q218 575 188.5 604.0Q159 633 159.0 653.0Q159 673 175.0 691.0Q191 709 207.5 709.0Q224 709 247.0 668.5Q270 628 270 601ZM154 511Q173 511 190.0 488.0Q207 465 207.0 443.0Q207 421 178.0 311.5Q149 202 105 66Q88 16 62 16Q48 16 38.0 27.5Q28 39 28.0 53.5Q28 68 35.5 99.5Q43 131 57.5 183.5Q72 236 80.5 269.0Q89 302 98.0 343.5Q107 385 112.5 410.5Q118 436 125 462Q139 511 154 511Z"/><path transform="translate(60.0,0) scale(0.01800,-0.01800)" d="M143 115Q143 96 165 96Q203 96 257.5 117.5Q312 139 318 139Q336 139 336 120Q336 91 276.5 53.0Q217 15 168.5 15.0Q120 15 88.0 41.5Q56 68 56.0 96.0Q56 124 68.0 167.5Q80 211 102.5 282.5Q125 354 138 401Q91 390 75.0 390.0Q59 390 43.5 406.5Q28 423 28 438Q28 462 158 484Q176 567 176 631Q176 661 196 661Q213 661 238.0 639.5Q263 618 263.0 591.0Q263 564 246 496Q303 501 337 501Q397 501 397 475Q397 460 364.5 450.0Q332 440 228 419Q207 340 175.0 238.5Q143 137 143 115Z"/><path transform="translate(67.0,0) scale(0.01800,-0.01800)" d="M475 435Q475 415 434.0 299.0Q393 183 378.5 141.5Q364 100 339.5 31.5Q315 -37 292 -102Q242 -245 142 -245Q85 -245 33.0 -210.5Q-19 -176 -19 -139Q-19 -125 -6.5 -108.0Q6 -91 15.0 -91.0Q24 -91 44 -113Q102 -179 143 -179Q174 -179 199.0 -124.5Q224 -70 246.5 -1.5Q269 67 271.5 74.0Q274 81 277.5 92.0Q281 103 284 112Q213 15 144 15Q102 15 66.5 54.0Q31 93 31.0 146.0Q31 199 57.0 289.0Q83 379 118.0 445.0Q153 511 175 511Q193 511 208.5 494.5Q224 478 224.0 461.0Q224 444 198 390Q117 224 117 132Q117 116 127.0 105.5Q137 95 151 95Q187 95 237.0 159.0Q287 223 329 311Q364 385 402 500Q406 511 422.0 511.0Q438 511 456.5 487.5Q475 464 475 435Z"/><path transform="translate(82.6,0) scale(0.01800,-0.01800)" d="M270 601Q270 591 261.0 583.0Q252 575 242 575Q218 575 188.5 604.0Q159 633 159.0 653.0Q159 673 175.0 691.0Q191 709 207.5 709.0Q224 709 247.0 668.5Q270 628 270 601ZM154 511Q173 511 190.0 488.0Q207 465 207.0 443.0Q207 421 178.0 311.5Q149 202 105 66Q88 16 62 16Q48 16 38.0 27.5Q28 39 28.0 53.5Q28 68 35.5 99.5Q43 131 57.5 183.5Q72 236 80.5 269.0Q89 302 98.0 343.5Q107 385 112.5 410.5Q118 436 125 462Q139 511 154 511Z"/><path transform="translate(86.9,0) scale(0.01800,-0.01800)" d="M317 511Q351 511 381.0 473.5Q411 436 411 408Q411 391 395 391Q384 391 361.0 408.5Q338 426 314.0 426.0Q290 426 238.5 398.0Q187 370 187 339Q187 316 279 260Q314 238 342.5 203.5Q371 169 371.0 129.5Q371 90 316.5 52.5Q262 15 189.5 15.0Q117 15 61.5 50.0Q6 85 6 116Q6 129 12.5 136.5Q19 144 29.0 144.0Q39 144 57 131Q111 92 169.5 92.0Q228 92 254.0 105.5Q280 119 280.0 141.5Q280 164 251.0 189.5Q222 215 187.5 235.0Q153 255 124.0 284.0Q95 313 95 343Q95 396 178.5 453.5Q262 511 317 511Z"/><path transform="translate(101.8,0) scale(0.01800,-0.01800)" d="M143 115Q143 96 165 96Q203 96 257.5 117.5Q312 139 318 139Q336 139 336 120Q336 91 276.5 53.0Q217 15 168.5 15.0Q120 15 88.0 41.5Q56 68 56.0 96.0Q56 124 68.0 167.5Q80 211 102.5 282.5Q125 354 138 401Q91 390 75.0 390.0Q59 390 43.5 406.5Q28 423 28 438Q28 462 158 484Q176 567 176 631Q176 661 196 661Q213 661 238.0 639.5Q263 618 263.0 591.0Q263 564 246 496Q303 501 337 501Q397 501 397 475Q397 460 364.5 450.0Q332 440 228 419Q207 340 175.0 238.5Q143 137 143 115Z"/><path transform="translate(108.8,0) scale(0.01800,-0.01800)" d="M149 752Q149 791 173 791Q192 791 213.5 761.0Q235 731 235 703Q235 638 202.5 481.5Q170 325 118 169Q218 350 285.5 430.5Q353 511 401 511Q427 511 461.5 466.0Q496 421 496.0 376.0Q496 331 471 241Q409 15 354 15Q332 15 332.0 45.0Q332 75 356 146Q409 301 409 355Q409 373 400.0 385.0Q391 397 378.0 397.0Q365 397 346.0 383.0Q327 369 300 334Q266 289 229.5 233.0Q193 177 185.5 165.5Q178 154 159.5 124.0Q141 94 132.0 79.5Q123 65 110 48Q87 15 75.0 15.0Q63 15 43.0 37.5Q23 60 23.0 75.5Q23 91 34 134Q84 326 97 397Q149 657 149 752Z"/><path transform="translate(118.4,0) scale(0.01800,-0.01800)" d="M111 241Q97 197 97.0 162.5Q97 128 118.5 109.0Q140 90 189.5 90.0Q239 90 291.5 107.5Q344 125 349 125Q375 125 375 105Q375 78 314.0 46.5Q253 15 195 15Q117 15 68.0 61.5Q19 108 19.0 179.0Q19 250 57.0 327.5Q95 405 155.0 458.0Q215 511 274.0 511.0Q333 511 381.5 455.0Q430 399 430.0 345.5Q430 292 372.5 258.5Q315 225 242.5 225.0Q170 225 111 241ZM279 432Q242 432 202.0 393.5Q162 355 134 298Q174 289 225.0 289.0Q276 289 314.0 305.5Q352 322 352.0 349.0Q352 376 327.5 404.0Q303 432 279 432Z"/><path transform="translate(133.7,0) scale(0.01800,-0.01800)" d="M333 341Q333 375 322.0 405.5Q311 436 290 450Q221 431 171.5 343.5Q122 256 122.0 179.0Q122 102 160 83Q232 97 282.5 181.5Q333 266 333 341ZM155 15Q104 15 70.0 62.0Q36 109 36.0 181.5Q36 254 70.5 332.0Q105 410 161.5 460.5Q218 511 277.5 511.0Q337 511 377.0 460.5Q417 410 417.0 337.5Q417 265 382.0 189.5Q347 114 285.5 64.5Q224 15 155 15Z"/><path transform="translate(141.9,0) scale(0.01800,-0.01800)" d="M492 383Q492 311 459 207Q399 15 351 15Q329 15 329 45Q329 66 350.5 130.5Q372 195 390.5 257.5Q409 320 409.0 351.5Q409 383 399.5 398.0Q390 413 380.5 413.0Q371 413 361.0 407.0Q351 401 338.5 387.0Q326 373 315.0 359.5Q304 346 287.5 321.0Q271 296 260.0 278.5Q249 261 228.0 228.0Q207 195 196.0 178.0Q185 161 167.0 132.0Q149 103 138.5 87.0Q128 71 115 52Q90 15 75.5 15.0Q61 15 42.0 37.5Q23 60 23 77Q23 82 30 104Q49 162 72.0 247.5Q95 333 97 442Q100 515 118 515Q140 515 162.0 492.0Q184 469 184.0 441.5Q184 414 167.5 335.5Q151 257 129 189Q225 352 285.5 431.5Q346 511 384.5 511.0Q423 511 457.5 470.0Q492 429 492 383Z"/><path transform="translate(151.5,0) scale(0.01800,-0.01800)" d="M228 707Q228 519 150 219Q100 15 80 15Q66 15 47.5 37.0Q29 59 29.0 71.0Q29 83 58.0 195.0Q87 307 116.0 470.5Q145 634 145 765Q145 779 149.0 785.0Q153 791 166.0 791.0Q179 791 203.5 762.5Q228 734 228 707Z"/><path transform="translate(155.9,0) scale(0.01800,-0.01800)" d="M475 435Q475 415 434.0 299.0Q393 183 378.5 141.5Q364 100 339.5 31.5Q315 -37 292 -102Q242 -245 142 -245Q85 -245 33.0 -210.5Q-19 -176 -19 -139Q-19 -125 -6.5 -108.0Q6 -91 15.0 -91.0Q24 -91 44 -113Q102 -179 143 -179Q174 -179 199.0 -124.5Q224 -70 246.5 -1.5Q269 67 271.5 74.0Q274 81 277.5 92.0Q281 103 284 112Q213 15 144 15Q102 15 66.5 54.0Q31 93 31.0 146.0Q31 199 57.0 289.0Q83 379 118.0 445.0Q153 511 175 511Q193 511 208.5 494.5Q224 478 224.0 461.0Q224 444 198 390Q117 224 117 132Q117 116 127.0 105.5Q137 95 151 95Q187 95 237.0 159.0Q287 223 329 311Q364 385 402 500Q406 511 422.0 511.0Q438 511 456.5 487.5Q475 464 475 435Z"/><path transform="translate(171.6,0) scale(0.01800,-0.01800)" d="M228 707Q228 519 150 219Q100 15 80 15Q66 15 47.5 37.0Q29 59 29.0 71.0Q29 83 58.0 195.0Q87 307 116.0 470.5Q145 634 145 765Q145 779 149.0 785.0Q153 791 166.0 791.0Q179 791 203.5 762.5Q228 734 228 707Z"/><path transform="translate(176.0,0) scale(0.01800,-0.01800)" d="M463 435Q463 422 419.0 281.0Q375 140 351 57Q339 15 317 15Q304 15 295.0 26.0Q286 37 286.0 66.0Q286 95 309 171Q267 103 218.0 59.0Q169 15 128.5 15.0Q88 15 52.0 53.0Q16 91 16 131Q16 226 71.5 368.5Q127 511 164 511Q182 511 195.5 494.5Q209 478 209 457Q209 448 182.0 392.5Q155 337 128.0 262.5Q101 188 101 132Q101 116 111.0 105.5Q121 95 135 95Q173 95 225.5 162.0Q278 229 321.0 318.0Q364 407 385 483Q389 499 393.0 505.0Q397 511 410.5 511.0Q424 511 443.5 485.0Q463 459 463 435Z"/><path transform="translate(184.6,0) scale(0.01800,-0.01800)" d="M250 237Q256 228 268.5 207.0Q281 186 289.5 172.0Q298 158 311.5 136.5Q325 115 334.0 101.5Q343 88 351 74Q367 48 367.0 38.0Q367 28 360.0 21.5Q353 15 343 15Q298 15 199 176Q68 15 40 15Q24 15 7.0 31.5Q-10 48 -10 62Q-10 67 12 89Q109 186 157 247Q111 329 79.0 399.0Q47 469 47.0 483.5Q47 498 48 502Q50 511 70.0 511.0Q90 511 119.0 499.0Q148 487 148 470Q148 428 207 314Q288 423 327.5 467.0Q367 511 386.0 511.0Q405 511 423.5 495.0Q442 479 442.0 467.5Q442 456 435.0 448.5Q428 441 412.5 428.0Q397 415 383.5 400.5Q370 386 349.0 360.5Q328 335 298.5 297.5Q269 260 250 237Z"/><path transform="translate(192.3,0) scale(0.01800,-0.01800)" d="M463 435Q463 422 419.0 281.0Q375 140 351 57Q339 15 317 15Q304 15 295.0 26.0Q286 37 286.0 66.0Q286 95 309 171Q267 103 218.0 59.0Q169 15 128.5 15.0Q88 15 52.0 53.0Q16 91 16 131Q16 226 71.5 368.5Q127 511 164 511Q182 511 195.5 494.5Q209 478 209 457Q209 448 182.0 392.5Q155 337 128.0 262.5Q101 188 101 132Q101 116 111.0 105.5Q121 95 135 95Q173 95 225.5 162.0Q278 229 321.0 318.0Q364 407 385 483Q389 499 393.0 505.0Q397 511 410.5 511.0Q424 511 443.5 485.0Q463 459 463 435Z"/><path transform="translate(201.0,0) scale(0.01800,-0.01800)" d="M91 389 88 464Q88 511 110 511Q129 511 146.5 486.5Q164 462 164.0 428.5Q164 395 162 378Q249 510 327 510Q376 510 376 486Q376 474 365.0 464.0Q354 454 330 441Q277 418 240.5 370.5Q204 323 181.0 263.0Q158 203 144.5 162.0Q131 121 124.0 98.0Q117 75 108 53Q92 13 71 13Q54 13 43.5 32.5Q33 52 33.0 70.5Q33 89 50 144Q91 270 91 389Z"/><path transform="translate(206.9,0) scale(0.01800,-0.01800)" d="M475 435Q475 415 434.0 299.0Q393 183 378.5 141.5Q364 100 339.5 31.5Q315 -37 292 -102Q242 -245 142 -245Q85 -245 33.0 -210.5Q-19 -176 -19 -139Q-19 -125 -6.5 -108.0Q6 -91 15.0 -91.0Q24 -91 44 -113Q102 -179 143 -179Q174 -179 199.0 -124.5Q224 -70 246.5 -1.5Q269 67 271.5 74.0Q274 81 277.5 92.0Q281 103 284 112Q213 15 144 15Q102 15 66.5 54.0Q31 93 31.0 146.0Q31 199 57.0 289.0Q83 379 118.0 445.0Q153 511 175 511Q193 511 208.5 494.5Q224 478 224.0 461.0Q224 444 198 390Q117 224 117 132Q117 116 127.0 105.5Q137 95 151 95Q187 95 237.0 159.0Q287 223 329 311Q364 385 402 500Q406 511 422.0 511.0Q438 511 456.5 487.5Q475 464 475 435Z"/><path transform="translate(222.6,0) scale(0.01800,-0.01800)" d="M143 115Q143 96 165 96Q203 96 257.5 117.5Q312 139 318 139Q336 139 336 120Q336 91 276.5 53.0Q217 15 168.5 15.0Q120 15 88.0 41.5Q56 68 56.0 96.0Q56 124 68.0 167.5Q80 211 102.5 282.5Q125 354 138 401Q91 390 75.0 390.0Q59 390 43.5 406.5Q28 423 28 438Q28 462 158 484Q176 567 176 631Q176 661 196 661Q213 661 238.0 639.5Q263 618 263.0 591.0Q263 564 246 496Q303 501 337 501Q397 501 397 475Q397 460 364.5 450.0Q332 440 228 419Q207 340 175.0 238.5Q143 137 143 115Z"/><path transform="translate(229.6,0) scale(0.01800,-0.01800)" d="M149 752Q149 791 173 791Q192 791 213.5 761.0Q235 731 235 703Q235 638 202.5 481.5Q170 325 118 169Q218 350 285.5 430.5Q353 511 401 511Q427 511 461.5 466.0Q496 421 496.0 376.0Q496 331 471 241Q409 15 354 15Q332 15 332.0 45.0Q332 75 356 146Q409 301 409 355Q409 373 400.0 385.0Q391 397 378.0 397.0Q365 397 346.0 383.0Q327 369 300 334Q266 289 229.5 233.0Q193 177 185.5 165.5Q178 154 159.5 124.0Q141 94 132.0 79.5Q123 65 110 48Q87 15 75.0 15.0Q63 15 43.0 37.5Q23 60 23.0 75.5Q23 91 34 134Q84 326 97 397Q149 657 149 752Z"/><path transform="translate(239.2,0) scale(0.01800,-0.01800)" d="M393 309Q405 294 405 283Q405 255 392.5 187.0Q380 119 377.5 98.0Q375 77 373.0 64.5Q371 52 368 40Q364 15 350 15Q332 15 320.5 46.5Q309 78 307 128Q218 15 142 15Q96 15 51.5 54.5Q7 94 7 136Q7 196 51.0 284.5Q95 373 165.0 442.0Q235 511 297 511Q342 511 380.0 465.5Q418 420 418.0 383.5Q418 347 393 309ZM343 335Q343 428 306 428Q267 428 215.0 372.5Q163 317 127.0 247.0Q91 177 91 136Q91 119 105.0 108.5Q119 98 138 98Q185 98 244.0 161.5Q303 225 326 316Q329 331 343 334Z"/><path transform="translate(247.6,0) scale(0.01800,-0.01800)" d="M143 115Q143 96 165 96Q203 96 257.5 117.5Q312 139 318 139Q336 139 336 120Q336 91 276.5 53.0Q217 15 168.5 15.0Q120 15 88.0 41.5Q56 68 56.0 96.0Q56 124 68.0 167.5Q80 211 102.5 282.5Q125 354 138 401Q91 390 75.0 390.0Q59 390 43.5 406.5Q28 423 28 438Q28 462 158 484Q176 567 176 631Q176 661 196 661Q213 661 238.0 639.5Q263 618 263.0 591.0Q263 564 246 496Q303 501 337 501Q397 501 397 475Q397 460 364.5 450.0Q332 440 228 419Q207 340 175.0 238.5Q143 137 143 115Z"/><path transform="translate(261.8,0) scale(0.01800,-0.01800)" d="M317 511Q351 511 381.0 473.5Q411 436 411 408Q411 391 395 391Q384 391 361.0 408.5Q338 426 314.0 426.0Q290 426 238.5 398.0Q187 370 187 339Q187 316 279 260Q314 238 342.5 203.5Q371 169 371.0 129.5Q371 90 316.5 52.5Q262 15 189.5 15.0Q117 15 61.5 50.0Q6 85 6 116Q6 129 12.5 136.5Q19 144 29.0 144.0Q39 144 57 131Q111 92 169.5 92.0Q228 92 254.0 105.5Q280 119 280.0 141.5Q280 164 251.0 189.5Q222 215 187.5 235.0Q153 255 124.0 284.0Q95 313 95 343Q95 396 178.5 453.5Q262 511 317 511Z"/><path transform="translate(269.5,0) scale(0.01800,-0.01800)" d="M312 511Q353 511 384.0 474.0Q415 437 415 409Q415 401 410.0 395.5Q405 390 395.5 390.0Q386 390 362.0 408.0Q338 426 319 426Q265 426 193.0 331.0Q121 236 121 165Q121 134 140.5 116.0Q160 98 203.5 98.0Q247 98 283.5 108.5Q320 119 340.0 129.5Q360 140 371 140Q390 140 390 121Q390 92 320.5 53.5Q251 15 192.5 15.0Q134 15 83.0 60.5Q32 106 32.0 168.5Q32 231 74.0 313.0Q116 395 182.5 453.0Q249 511 312 511Z"/><path transform="translate(277.5,0) scale(0.01800,-0.01800)" d="M393 309Q405 294 405 283Q405 255 392.5 187.0Q380 119 377.5 98.0Q375 77 373.0 64.5Q371 52 368 40Q364 15 350 15Q332 15 320.5 46.5Q309 78 307 128Q218 15 142 15Q96 15 51.5 54.5Q7 94 7 136Q7 196 51.0 284.5Q95 373 165.0 442.0Q235 511 297 511Q342 511 380.0 465.5Q418 420 418.0 383.5Q418 347 393 309ZM343 335Q343 428 306 428Q267 428 215.0 372.5Q163 317 127.0 247.0Q91 177 91 136Q91 119 105.0 108.5Q119 98 138 98Q185 98 244.0 161.5Q303 225 326 316Q329 331 343 334Z"/><path transform="translate(285.9,0) scale(0.01800,-0.01800)" d="M228 707Q228 519 150 219Q100 15 80 15Q66 15 47.5 37.0Q29 59 29.0 71.0Q29 83 58.0 195.0Q87 307 116.0 470.5Q145 634 145 765Q145 779 149.0 785.0Q153 791 166.0 791.0Q179 791 203.5 762.5Q228 734 228 707Z"/><path transform="translate(290.4,0) scale(0.01800,-0.01800)" d="M111 241Q97 197 97.0 162.5Q97 128 118.5 109.0Q140 90 189.5 90.0Q239 90 291.5 107.5Q344 125 349 125Q375 125 375 105Q375 78 314.0 46.5Q253 15 195 15Q117 15 68.0 61.5Q19 108 19.0 179.0Q19 250 57.0 327.5Q95 405 155.0 458.0Q215 511 274.0 511.0Q333 511 381.5 455.0Q430 399 430.0 345.5Q430 292 372.5 258.5Q315 225 242.5 225.0Q170 225 111 241ZM279 432Q242 432 202.0 393.5Q162 355 134 298Q174 289 225.0 289.0Q276 289 314.0 305.5Q352 322 352.0 349.0Q352 376 327.5 404.0Q303 432 279 432Z"/><path transform="translate(298.5,0) scale(0.01800,-0.01800)" d="M317 511Q351 511 381.0 473.5Q411 436 411 408Q411 391 395 391Q384 391 361.0 408.5Q338 426 314.0 426.0Q290 426 238.5 398.0Q187 370 187 339Q187 316 279 260Q314 238 342.5 203.5Q371 169 371.0 129.5Q371 90 316.5 52.5Q262 15 189.5 15.0Q117 15 61.5 50.0Q6 85 6 116Q6 129 12.5 136.5Q19 144 29.0 144.0Q39 144 57 131Q111 92 169.5 92.0Q228 92 254.0 105.5Q280 119 280.0 141.5Q280 164 251.0 189.5Q222 215 187.5 235.0Q153 255 124.0 284.0Q95 313 95 343Q95 396 178.5 453.5Q262 511 317 511Z"/></g>
<g fill="#2a2620" transform="translate(70,252)"><path transform="translate(0.0,0) scale(0.01800,-0.01800)" d="M74 15Q60 15 41.0 36.5Q22 58 22.0 77.0Q22 96 53.5 207.0Q85 318 116.5 474.5Q148 631 148 761Q148 791 170 791Q186 791 209.0 761.5Q232 732 232 704Q232 581 178 353Q297 514 394 514Q441 514 473.5 468.0Q506 422 506.0 358.5Q506 295 469.5 213.0Q433 131 371.0 72.5Q309 14 241.0 14.0Q173 14 107 83L106 82Q84 15 74 15ZM233 92Q298 92 360.5 180.5Q423 269 423 367Q423 426 387 426Q329 426 257.5 345.0Q186 264 134 152Q181 92 233 92Z"/><path transform="translate(9.4,0) scale(0.01800,-0.01800)" d="M463 435Q463 422 419.0 281.0Q375 140 351 57Q339 15 317 15Q304 15 295.0 26.0Q286 37 286.0 66.0Q286 95 309 171Q267 103 218.0 59.0Q169 15 128.5 15.0Q88 15 52.0 53.0Q16 91 16 131Q16 226 71.5 368.5Q127 511 164 511Q182 511 195.5 494.5Q209 478 209 457Q209 448 182.0 392.5Q155 337 128.0 262.5Q101 188 101 132Q101 116 111.0 105.5Q121 95 135 95Q173 95 225.5 162.0Q278 229 321.0 318.0Q364 407 385 483Q389 499 393.0 505.0Q397 511 410.5 511.0Q424 511 443.5 485.0Q463 459 463 435Z"/><path transform="translate(18.1,0) scale(0.01800,-0.01800)" d="M270 601Q270 591 261.0 583.0Q252 575 242 575Q218 575 188.5 604.0Q159 633 159.0 653.0Q159 673 175.0 691.0Q191 709 207.5 709.0Q224 709 247.0 668.5Q270 628 270 601ZM154 511Q173 511 190.0 488.0Q207 465 207.0 443.0Q207 421 178.0 311.5Q149 202 105 66Q88 16 62 16Q48 16 38.0 27.5Q28 39 28.0 53.5Q28 68 35.5 99.5Q43 131 57.5 183.5Q72 236 80.5 269.0Q89 302 98.0 343.5Q107 385 112.5 410.5Q118 436 125 462Q139 511 154 511Z"/><path transform="translate(22.4,0) scale(0.01800,-0.01800)" d="M228 707Q228 519 150 219Q100 15 80 15Q66 15 47.5 37.0Q29 59 29.0 71.0Q29 83 58.0 195.0Q87 307 116.0 470.5Q145 634 145 765Q145 779 149.0 785.0Q153 791 166.0 791.0Q179 791 203.5 762.5Q228 734 228 707Z"/><path transform="translate(26.8,0) scale(0.01800,-0.01800)" d="M459 791Q475 791 498.5 761.5Q522 732 522.0 706.0Q522 680 497.0 558.5Q472 437 439 307Q367 15 344 15Q330 15 313.5 32.5Q297 50 297.0 63.0Q297 76 304 115Q206 15 133 15Q89 15 53.5 55.0Q18 95 18 138Q18 200 51.5 285.5Q85 371 148.0 441.0Q211 511 282.0 511.0Q353 511 381 426Q432 638 437 761Q437 791 459 791ZM349 300Q349 354 330.5 391.0Q312 428 286 428Q243 428 198.0 375.0Q153 322 126.5 253.5Q100 185 100 135Q100 117 113.0 106.0Q126 95 144 95Q183 95 249.5 151.0Q316 207 346 283L349 295Z"/><path transform="translate(43.0,0) scale(0.01800,-0.01800)" d="M143 115Q143 96 165 96Q203 96 257.5 117.5Q312 139 318 139Q336 139 336 120Q336 91 276.5 53.0Q217 15 168.5 15.0Q120 15 88.0 41.5Q56 68 56.0 96.0Q56 124 68.0 167.5Q80 211 102.5 282.5Q125 354 138 401Q91 390 75.0 390.0Q59 390 43.5 406.5Q28 423 28 438Q28 462 158 484Q176 567 176 631Q176 661 196 661Q213 661 238.0 639.5Q263 618 263.0 591.0Q263 564 246 496Q303 501 337 501Q397 501 397 475Q397 460 364.5 450.0Q332 440 228 419Q207 340 175.0 238.5Q143 137 143 115Z"/><path transform="translate(50.0,0) scale(0.01800,-0.01800)" d="M149 752Q149 791 173 791Q192 791 213.5 761.0Q235 731 235 703Q235 638 202.5 481.5Q170 325 118 169Q218 350 285.5 430.5Q353 511 401 511Q427 511 461.5 466.0Q496 421 496.0 376.0Q496 331 471 241Q409 15 354 15Q332 15 332.0 45.0Q332 75 356 146Q409 301 409 355Q409 373 400.0 385.0Q391 397 378.0 397.0Q365 397 346.0 383.0Q327 369 300 334Q266 289 229.5 233.0Q193 177 185.5 165.5Q178 154 159.5 124.0Q141 94 132.0 79.5Q123 65 110 48Q87 15 75.0 15.0Q63 15 43.0 37.5Q23 60 23.0 75.5Q23 91 34 134Q84 326 97 397Q149 657 149 752Z"/><path transform="translate(59.6,0) scale(0.01800,-0.01800)" d="M111 241Q97 197 97.0 162.5Q97 128 118.5 109.0Q140 90 189.5 90.0Q239 90 291.5 107.5Q344 125 349 125Q375 125 375 105Q375 78 314.0 46.5Q253 15 195 15Q117 15 68.0 61.5Q19 108 19.0 179.0Q19 250 57.0 327.5Q95 405 155.0 458.0Q215 511 274.0 511.0Q333 511 381.5 455.0Q430 399 430.0 345.5Q430 292 372.5 258.5Q315 225 242.5 225.0Q170 225 111 241ZM279 432Q242 432 202.0 393.5Q162 355 134 298Q174 289 225.0 289.0Q276 289 314.0 305.5Q352 322 352.0 349.0Q352 376 327.5 404.0Q303 432 279 432Z"/><path transform="translate(74.9,0) scale(0.01800,-0.01800)" d="M317 511Q351 511 381.0 473.5Q411 436 411 408Q411 391 395 391Q384 391 361.0 408.5Q338 426 314.0 426.0Q290 426 238.5 398.0Q187 370 187 339Q187 316 279 260Q314 238 342.5 203.5Q371 169 371.0 129.5Q371 90 316.5 52.5Q262 15 189.5 15.0Q117 15 61.5 50.0Q6 85 6 116Q6 129 12.5 136.5Q19 144 29.0 144.0Q39 144 57 131Q111 92 169.5 92.0Q228 92 254.0 105.5Q280 119 280.0 141.5Q280 164 251.0 189.5Q222 215 187.5 235.0Q153 255 124.0 284.0Q95 313 95 343Q95 396 178.5 453.5Q262 511 317 511Z"/><path transform="translate(82.6,0) scale(0.01800,-0.01800)" d="M678 511Q708 511 731.5 469.5Q755 428 755.0 375.5Q755 323 736.5 239.0Q718 155 687.0 85.0Q656 15 626 15Q605 15 605.0 42.5Q605 70 639.5 177.5Q674 285 674.0 348.5Q674 412 654 412Q629 412 596.5 368.0Q564 324 527.0 262.0Q490 200 487.0 195.5Q484 191 479.5 183.0Q475 175 469.5 166.0Q464 157 441.5 112.0Q419 67 402.0 41.5Q385 16 372.5 16.0Q360 16 345.0 32.0Q330 48 330.0 62.0Q330 76 348 120Q400 250 400 362Q400 383 391.0 397.5Q382 412 371.0 412.0Q360 412 348.0 402.5Q336 393 318.0 368.5Q300 344 286.0 322.0Q272 300 243.5 253.5Q215 207 200.5 184.5Q186 162 167.0 132.5Q148 103 137.5 87.0Q127 71 114 52Q87 15 74.5 15.0Q62 15 42.0 37.5Q22 60 22.0 71.5Q22 83 26.0 100.0Q30 117 34.5 133.0Q39 149 48.5 180.5Q58 212 70.5 254.5Q83 297 89.5 371.5Q96 446 99.0 480.5Q102 515 116 515Q138 515 159.5 492.0Q181 469 181 446Q181 358 115 156Q227 366 256.0 405.0Q285 444 306 468Q345 511 385 511Q409 511 442.5 469.5Q476 428 476.0 386.0Q476 344 464 282Q582 511 678 511Z"/><path transform="translate(96.9,0) scale(0.01800,-0.01800)" d="M393 309Q405 294 405 283Q405 255 392.5 187.0Q380 119 377.5 98.0Q375 77 373.0 64.5Q371 52 368 40Q364 15 350 15Q332 15 320.5 46.5Q309 78 307 128Q218 15 142 15Q96 15 51.5 54.5Q7 94 7 136Q7 196 51.0 284.5Q95 373 165.0 442.0Q235 511 297 511Q342 511 380.0 465.5Q418 420 418.0 383.5Q418 347 393 309ZM343 335Q343 428 306 428Q267 428 215.0 372.5Q163 317 127.0 247.0Q91 177 91 136Q91 119 105.0 108.5Q119 98 138 98Q185 98 244.0 161.5Q303 225 326 316Q329 331 343 334Z"/><path transform="translate(105.4,0) scale(0.01800,-0.01800)" d="M228 707Q228 519 150 219Q100 15 80 15Q66 15 47.5 37.0Q29 59 29.0 71.0Q29 83 58.0 195.0Q87 307 116.0 470.5Q145 634 145 765Q145 779 149.0 785.0Q153 791 166.0 791.0Q179 791 203.5 762.5Q228 734 228 707Z"/><path transform="translate(109.8,0) scale(0.01800,-0.01800)" d="M228 707Q228 519 150 219Q100 15 80 15Q66 15 47.5 37.0Q29 59 29.0 71.0Q29 83 58.0 195.0Q87 307 116.0 470.5Q145 634 145 765Q145 779 149.0 785.0Q153 791 166.0 791.0Q179 791 203.5 762.5Q228 734 228 707Z"/><path transform="translate(121.4,0) scale(0.01800,-0.01800)" d="M143 115Q143 96 165 96Q203 96 257.5 117.5Q312 139 318 139Q336 139 336 120Q336 91 276.5 53.0Q217 15 168.5 15.0Q120 15 88.0 41.5Q56 68 56.0 96.0Q56 124 68.0 167.5Q80 211 102.5 282.5Q125 354 138 401Q91 390 75.0 390.0Q59 390 43.5 406.5Q28 423 28 438Q28 462 158 484Q176 567 176 631Q176 661 196 661Q213 661 238.0 639.5Q263 618 263.0 591.0Q263 564 246 496Q303 501 337 501Q397 501 397 475Q397 460 364.5 450.0Q332 440 228 419Q207 340 175.0 238.5Q143 137 143 115Z"/><path transform="translate(128.4,0) scale(0.01800,-0.01800)" d="M333 341Q333 375 322.0 405.5Q311 436 290 450Q221 431 171.5 343.5Q122 256 122.0 179.0Q122 102 160 83Q232 97 282.5 181.5Q333 266 333 341ZM155 15Q104 15 70.0 62.0Q36 109 36.0 181.5Q36 254 70.5 332.0Q105 410 161.5 460.5Q218 511 277.5 511.0Q337 511 377.0 460.5Q417 410 417.0 337.5Q417 265 382.0 189.5Q347 114 285.5 64.5Q224 15 155 15Z"/><path transform="translate(136.5,0) scale(0.01800,-0.01800)" d="M333 341Q333 375 322.0 405.5Q311 436 290 450Q221 431 171.5 343.5Q122 256 122.0 179.0Q122 102 160 83Q232 97 282.5 181.5Q333 266 333 341ZM155 15Q104 15 70.0 62.0Q36 109 36.0 181.5Q36 254 70.5 332.0Q105 410 161.5 460.5Q218 511 277.5 511.0Q337 511 377.0 460.5Q417 410 417.0 337.5Q417 265 382.0 189.5Q347 114 285.5 64.5Q224 15 155 15Z"/><path transform="translate(144.7,0) scale(0.01800,-0.01800)" d="M228 707Q228 519 150 219Q100 15 80 15Q66 15 47.5 37.0Q29 59 29.0 71.0Q29 83 58.0 195.0Q87 307 116.0 470.5Q145 634 145 765Q145 779 149.0 785.0Q153 791 166.0 791.0Q179 791 203.5 762.5Q228 734 228 707Z"/><path transform="translate(156.3,0) scale(0.01800,-0.01800)" d="M433 405 426 217Q426 139 433 104Q476 149 507.5 209.5Q539 270 554.5 322.0Q570 374 581.5 419.5Q593 465 603.0 492.0Q613 519 626 519Q645 519 660.0 503.5Q675 488 675 468Q675 417 629 300Q590 192 527.0 102.5Q464 13 429.0 13.0Q394 13 376.5 52.0Q359 91 357.0 201.5Q355 312 360 393Q291 205 238.0 109.0Q185 13 154 13Q140 13 124.5 26.0Q109 39 100 60Q78 113 62.5 262.5Q47 412 47 476Q47 517 72 517Q94 517 112.5 492.0Q131 467 134.0 442.5Q137 418 139.5 306.5Q142 195 158 108Q199 179 240.5 286.0Q282 393 308.5 454.0Q335 515 357 515Q390 515 411.5 484.5Q433 454 433 405Z"/><path transform="translate(168.4,0) scale(0.01800,-0.01800)" d="M149 752Q149 791 173 791Q192 791 213.5 761.0Q235 731 235 703Q235 638 202.5 481.5Q170 325 118 169Q218 350 285.5 430.5Q353 511 401 511Q427 511 461.5 466.0Q496 421 496.0 376.0Q496 331 471 241Q409 15 354 15Q332 15 332.0 45.0Q332 75 356 146Q409 301 409 355Q409 373 400.0 385.0Q391 397 378.0 397.0Q365 397 346.0 383.0Q327 369 300 334Q266 289 229.5 233.0Q193 177 185.5 165.5Q178 154 159.5 124.0Q141 94 132.0 79.5Q123 65 110 48Q87 15 75.0 15.0Q63 15 43.0 37.5Q23 60 23.0 75.5Q23 91 34 134Q84 326 97 397Q149 657 149 752Z"/><path transform="translate(178.1,0) scale(0.01800,-0.01800)" d="M111 241Q97 197 97.0 162.5Q97 128 118.5 109.0Q140 90 189.5 90.0Q239 90 291.5 107.5Q344 125 349 125Q375 125 375 105Q375 78 314.0 46.5Q253 15 195 15Q117 15 68.0 61.5Q19 108 19.0 179.0Q19 250 57.0 327.5Q95 405 155.0 458.0Q215 511 274.0 511.0Q333 511 381.5 455.0Q430 399 430.0 345.5Q430 292 372.5 258.5Q315 225 242.5 225.0Q170 225 111 241ZM279 432Q242 432 202.0 393.5Q162 355 134 298Q174 289 225.0 289.0Q276 289 314.0 305.5Q352 322 352.0 349.0Q352 376 327.5 404.0Q303 432 279 432Z"/><path transform="translate(186.2,0) scale(0.01800,-0.01800)" d="M492 383Q492 311 459 207Q399 15 351 15Q329 15 329 45Q329 66 350.5 130.5Q372 195 390.5 257.5Q409 320 409.0 351.5Q409 383 399.5 398.0Q390 413 380.5 413.0Q371 413 361.0 407.0Q351 401 338.5 387.0Q326 373 315.0 359.5Q304 346 287.5 321.0Q271 296 260.0 278.5Q249 261 228.0 228.0Q207 195 196.0 178.0Q185 161 167.0 132.0Q149 103 138.5 87.0Q128 71 115 52Q90 15 75.5 15.0Q61 15 42.0 37.5Q23 60 23 77Q23 82 30 104Q49 162 72.0 247.5Q95 333 97 442Q100 515 118 515Q140 515 162.0 492.0Q184 469 184.0 441.5Q184 414 167.5 335.5Q151 257 129 189Q225 352 285.5 431.5Q346 511 384.5 511.0Q423 511 457.5 470.0Q492 429 492 383Z"/><path transform="translate(203.0,0) scale(0.01800,-0.01800)" d="M492 383Q492 311 459 207Q399 15 351 15Q329 15 329 45Q329 66 350.5 130.5Q372 195 390.5 257.5Q409 320 409.0 351.5Q409 383 399.5 398.0Q390 413 380.5 413.0Q371 413 361.0 407.0Q351 401 338.5 387.0Q326 373 315.0 359.5Q304 346 287.5 321.0Q271 296 260.0 278.5Q249 261 228.0 228.0Q207 195 196.0 178.0Q185 161 167.0 132.0Q149 103 138.5 87.0Q128 71 115 52Q90 15 75.5 15.0Q61 15 42.0 37.5Q23 60 23 77Q23 82 30 104Q49 162 72.0 247.5Q95 333 97 442Q100 515 118 515Q140 515 162.0 492.0Q184 469 184.0 441.5Q184 414 167.5 335.5Q151 257 129 189Q225 352 285.5 431.5Q346 511 384.5 511.0Q423 511 457.5 470.0Q492 429 492 383Z"/><path transform="translate(212.6,0) scale(0.01800,-0.01800)" d="M333 341Q333 375 322.0 405.5Q311 436 290 450Q221 431 171.5 343.5Q122 256 122.0 179.0Q122 102 160 83Q232 97 282.5 181.5Q333 266 333 341ZM155 15Q104 15 70.0 62.0Q36 109 36.0 181.5Q36 254 70.5 332.0Q105 410 161.5 460.5Q218 511 277.5 511.0Q337 511 377.0 460.5Q417 410 417.0 337.5Q417 265 382.0 189.5Q347 114 285.5 64.5Q224 15 155 15Z"/><path transform="translate(220.7,0) scale(0.01800,-0.01800)" d="M492 383Q492 311 459 207Q399 15 351 15Q329 15 329 45Q329 66 350.5 130.5Q372 195 390.5 257.5Q409 320 409.0 351.5Q409 383 399.5 398.0Q390 413 380.5 413.0Q371 413 361.0 407.0Q351 401 338.5 387.0Q326 373 315.0 359.5Q304 346 287.5 321.0Q271 296 260.0 278.5Q249 261 228.0 228.0Q207 195 196.0 178.0Q185 161 167.0 132.0Q149 103 138.5 87.0Q128 71 115 52Q90 15 75.5 15.0Q61 15 42.0 37.5Q23 60 23 77Q23 82 30 104Q49 162 72.0 247.5Q95 333 97 442Q100 515 118 515Q140 515 162.0 492.0Q184 469 184.0 441.5Q184 414 167.5 335.5Q151 257 129 189Q225 352 285.5 431.5Q346 511 384.5 511.0Q423 511 457.5 470.0Q492 429 492 383Z"/><path transform="translate(230.3,0) scale(0.01800,-0.01800)" d="M111 241Q97 197 97.0 162.5Q97 128 118.5 109.0Q140 90 189.5 90.0Q239 90 291.5 107.5Q344 125 349 125Q375 125 375 105Q375 78 314.0 46.5Q253 15 195 15Q117 15 68.0 61.5Q19 108 19.0 179.0Q19 250 57.0 327.5Q95 405 155.0 458.0Q215 511 274.0 511.0Q333 511 381.5 455.0Q430 399 430.0 345.5Q430 292 372.5 258.5Q315 225 242.5 225.0Q170 225 111 241ZM279 432Q242 432 202.0 393.5Q162 355 134 298Q174 289 225.0 289.0Q276 289 314.0 305.5Q352 322 352.0 349.0Q352 376 327.5 404.0Q303 432 279 432Z"/><path transform="translate(245.6,0) scale(0.01800,-0.01800)" d="M111 241Q97 197 97.0 162.5Q97 128 118.5 109.0Q140 90 189.5 90.0Q239 90 291.5 107.5Q344 125 349 125Q375 125 375 105Q375 78 314.0 46.5Q253 15 195 15Q117 15 68.0 61.5Q19 108 19.0 179.0Q19 250 57.0 327.5Q95 405 155.0 458.0Q215 511 274.0 511.0Q333 511 381.5 455.0Q430 399 430.0 345.5Q430 292 372.5 258.5Q315 225 242.5 225.0Q170 225 111 241ZM279 432Q242 432 202.0 393.5Q162 355 134 298Q174 289 225.0 289.0Q276 289 314.0 305.5Q352 322 352.0 349.0Q352 376 327.5 404.0Q303 432 279 432Z"/><path transform="translate(253.7,0) scale(0.01800,-0.01800)" d="M250 237Q256 228 268.5 207.0Q281 186 289.5 172.0Q298 158 311.5 136.5Q325 115 334.0 101.5Q343 88 351 74Q367 48 367.0 38.0Q367 28 360.0 21.5Q353 15 343 15Q298 15 199 176Q68 15 40 15Q24 15 7.0 31.5Q-10 48 -10 62Q-10 67 12 89Q109 186 157 247Q111 329 79.0 399.0Q47 469 47.0 483.5Q47 498 48 502Q50 511 70.0 511.0Q90 511 119.0 499.0Q148 487 148 470Q148 428 207 314Q288 423 327.5 467.0Q367 511 386.0 511.0Q405 511 423.5 495.0Q442 479 442.0 467.5Q442 456 435.0 448.5Q428 441 412.5 428.0Q397 415 383.5 400.5Q370 386 349.0 360.5Q328 335 298.5 297.5Q269 260 250 237Z"/><path transform="translate(261.4,0) scale(0.01800,-0.01800)" d="M270 601Q270 591 261.0 583.0Q252 575 242 575Q218 575 188.5 604.0Q159 633 159.0 653.0Q159 673 175.0 691.0Q191 709 207.5 709.0Q224 709 247.0 668.5Q270 628 270 601ZM154 511Q173 511 190.0 488.0Q207 465 207.0 443.0Q207 421 178.0 311.5Q149 202 105 66Q88 16 62 16Q48 16 38.0 27.5Q28 39 28.0 53.5Q28 68 35.5 99.5Q43 131 57.5 183.5Q72 236 80.5 269.0Q89 302 98.0 343.5Q107 385 112.5 410.5Q118 436 125 462Q139 511 154 511Z"/><path transform="translate(265.7,0) scale(0.01800,-0.01800)" d="M317 511Q351 511 381.0 473.5Q411 436 411 408Q411 391 395 391Q384 391 361.0 408.5Q338 426 314.0 426.0Q290 426 238.5 398.0Q187 370 187 339Q187 316 279 260Q314 238 342.5 203.5Q371 169 371.0 129.5Q371 90 316.5 52.5Q262 15 189.5 15.0Q117 15 61.5 50.0Q6 85 6 116Q6 129 12.5 136.5Q19 144 29.0 144.0Q39 144 57 131Q111 92 169.5 92.0Q228 92 254.0 105.5Q280 119 280.0 141.5Q280 164 251.0 189.5Q222 215 187.5 235.0Q153 255 124.0 284.0Q95 313 95 343Q95 396 178.5 453.5Q262 511 317 511Z"/><path transform="translate(273.4,0) scale(0.01800,-0.01800)" d="M143 115Q143 96 165 96Q203 96 257.5 117.5Q312 139 318 139Q336 139 336 120Q336 91 276.5 53.0Q217 15 168.5 15.0Q120 15 88.0 41.5Q56 68 56.0 96.0Q56 124 68.0 167.5Q80 211 102.5 282.5Q125 354 138 401Q91 390 75.0 390.0Q59 390 43.5 406.5Q28 423 28 438Q28 462 158 484Q176 567 176 631Q176 661 196 661Q213 661 238.0 639.5Q263 618 263.0 591.0Q263 564 246 496Q303 501 337 501Q397 501 397 475Q397 460 364.5 450.0Q332 440 228 419Q207 340 175.0 238.5Q143 137 143 115Z"/><path transform="translate(280.3,0) scale(0.01800,-0.01800)" d="M317 511Q351 511 381.0 473.5Q411 436 411 408Q411 391 395 391Q384 391 361.0 408.5Q338 426 314.0 426.0Q290 426 238.5 398.0Q187 370 187 339Q187 316 279 260Q314 238 342.5 203.5Q371 169 371.0 129.5Q371 90 316.5 52.5Q262 15 189.5 15.0Q117 15 61.5 50.0Q6 85 6 116Q6 129 12.5 136.5Q19 144 29.0 144.0Q39 144 57 131Q111 92 169.5 92.0Q228 92 254.0 105.5Q280 119 280.0 141.5Q280 164 251.0 189.5Q222 215 187.5 235.0Q153 255 124.0 284.0Q95 313 95 343Q95 396 178.5 453.5Q262 511 317 511Z"/></g>
<g fill="#8a8170" transform="translate(610,52)"><path transform="translate(0.0,0) scale(0.01600,-0.01600)" d="M103 13Q90 13 75.0 32.0Q60 51 60.0 63.0Q60 75 70 110Q120 290 138 367Q95 357 79.0 357.0Q63 357 47.0 371.0Q31 385 31.0 402.0Q31 419 76 432Q134 446 156 450Q166 498 171 524Q195 662 236.0 723.0Q277 784 347 784Q397 784 429.0 744.5Q461 705 461.0 651.5Q461 598 433 598Q409 598 394 652Q389 672 377.0 689.0Q365 706 348.0 706.0Q331 706 317.0 690.5Q303 675 292 646Q263 565 252 498L244 463Q281 468 317.5 468.0Q354 468 370.5 460.0Q387 452 387 440Q387 421 354.0 411.0Q321 401 225 385Q154 97 128 42Q114 13 103 13Z"/><path transform="translate(6.0,0) scale(0.01600,-0.01600)" d="M270 601Q270 591 261.0 583.0Q252 575 242 575Q218 575 188.5 604.0Q159 633 159.0 653.0Q159 673 175.0 691.0Q191 709 207.5 709.0Q224 709 247.0 668.5Q270 628 270 601ZM154 511Q173 511 190.0 488.0Q207 465 207.0 443.0Q207 421 178.0 311.5Q149 202 105 66Q88 16 62 16Q48 16 38.0 27.5Q28 39 28.0 53.5Q28 68 35.5 99.5Q43 131 57.5 183.5Q72 236 80.5 269.0Q89 302 98.0 343.5Q107 385 112.5 410.5Q118 436 125 462Q139 511 154 511Z"/><path transform="translate(9.8,0) scale(0.01600,-0.01600)" d="M111 241Q97 197 97.0 162.5Q97 128 118.5 109.0Q140 90 189.5 90.0Q239 90 291.5 107.5Q344 125 349 125Q375 125 375 105Q375 78 314.0 46.5Q253 15 195 15Q117 15 68.0 61.5Q19 108 19.0 179.0Q19 250 57.0 327.5Q95 405 155.0 458.0Q215 511 274.0 511.0Q333 511 381.5 455.0Q430 399 430.0 345.5Q430 292 372.5 258.5Q315 225 242.5 225.0Q170 225 111 241ZM279 432Q242 432 202.0 393.5Q162 355 134 298Q174 289 225.0 289.0Q276 289 314.0 305.5Q352 322 352.0 349.0Q352 376 327.5 404.0Q303 432 279 432Z"/><path transform="translate(17.0,0) scale(0.01600,-0.01600)" d="M228 707Q228 519 150 219Q100 15 80 15Q66 15 47.5 37.0Q29 59 29.0 71.0Q29 83 58.0 195.0Q87 307 116.0 470.5Q145 634 145 765Q145 779 149.0 785.0Q153 791 166.0 791.0Q179 791 203.5 762.5Q228 734 228 707Z"/><path transform="translate(20.9,0) scale(0.01600,-0.01600)" d="M459 791Q475 791 498.5 761.5Q522 732 522.0 706.0Q522 680 497.0 558.5Q472 437 439 307Q367 15 344 15Q330 15 313.5 32.5Q297 50 297.0 63.0Q297 76 304 115Q206 15 133 15Q89 15 53.5 55.0Q18 95 18 138Q18 200 51.5 285.5Q85 371 148.0 441.0Q211 511 282.0 511.0Q353 511 381 426Q432 638 437 761Q437 791 459 791ZM349 300Q349 354 330.5 391.0Q312 428 286 428Q243 428 198.0 375.0Q153 322 126.5 253.5Q100 185 100 135Q100 117 113.0 106.0Q126 95 144 95Q183 95 249.5 151.0Q316 207 346 283L349 295Z"/><path transform="translate(35.3,0) scale(0.01600,-0.01600)" d="M492 383Q492 311 459 207Q399 15 351 15Q329 15 329 45Q329 66 350.5 130.5Q372 195 390.5 257.5Q409 320 409.0 351.5Q409 383 399.5 398.0Q390 413 380.5 413.0Q371 413 361.0 407.0Q351 401 338.5 387.0Q326 373 315.0 359.5Q304 346 287.5 321.0Q271 296 260.0 278.5Q249 261 228.0 228.0Q207 195 196.0 178.0Q185 161 167.0 132.0Q149 103 138.5 87.0Q128 71 115 52Q90 15 75.5 15.0Q61 15 42.0 37.5Q23 60 23 77Q23 82 30 104Q49 162 72.0 247.5Q95 333 97 442Q100 515 118 515Q140 515 162.0 492.0Q184 469 184.0 441.5Q184 414 167.5 335.5Q151 257 129 189Q225 352 285.5 431.5Q346 511 384.5 511.0Q423 511 457.5 470.0Q492 429 492 383Z"/><path transform="translate(43.9,0) scale(0.01600,-0.01600)" d="M333 341Q333 375 322.0 405.5Q311 436 290 450Q221 431 171.5 343.5Q122 256 122.0 179.0Q122 102 160 83Q232 97 282.5 181.5Q333 266 333 341ZM155 15Q104 15 70.0 62.0Q36 109 36.0 181.5Q36 254 70.5 332.0Q105 410 161.5 460.5Q218 511 277.5 511.0Q337 511 377.0 460.5Q417 410 417.0 337.5Q417 265 382.0 189.5Q347 114 285.5 64.5Q224 15 155 15Z"/><path transform="translate(51.1,0) scale(0.01600,-0.01600)" d="M143 115Q143 96 165 96Q203 96 257.5 117.5Q312 139 318 139Q336 139 336 120Q336 91 276.5 53.0Q217 15 168.5 15.0Q120 15 88.0 41.5Q56 68 56.0 96.0Q56 124 68.0 167.5Q80 211 102.5 282.5Q125 354 138 401Q91 390 75.0 390.0Q59 390 43.5 406.5Q28 423 28 438Q28 462 158 484Q176 567 176 631Q176 661 196 661Q213 661 238.0 639.5Q263 618 263.0 591.0Q263 564 246 496Q303 501 337 501Q397 501 397 475Q397 460 364.5 450.0Q332 440 228 419Q207 340 175.0 238.5Q143 137 143 115Z"/><path transform="translate(57.3,0) scale(0.01600,-0.01600)" d="M111 241Q97 197 97.0 162.5Q97 128 118.5 109.0Q140 90 189.5 90.0Q239 90 291.5 107.5Q344 125 349 125Q375 125 375 105Q375 78 314.0 46.5Q253 15 195 15Q117 15 68.0 61.5Q19 108 19.0 179.0Q19 250 57.0 327.5Q95 405 155.0 458.0Q215 511 274.0 511.0Q333 511 381.5 455.0Q430 399 430.0 345.5Q430 292 372.5 258.5Q315 225 242.5 225.0Q170 225 111 241ZM279 432Q242 432 202.0 393.5Q162 355 134 298Q174 289 225.0 289.0Q276 289 314.0 305.5Q352 322 352.0 349.0Q352 376 327.5 404.0Q303 432 279 432Z"/><path transform="translate(64.5,0) scale(0.01600,-0.01600)" d="M317 511Q351 511 381.0 473.5Q411 436 411 408Q411 391 395 391Q384 391 361.0 408.5Q338 426 314.0 426.0Q290 426 238.5 398.0Q187 370 187 339Q187 316 279 260Q314 238 342.5 203.5Q371 169 371.0 129.5Q371 90 316.5 52.5Q262 15 189.5 15.0Q117 15 61.5 50.0Q6 85 6 116Q6 129 12.5 136.5Q19 144 29.0 144.0Q39 144 57 131Q111 92 169.5 92.0Q228 92 254.0 105.5Q280 119 280.0 141.5Q280 164 251.0 189.5Q222 215 187.5 235.0Q153 255 124.0 284.0Q95 313 95 343Q95 396 178.5 453.5Q262 511 317 511Z"/><path transform="translate(77.7,0) scale(0.01600,-0.01600)" d="M145 246Q120 246 88.0 278.0Q56 310 56.0 332.0Q56 354 73.5 375.0Q91 396 109.5 396.0Q128 396 152.5 347.0Q177 298 177 273Q177 265 166.0 255.5Q155 246 145 246Z"/><path transform="translate(88.0,0) scale(0.01600,-0.01600)" d="M492 383Q492 311 459 207Q399 15 351 15Q329 15 329 45Q329 66 350.5 130.5Q372 195 390.5 257.5Q409 320 409.0 351.5Q409 383 399.5 398.0Q390 413 380.5 413.0Q371 413 361.0 407.0Q351 401 338.5 387.0Q326 373 315.0 359.5Q304 346 287.5 321.0Q271 296 260.0 278.5Q249 261 228.0 228.0Q207 195 196.0 178.0Q185 161 167.0 132.0Q149 103 138.5 87.0Q128 71 115 52Q90 15 75.5 15.0Q61 15 42.0 37.5Q23 60 23 77Q23 82 30 104Q49 162 72.0 247.5Q95 333 97 442Q100 515 118 515Q140 515 162.0 492.0Q184 469 184.0 441.5Q184 414 167.5 335.5Q151 257 129 189Q225 352 285.5 431.5Q346 511 384.5 511.0Q423 511 457.5 470.0Q492 429 492 383Z"/><path transform="translate(96.5,0) scale(0.01600,-0.01600)" d="M333 341Q333 375 322.0 405.5Q311 436 290 450Q221 431 171.5 343.5Q122 256 122.0 179.0Q122 102 160 83Q232 97 282.5 181.5Q333 266 333 341ZM155 15Q104 15 70.0 62.0Q36 109 36.0 181.5Q36 254 70.5 332.0Q105 410 161.5 460.5Q218 511 277.5 511.0Q337 511 377.0 460.5Q417 410 417.0 337.5Q417 265 382.0 189.5Q347 114 285.5 64.5Q224 15 155 15Z"/><path transform="translate(103.7,0) scale(0.01600,-0.01600)" d="M145 -6Q120 -6 88.0 26.5Q56 59 56.0 80.5Q56 102 73.5 123.5Q91 145 109.5 145.0Q128 145 152.5 96.0Q177 47 177 22Q177 14 166.0 4.0Q155 -6 145 -6Z"/><path transform="translate(107.5,0) scale(0.01600,-0.01600)" d="M271 651Q271 544 220 343Q209 303 195.0 244.0Q181 185 172.0 149.5Q163 114 152 78Q132 7 113 7Q99 7 83.5 27.0Q68 47 68.0 68.5Q68 90 89.5 172.0Q111 254 138.0 396.0Q165 538 175 695Q178 726 198 726Q220 726 245.5 698.0Q271 670 271 651Z"/><path transform="translate(119.0,0) scale(0.01600,-0.01600)" d="M145 246Q120 246 88.0 278.0Q56 310 56.0 332.0Q56 354 73.5 375.0Q91 396 109.5 396.0Q128 396 152.5 347.0Q177 298 177 273Q177 265 166.0 255.5Q155 246 145 246Z"/><path transform="translate(129.2,0) scale(0.01600,-0.01600)" d="M461 624Q398 624 321.5 555.0Q245 486 191.0 382.5Q137 279 137 190Q137 154 160.0 128.5Q183 103 214 103Q262 103 326.5 155.5Q391 208 446 291Q390 276 363.0 276.0Q336 276 317.0 290.5Q298 305 298 318Q298 334 341.0 343.5Q384 353 449 353Q485 353 507.5 322.5Q530 292 530.0 251.5Q530 211 480.0 61.0Q430 -89 404.5 -89.0Q379 -89 379 -60Q379 -32 393.5 16.0Q408 64 424.0 114.5Q440 165 450 197Q401 114 339.0 65.5Q277 17 218.5 17.0Q160 17 103.0 71.5Q46 126 46 191Q46 292 110.0 416.0Q174 540 271.0 628.5Q368 717 453 717Q481 717 508.0 683.5Q535 650 535.0 629.5Q535 609 524 609Q521 609 502.0 616.5Q483 624 461 624Z"/><path transform="translate(138.9,0) scale(0.01600,-0.01600)" d="M463 435Q463 422 419.0 281.0Q375 140 351 57Q339 15 317 15Q304 15 295.0 26.0Q286 37 286.0 66.0Q286 95 309 171Q267 103 218.0 59.0Q169 15 128.5 15.0Q88 15 52.0 53.0Q16 91 16 131Q16 226 71.5 368.5Q127 511 164 511Q182 511 195.5 494.5Q209 478 209 457Q209 448 182.0 392.5Q155 337 128.0 262.5Q101 188 101 132Q101 116 111.0 105.5Q121 95 135 95Q173 95 225.5 162.0Q278 229 321.0 318.0Q364 407 385 483Q389 499 393.0 505.0Q397 511 410.5 511.0Q424 511 443.5 485.0Q463 459 463 435Z"/><path transform="translate(146.6,0) scale(0.01600,-0.01600)" d="M-149 -121Q-106 -176 -78.0 -176.0Q-50 -176 -31.0 -146.0Q-12 -116 6.0 -51.5Q24 13 40.0 81.0Q56 149 81.5 261.0Q107 373 131 462Q146 511 160 511Q177 511 195.0 489.5Q213 468 213 443Q213 420 182.0 303.5Q151 187 127.0 94.0Q103 1 80 -88Q37 -245 -76 -245Q-126 -245 -173.5 -203.0Q-221 -161 -221 -131Q-221 -118 -210.5 -100.5Q-200 -83 -191 -83Q-180 -83 -168.0 -97.5Q-156 -112 -149 -121ZM283 601Q283 591 274.0 583.0Q265 575 256 575Q232 575 202.0 604.0Q172 633 172.0 653.0Q172 673 188.0 691.0Q204 709 221.0 709.0Q238 709 260.5 668.5Q283 628 283 601Z"/><path transform="translate(150.7,0) scale(0.01600,-0.01600)" d="M393 309Q405 294 405 283Q405 255 392.5 187.0Q380 119 377.5 98.0Q375 77 373.0 64.5Q371 52 368 40Q364 15 350 15Q332 15 320.5 46.5Q309 78 307 128Q218 15 142 15Q96 15 51.5 54.5Q7 94 7 136Q7 196 51.0 284.5Q95 373 165.0 442.0Q235 511 297 511Q342 511 380.0 465.5Q418 420 418.0 383.5Q418 347 393 309ZM343 335Q343 428 306 428Q267 428 215.0 372.5Q163 317 127.0 247.0Q91 177 91 136Q91 119 105.0 108.5Q119 98 138 98Q185 98 244.0 161.5Q303 225 326 316Q329 331 343 334Z"/><path transform="translate(158.2,0) scale(0.01600,-0.01600)" d="M91 389 88 464Q88 511 110 511Q129 511 146.5 486.5Q164 462 164.0 428.5Q164 395 162 378Q249 510 327 510Q376 510 376 486Q376 474 365.0 464.0Q354 454 330 441Q277 418 240.5 370.5Q204 323 181.0 263.0Q158 203 144.5 162.0Q131 121 124.0 98.0Q117 75 108 53Q92 13 71 13Q54 13 43.5 32.5Q33 52 33.0 70.5Q33 89 50 144Q91 270 91 389Z"/><path transform="translate(163.5,0) scale(0.01600,-0.01600)" d="M393 309Q405 294 405 283Q405 255 392.5 187.0Q380 119 377.5 98.0Q375 77 373.0 64.5Q371 52 368 40Q364 15 350 15Q332 15 320.5 46.5Q309 78 307 128Q218 15 142 15Q96 15 51.5 54.5Q7 94 7 136Q7 196 51.0 284.5Q95 373 165.0 442.0Q235 511 297 511Q342 511 380.0 465.5Q418 420 418.0 383.5Q418 347 393 309ZM343 335Q343 428 306 428Q267 428 215.0 372.5Q163 317 127.0 247.0Q91 177 91 136Q91 119 105.0 108.5Q119 98 138 98Q185 98 244.0 161.5Q303 225 326 316Q329 331 343 334Z"/><path transform="translate(171.0,0) scale(0.01600,-0.01600)" d="M143 115Q143 96 165 96Q203 96 257.5 117.5Q312 139 318 139Q336 139 336 120Q336 91 276.5 53.0Q217 15 168.5 15.0Q120 15 88.0 41.5Q56 68 56.0 96.0Q56 124 68.0 167.5Q80 211 102.5 282.5Q125 354 138 401Q91 390 75.0 390.0Q59 390 43.5 406.5Q28 423 28 438Q28 462 158 484Q176 567 176 631Q176 661 196 661Q213 661 238.0 639.5Q263 618 263.0 591.0Q263 564 246 496Q303 501 337 501Q397 501 397 475Q397 460 364.5 450.0Q332 440 228 419Q207 340 175.0 238.5Q143 137 143 115Z"/></g>
</svg>