<svg xmlns="http://www.w3.org/2000/svg" viewBox="0 0 380 360" width="380" height="360" role="img" aria-label="A hand-drawn sikku kolam: one unbroken twelve-point line around a dot grid."><defs><filter id="r"><feTurbulence type="fractalNoise" baseFrequency="0.012 0.016" numOctaves="2" seed="7" result="n"/><feDisplacementMap in="SourceGraphic" in2="n" scale="2.2"/></filter><filter id="r2"><feTurbulence type="fractalNoise" baseFrequency="0.022" numOctaves="2" seed="4" result="n"/><feDisplacementMap in="SourceGraphic" in2="n" scale="3"/></filter></defs><rect width="380" height="360" rx="6" fill="#f3ead5"/><rect x="12" y="12" width="356" height="336" rx="3" fill="none" stroke="#2a2620" stroke-width="1.5" opacity="0.8" filter="url(#r)"/><circle cx="190.0" cy="52.0" r="2.4" fill="#8d8470"/><circle cx="254.0" cy="69.1" r="2.4" fill="#8d8470"/><circle cx="300.9" cy="116.0" r="2.4" fill="#8d8470"/><circle cx="318.0" cy="180.0" r="2.4" fill="#8d8470"/><circle cx="300.9" cy="244.0" r="2.4" fill="#8d8470"/><circle cx="254.0" cy="290.9" r="2.4" fill="#8d8470"/><circle cx="190.0" cy="308.0" r="2.4" fill="#8d8470"/><circle cx="126.0" cy="290.9" r="2.4" fill="#8d8470"/><circle cx="79.1" cy="244.0" r="2.4" fill="#8d8470"/><circle cx="62.0" cy="180.0" r="2.4" fill="#8d8470"/><circle cx="79.1" cy="116.0" r="2.4" fill="#8d8470"/><circle cx="126.0" cy="69.1" r="2.4" fill="#8d8470"/><path d="M190.0,52.0 L254.0,290.9 L79.1,116.0 L318.0,180.0 L79.1,244.0 L254.0,69.1 L190.0,308.0 L126.0,69.1 L300.9,244.0 L62.0,180.0 L300.9,116.0 L126.0,290.9 Z" fill="none" stroke="#35517d" stroke-width="2.4" stroke-linejoin="round" filter="url(#r2)"/><circle cx="190" cy="180" r="20" fill="none" stroke="#b5462f" stroke-width="1.6" stroke-dasharray="2 5" filter="url(#r2)"/><circle cx="190" cy="180" r="5" fill="#c98a2b" filter="url(#r2)"/></svg>