<svg xmlns="http://www.w3.org/2000/svg" viewBox="0 0 380 360" width="380" height="360" role="img" aria-label="A hand-drawn sikku kolam: one unbroken twelve-point line around a dot grid."><defs><filter id="r"><feTurbulence type="fractalNoise" baseFrequency="0.012 0.016" numOctaves="2" seed="81" result="n"/><feDisplacementMap in="SourceGraphic" in2="n" scale="2.2"/></filter><filter id="r2"><feTurbulence type="fractalNoise" baseFrequency="0.022" numOctaves="2" seed="92" result="n"/><feDisplacementMap in="SourceGraphic" in2="n" scale="3"/></filter></defs><rect width="380" height="360" rx="6" fill="#f3ead5"/><circle cx="192" cy="165" r="0.8" fill="#2a2620" opacity="0.07"/><circle cx="302" cy="72" r="0.7" fill="#2a2620" opacity="0.10"/><circle cx="226" cy="308" r="0.6" fill="#2a2620" opacity="0.07"/><circle cx="124" cy="64" r="0.5" fill="#2a2620" opacity="0.08"/><circle cx="122" cy="205" r="1.1" fill="#2a2620" opacity="0.12"/><circle cx="284" cy="127" r="0.7" fill="#2a2620" opacity="0.11"/><circle cx="101" cy="282" r="0.6" fill="#2a2620" opacity="0.08"/><circle cx="209" cy="325" r="0.9" fill="#2a2620" opacity="0.11"/><circle cx="139" cy="132" r="1.0" fill="#2a2620" opacity="0.09"/><circle cx="264" cy="53" r="0.4" fill="#2a2620" opacity="0.07"/><circle cx="125" cy="106" r="1.0" fill="#2a2620" opacity="0.11"/><circle cx="97" cy="54" r="0.5" fill="#2a2620" opacity="0.05"/><circle cx="265" cy="143" r="1.1" fill="#2a2620" opacity="0.04"/><circle cx="202" cy="64" r="1.0" fill="#2a2620" opacity="0.07"/><circle cx="103" cy="206" r="1.0" fill="#2a2620" opacity="0.04"/><circle cx="99" cy="307" r="0.7" fill="#2a2620" opacity="0.05"/><circle cx="335" cy="321" r="0.7" fill="#2a2620" opacity="0.06"/><circle cx="31" cy="257" r="0.9" fill="#2a2620" opacity="0.10"/><circle cx="254" cy="134" r="0.6" fill="#2a2620" opacity="0.09"/><circle cx="289" cy="171" r="0.8" fill="#2a2620" opacity="0.07"/><circle cx="298" cy="324" r="0.6" fill="#2a2620" opacity="0.12"/><circle cx="295" cy="150" r="0.6" fill="#2a2620" opacity="0.09"/><circle cx="204" cy="209" r="1.1" fill="#2a2620" opacity="0.12"/><circle cx="258" cy="186" r="0.5" fill="#2a2620" opacity="0.05"/><circle cx="298" cy="103" r="0.9" fill="#2a2620" opacity="0.06"/><circle cx="94" cy="238" r="0.5" fill="#2a2620" opacity="0.05"/><circle cx="357" cy="148" r="0.7" fill="#2a2620" opacity="0.10"/><circle cx="93" cy="273" r="0.6" fill="#2a2620" opacity="0.10"/><circle cx="275" cy="56" r="0.7" fill="#2a2620" opacity="0.11"/><circle cx="187" cy="159" r="0.4" fill="#2a2620" opacity="0.05"/><rect x="12" y="12" width="356" height="336" rx="3" fill="none" stroke="#2a2620" stroke-width="1.5" opacity="0.8" filter="url(#r)"/><circle cx="190.0" cy="52.0" r="2.4" fill="#8d8470"/><circle cx="254.0" cy="69.1" r="2.4" fill="#8d8470"/><circle cx="300.9" cy="116.0" r="2.4" fill="#8d8470"/><circle cx="318.0" cy="180.0" r="2.4" fill="#8d8470"/><circle cx="300.9" cy="244.0" r="2.4" fill="#8d8470"/><circle cx="254.0" cy="290.9" r="2.4" fill="#8d8470"/><circle cx="190.0" cy="308.0" r="2.4" fill="#8d8470"/><circle cx="126.0" cy="290.9" r="2.4" fill="#8d8470"/><circle cx="79.1" cy="244.0" r="2.4" fill="#8d8470"/><circle cx="62.0" cy="180.0" r="2.4" fill="#8d8470"/><circle cx="79.1" cy="116.0" r="2.4" fill="#8d8470"/><circle cx="126.0" cy="69.1" r="2.4" fill="#8d8470"/><path d="M190.0,52.0 L254.0,290.9 L79.1,116.0 L318.0,180.0 L79.1,244.0 L254.0,69.1 L190.0,308.0 L126.0,69.1 L300.9,244.0 L62.0,180.0 L300.9,116.0 L126.0,290.9 Z" fill="none" stroke="#35517d" stroke-width="2.4" stroke-linejoin="round" filter="url(#r2)"/><circle cx="190" cy="180" r="20" fill="none" stroke="#b5462f" stroke-width="1.6" stroke-dasharray="2 5" filter="url(#r2)"/><circle cx="190" cy="180" r="5" fill="#c98a2b" filter="url(#r2)"/></svg>