<svg xmlns="http://www.w3.org/2000/svg" viewBox="0 0 820 430" width="820" height="430" role="img" aria-label="Hand-drawn system map of ObserveOps and ServiceOps with twelve modules."><defs><filter id="r"><feTurbulence type="fractalNoise" baseFrequency="0.012 0.016" numOctaves="2" seed="21" result="n"/><feDisplacementMap in="SourceGraphic" in2="n" scale="2.2"/></filter><filter id="r2"><feTurbulence type="fractalNoise" baseFrequency="0.022" numOctaves="2" seed="32" result="n"/><feDisplacementMap in="SourceGraphic" in2="n" scale="3"/></filter></defs><rect width="820" height="430" rx="6" fill="#f3ead5"/><circle cx="150" cy="288" r="0.8" fill="#2a2620" opacity="0.08"/><circle cx="190" cy="328" r="1.0" fill="#2a2620" opacity="0.08"/><circle cx="414" cy="113" r="0.4" fill="#2a2620" opacity="0.07"/><circle cx="476" cy="49" r="1.0" fill="#2a2620" opacity="0.06"/><circle cx="203" cy="38" r="1.1" fill="#2a2620" opacity="0.10"/><circle cx="701" cy="260" r="0.4" fill="#2a2620" opacity="0.07"/><circle cx="408" cy="67" r="1.1" fill="#2a2620" opacity="0.07"/><circle cx="142" cy="338" r="0.5" fill="#2a2620" opacity="0.11"/><circle cx="374" cy="235" r="0.6" fill="#2a2620" opacity="0.08"/><circle cx="167" cy="36" r="1.0" fill="#2a2620" opacity="0.06"/><circle cx="627" cy="103" r="1.1" fill="#2a2620" opacity="0.11"/><circle cx="608" cy="316" r="0.8" fill="#2a2620" opacity="0.10"/><circle cx="117" cy="206" r="1.0" fill="#2a2620" opacity="0.06"/><circle cx="738" cy="365" r="0.7" fill="#2a2620" opacity="0.07"/><circle cx="372" cy="171" r="1.1" fill="#2a2620" opacity="0.07"/><circle cx="43" cy="58" r="0.9" fill="#2a2620" opacity="0.12"/><circle cx="407" cy="212" r="0.8" fill="#2a2620" opacity="0.10"/><circle cx="194" cy="257" r="0.8" fill="#2a2620" opacity="0.09"/><circle cx="162" cy="88" r="0.6" fill="#2a2620" opacity="0.11"/><circle cx="291" cy="253" r="0.6" fill="#2a2620" opacity="0.05"/><circle cx="73" cy="336" r="0.9" fill="#2a2620" opacity="0.07"/><circle cx="552" cy="283" r="1.0" fill="#2a2620" opacity="0.12"/><circle cx="338" cy="404" r="1.1" fill="#2a2620" opacity="0.09"/><circle cx="707" cy="211" r="0.7" fill="#2a2620" opacity="0.06"/><circle cx="702" cy="85" r="0.4" fill="#2a2620" opacity="0.10"/><circle cx="623" cy="209" r="1.0" fill="#2a2620" opacity="0.04"/><circle cx="222" cy="134" r="0.7" fill="#2a2620" opacity="0.05"/><circle cx="76" cy="152" r="1.0" fill="#2a2620" opacity="0.12"/><circle cx="601" cy="207" r="0.6" fill="#2a2620" opacity="0.12"/><circle cx="430" cy="303" r="0.4" fill="#2a2620" opacity="0.06"/><rect x="12" y="12" width="796" height="406" rx="3" fill="none" stroke="#2a2620" stroke-width="1.5" opacity="0.8" filter="url(#r)"/><g fill="#2a2620" transform="translate(40.0,52)"><path transform="translate(0.0,0) scale(0.02200,-0.02200)" d="M368 175Q393 175 393.0 141.0Q393 107 326.0 59.5Q259 12 186 12Q154 12 110.0 47.0Q66 82 66 118Q66 148 96.5 244.5Q127 341 138 377Q99 366 79.0 366.0Q59 366 37.0 393.5Q15 421 15 446Q15 478 170 500Q189 593 189 661Q189 691 219 691Q245 691 285.5 659.5Q326 628 326.0 597.5Q326 567 313 512Q361 514 386 514Q461 514 461 480Q461 458 417.5 442.5Q374 427 284 409Q276 382 260.5 333.5Q245 285 222.5 212.0Q200 139 200.0 134.5Q200 130 216.5 130.0Q233 130 295.0 152.5Q357 175 368 175Z"/><path transform="translate(9.9,0) scale(0.02200,-0.02200)" d="M150 766Q150 808 183 808Q210 808 245.0 763.0Q280 718 280.0 686.0Q280 654 267.0 596.0Q254 538 240.5 490.0Q227 442 200.0 353.5Q173 265 163 230Q228 362 300.5 445.0Q373 528 422 528Q453 528 493.0 473.5Q533 419 533.0 375.5Q533 332 517.0 249.0Q501 166 461.0 89.0Q421 12 379 12Q346 12 346 59Q346 93 366 170Q395 285 395.0 310.0Q395 335 387 335Q329 335 217 142Q179 76 153.5 44.0Q128 12 105.0 12.0Q82 12 49.5 49.0Q17 86 17.0 106.5Q17 127 25.5 167.0Q34 207 51.5 281.0Q69 355 109.5 549.5Q150 744 150 766Z"/><path transform="translate(22.3,0) scale(0.02200,-0.02200)" d="M155 224Q146 197 146.0 170.0Q146 143 155.0 131.5Q164 120 200 120Q275 120 328.5 134.0Q382 148 384 148Q425 148 425 121Q425 82 360.5 47.0Q296 12 211.5 12.0Q127 12 76.0 65.0Q25 118 25.0 190.5Q25 263 67.5 342.0Q110 421 174.0 474.5Q238 528 301.5 528.0Q365 528 419.0 465.5Q473 403 473 341Q473 292 406.5 253.0Q340 214 270.0 214.0Q200 214 155 224ZM194 310Q203 309 220 309Q357 309 357 357Q357 367 336.0 386.0Q315 405 296.5 405.0Q278 405 249.0 378.5Q220 352 194 310Z"/><path transform="translate(41.5,0) scale(0.02200,-0.02200)" d="M344 527Q382 527 419.0 482.0Q456 437 456 401Q456 377 435 377Q423 377 400.0 386.5Q377 396 353.5 396.0Q330 396 284.5 380.0Q239 364 239 338Q239 328 266.0 309.0Q293 290 325.0 270.0Q357 250 384.0 214.5Q411 179 411.0 137.5Q411 96 350.5 54.0Q290 12 208.5 12.0Q127 12 69.0 49.0Q11 86 11.0 125.0Q11 164 43 164Q56 164 74 154Q124 125 198.5 125.0Q273 125 273.0 145.0Q273 165 244.5 189.5Q216 214 182.5 235.0Q149 256 120.5 286.5Q92 317 92 346Q92 400 190.0 463.5Q288 527 344 527Z"/><path transform="translate(51.8,0) scale(0.02200,-0.02200)" d="M376 503Q384 528 408.0 528.0Q432 528 463.5 487.0Q495 446 495 416Q495 405 449.0 269.0Q403 133 378 54Q364 12 331 12Q311 12 297.5 26.5Q284 41 284.0 72.0Q284 103 296 160Q193 12 132 12Q100 12 55.0 53.5Q10 95 10 134Q10 230 64.5 379.0Q119 528 167 528Q196 528 218.5 502.0Q241 476 241 445Q241 433 216 378Q140 213 140 145Q140 139 145 139Q160 139 201.5 186.5Q243 234 294.5 322.5Q346 411 376 503Z"/><path transform="translate(62.5,0) scale(0.02200,-0.02200)" d="M80 359 74 472Q74 528 109 528Q129 528 148.5 513.0Q168 498 178 466Q212 496 252.5 514.5Q293 533 324 533Q397 533 397 498Q397 480 390.5 471.5Q384 463 380.5 459.0Q377 455 368.5 448.5Q360 442 356 439Q333 424 323 418Q278 390 246.0 350.5Q214 311 198 241Q171 126 145.5 69.5Q120 13 88.5 13.0Q57 13 41.5 43.0Q26 73 26.0 99.5Q26 126 45.5 179.0Q65 232 72.5 270.5Q80 309 80 359Z"/><path transform="translate(70.4,0) scale(0.02200,-0.02200)" d="M328 592Q309 528 290 443Q366 447 404.5 447.0Q443 447 462.0 435.5Q481 424 481 408Q481 377 425.0 360.0Q369 343 263 327Q213 118 193.0 65.5Q173 13 149 13Q130 13 104.5 44.5Q79 76 79.0 92.0Q79 108 86 130Q117 217 133 298Q103 290 79.5 290.0Q56 290 33.0 311.5Q10 333 10 364Q10 400 154 426Q183 618 235.0 704.5Q287 791 385 791Q432 791 471.0 745.0Q510 699 510 636Q510 595 497.0 571.5Q484 548 463.0 548.0Q442 548 429.5 567.0Q417 586 412.5 608.5Q408 631 399.0 650.0Q390 669 377.5 669.0Q365 669 352.5 651.0Q340 633 328 592Z"/><path transform="translate(80.0,0) scale(0.02200,-0.02200)" d="M450 296Q468 280 468.0 267.0Q468 254 456.0 213.0Q444 172 440.0 149.5Q436 127 433.5 114.0Q431 101 430.0 93.5Q429 86 426.5 75.0Q424 64 422.5 57.5Q421 51 418.5 42.5Q416 34 413.0 29.5Q410 25 406 20Q400 12 386.0 12.0Q372 12 351.5 40.0Q331 68 321 108Q227 12 163 12Q120 12 70.0 59.5Q20 107 20.0 154.5Q20 202 63.0 290.0Q106 378 180.5 453.0Q255 528 328 528Q370 528 425.0 479.0Q480 430 480.0 389.5Q480 349 450 296ZM159 138Q199 138 265.5 192.5Q332 247 348 330Q349 342 365 344Q362 401 346 401Q306 401 256.5 349.0Q207 297 175.5 238.0Q144 179 144 151Q144 143 146.5 140.5Q149 138 159 138Z"/><path transform="translate(91.2,0) scale(0.02200,-0.02200)" d="M25 169Q25 239 69.0 323.0Q113 407 184.5 467.0Q256 527 325 527Q360 527 397.0 481.5Q434 436 434 400Q434 374 410 374Q398 374 377.0 385.0Q356 396 334.0 396.0Q312 396 271.5 358.5Q231 321 199.5 268.5Q168 216 168.0 186.0Q168 156 179.5 147.0Q191 138 235.5 138.0Q280 138 316.5 146.0Q353 154 370.5 162.5Q388 171 402 171Q430 171 430 147Q430 103 353.0 57.5Q276 12 199 12Q150 12 87.5 66.5Q25 121 25 169Z"/><path transform="translate(102.0,0) scale(0.02200,-0.02200)" d="M155 224Q146 197 146.0 170.0Q146 143 155.0 131.5Q164 120 200 120Q275 120 328.5 134.0Q382 148 384 148Q425 148 425 121Q425 82 360.5 47.0Q296 12 211.5 12.0Q127 12 76.0 65.0Q25 118 25.0 190.5Q25 263 67.5 342.0Q110 421 174.0 474.5Q238 528 301.5 528.0Q365 528 419.0 465.5Q473 403 473 341Q473 292 406.5 253.0Q340 214 270.0 214.0Q200 214 155 224ZM194 310Q203 309 220 309Q357 309 357 357Q357 367 336.0 386.0Q315 405 296.5 405.0Q278 405 249.0 378.5Q220 352 194 310Z"/><path transform="translate(121.2,0) scale(0.02200,-0.02200)" d="M228 551Q199 551 161.0 589.0Q123 627 123.0 653.0Q123 679 146.5 706.5Q170 734 192.5 734.0Q215 734 246.0 680.0Q277 626 277.0 601.5Q277 577 261.0 564.0Q245 551 228 551ZM138 528Q173 528 200.5 488.0Q228 448 228 411Q228 392 193.5 274.5Q159 157 125 52Q113 13 76 13Q54 13 37.5 29.5Q21 46 21.0 72.5Q21 99 46.5 204.5Q72 310 85.5 384.5Q99 459 110.5 493.5Q122 528 138 528Z"/><path transform="translate(135.4,0) scale(0.02200,-0.02200)" d="M344 527Q382 527 419.0 482.0Q456 437 456 401Q456 377 435 377Q423 377 400.0 386.5Q377 396 353.5 396.0Q330 396 284.5 380.0Q239 364 239 338Q239 328 266.0 309.0Q293 290 325.0 270.0Q357 250 384.0 214.5Q411 179 411.0 137.5Q411 96 350.5 54.0Q290 12 208.5 12.0Q127 12 69.0 49.0Q11 86 11.0 125.0Q11 164 43 164Q56 164 74 154Q124 125 198.5 125.0Q273 125 273.0 145.0Q273 165 244.5 189.5Q216 214 182.5 235.0Q149 256 120.5 286.5Q92 317 92 346Q92 400 190.0 463.5Q288 527 344 527Z"/><path transform="translate(145.7,0) scale(0.02200,-0.02200)" d="M368 175Q393 175 393.0 141.0Q393 107 326.0 59.5Q259 12 186 12Q154 12 110.0 47.0Q66 82 66 118Q66 148 96.5 244.5Q127 341 138 377Q99 366 79.0 366.0Q59 366 37.0 393.5Q15 421 15 446Q15 478 170 500Q189 593 189 661Q189 691 219 691Q245 691 285.5 659.5Q326 628 326.0 597.5Q326 567 313 512Q361 514 386 514Q461 514 461 480Q461 458 417.5 442.5Q374 427 284 409Q276 382 260.5 333.5Q245 285 222.5 212.0Q200 139 200.0 134.5Q200 130 216.5 130.0Q233 130 295.0 152.5Q357 175 368 175Z"/><path transform="translate(155.6,0) scale(0.02200,-0.02200)" d="M155 224Q146 197 146.0 170.0Q146 143 155.0 131.5Q164 120 200 120Q275 120 328.5 134.0Q382 148 384 148Q425 148 425 121Q425 82 360.5 47.0Q296 12 211.5 12.0Q127 12 76.0 65.0Q25 118 25.0 190.5Q25 263 67.5 342.0Q110 421 174.0 474.5Q238 528 301.5 528.0Q365 528 419.0 465.5Q473 403 473 341Q473 292 406.5 253.0Q340 214 270.0 214.0Q200 214 155 224ZM194 310Q203 309 220 309Q357 309 357 357Q357 367 336.0 386.0Q315 405 296.5 405.0Q278 405 249.0 378.5Q220 352 194 310Z"/><path transform="translate(166.3,0) scale(0.02200,-0.02200)" d="M472 13Q458 13 430.0 33.0Q402 53 390 78Q369 119 369 318Q326 178 271.0 95.5Q216 13 182 13Q167 13 138.5 33.0Q110 53 102 73Q80 127 60.0 279.0Q40 431 40 487Q40 528 68 528Q106 528 146.0 482.0Q186 436 186 410Q186 265 189 179Q229 240 261.5 331.0Q294 422 314.0 475.0Q334 528 356 528Q400 528 443.0 485.5Q486 443 486 399Q486 379 479.5 316.0Q473 253 473.0 221.0Q473 189 477 168Q510 201 534.5 265.0Q559 329 570 386Q598 528 625.5 528.0Q653 528 686.5 509.0Q720 490 720.0 469.0Q720 448 686.0 327.0Q652 206 579.5 109.5Q507 13 472 13Z"/><path transform="translate(181.9,0) scale(0.02200,-0.02200)" d="M450 296Q468 280 468.0 267.0Q468 254 456.0 213.0Q444 172 440.0 149.5Q436 127 433.5 114.0Q431 101 430.0 93.5Q429 86 426.5 75.0Q424 64 422.5 57.5Q421 51 418.5 42.5Q416 34 413.0 29.5Q410 25 406 20Q400 12 386.0 12.0Q372 12 351.5 40.0Q331 68 321 108Q227 12 163 12Q120 12 70.0 59.5Q20 107 20.0 154.5Q20 202 63.0 290.0Q106 378 180.5 453.0Q255 528 328 528Q370 528 425.0 479.0Q480 430 480.0 389.5Q480 349 450 296ZM159 138Q199 138 265.5 192.5Q332 247 348 330Q349 342 365 344Q362 401 346 401Q306 401 256.5 349.0Q207 297 175.5 238.0Q144 179 144 151Q144 143 146.5 140.5Q149 138 159 138Z"/><path transform="translate(193.2,0) scale(0.02200,-0.02200)" d="M80 359 74 472Q74 528 109 528Q129 528 148.5 513.0Q168 498 178 466Q212 496 252.5 514.5Q293 533 324 533Q397 533 397 498Q397 480 390.5 471.5Q384 463 380.5 459.0Q377 455 368.5 448.5Q360 442 356 439Q333 424 323 418Q278 390 246.0 350.5Q214 311 198 241Q171 126 145.5 69.5Q120 13 88.5 13.0Q57 13 41.5 43.0Q26 73 26.0 99.5Q26 126 45.5 179.0Q65 232 72.5 270.5Q80 309 80 359Z"/><path transform="translate(201.1,0) scale(0.02200,-0.02200)" d="M452 808Q476 808 515.0 764.5Q554 721 554 683Q554 664 519.0 525.0Q484 386 477 357Q397 12 360 12Q339 12 313.0 37.0Q287 62 287 86Q287 91 288 94Q188 12 144.5 12.0Q101 12 60.5 58.5Q20 105 20.0 143.0Q20 181 30.5 227.5Q41 274 63.0 326.0Q85 378 113.5 423.5Q142 469 182.5 498.5Q223 528 266 528Q330 528 371 463Q425 700 423 778Q423 808 452 808ZM157 139Q182 139 241.5 182.0Q301 225 330 291Q329 299 329.0 326.0Q329 353 311.0 377.0Q293 401 278 401Q248 401 220.5 369.0Q193 337 177 293Q143 200 143 152Q143 144 145.5 141.5Q148 139 157 139Z"/></g><path d="M40,62 q106,5 196,1" stroke="#b5462f" stroke-width="2.6" fill="none" stroke-linecap="round" filter="url(#r2)"/><g fill="#8d8470" transform="translate(40.0,80)"><path transform="translate(0.0,0) scale(0.01600,-0.01600)" d="M510 120Q510 92 359.5 56.5Q209 21 139 21Q108 21 74.5 48.5Q41 76 41 106Q41 130 137 202Q227 268 314 356Q355 398 382.5 448.5Q410 499 410.0 541.5Q410 584 391.0 608.0Q372 632 339.0 632.0Q306 632 277.0 612.0Q248 592 230.0 572.5Q212 553 207 553Q190 553 167.0 568.0Q144 583 144 598Q144 635 205.5 680.0Q267 725 337.0 725.0Q407 725 453.5 675.5Q500 626 500 553Q500 337 130 100Q154 103 231.5 115.0Q309 127 367.5 135.0Q426 143 453.5 143.0Q481 143 495.5 138.5Q510 134 510 120Z"/><path transform="translate(15.7,0) scale(0.01600,-0.01600)" d="M228 707Q228 519 150 219Q100 15 80 15Q66 15 47.5 37.0Q29 59 29.0 71.0Q29 83 58.0 195.0Q87 307 116.0 470.5Q145 634 145 765Q145 779 149.0 785.0Q153 791 166.0 791.0Q179 791 203.5 762.5Q228 734 228 707Z"/><path transform="translate(19.6,0) scale(0.01600,-0.01600)" d="M270 601Q270 591 261.0 583.0Q252 575 242 575Q218 575 188.5 604.0Q159 633 159.0 653.0Q159 673 175.0 691.0Q191 709 207.5 709.0Q224 709 247.0 668.5Q270 628 270 601ZM154 511Q173 511 190.0 488.0Q207 465 207.0 443.0Q207 421 178.0 311.5Q149 202 105 66Q88 16 62 16Q48 16 38.0 27.5Q28 39 28.0 53.5Q28 68 35.5 99.5Q43 131 57.5 183.5Q72 236 80.5 269.0Q89 302 98.0 343.5Q107 385 112.5 410.5Q118 436 125 462Q139 511 154 511Z"/><path transform="translate(23.4,0) scale(0.01600,-0.01600)" d="M492 383Q492 311 459 207Q399 15 351 15Q329 15 329 45Q329 66 350.5 130.5Q372 195 390.5 257.5Q409 320 409.0 351.5Q409 383 399.5 398.0Q390 413 380.5 413.0Q371 413 361.0 407.0Q351 401 338.5 387.0Q326 373 315.0 359.5Q304 346 287.5 321.0Q271 296 260.0 278.5Q249 261 228.0 228.0Q207 195 196.0 178.0Q185 161 167.0 132.0Q149 103 138.5 87.0Q128 71 115 52Q90 15 75.5 15.0Q61 15 42.0 37.5Q23 60 23 77Q23 82 30 104Q49 162 72.0 247.5Q95 333 97 442Q100 515 118 515Q140 515 162.0 492.0Q184 469 184.0 441.5Q184 414 167.5 335.5Q151 257 129 189Q225 352 285.5 431.5Q346 511 384.5 511.0Q423 511 457.5 470.0Q492 429 492 383Z"/><path transform="translate(32.0,0) scale(0.01600,-0.01600)" d="M111 241Q97 197 97.0 162.5Q97 128 118.5 109.0Q140 90 189.5 90.0Q239 90 291.5 107.5Q344 125 349 125Q375 125 375 105Q375 78 314.0 46.5Q253 15 195 15Q117 15 68.0 61.5Q19 108 19.0 179.0Q19 250 57.0 327.5Q95 405 155.0 458.0Q215 511 274.0 511.0Q333 511 381.5 455.0Q430 399 430.0 345.5Q430 292 372.5 258.5Q315 225 242.5 225.0Q170 225 111 241ZM279 432Q242 432 202.0 393.5Q162 355 134 298Q174 289 225.0 289.0Q276 289 314.0 305.5Q352 322 352.0 349.0Q352 376 327.5 404.0Q303 432 279 432Z"/><path transform="translate(39.2,0) scale(0.01600,-0.01600)" d="M317 511Q351 511 381.0 473.5Q411 436 411 408Q411 391 395 391Q384 391 361.0 408.5Q338 426 314.0 426.0Q290 426 238.5 398.0Q187 370 187 339Q187 316 279 260Q314 238 342.5 203.5Q371 169 371.0 129.5Q371 90 316.5 52.5Q262 15 189.5 15.0Q117 15 61.5 50.0Q6 85 6 116Q6 129 12.5 136.5Q19 144 29.0 144.0Q39 144 57 131Q111 92 169.5 92.0Q228 92 254.0 105.5Q280 119 280.0 141.5Q280 164 251.0 189.5Q222 215 187.5 235.0Q153 255 124.0 284.0Q95 313 95 343Q95 396 178.5 453.5Q262 511 317 511Z"/><path transform="translate(52.4,0) scale(0.01600,-0.01600)" d="M422 328Q422 312 389.5 302.0Q357 292 232.5 267.0Q108 242 96.5 242.0Q85 242 69.0 259.0Q53 276 53 290Q53 312 166.0 332.5Q279 353 362 353Q422 353 422 328Z"/><path transform="translate(66.2,0) scale(0.01600,-0.01600)" d="M271 651Q271 544 220 343Q209 303 195.0 244.0Q181 185 172.0 149.5Q163 114 152 78Q132 7 113 7Q99 7 83.5 27.0Q68 47 68.0 68.5Q68 90 89.5 172.0Q111 254 138.0 396.0Q165 538 175 695Q178 726 198 726Q220 726 245.5 698.0Q271 670 271 651Z"/><path transform="translate(71.2,0) scale(0.01600,-0.01600)" d="M510 120Q510 92 359.5 56.5Q209 21 139 21Q108 21 74.5 48.5Q41 76 41 106Q41 130 137 202Q227 268 314 356Q355 398 382.5 448.5Q410 499 410.0 541.5Q410 584 391.0 608.0Q372 632 339.0 632.0Q306 632 277.0 612.0Q248 592 230.0 572.5Q212 553 207 553Q190 553 167.0 568.0Q144 583 144 598Q144 635 205.5 680.0Q267 725 337.0 725.0Q407 725 453.5 675.5Q500 626 500 553Q500 337 130 100Q154 103 231.5 115.0Q309 127 367.5 135.0Q426 143 453.5 143.0Q481 143 495.5 138.5Q510 134 510 120Z"/><path transform="translate(86.9,0) scale(0.01600,-0.01600)" d="M678 511Q708 511 731.5 469.5Q755 428 755.0 375.5Q755 323 736.5 239.0Q718 155 687.0 85.0Q656 15 626 15Q605 15 605.0 42.5Q605 70 639.5 177.5Q674 285 674.0 348.5Q674 412 654 412Q629 412 596.5 368.0Q564 324 527.0 262.0Q490 200 487.0 195.5Q484 191 479.5 183.0Q475 175 469.5 166.0Q464 157 441.5 112.0Q419 67 402.0 41.5Q385 16 372.5 16.0Q360 16 345.0 32.0Q330 48 330.0 62.0Q330 76 348 120Q400 250 400 362Q400 383 391.0 397.5Q382 412 371.0 412.0Q360 412 348.0 402.5Q336 393 318.0 368.5Q300 344 286.0 322.0Q272 300 243.5 253.5Q215 207 200.5 184.5Q186 162 167.0 132.5Q148 103 137.5 87.0Q127 71 114 52Q87 15 74.5 15.0Q62 15 42.0 37.5Q22 60 22.0 71.5Q22 83 26.0 100.0Q30 117 34.5 133.0Q39 149 48.5 180.5Q58 212 70.5 254.5Q83 297 89.5 371.5Q96 446 99.0 480.5Q102 515 116 515Q138 515 159.5 492.0Q181 469 181 446Q181 358 115 156Q227 366 256.0 405.0Q285 444 306 468Q345 511 385 511Q409 511 442.5 469.5Q476 428 476.0 386.0Q476 344 464 282Q582 511 678 511Z"/><path transform="translate(99.6,0) scale(0.01600,-0.01600)" d="M333 341Q333 375 322.0 405.5Q311 436 290 450Q221 431 171.5 343.5Q122 256 122.0 179.0Q122 102 160 83Q232 97 282.5 181.5Q333 266 333 341ZM155 15Q104 15 70.0 62.0Q36 109 36.0 181.5Q36 254 70.5 332.0Q105 410 161.5 460.5Q218 511 277.5 511.0Q337 511 377.0 460.5Q417 410 417.0 337.5Q417 265 382.0 189.5Q347 114 285.5 64.5Q224 15 155 15Z"/><path transform="translate(106.9,0) scale(0.01600,-0.01600)" d="M459 791Q475 791 498.5 761.5Q522 732 522.0 706.0Q522 680 497.0 558.5Q472 437 439 307Q367 15 344 15Q330 15 313.5 32.5Q297 50 297.0 63.0Q297 76 304 115Q206 15 133 15Q89 15 53.5 55.0Q18 95 18 138Q18 200 51.5 285.5Q85 371 148.0 441.0Q211 511 282.0 511.0Q353 511 381 426Q432 638 437 761Q437 791 459 791ZM349 300Q349 354 330.5 391.0Q312 428 286 428Q243 428 198.0 375.0Q153 322 126.5 253.5Q100 185 100 135Q100 117 113.0 106.0Q126 95 144 95Q183 95 249.5 151.0Q316 207 346 283L349 295Z"/><path transform="translate(114.9,0) scale(0.01600,-0.01600)" d="M463 435Q463 422 419.0 281.0Q375 140 351 57Q339 15 317 15Q304 15 295.0 26.0Q286 37 286.0 66.0Q286 95 309 171Q267 103 218.0 59.0Q169 15 128.5 15.0Q88 15 52.0 53.0Q16 91 16 131Q16 226 71.5 368.5Q127 511 164 511Q182 511 195.5 494.5Q209 478 209 457Q209 448 182.0 392.5Q155 337 128.0 262.5Q101 188 101 132Q101 116 111.0 105.5Q121 95 135 95Q173 95 225.5 162.0Q278 229 321.0 318.0Q364 407 385 483Q389 499 393.0 505.0Q397 511 410.5 511.0Q424 511 443.5 485.0Q463 459 463 435Z"/><path transform="translate(122.6,0) scale(0.01600,-0.01600)" d="M228 707Q228 519 150 219Q100 15 80 15Q66 15 47.5 37.0Q29 59 29.0 71.0Q29 83 58.0 195.0Q87 307 116.0 470.5Q145 634 145 765Q145 779 149.0 785.0Q153 791 166.0 791.0Q179 791 203.5 762.5Q228 734 228 707Z"/><path transform="translate(126.5,0) scale(0.01600,-0.01600)" d="M111 241Q97 197 97.0 162.5Q97 128 118.5 109.0Q140 90 189.5 90.0Q239 90 291.5 107.5Q344 125 349 125Q375 125 375 105Q375 78 314.0 46.5Q253 15 195 15Q117 15 68.0 61.5Q19 108 19.0 179.0Q19 250 57.0 327.5Q95 405 155.0 458.0Q215 511 274.0 511.0Q333 511 381.5 455.0Q430 399 430.0 345.5Q430 292 372.5 258.5Q315 225 242.5 225.0Q170 225 111 241ZM279 432Q242 432 202.0 393.5Q162 355 134 298Q174 289 225.0 289.0Q276 289 314.0 305.5Q352 322 352.0 349.0Q352 376 327.5 404.0Q303 432 279 432Z"/><path transform="translate(133.7,0) scale(0.01600,-0.01600)" d="M317 511Q351 511 381.0 473.5Q411 436 411 408Q411 391 395 391Q384 391 361.0 408.5Q338 426 314.0 426.0Q290 426 238.5 398.0Q187 370 187 339Q187 316 279 260Q314 238 342.5 203.5Q371 169 371.0 129.5Q371 90 316.5 52.5Q262 15 189.5 15.0Q117 15 61.5 50.0Q6 85 6 116Q6 129 12.5 136.5Q19 144 29.0 144.0Q39 144 57 131Q111 92 169.5 92.0Q228 92 254.0 105.5Q280 119 280.0 141.5Q280 164 251.0 189.5Q222 215 187.5 235.0Q153 255 124.0 284.0Q95 313 95 343Q95 396 178.5 453.5Q262 511 317 511Z"/><path transform="translate(146.9,0) scale(0.01600,-0.01600)" d="M422 328Q422 312 389.5 302.0Q357 292 232.5 267.0Q108 242 96.5 242.0Q85 242 69.0 259.0Q53 276 53 290Q53 312 166.0 332.5Q279 353 362 353Q422 353 422 328Z"/><path transform="translate(160.7,0) scale(0.01600,-0.01600)" d="M333 341Q333 375 322.0 405.5Q311 436 290 450Q221 431 171.5 343.5Q122 256 122.0 179.0Q122 102 160 83Q232 97 282.5 181.5Q333 266 333 341ZM155 15Q104 15 70.0 62.0Q36 109 36.0 181.5Q36 254 70.5 332.0Q105 410 161.5 460.5Q218 511 277.5 511.0Q337 511 377.0 460.5Q417 410 417.0 337.5Q417 265 382.0 189.5Q347 114 285.5 64.5Q224 15 155 15Z"/><path transform="translate(167.9,0) scale(0.01600,-0.01600)" d="M492 383Q492 311 459 207Q399 15 351 15Q329 15 329 45Q329 66 350.5 130.5Q372 195 390.5 257.5Q409 320 409.0 351.5Q409 383 399.5 398.0Q390 413 380.5 413.0Q371 413 361.0 407.0Q351 401 338.5 387.0Q326 373 315.0 359.5Q304 346 287.5 321.0Q271 296 260.0 278.5Q249 261 228.0 228.0Q207 195 196.0 178.0Q185 161 167.0 132.0Q149 103 138.5 87.0Q128 71 115 52Q90 15 75.5 15.0Q61 15 42.0 37.5Q23 60 23 77Q23 82 30 104Q49 162 72.0 247.5Q95 333 97 442Q100 515 118 515Q140 515 162.0 492.0Q184 469 184.0 441.5Q184 414 167.5 335.5Q151 257 129 189Q225 352 285.5 431.5Q346 511 384.5 511.0Q423 511 457.5 470.0Q492 429 492 383Z"/><path transform="translate(176.4,0) scale(0.01600,-0.01600)" d="M111 241Q97 197 97.0 162.5Q97 128 118.5 109.0Q140 90 189.5 90.0Q239 90 291.5 107.5Q344 125 349 125Q375 125 375 105Q375 78 314.0 46.5Q253 15 195 15Q117 15 68.0 61.5Q19 108 19.0 179.0Q19 250 57.0 327.5Q95 405 155.0 458.0Q215 511 274.0 511.0Q333 511 381.5 455.0Q430 399 430.0 345.5Q430 292 372.5 258.5Q315 225 242.5 225.0Q170 225 111 241ZM279 432Q242 432 202.0 393.5Q162 355 134 298Q174 289 225.0 289.0Q276 289 314.0 305.5Q352 322 352.0 349.0Q352 376 327.5 404.0Q303 432 279 432Z"/><path transform="translate(190.1,0) scale(0.01600,-0.01600)" d="M333 341Q333 375 322.0 405.5Q311 436 290 450Q221 431 171.5 343.5Q122 256 122.0 179.0Q122 102 160 83Q232 97 282.5 181.5Q333 266 333 341ZM155 15Q104 15 70.0 62.0Q36 109 36.0 181.5Q36 254 70.5 332.0Q105 410 161.5 460.5Q218 511 277.5 511.0Q337 511 377.0 460.5Q417 410 417.0 337.5Q417 265 382.0 189.5Q347 114 285.5 64.5Q224 15 155 15Z"/><path transform="translate(197.3,0) scale(0.01600,-0.01600)" d="M358 514Q401 514 432.5 459.0Q464 404 464.0 345.5Q464 287 430.0 228.5Q396 170 346.0 124.0Q296 78 235.5 47.5Q175 17 124 17Q104 17 86 22Q82 5 72.0 -39.0Q62 -83 55.0 -112.0Q48 -141 39 -174Q21 -242 7.0 -242.0Q-7 -242 -22.5 -220.5Q-38 -199 -38.0 -182.0Q-38 -165 -6 -36Q90 353 90 488Q90 518 112 518Q130 518 155.5 491.5Q181 465 181 433Q181 417 177 398Q266 514 358 514ZM114 95Q167 95 228.5 131.0Q290 167 333.5 226.5Q377 286 377 345Q377 428 338.0 428.0Q299 428 232.5 361.0Q166 294 127 187L104 95Z"/><path transform="translate(205.0,0) scale(0.01600,-0.01600)" d="M111 241Q97 197 97.0 162.5Q97 128 118.5 109.0Q140 90 189.5 90.0Q239 90 291.5 107.5Q344 125 349 125Q375 125 375 105Q375 78 314.0 46.5Q253 15 195 15Q117 15 68.0 61.5Q19 108 19.0 179.0Q19 250 57.0 327.5Q95 405 155.0 458.0Q215 511 274.0 511.0Q333 511 381.5 455.0Q430 399 430.0 345.5Q430 292 372.5 258.5Q315 225 242.5 225.0Q170 225 111 241ZM279 432Q242 432 202.0 393.5Q162 355 134 298Q174 289 225.0 289.0Q276 289 314.0 305.5Q352 322 352.0 349.0Q352 376 327.5 404.0Q303 432 279 432Z"/><path transform="translate(212.2,0) scale(0.01600,-0.01600)" d="M91 389 88 464Q88 511 110 511Q129 511 146.5 486.5Q164 462 164.0 428.5Q164 395 162 378Q249 510 327 510Q376 510 376 486Q376 474 365.0 464.0Q354 454 330 441Q277 418 240.5 370.5Q204 323 181.0 263.0Q158 203 144.5 162.0Q131 121 124.0 98.0Q117 75 108 53Q92 13 71 13Q54 13 43.5 32.5Q33 52 33.0 70.5Q33 89 50 144Q91 270 91 389Z"/><path transform="translate(217.5,0) scale(0.01600,-0.01600)" d="M393 309Q405 294 405 283Q405 255 392.5 187.0Q380 119 377.5 98.0Q375 77 373.0 64.5Q371 52 368 40Q364 15 350 15Q332 15 320.5 46.5Q309 78 307 128Q218 15 142 15Q96 15 51.5 54.5Q7 94 7 136Q7 196 51.0 284.5Q95 373 165.0 442.0Q235 511 297 511Q342 511 380.0 465.5Q418 420 418.0 383.5Q418 347 393 309ZM343 335Q343 428 306 428Q267 428 215.0 372.5Q163 317 127.0 247.0Q91 177 91 136Q91 119 105.0 108.5Q119 98 138 98Q185 98 244.0 161.5Q303 225 326 316Q329 331 343 334Z"/><path transform="translate(225.0,0) scale(0.01600,-0.01600)" d="M143 115Q143 96 165 96Q203 96 257.5 117.5Q312 139 318 139Q336 139 336 120Q336 91 276.5 53.0Q217 15 168.5 15.0Q120 15 88.0 41.5Q56 68 56.0 96.0Q56 124 68.0 167.5Q80 211 102.5 282.5Q125 354 138 401Q91 390 75.0 390.0Q59 390 43.5 406.5Q28 423 28 438Q28 462 158 484Q176 567 176 631Q176 661 196 661Q213 661 238.0 639.5Q263 618 263.0 591.0Q263 564 246 496Q303 501 337 501Q397 501 397 475Q397 460 364.5 450.0Q332 440 228 419Q207 340 175.0 238.5Q143 137 143 115Z"/><path transform="translate(231.2,0) scale(0.01600,-0.01600)" d="M270 601Q270 591 261.0 583.0Q252 575 242 575Q218 575 188.5 604.0Q159 633 159.0 653.0Q159 673 175.0 691.0Q191 709 207.5 709.0Q224 709 247.0 668.5Q270 628 270 601ZM154 511Q173 511 190.0 488.0Q207 465 207.0 443.0Q207 421 178.0 311.5Q149 202 105 66Q88 16 62 16Q48 16 38.0 27.5Q28 39 28.0 53.5Q28 68 35.5 99.5Q43 131 57.5 183.5Q72 236 80.5 269.0Q89 302 98.0 343.5Q107 385 112.5 410.5Q118 436 125 462Q139 511 154 511Z"/><path transform="translate(235.0,0) scale(0.01600,-0.01600)" d="M333 341Q333 375 322.0 405.5Q311 436 290 450Q221 431 171.5 343.5Q122 256 122.0 179.0Q122 102 160 83Q232 97 282.5 181.5Q333 266 333 341ZM155 15Q104 15 70.0 62.0Q36 109 36.0 181.5Q36 254 70.5 332.0Q105 410 161.5 460.5Q218 511 277.5 511.0Q337 511 377.0 460.5Q417 410 417.0 337.5Q417 265 382.0 189.5Q347 114 285.5 64.5Q224 15 155 15Z"/><path transform="translate(242.2,0) scale(0.01600,-0.01600)" d="M492 383Q492 311 459 207Q399 15 351 15Q329 15 329 45Q329 66 350.5 130.5Q372 195 390.5 257.5Q409 320 409.0 351.5Q409 383 399.5 398.0Q390 413 380.5 413.0Q371 413 361.0 407.0Q351 401 338.5 387.0Q326 373 315.0 359.5Q304 346 287.5 321.0Q271 296 260.0 278.5Q249 261 228.0 228.0Q207 195 196.0 178.0Q185 161 167.0 132.0Q149 103 138.5 87.0Q128 71 115 52Q90 15 75.5 15.0Q61 15 42.0 37.5Q23 60 23 77Q23 82 30 104Q49 162 72.0 247.5Q95 333 97 442Q100 515 118 515Q140 515 162.0 492.0Q184 469 184.0 441.5Q184 414 167.5 335.5Q151 257 129 189Q225 352 285.5 431.5Q346 511 384.5 511.0Q423 511 457.5 470.0Q492 429 492 383Z"/><path transform="translate(250.7,0) scale(0.01600,-0.01600)" d="M317 511Q351 511 381.0 473.5Q411 436 411 408Q411 391 395 391Q384 391 361.0 408.5Q338 426 314.0 426.0Q290 426 238.5 398.0Q187 370 187 339Q187 316 279 260Q314 238 342.5 203.5Q371 169 371.0 129.5Q371 90 316.5 52.5Q262 15 189.5 15.0Q117 15 61.5 50.0Q6 85 6 116Q6 129 12.5 136.5Q19 144 29.0 144.0Q39 144 57 131Q111 92 169.5 92.0Q228 92 254.0 105.5Q280 119 280.0 141.5Q280 164 251.0 189.5Q222 215 187.5 235.0Q153 255 124.0 284.0Q95 313 95 343Q95 396 178.5 453.5Q262 511 317 511Z"/><path transform="translate(264.0,0) scale(0.01600,-0.01600)" d="M317 511Q351 511 381.0 473.5Q411 436 411 408Q411 391 395 391Q384 391 361.0 408.5Q338 426 314.0 426.0Q290 426 238.5 398.0Q187 370 187 339Q187 316 279 260Q314 238 342.5 203.5Q371 169 371.0 129.5Q371 90 316.5 52.5Q262 15 189.5 15.0Q117 15 61.5 50.0Q6 85 6 116Q6 129 12.5 136.5Q19 144 29.0 144.0Q39 144 57 131Q111 92 169.5 92.0Q228 92 254.0 105.5Q280 119 280.0 141.5Q280 164 251.0 189.5Q222 215 187.5 235.0Q153 255 124.0 284.0Q95 313 95 343Q95 396 178.5 453.5Q262 511 317 511Z"/><path transform="translate(270.8,0) scale(0.01600,-0.01600)" d="M143 115Q143 96 165 96Q203 96 257.5 117.5Q312 139 318 139Q336 139 336 120Q336 91 276.5 53.0Q217 15 168.5 15.0Q120 15 88.0 41.5Q56 68 56.0 96.0Q56 124 68.0 167.5Q80 211 102.5 282.5Q125 354 138 401Q91 390 75.0 390.0Q59 390 43.5 406.5Q28 423 28 438Q28 462 158 484Q176 567 176 631Q176 661 196 661Q213 661 238.0 639.5Q263 618 263.0 591.0Q263 564 246 496Q303 501 337 501Q397 501 397 475Q397 460 364.5 450.0Q332 440 228 419Q207 340 175.0 238.5Q143 137 143 115Z"/><path transform="translate(277.0,0) scale(0.01600,-0.01600)" d="M333 341Q333 375 322.0 405.5Q311 436 290 450Q221 431 171.5 343.5Q122 256 122.0 179.0Q122 102 160 83Q232 97 282.5 181.5Q333 266 333 341ZM155 15Q104 15 70.0 62.0Q36 109 36.0 181.5Q36 254 70.5 332.0Q105 410 161.5 460.5Q218 511 277.5 511.0Q337 511 377.0 460.5Q417 410 417.0 337.5Q417 265 382.0 189.5Q347 114 285.5 64.5Q224 15 155 15Z"/><path transform="translate(284.2,0) scale(0.01600,-0.01600)" d="M91 389 88 464Q88 511 110 511Q129 511 146.5 486.5Q164 462 164.0 428.5Q164 395 162 378Q249 510 327 510Q376 510 376 486Q376 474 365.0 464.0Q354 454 330 441Q277 418 240.5 370.5Q204 323 181.0 263.0Q158 203 144.5 162.0Q131 121 124.0 98.0Q117 75 108 53Q92 13 71 13Q54 13 43.5 32.5Q33 52 33.0 70.5Q33 89 50 144Q91 270 91 389Z"/><path transform="translate(289.5,0) scale(0.01600,-0.01600)" d="M475 435Q475 415 434.0 299.0Q393 183 378.5 141.5Q364 100 339.5 31.5Q315 -37 292 -102Q242 -245 142 -245Q85 -245 33.0 -210.5Q-19 -176 -19 -139Q-19 -125 -6.5 -108.0Q6 -91 15.0 -91.0Q24 -91 44 -113Q102 -179 143 -179Q174 -179 199.0 -124.5Q224 -70 246.5 -1.5Q269 67 271.5 74.0Q274 81 277.5 92.0Q281 103 284 112Q213 15 144 15Q102 15 66.5 54.0Q31 93 31.0 146.0Q31 199 57.0 289.0Q83 379 118.0 445.0Q153 511 175 511Q193 511 208.5 494.5Q224 478 224.0 461.0Q224 444 198 390Q117 224 117 132Q117 116 127.0 105.5Q137 95 151 95Q187 95 237.0 159.0Q287 223 329 311Q364 385 402 500Q406 511 422.0 511.0Q438 511 456.5 487.5Q475 464 475 435Z"/></g><ellipse cx="250" cy="238" rx="52" ry="40" fill="none" stroke="#35517d" stroke-width="2.2" filter="url(#r)"/><g fill="#35517d" transform="translate(209.7,243)"><path transform="translate(0.0,0) scale(0.01600,-0.01600)" d="M179 230Q179 187 191.0 160.5Q203 134 221 134Q263 134 321.0 185.5Q379 237 422.0 315.5Q465 394 465.0 466.0Q465 538 447.0 577.0Q429 616 397.0 616.0Q365 616 313.5 558.5Q262 501 220.5 408.0Q179 315 179 230ZM222 13Q148 13 90.0 85.5Q32 158 32 230Q32 322 67.0 418.5Q102 515 154.5 585.5Q207 656 270.0 701.5Q333 747 386 747Q483 747 545.0 664.5Q607 582 607.0 479.0Q607 376 555.0 270.5Q503 165 411.5 89.0Q320 13 222 13Z"/><path transform="translate(9.9,0) scale(0.01600,-0.01600)" d="M413 527Q459 527 500.5 476.0Q542 425 542.0 379.0Q542 333 521.0 271.0Q500 209 465.0 151.0Q430 93 377.0 53.0Q324 13 266.5 13.0Q209 13 136 68Q116 12 103 12Q82 12 50.0 47.0Q18 82 18.0 104.0Q18 126 51 248Q150 614 150 778Q150 808 179 808Q202 808 241.0 764.5Q280 721 280 683Q280 594 229 406Q343 527 413 527ZM251 128Q306 128 363.5 214.0Q421 300 421 383Q421 389 418.5 390.5Q416 392 405 392Q350 392 287.5 326.0Q225 260 177 161Q219 128 251 128Z"/><path transform="translate(19.0,0) scale(0.01600,-0.01600)" d="M344 527Q382 527 419.0 482.0Q456 437 456 401Q456 377 435 377Q423 377 400.0 386.5Q377 396 353.5 396.0Q330 396 284.5 380.0Q239 364 239 338Q239 328 266.0 309.0Q293 290 325.0 270.0Q357 250 384.0 214.5Q411 179 411.0 137.5Q411 96 350.5 54.0Q290 12 208.5 12.0Q127 12 69.0 49.0Q11 86 11.0 125.0Q11 164 43 164Q56 164 74 154Q124 125 198.5 125.0Q273 125 273.0 145.0Q273 165 244.5 189.5Q216 214 182.5 235.0Q149 256 120.5 286.5Q92 317 92 346Q92 400 190.0 463.5Q288 527 344 527Z"/><path transform="translate(26.4,0) scale(0.01600,-0.01600)" d="M155 224Q146 197 146.0 170.0Q146 143 155.0 131.5Q164 120 200 120Q275 120 328.5 134.0Q382 148 384 148Q425 148 425 121Q425 82 360.5 47.0Q296 12 211.5 12.0Q127 12 76.0 65.0Q25 118 25.0 190.5Q25 263 67.5 342.0Q110 421 174.0 474.5Q238 528 301.5 528.0Q365 528 419.0 465.5Q473 403 473 341Q473 292 406.5 253.0Q340 214 270.0 214.0Q200 214 155 224ZM194 310Q203 309 220 309Q357 309 357 357Q357 367 336.0 386.0Q315 405 296.5 405.0Q278 405 249.0 378.5Q220 352 194 310Z"/><path transform="translate(34.3,0) scale(0.01600,-0.01600)" d="M80 359 74 472Q74 528 109 528Q129 528 148.5 513.0Q168 498 178 466Q212 496 252.5 514.5Q293 533 324 533Q397 533 397 498Q397 480 390.5 471.5Q384 463 380.5 459.0Q377 455 368.5 448.5Q360 442 356 439Q333 424 323 418Q278 390 246.0 350.5Q214 311 198 241Q171 126 145.5 69.5Q120 13 88.5 13.0Q57 13 41.5 43.0Q26 73 26.0 99.5Q26 126 45.5 179.0Q65 232 72.5 270.5Q80 309 80 359Z"/><path transform="translate(40.0,0) scale(0.01600,-0.01600)" d="M375 528Q401 528 425.5 509.5Q450 491 450 471Q450 435 390.5 304.0Q331 173 280.5 93.0Q230 13 202 13Q187 13 158.5 33.0Q130 53 122 73Q98 131 64.0 287.5Q30 444 30.0 486.0Q30 528 58 528Q92 528 128 501Q188 455 195 378Q198 342 200.0 289.5Q202 237 209 199Q233 245 268.0 335.5Q303 426 328.5 477.0Q354 528 375 528Z"/><path transform="translate(46.8,0) scale(0.01600,-0.01600)" d="M155 224Q146 197 146.0 170.0Q146 143 155.0 131.5Q164 120 200 120Q275 120 328.5 134.0Q382 148 384 148Q425 148 425 121Q425 82 360.5 47.0Q296 12 211.5 12.0Q127 12 76.0 65.0Q25 118 25.0 190.5Q25 263 67.5 342.0Q110 421 174.0 474.5Q238 528 301.5 528.0Q365 528 419.0 465.5Q473 403 473 341Q473 292 406.5 253.0Q340 214 270.0 214.0Q200 214 155 224ZM194 310Q203 309 220 309Q357 309 357 357Q357 367 336.0 386.0Q315 405 296.5 405.0Q278 405 249.0 378.5Q220 352 194 310Z"/><path transform="translate(54.6,0) scale(0.01600,-0.01600)" d="M179 230Q179 187 191.0 160.5Q203 134 221 134Q263 134 321.0 185.5Q379 237 422.0 315.5Q465 394 465.0 466.0Q465 538 447.0 577.0Q429 616 397.0 616.0Q365 616 313.5 558.5Q262 501 220.5 408.0Q179 315 179 230ZM222 13Q148 13 90.0 85.5Q32 158 32 230Q32 322 67.0 418.5Q102 515 154.5 585.5Q207 656 270.0 701.5Q333 747 386 747Q483 747 545.0 664.5Q607 582 607.0 479.0Q607 376 555.0 270.5Q503 165 411.5 89.0Q320 13 222 13Z"/><path transform="translate(64.5,0) scale(0.01600,-0.01600)" d="M388 527Q425 527 467.5 461.0Q510 395 510 329Q510 289 476.0 234.0Q442 179 390.5 130.5Q339 82 271.5 48.0Q204 14 143 14H131Q68 -248 42 -248Q21 -248 -2.5 -213.0Q-26 -178 -26.0 -155.0Q-26 -132 3 -14Q89 336 89 514Q89 544 118 544Q142 544 179.0 517.0Q216 490 225 447Q310 527 388 527ZM350 394Q308 394 261 346Q242 326 219.0 287.0Q196 248 179 196L162 133Q240 148 309.5 219.0Q379 290 379.0 342.0Q379 394 350 394Z"/><path transform="translate(73.1,0) scale(0.01600,-0.01600)" d="M344 527Q382 527 419.0 482.0Q456 437 456 401Q456 377 435 377Q423 377 400.0 386.5Q377 396 353.5 396.0Q330 396 284.5 380.0Q239 364 239 338Q239 328 266.0 309.0Q293 290 325.0 270.0Q357 250 384.0 214.5Q411 179 411.0 137.5Q411 96 350.5 54.0Q290 12 208.5 12.0Q127 12 69.0 49.0Q11 86 11.0 125.0Q11 164 43 164Q56 164 74 154Q124 125 198.5 125.0Q273 125 273.0 145.0Q273 165 244.5 189.5Q216 214 182.5 235.0Q149 256 120.5 286.5Q92 317 92 346Q92 400 190.0 463.5Q288 527 344 527Z"/></g><ellipse cx="575" cy="238" rx="50" ry="40" fill="none" stroke="#4f7a3f" stroke-width="2.2" filter="url(#r)"/><g fill="#4f7a3f" transform="translate(537.5,243)"><path transform="translate(0.0,0) scale(0.01600,-0.01600)" d="M499 220Q499 135 418.0 74.0Q337 13 233.0 13.0Q129 13 65.5 64.5Q2 116 2.0 171.0Q2 226 33 226Q57 226 83.0 202.0Q109 178 141.5 154.0Q174 130 215.0 130.0Q256 130 308.0 164.0Q360 198 360.0 221.0Q360 244 303.5 298.0Q247 352 190.5 409.5Q134 467 134.0 498.5Q134 530 145.5 567.0Q157 604 174 618Q228 671 313.5 709.5Q399 748 464 748Q502 748 527.0 715.5Q552 683 552 648Q552 634 529.5 625.5Q507 617 464.5 608.0Q422 599 378 582Q276 544 276 518Q276 506 311.0 474.5Q346 443 387.5 408.5Q429 374 464.0 321.5Q499 269 499 220Z"/><path transform="translate(8.8,0) scale(0.01600,-0.01600)" d="M155 224Q146 197 146.0 170.0Q146 143 155.0 131.5Q164 120 200 120Q275 120 328.5 134.0Q382 148 384 148Q425 148 425 121Q425 82 360.5 47.0Q296 12 211.5 12.0Q127 12 76.0 65.0Q25 118 25.0 190.5Q25 263 67.5 342.0Q110 421 174.0 474.5Q238 528 301.5 528.0Q365 528 419.0 465.5Q473 403 473 341Q473 292 406.5 253.0Q340 214 270.0 214.0Q200 214 155 224ZM194 310Q203 309 220 309Q357 309 357 357Q357 367 336.0 386.0Q315 405 296.5 405.0Q278 405 249.0 378.5Q220 352 194 310Z"/><path transform="translate(16.6,0) scale(0.01600,-0.01600)" d="M80 359 74 472Q74 528 109 528Q129 528 148.5 513.0Q168 498 178 466Q212 496 252.5 514.5Q293 533 324 533Q397 533 397 498Q397 480 390.5 471.5Q384 463 380.5 459.0Q377 455 368.5 448.5Q360 442 356 439Q333 424 323 418Q278 390 246.0 350.5Q214 311 198 241Q171 126 145.5 69.5Q120 13 88.5 13.0Q57 13 41.5 43.0Q26 73 26.0 99.5Q26 126 45.5 179.0Q65 232 72.5 270.5Q80 309 80 359Z"/><path transform="translate(22.4,0) scale(0.01600,-0.01600)" d="M375 528Q401 528 425.5 509.5Q450 491 450 471Q450 435 390.5 304.0Q331 173 280.5 93.0Q230 13 202 13Q187 13 158.5 33.0Q130 53 122 73Q98 131 64.0 287.5Q30 444 30.0 486.0Q30 528 58 528Q92 528 128 501Q188 455 195 378Q198 342 200.0 289.5Q202 237 209 199Q233 245 268.0 335.5Q303 426 328.5 477.0Q354 528 375 528Z"/><path transform="translate(29.2,0) scale(0.01600,-0.01600)" d="M228 551Q199 551 161.0 589.0Q123 627 123.0 653.0Q123 679 146.5 706.5Q170 734 192.5 734.0Q215 734 246.0 680.0Q277 626 277.0 601.5Q277 577 261.0 564.0Q245 551 228 551ZM138 528Q173 528 200.5 488.0Q228 448 228 411Q228 392 193.5 274.5Q159 157 125 52Q113 13 76 13Q54 13 37.5 29.5Q21 46 21.0 72.5Q21 99 46.5 204.5Q72 310 85.5 384.5Q99 459 110.5 493.5Q122 528 138 528Z"/><path transform="translate(33.3,0) scale(0.01600,-0.01600)" d="M25 169Q25 239 69.0 323.0Q113 407 184.5 467.0Q256 527 325 527Q360 527 397.0 481.5Q434 436 434 400Q434 374 410 374Q398 374 377.0 385.0Q356 396 334.0 396.0Q312 396 271.5 358.5Q231 321 199.5 268.5Q168 216 168.0 186.0Q168 156 179.5 147.0Q191 138 235.5 138.0Q280 138 316.5 146.0Q353 154 370.5 162.5Q388 171 402 171Q430 171 430 147Q430 103 353.0 57.5Q276 12 199 12Q150 12 87.5 66.5Q25 121 25 169Z"/><path transform="translate(41.2,0) scale(0.01600,-0.01600)" d="M155 224Q146 197 146.0 170.0Q146 143 155.0 131.5Q164 120 200 120Q275 120 328.5 134.0Q382 148 384 148Q425 148 425 121Q425 82 360.5 47.0Q296 12 211.5 12.0Q127 12 76.0 65.0Q25 118 25.0 190.5Q25 263 67.5 342.0Q110 421 174.0 474.5Q238 528 301.5 528.0Q365 528 419.0 465.5Q473 403 473 341Q473 292 406.5 253.0Q340 214 270.0 214.0Q200 214 155 224ZM194 310Q203 309 220 309Q357 309 357 357Q357 367 336.0 386.0Q315 405 296.5 405.0Q278 405 249.0 378.5Q220 352 194 310Z"/><path transform="translate(49.0,0) scale(0.01600,-0.01600)" d="M179 230Q179 187 191.0 160.5Q203 134 221 134Q263 134 321.0 185.5Q379 237 422.0 315.5Q465 394 465.0 466.0Q465 538 447.0 577.0Q429 616 397.0 616.0Q365 616 313.5 558.5Q262 501 220.5 408.0Q179 315 179 230ZM222 13Q148 13 90.0 85.5Q32 158 32 230Q32 322 67.0 418.5Q102 515 154.5 585.5Q207 656 270.0 701.5Q333 747 386 747Q483 747 545.0 664.5Q607 582 607.0 479.0Q607 376 555.0 270.5Q503 165 411.5 89.0Q320 13 222 13Z"/><path transform="translate(58.9,0) scale(0.01600,-0.01600)" d="M388 527Q425 527 467.5 461.0Q510 395 510 329Q510 289 476.0 234.0Q442 179 390.5 130.5Q339 82 271.5 48.0Q204 14 143 14H131Q68 -248 42 -248Q21 -248 -2.5 -213.0Q-26 -178 -26.0 -155.0Q-26 -132 3 -14Q89 336 89 514Q89 544 118 544Q142 544 179.0 517.0Q216 490 225 447Q310 527 388 527ZM350 394Q308 394 261 346Q242 326 219.0 287.0Q196 248 179 196L162 133Q240 148 309.5 219.0Q379 290 379.0 342.0Q379 394 350 394Z"/><path transform="translate(67.5,0) scale(0.01600,-0.01600)" d="M344 527Q382 527 419.0 482.0Q456 437 456 401Q456 377 435 377Q423 377 400.0 386.5Q377 396 353.5 396.0Q330 396 284.5 380.0Q239 364 239 338Q239 328 266.0 309.0Q293 290 325.0 270.0Q357 250 384.0 214.5Q411 179 411.0 137.5Q411 96 350.5 54.0Q290 12 208.5 12.0Q127 12 69.0 49.0Q11 86 11.0 125.0Q11 164 43 164Q56 164 74 154Q124 125 198.5 125.0Q273 125 273.0 145.0Q273 165 244.5 189.5Q216 214 182.5 235.0Q149 256 120.5 286.5Q92 317 92 346Q92 400 190.0 463.5Q288 527 344 527Z"/></g><path d="M302.0,238.0 L525.0,238.0" stroke="#8d8470" stroke-width="1.2" fill="none" stroke-dasharray="4 6" filter="url(#r2)"/><path d="M95.0,116.0 L220.0,230.0" stroke="#35517d" stroke-width="1.1" fill="none" filter="url(#r2)"/><g fill="#2a2620" transform="translate(80.5,120)"><path transform="translate(0.0,0) scale(0.01500,-0.01500)" d="M564 363Q564 344 476 319Q484 215 484 142Q484 16 452 16Q435 16 425.0 37.0Q415 58 409 110Q402 206 394 298Q349 286 312.0 276.5Q275 267 200 246Q112 16 96.0 16.0Q80 16 61.5 35.5Q43 55 43 77Q43 87 100 219H93Q73 219 57.5 232.0Q42 245 42.0 264.5Q42 284 141 316Q157 352 167 381Q190 438 231.0 537.0Q272 636 283.0 663.5Q294 691 321.5 710.5Q349 730 375 730Q406 730 430.5 631.0Q455 532 470 386Q498 389 519 389Q564 389 564 363ZM237 342Q308 361 387 374Q369 545 352 631Q307 528 237 342Z"/><path transform="translate(9.1,0) scale(0.01500,-0.01500)" d="M559 553Q559 445 455.5 370.0Q352 295 182 262Q109 15 95.0 15.0Q81 15 62.0 37.5Q43 60 43.0 82.5Q43 105 72 202Q162 501 166 619Q142 641 142 659Q142 684 210.0 707.0Q278 730 340 730Q436 730 497.5 681.0Q559 632 559 553ZM471 547Q471 591 437.5 619.5Q404 648 357.0 648.0Q310 648 243 618Q253 596 253 577Q253 521 204 340Q324 372 397.5 428.5Q471 485 471 547Z"/><path transform="translate(17.3,0) scale(0.01500,-0.01500)" d="M283 643Q287 607 321.0 515.5Q355 424 399 330Q455 396 540.0 505.5Q625 615 666.0 661.0Q707 707 725.0 707.0Q743 707 763.0 687.0Q783 667 783.0 649.0Q783 631 779.0 608.0Q775 585 765.5 547.5Q756 510 748.5 482.5Q741 455 724.0 397.0Q707 339 698.0 304.5Q689 270 677.0 220.5Q665 171 657.5 139.5Q650 108 642 78Q627 20 613.5 20.0Q600 20 587.0 44.0Q574 68 574.0 108.5Q574 149 608.5 294.0Q643 439 683 548Q499 318 456.5 273.0Q414 228 386.5 228.0Q359 228 335 259Q299 311 238 505Q221 400 200.5 325.5Q180 251 173.5 226.5Q167 202 162.5 186.0Q158 170 152.0 148.5Q146 127 141.5 113.0Q137 99 132.0 82.5Q127 66 123.5 56.0Q120 46 116 37Q108 20 104 20Q92 20 74.0 46.0Q56 72 56.0 96.0Q56 120 120.5 372.0Q185 624 185 688Q185 705 189.5 711.5Q194 718 206.5 718.0Q219 718 250.0 691.0Q281 664 283 643Z"/></g><path d="M78.0,166.0 L220.0,230.0" stroke="#35517d" stroke-width="1.1" fill="none" filter="url(#r2)"/><g fill="#2a2620" transform="translate(63.2,170)"><path transform="translate(0.0,0) scale(0.01500,-0.01500)" d="M100 16Q85 16 66.0 38.0Q47 60 47.0 82.5Q47 105 102.0 299.0Q157 493 165 594Q152 602 142.0 619.0Q132 636 132 649Q132 672 200.0 696.5Q268 721 350.5 721.0Q433 721 493.5 681.5Q554 642 554 570Q554 521 526.5 478.5Q499 436 459.5 409.0Q420 382 381.0 361.0Q342 340 314.5 326.5Q287 313 287 307Q287 285 321.5 250.0Q356 215 370.0 202.0Q384 189 407.0 167.5Q430 146 450.5 129.0Q471 112 483.5 101.0Q496 90 509 78Q534 55 534 41Q534 17 501 17Q441 17 330.0 121.5Q219 226 194 299Q147 143 140.0 118.5Q133 94 124 68Q108 16 100 16ZM251 567Q251 502 209 352Q226 365 274.0 390.5Q322 416 360.5 437.5Q399 459 431.0 495.0Q463 531 463 570Q463 632 355 632Q306 632 241 607Q251 585 251 567Z"/><path transform="translate(8.8,0) scale(0.01500,-0.01500)" d="M477 562Q477 604 472.5 646.0Q468 688 468 698Q468 719 486 719Q509 719 539.0 684.5Q569 650 569 596Q569 442 524.0 307.0Q479 172 403.0 91.5Q327 11 241 11Q178 11 131.5 72.0Q85 133 85.0 212.0Q85 291 127.0 460.5Q169 630 169 689Q169 706 173.0 712.5Q177 719 191.5 719.0Q206 719 230.0 692.5Q254 666 254.0 630.5Q254 595 213.5 437.0Q173 279 173.0 222.5Q173 166 194.0 131.0Q215 96 248.0 96.0Q281 96 321.0 134.0Q361 172 395.5 233.5Q430 295 453.5 383.5Q477 472 477 562Z"/><path transform="translate(17.7,0) scale(0.01500,-0.01500)" d="M283 643Q287 607 321.0 515.5Q355 424 399 330Q455 396 540.0 505.5Q625 615 666.0 661.0Q707 707 725.0 707.0Q743 707 763.0 687.0Q783 667 783.0 649.0Q783 631 779.0 608.0Q775 585 765.5 547.5Q756 510 748.5 482.5Q741 455 724.0 397.0Q707 339 698.0 304.5Q689 270 677.0 220.5Q665 171 657.5 139.5Q650 108 642 78Q627 20 613.5 20.0Q600 20 587.0 44.0Q574 68 574.0 108.5Q574 149 608.5 294.0Q643 439 683 548Q499 318 456.5 273.0Q414 228 386.5 228.0Q359 228 335 259Q299 311 238 505Q221 400 200.5 325.5Q180 251 173.5 226.5Q167 202 162.5 186.0Q158 170 152.0 148.5Q146 127 141.5 113.0Q137 99 132.0 82.5Q127 66 123.5 56.0Q120 46 116 37Q108 20 104 20Q92 20 74.0 46.0Q56 72 56.0 96.0Q56 120 120.5 372.0Q185 624 185 688Q185 705 189.5 711.5Q194 718 206.5 718.0Q219 718 250.0 691.0Q281 664 283 643Z"/></g><path d="M70.0,218.0 L220.0,230.0" stroke="#35517d" stroke-width="1.1" fill="none" filter="url(#r2)"/><g fill="#2a2620" transform="translate(57.3,222)"><path transform="translate(0.0,0) scale(0.01500,-0.01500)" d="M468 214Q468 132 394.0 76.5Q320 21 224.5 21.0Q129 21 67.0 70.5Q5 120 5 164Q5 194 23 194Q39 194 86 146Q104 129 134.5 114.0Q165 99 199 99Q269 99 323.5 135.0Q378 171 378 213Q378 240 342.0 282.0Q306 324 262.5 361.5Q219 399 183.0 442.0Q147 485 147.0 510.0Q147 535 157.0 563.0Q167 591 179 604Q218 647 300.5 683.0Q383 719 439 719Q468 719 488.0 700.0Q508 681 508 660Q508 650 487.0 644.0Q466 638 423.5 628.5Q381 619 348 606Q233 562 233 521Q233 499 350 398Q395 359 431.5 307.5Q468 256 468 214Z"/><path transform="translate(8.0,0) scale(0.01500,-0.01500)" d="M281 647Q281 577 195 293Q152 155 152.0 128.0Q152 101 178 101Q291 101 426 138Q469 150 477.5 150.0Q486 150 489.0 146.5Q492 143 492 133Q492 91 389.5 54.0Q287 17 181 17Q133 17 97.5 45.0Q62 73 62.0 111.5Q62 150 130.5 388.0Q199 626 199 695Q199 711 203.5 718.0Q208 725 222.5 725.0Q237 725 259.0 700.0Q281 675 281 647Z"/><path transform="translate(16.2,0) scale(0.01500,-0.01500)" d="M145 220Q145 165 169.0 130.5Q193 96 225 96Q275 96 340.5 155.0Q406 214 453.0 300.5Q500 387 500.0 464.0Q500 541 470.5 589.0Q441 637 401.0 637.0Q361 637 301.0 575.0Q241 513 193.0 412.5Q145 312 145 220ZM219 17Q153 17 103.5 82.0Q54 147 54 214Q54 305 87.5 399.0Q121 493 171.5 563.0Q222 633 283.0 677.5Q344 722 396 722Q480 722 536.0 645.5Q592 569 592.0 473.0Q592 377 539.0 271.5Q486 166 397.5 91.5Q309 17 219 17Z"/></g><path d="M72.0,270.0 L220.0,230.0" stroke="#35517d" stroke-width="1.1" fill="none" filter="url(#r2)"/><g fill="#2a2620" transform="translate(57.8,274)"><path transform="translate(0.0,0) scale(0.01500,-0.01500)" d="M281 647Q281 577 195 293Q152 155 152.0 128.0Q152 101 178 101Q291 101 426 138Q469 150 477.5 150.0Q486 150 489.0 146.5Q492 143 492 133Q492 91 389.5 54.0Q287 17 181 17Q133 17 97.5 45.0Q62 73 62.0 111.5Q62 150 130.5 388.0Q199 626 199 695Q199 711 203.5 718.0Q208 725 222.5 725.0Q237 725 259.0 700.0Q281 675 281 647Z"/><path transform="translate(8.2,0) scale(0.01500,-0.01500)" d="M333 341Q333 375 322.0 405.5Q311 436 290 450Q221 431 171.5 343.5Q122 256 122.0 179.0Q122 102 160 83Q232 97 282.5 181.5Q333 266 333 341ZM155 15Q104 15 70.0 62.0Q36 109 36.0 181.5Q36 254 70.5 332.0Q105 410 161.5 460.5Q218 511 277.5 511.0Q337 511 377.0 460.5Q417 410 417.0 337.5Q417 265 382.0 189.5Q347 114 285.5 64.5Q224 15 155 15Z"/><path transform="translate(15.0,0) scale(0.01500,-0.01500)" d="M427 285Q427 245 392 194Q365 133 334.0 18.5Q303 -96 282 -145Q240 -247 153 -247Q82 -247 33.5 -208.5Q-15 -170 -15 -132Q-15 -116 -5.5 -100.0Q4 -84 14.5 -84.0Q25 -84 38.0 -99.0Q51 -114 62.5 -131.5Q74 -149 97.5 -164.0Q121 -179 143.0 -179.0Q165 -179 176.0 -172.5Q187 -166 197.0 -151.5Q207 -137 214.0 -122.5Q221 -108 229.5 -81.5Q238 -55 243.0 -36.0Q248 -17 257.0 17.5Q266 52 272 73Q194 15 145.0 15.0Q96 15 60.0 54.5Q24 94 24.0 146.5Q24 199 63.5 286.0Q103 373 170.0 442.0Q237 511 301 511Q342 511 370 480Q416 429 416 335Q416 323 415 318Q427 301 427 285ZM105 136Q105 119 116.0 108.5Q127 98 144 98Q194 98 262.0 157.5Q330 217 358 296Q354 309 351.0 336.0Q348 363 345.0 379.0Q342 395 332.0 411.5Q322 428 306 428Q267 428 218.0 372.0Q169 316 137.0 247.0Q105 178 105 136Z"/><path transform="translate(22.1,0) scale(0.01500,-0.01500)" d="M317 511Q351 511 381.0 473.5Q411 436 411 408Q411 391 395 391Q384 391 361.0 408.5Q338 426 314.0 426.0Q290 426 238.5 398.0Q187 370 187 339Q187 316 279 260Q314 238 342.5 203.5Q371 169 371.0 129.5Q371 90 316.5 52.5Q262 15 189.5 15.0Q117 15 61.5 50.0Q6 85 6 116Q6 129 12.5 136.5Q19 144 29.0 144.0Q39 144 57 131Q111 92 169.5 92.0Q228 92 254.0 105.5Q280 119 280.0 141.5Q280 164 251.0 189.5Q222 215 187.5 235.0Q153 255 124.0 284.0Q95 313 95 343Q95 396 178.5 453.5Q262 511 317 511Z"/></g><path d="M86.0,318.0 L220.0,230.0" stroke="#35517d" stroke-width="1.1" fill="none" filter="url(#r2)"/><g fill="#2a2620" transform="translate(60.2,322)"><path transform="translate(0.0,0) scale(0.01500,-0.01500)" d="M562 680Q564 723 582.5 723.0Q601 723 623.0 700.0Q645 677 645 659Q645 577 619.5 426.0Q594 275 551.5 146.0Q509 17 471 17Q458 17 441.5 30.0Q425 43 416 62Q386 132 239 506Q209 390 172.5 243.5Q136 97 124.0 57.0Q112 17 103 17Q90 17 71.5 39.5Q53 62 53.0 86.0Q53 110 118.0 367.5Q183 625 185 689Q185 721 202 721Q213 721 232.5 702.5Q252 684 261 662Q422 244 465 150Q530 322 552 561Q562 671 562 680Z"/><path transform="translate(10.2,0) scale(0.01500,-0.01500)" d="M111 241Q97 197 97.0 162.5Q97 128 118.5 109.0Q140 90 189.5 90.0Q239 90 291.5 107.5Q344 125 349 125Q375 125 375 105Q375 78 314.0 46.5Q253 15 195 15Q117 15 68.0 61.5Q19 108 19.0 179.0Q19 250 57.0 327.5Q95 405 155.0 458.0Q215 511 274.0 511.0Q333 511 381.5 455.0Q430 399 430.0 345.5Q430 292 372.5 258.5Q315 225 242.5 225.0Q170 225 111 241ZM279 432Q242 432 202.0 393.5Q162 355 134 298Q174 289 225.0 289.0Q276 289 314.0 305.5Q352 322 352.0 349.0Q352 376 327.5 404.0Q303 432 279 432Z"/><path transform="translate(16.9,0) scale(0.01500,-0.01500)" d="M143 115Q143 96 165 96Q203 96 257.5 117.5Q312 139 318 139Q336 139 336 120Q336 91 276.5 53.0Q217 15 168.5 15.0Q120 15 88.0 41.5Q56 68 56.0 96.0Q56 124 68.0 167.5Q80 211 102.5 282.5Q125 354 138 401Q91 390 75.0 390.0Q59 390 43.5 406.5Q28 423 28 438Q28 462 158 484Q176 567 176 631Q176 661 196 661Q213 661 238.0 639.5Q263 618 263.0 591.0Q263 564 246 496Q303 501 337 501Q397 501 397 475Q397 460 364.5 450.0Q332 440 228 419Q207 340 175.0 238.5Q143 137 143 115Z"/><path transform="translate(22.7,0) scale(0.01500,-0.01500)" d="M433 405 426 217Q426 139 433 104Q476 149 507.5 209.5Q539 270 554.5 322.0Q570 374 581.5 419.5Q593 465 603.0 492.0Q613 519 626 519Q645 519 660.0 503.5Q675 488 675 468Q675 417 629 300Q590 192 527.0 102.5Q464 13 429.0 13.0Q394 13 376.5 52.0Q359 91 357.0 201.5Q355 312 360 393Q291 205 238.0 109.0Q185 13 154 13Q140 13 124.5 26.0Q109 39 100 60Q78 113 62.5 262.5Q47 412 47 476Q47 517 72 517Q94 517 112.5 492.0Q131 467 134.0 442.5Q137 418 139.5 306.5Q142 195 158 108Q199 179 240.5 286.0Q282 393 308.5 454.0Q335 515 357 515Q390 515 411.5 484.5Q433 454 433 405Z"/><path transform="translate(32.8,0) scale(0.01500,-0.01500)" d="M333 341Q333 375 322.0 405.5Q311 436 290 450Q221 431 171.5 343.5Q122 256 122.0 179.0Q122 102 160 83Q232 97 282.5 181.5Q333 266 333 341ZM155 15Q104 15 70.0 62.0Q36 109 36.0 181.5Q36 254 70.5 332.0Q105 410 161.5 460.5Q218 511 277.5 511.0Q337 511 377.0 460.5Q417 410 417.0 337.5Q417 265 382.0 189.5Q347 114 285.5 64.5Q224 15 155 15Z"/><path transform="translate(39.6,0) scale(0.01500,-0.01500)" d="M91 389 88 464Q88 511 110 511Q129 511 146.5 486.5Q164 462 164.0 428.5Q164 395 162 378Q249 510 327 510Q376 510 376 486Q376 474 365.0 464.0Q354 454 330 441Q277 418 240.5 370.5Q204 323 181.0 263.0Q158 203 144.5 162.0Q131 121 124.0 98.0Q117 75 108 53Q92 13 71 13Q54 13 43.5 32.5Q33 52 33.0 70.5Q33 89 50 144Q91 270 91 389Z"/><path transform="translate(44.6,0) scale(0.01500,-0.01500)" d="M473 457Q473 448 384 363Q351 331 323.5 287.5Q296 244 296.0 208.0Q296 172 317.5 141.5Q339 111 364.5 95.5Q390 80 411.5 65.0Q433 50 433 40Q433 15 393.5 15.0Q354 15 299.5 59.5Q245 104 232 159Q227 169 224 178Q156 86 125.5 50.5Q95 15 80.0 15.0Q65 15 47.0 38.5Q29 62 29.0 77.5Q29 93 61.5 206.5Q94 320 126.5 479.0Q159 638 159 763Q159 779 163.5 785.0Q168 791 183.0 791.0Q198 791 220.0 761.5Q242 732 242 704Q242 615 206.0 455.0Q170 295 120 151Q233 312 315.5 411.5Q398 511 417.5 511.0Q437 511 455.0 492.0Q473 473 473 457Z"/></g><path d="M110.0,362.0 L220.0,230.0" stroke="#35517d" stroke-width="1.1" fill="none" filter="url(#r2)"/><g fill="#2a2620" transform="translate(90.0,366)"><path transform="translate(0.0,0) scale(0.01500,-0.01500)" d="M562 680Q564 723 582.5 723.0Q601 723 623.0 700.0Q645 677 645 659Q645 577 619.5 426.0Q594 275 551.5 146.0Q509 17 471 17Q458 17 441.5 30.0Q425 43 416 62Q386 132 239 506Q209 390 172.5 243.5Q136 97 124.0 57.0Q112 17 103 17Q90 17 71.5 39.5Q53 62 53.0 86.0Q53 110 118.0 367.5Q183 625 185 689Q185 721 202 721Q213 721 232.5 702.5Q252 684 261 662Q422 244 465 150Q530 322 552 561Q562 671 562 680Z"/><path transform="translate(10.2,0) scale(0.01500,-0.01500)" d="M470 718Q496 718 523.5 685.0Q551 652 551.0 630.5Q551 609 543.5 609.0Q536 609 515.0 616.5Q494 624 477 624Q438 624 382.5 584.0Q327 544 277.5 485.0Q228 426 193.0 350.5Q158 275 158.0 220.0Q158 165 186.5 139.5Q215 114 261.0 114.0Q307 114 356.0 127.5Q405 141 436 158Q516 201 524 201Q541 201 541.0 178.5Q541 156 495.0 118.5Q449 81 381.0 51.0Q313 21 259 21Q189 21 127.0 81.5Q65 142 65 215Q65 309 126.5 427.5Q188 546 284.5 632.0Q381 718 470 718Z"/><path transform="translate(19.1,0) scale(0.01500,-0.01500)" d="M470 718Q496 718 523.5 685.0Q551 652 551.0 630.5Q551 609 543.5 609.0Q536 609 515.0 616.5Q494 624 477 624Q438 624 382.5 584.0Q327 544 277.5 485.0Q228 426 193.0 350.5Q158 275 158.0 220.0Q158 165 186.5 139.5Q215 114 261.0 114.0Q307 114 356.0 127.5Q405 141 436 158Q516 201 524 201Q541 201 541.0 178.5Q541 156 495.0 118.5Q449 81 381.0 51.0Q313 21 259 21Q189 21 127.0 81.5Q65 142 65 215Q65 309 126.5 427.5Q188 546 284.5 632.0Q381 718 470 718Z"/><path transform="translate(28.1,0) scale(0.01500,-0.01500)" d="M283 643Q287 607 321.0 515.5Q355 424 399 330Q455 396 540.0 505.5Q625 615 666.0 661.0Q707 707 725.0 707.0Q743 707 763.0 687.0Q783 667 783.0 649.0Q783 631 779.0 608.0Q775 585 765.5 547.5Q756 510 748.5 482.5Q741 455 724.0 397.0Q707 339 698.0 304.5Q689 270 677.0 220.5Q665 171 657.5 139.5Q650 108 642 78Q627 20 613.5 20.0Q600 20 587.0 44.0Q574 68 574.0 108.5Q574 149 608.5 294.0Q643 439 683 548Q499 318 456.5 273.0Q414 228 386.5 228.0Q359 228 335 259Q299 311 238 505Q221 400 200.5 325.5Q180 251 173.5 226.5Q167 202 162.5 186.0Q158 170 152.0 148.5Q146 127 141.5 113.0Q137 99 132.0 82.5Q127 66 123.5 56.0Q120 46 116 37Q108 20 104 20Q92 20 74.0 46.0Q56 72 56.0 96.0Q56 120 120.5 372.0Q185 624 185 688Q185 705 189.5 711.5Q194 718 206.5 718.0Q219 718 250.0 691.0Q281 664 283 643Z"/></g><path d="M150.0,400.0 L220.0,230.0" stroke="#35517d" stroke-width="1.1" fill="none" filter="url(#r2)"/><g fill="#2a2620" transform="translate(111.4,404)"><path transform="translate(0.0,0) scale(0.01500,-0.01500)" d="M120 17Q108 17 87.0 43.5Q66 70 66.0 94.0Q66 118 110 290Q97 295 87.5 307.5Q78 320 78 336Q78 349 130 365Q197 627 197 690Q197 707 201.5 713.5Q206 720 219.5 720.0Q233 720 255.5 689.0Q278 658 278.0 619.5Q278 581 229 388Q361 415 488 423Q539 631 539 690Q539 720 559 720Q576 720 599.0 689.0Q622 658 622.0 624.5Q622 591 577 421Q623 414 623.0 393.5Q623 373 561 360Q529 242 517.5 196.5Q506 151 499.0 124.0Q492 97 484 70Q470 17 459 17Q445 17 426.5 40.5Q408 64 408.0 89.0Q408 114 468 346Q322 326 205 300Q191 248 178.5 199.5Q166 151 159.0 124.0Q152 97 144 70Q130 17 120 17Z"/><path transform="translate(10.0,0) scale(0.01500,-0.01500)" d="M475 435Q475 415 434.0 299.0Q393 183 378.5 141.5Q364 100 339.5 31.5Q315 -37 292 -102Q242 -245 142 -245Q85 -245 33.0 -210.5Q-19 -176 -19 -139Q-19 -125 -6.5 -108.0Q6 -91 15.0 -91.0Q24 -91 44 -113Q102 -179 143 -179Q174 -179 199.0 -124.5Q224 -70 246.5 -1.5Q269 67 271.5 74.0Q274 81 277.5 92.0Q281 103 284 112Q213 15 144 15Q102 15 66.5 54.0Q31 93 31.0 146.0Q31 199 57.0 289.0Q83 379 118.0 445.0Q153 511 175 511Q193 511 208.5 494.5Q224 478 224.0 461.0Q224 444 198 390Q117 224 117 132Q117 116 127.0 105.5Q137 95 151 95Q187 95 237.0 159.0Q287 223 329 311Q364 385 402 500Q406 511 422.0 511.0Q438 511 456.5 487.5Q475 464 475 435Z"/><path transform="translate(17.1,0) scale(0.01500,-0.01500)" d="M74 15Q60 15 41.0 36.5Q22 58 22.0 77.0Q22 96 53.5 207.0Q85 318 116.5 474.5Q148 631 148 761Q148 791 170 791Q186 791 209.0 761.5Q232 732 232 704Q232 581 178 353Q297 514 394 514Q441 514 473.5 468.0Q506 422 506.0 358.5Q506 295 469.5 213.0Q433 131 371.0 72.5Q309 14 241.0 14.0Q173 14 107 83L106 82Q84 15 74 15ZM233 92Q298 92 360.5 180.5Q423 269 423 367Q423 426 387 426Q329 426 257.5 345.0Q186 264 134 152Q181 92 233 92Z"/><path transform="translate(25.0,0) scale(0.01500,-0.01500)" d="M91 389 88 464Q88 511 110 511Q129 511 146.5 486.5Q164 462 164.0 428.5Q164 395 162 378Q249 510 327 510Q376 510 376 486Q376 474 365.0 464.0Q354 454 330 441Q277 418 240.5 370.5Q204 323 181.0 263.0Q158 203 144.5 162.0Q131 121 124.0 98.0Q117 75 108 53Q92 13 71 13Q54 13 43.5 32.5Q33 52 33.0 70.5Q33 89 50 144Q91 270 91 389Z"/><path transform="translate(29.9,0) scale(0.01500,-0.01500)" d="M270 601Q270 591 261.0 583.0Q252 575 242 575Q218 575 188.5 604.0Q159 633 159.0 653.0Q159 673 175.0 691.0Q191 709 207.5 709.0Q224 709 247.0 668.5Q270 628 270 601ZM154 511Q173 511 190.0 488.0Q207 465 207.0 443.0Q207 421 178.0 311.5Q149 202 105 66Q88 16 62 16Q48 16 38.0 27.5Q28 39 28.0 53.5Q28 68 35.5 99.5Q43 131 57.5 183.5Q72 236 80.5 269.0Q89 302 98.0 343.5Q107 385 112.5 410.5Q118 436 125 462Q139 511 154 511Z"/><path transform="translate(33.5,0) scale(0.01500,-0.01500)" d="M459 791Q475 791 498.5 761.5Q522 732 522.0 706.0Q522 680 497.0 558.5Q472 437 439 307Q367 15 344 15Q330 15 313.5 32.5Q297 50 297.0 63.0Q297 76 304 115Q206 15 133 15Q89 15 53.5 55.0Q18 95 18 138Q18 200 51.5 285.5Q85 371 148.0 441.0Q211 511 282.0 511.0Q353 511 381 426Q432 638 437 761Q437 791 459 791ZM349 300Q349 354 330.5 391.0Q312 428 286 428Q243 428 198.0 375.0Q153 322 126.5 253.5Q100 185 100 135Q100 117 113.0 106.0Q126 95 144 95Q183 95 249.5 151.0Q316 207 346 283L349 295Z"/><path transform="translate(47.0,0) scale(0.01500,-0.01500)" d="M188 688Q188 705 192.5 711.5Q197 718 211.5 718.0Q226 718 249.5 687.0Q273 656 273.0 620.5Q273 585 201 292Q194 265 182.0 214.5Q170 164 163.0 137.0Q156 110 148 78Q131 19 119.0 19.0Q107 19 87.5 43.0Q68 67 68.0 87.0Q68 107 127.5 366.5Q187 626 188 688Z"/><path transform="translate(51.6,0) scale(0.01500,-0.01500)" d="M492 383Q492 311 459 207Q399 15 351 15Q329 15 329 45Q329 66 350.5 130.5Q372 195 390.5 257.5Q409 320 409.0 351.5Q409 383 399.5 398.0Q390 413 380.5 413.0Q371 413 361.0 407.0Q351 401 338.5 387.0Q326 373 315.0 359.5Q304 346 287.5 321.0Q271 296 260.0 278.5Q249 261 228.0 228.0Q207 195 196.0 178.0Q185 161 167.0 132.0Q149 103 138.5 87.0Q128 71 115 52Q90 15 75.5 15.0Q61 15 42.0 37.5Q23 60 23 77Q23 82 30 104Q49 162 72.0 247.5Q95 333 97 442Q100 515 118 515Q140 515 162.0 492.0Q184 469 184.0 441.5Q184 414 167.5 335.5Q151 257 129 189Q225 352 285.5 431.5Q346 511 384.5 511.0Q423 511 457.5 470.0Q492 429 492 383Z"/><path transform="translate(59.6,0) scale(0.01500,-0.01500)" d="M103 13Q90 13 75.0 32.0Q60 51 60.0 63.0Q60 75 70 110Q120 290 138 367Q95 357 79.0 357.0Q63 357 47.0 371.0Q31 385 31.0 402.0Q31 419 76 432Q134 446 156 450Q166 498 171 524Q195 662 236.0 723.0Q277 784 347 784Q397 784 429.0 744.5Q461 705 461.0 651.5Q461 598 433 598Q409 598 394 652Q389 672 377.0 689.0Q365 706 348.0 706.0Q331 706 317.0 690.5Q303 675 292 646Q263 565 252 498L244 463Q281 468 317.5 468.0Q354 468 370.5 460.0Q387 452 387 440Q387 421 354.0 411.0Q321 401 225 385Q154 97 128 42Q114 13 103 13Z"/><path transform="translate(65.3,0) scale(0.01500,-0.01500)" d="M91 389 88 464Q88 511 110 511Q129 511 146.5 486.5Q164 462 164.0 428.5Q164 395 162 378Q249 510 327 510Q376 510 376 486Q376 474 365.0 464.0Q354 454 330 441Q277 418 240.5 370.5Q204 323 181.0 263.0Q158 203 144.5 162.0Q131 121 124.0 98.0Q117 75 108 53Q92 13 71 13Q54 13 43.5 32.5Q33 52 33.0 70.5Q33 89 50 144Q91 270 91 389Z"/><path transform="translate(70.2,0) scale(0.01500,-0.01500)" d="M393 309Q405 294 405 283Q405 255 392.5 187.0Q380 119 377.5 98.0Q375 77 373.0 64.5Q371 52 368 40Q364 15 350 15Q332 15 320.5 46.5Q309 78 307 128Q218 15 142 15Q96 15 51.5 54.5Q7 94 7 136Q7 196 51.0 284.5Q95 373 165.0 442.0Q235 511 297 511Q342 511 380.0 465.5Q418 420 418.0 383.5Q418 347 393 309ZM343 335Q343 428 306 428Q267 428 215.0 372.5Q163 317 127.0 247.0Q91 177 91 136Q91 119 105.0 108.5Q119 98 138 98Q185 98 244.0 161.5Q303 225 326 316Q329 331 343 334Z"/></g><path d="M712.0,126.0 L605.0,232.0" stroke="#4f7a3f" stroke-width="1.1" fill="none" filter="url(#r2)"/><g fill="#2a2620" transform="translate(669.1,130)"><path transform="translate(0.0,0) scale(0.01500,-0.01500)" d="M468 214Q468 132 394.0 76.5Q320 21 224.5 21.0Q129 21 67.0 70.5Q5 120 5 164Q5 194 23 194Q39 194 86 146Q104 129 134.5 114.0Q165 99 199 99Q269 99 323.5 135.0Q378 171 378 213Q378 240 342.0 282.0Q306 324 262.5 361.5Q219 399 183.0 442.0Q147 485 147.0 510.0Q147 535 157.0 563.0Q167 591 179 604Q218 647 300.5 683.0Q383 719 439 719Q468 719 488.0 700.0Q508 681 508 660Q508 650 487.0 644.0Q466 638 423.5 628.5Q381 619 348 606Q233 562 233 521Q233 499 350 398Q395 359 431.5 307.5Q468 256 468 214Z"/><path transform="translate(8.0,0) scale(0.01500,-0.01500)" d="M111 241Q97 197 97.0 162.5Q97 128 118.5 109.0Q140 90 189.5 90.0Q239 90 291.5 107.5Q344 125 349 125Q375 125 375 105Q375 78 314.0 46.5Q253 15 195 15Q117 15 68.0 61.5Q19 108 19.0 179.0Q19 250 57.0 327.5Q95 405 155.0 458.0Q215 511 274.0 511.0Q333 511 381.5 455.0Q430 399 430.0 345.5Q430 292 372.5 258.5Q315 225 242.5 225.0Q170 225 111 241ZM279 432Q242 432 202.0 393.5Q162 355 134 298Q174 289 225.0 289.0Q276 289 314.0 305.5Q352 322 352.0 349.0Q352 376 327.5 404.0Q303 432 279 432Z"/><path transform="translate(14.7,0) scale(0.01500,-0.01500)" d="M91 389 88 464Q88 511 110 511Q129 511 146.5 486.5Q164 462 164.0 428.5Q164 395 162 378Q249 510 327 510Q376 510 376 486Q376 474 365.0 464.0Q354 454 330 441Q277 418 240.5 370.5Q204 323 181.0 263.0Q158 203 144.5 162.0Q131 121 124.0 98.0Q117 75 108 53Q92 13 71 13Q54 13 43.5 32.5Q33 52 33.0 70.5Q33 89 50 144Q91 270 91 389Z"/><path transform="translate(19.7,0) scale(0.01500,-0.01500)" d="M376 511Q393 511 409.0 498.5Q425 486 425 471Q425 444 352.5 284.0Q280 124 249.5 68.5Q219 13 196 13Q183 13 164.0 32.0Q145 51 136 73Q109 136 78.0 276.0Q47 416 47 481Q47 511 65 511Q87 511 110.0 492.5Q133 474 142 446Q145 430 150 366Q164 208 198 123Q225 181 267.0 287.5Q309 394 335.5 452.5Q362 511 376 511Z"/><path transform="translate(26.0,0) scale(0.01500,-0.01500)" d="M270 601Q270 591 261.0 583.0Q252 575 242 575Q218 575 188.5 604.0Q159 633 159.0 653.0Q159 673 175.0 691.0Q191 709 207.5 709.0Q224 709 247.0 668.5Q270 628 270 601ZM154 511Q173 511 190.0 488.0Q207 465 207.0 443.0Q207 421 178.0 311.5Q149 202 105 66Q88 16 62 16Q48 16 38.0 27.5Q28 39 28.0 53.5Q28 68 35.5 99.5Q43 131 57.5 183.5Q72 236 80.5 269.0Q89 302 98.0 343.5Q107 385 112.5 410.5Q118 436 125 462Q139 511 154 511Z"/><path transform="translate(29.6,0) scale(0.01500,-0.01500)" d="M312 511Q353 511 384.0 474.0Q415 437 415 409Q415 401 410.0 395.5Q405 390 395.5 390.0Q386 390 362.0 408.0Q338 426 319 426Q265 426 193.0 331.0Q121 236 121 165Q121 134 140.5 116.0Q160 98 203.5 98.0Q247 98 283.5 108.5Q320 119 340.0 129.5Q360 140 371 140Q390 140 390 121Q390 92 320.5 53.5Q251 15 192.5 15.0Q134 15 83.0 60.5Q32 106 32.0 168.5Q32 231 74.0 313.0Q116 395 182.5 453.0Q249 511 312 511Z"/><path transform="translate(36.3,0) scale(0.01500,-0.01500)" d="M111 241Q97 197 97.0 162.5Q97 128 118.5 109.0Q140 90 189.5 90.0Q239 90 291.5 107.5Q344 125 349 125Q375 125 375 105Q375 78 314.0 46.5Q253 15 195 15Q117 15 68.0 61.5Q19 108 19.0 179.0Q19 250 57.0 327.5Q95 405 155.0 458.0Q215 511 274.0 511.0Q333 511 381.5 455.0Q430 399 430.0 345.5Q430 292 372.5 258.5Q315 225 242.5 225.0Q170 225 111 241ZM279 432Q242 432 202.0 393.5Q162 355 134 298Q174 289 225.0 289.0Q276 289 314.0 305.5Q352 322 352.0 349.0Q352 376 327.5 404.0Q303 432 279 432Z"/><path transform="translate(49.0,0) scale(0.01500,-0.01500)" d="M283 643Q287 607 321.0 515.5Q355 424 399 330Q455 396 540.0 505.5Q625 615 666.0 661.0Q707 707 725.0 707.0Q743 707 763.0 687.0Q783 667 783.0 649.0Q783 631 779.0 608.0Q775 585 765.5 547.5Q756 510 748.5 482.5Q741 455 724.0 397.0Q707 339 698.0 304.5Q689 270 677.0 220.5Q665 171 657.5 139.5Q650 108 642 78Q627 20 613.5 20.0Q600 20 587.0 44.0Q574 68 574.0 108.5Q574 149 608.5 294.0Q643 439 683 548Q499 318 456.5 273.0Q414 228 386.5 228.0Q359 228 335 259Q299 311 238 505Q221 400 200.5 325.5Q180 251 173.5 226.5Q167 202 162.5 186.0Q158 170 152.0 148.5Q146 127 141.5 113.0Q137 99 132.0 82.5Q127 66 123.5 56.0Q120 46 116 37Q108 20 104 20Q92 20 74.0 46.0Q56 72 56.0 96.0Q56 120 120.5 372.0Q185 624 185 688Q185 705 189.5 711.5Q194 718 206.5 718.0Q219 718 250.0 691.0Q281 664 283 643Z"/><path transform="translate(60.9,0) scale(0.01500,-0.01500)" d="M427 285Q427 245 392 194Q365 133 334.0 18.5Q303 -96 282 -145Q240 -247 153 -247Q82 -247 33.5 -208.5Q-15 -170 -15 -132Q-15 -116 -5.5 -100.0Q4 -84 14.5 -84.0Q25 -84 38.0 -99.0Q51 -114 62.5 -131.5Q74 -149 97.5 -164.0Q121 -179 143.0 -179.0Q165 -179 176.0 -172.5Q187 -166 197.0 -151.5Q207 -137 214.0 -122.5Q221 -108 229.5 -81.5Q238 -55 243.0 -36.0Q248 -17 257.0 17.5Q266 52 272 73Q194 15 145.0 15.0Q96 15 60.0 54.5Q24 94 24.0 146.5Q24 199 63.5 286.0Q103 373 170.0 442.0Q237 511 301 511Q342 511 370 480Q416 429 416 335Q416 323 415 318Q427 301 427 285ZM105 136Q105 119 116.0 108.5Q127 98 144 98Q194 98 262.0 157.5Q330 217 358 296Q354 309 351.0 336.0Q348 363 345.0 379.0Q342 395 332.0 411.5Q322 428 306 428Q267 428 218.0 372.0Q169 316 137.0 247.0Q105 178 105 136Z"/><path transform="translate(68.0,0) scale(0.01500,-0.01500)" d="M678 511Q708 511 731.5 469.5Q755 428 755.0 375.5Q755 323 736.5 239.0Q718 155 687.0 85.0Q656 15 626 15Q605 15 605.0 42.5Q605 70 639.5 177.5Q674 285 674.0 348.5Q674 412 654 412Q629 412 596.5 368.0Q564 324 527.0 262.0Q490 200 487.0 195.5Q484 191 479.5 183.0Q475 175 469.5 166.0Q464 157 441.5 112.0Q419 67 402.0 41.5Q385 16 372.5 16.0Q360 16 345.0 32.0Q330 48 330.0 62.0Q330 76 348 120Q400 250 400 362Q400 383 391.0 397.5Q382 412 371.0 412.0Q360 412 348.0 402.5Q336 393 318.0 368.5Q300 344 286.0 322.0Q272 300 243.5 253.5Q215 207 200.5 184.5Q186 162 167.0 132.5Q148 103 137.5 87.0Q127 71 114 52Q87 15 74.5 15.0Q62 15 42.0 37.5Q22 60 22.0 71.5Q22 83 26.0 100.0Q30 117 34.5 133.0Q39 149 48.5 180.5Q58 212 70.5 254.5Q83 297 89.5 371.5Q96 446 99.0 480.5Q102 515 116 515Q138 515 159.5 492.0Q181 469 181 446Q181 358 115 156Q227 366 256.0 405.0Q285 444 306 468Q345 511 385 511Q409 511 442.5 469.5Q476 428 476.0 386.0Q476 344 464 282Q582 511 678 511Z"/><path transform="translate(79.9,0) scale(0.01500,-0.01500)" d="M143 115Q143 96 165 96Q203 96 257.5 117.5Q312 139 318 139Q336 139 336 120Q336 91 276.5 53.0Q217 15 168.5 15.0Q120 15 88.0 41.5Q56 68 56.0 96.0Q56 124 68.0 167.5Q80 211 102.5 282.5Q125 354 138 401Q91 390 75.0 390.0Q59 390 43.5 406.5Q28 423 28 438Q28 462 158 484Q176 567 176 631Q176 661 196 661Q213 661 238.0 639.5Q263 618 263.0 591.0Q263 564 246 496Q303 501 337 501Q397 501 397 475Q397 460 364.5 450.0Q332 440 228 419Q207 340 175.0 238.5Q143 137 143 115Z"/></g><path d="M740.0,180.0 L605.0,232.0" stroke="#4f7a3f" stroke-width="1.1" fill="none" filter="url(#r2)"/><g fill="#2a2620" transform="translate(694.5,184)"><path transform="translate(0.0,0) scale(0.01500,-0.01500)" d="M188 688Q188 705 192.5 711.5Q197 718 211.5 718.0Q226 718 249.5 687.0Q273 656 273.0 620.5Q273 585 201 292Q194 265 182.0 214.5Q170 164 163.0 137.0Q156 110 148 78Q131 19 119.0 19.0Q107 19 87.5 43.0Q68 67 68.0 87.0Q68 107 127.5 366.5Q187 626 188 688Z"/><path transform="translate(4.6,0) scale(0.01500,-0.01500)" d="M284 632 113 624Q97 624 80.0 645.0Q63 666 63 686Q63 704 120.5 709.0Q178 714 373 714Q474 714 539.5 692.0Q605 670 605 643Q605 624 572.0 624.0Q539 624 480.0 628.0Q421 632 367 633Q370 623 370 611Q370 574 292 267Q284 235 268.0 167.0Q252 99 244 72Q230 19 219 19Q204 19 185.5 41.5Q167 64 167.0 87.0Q167 110 221.0 323.5Q275 537 284 632Z"/><path transform="translate(12.7,0) scale(0.01500,-0.01500)" d="M564 363Q564 344 476 319Q484 215 484 142Q484 16 452 16Q435 16 425.0 37.0Q415 58 409 110Q402 206 394 298Q349 286 312.0 276.5Q275 267 200 246Q112 16 96.0 16.0Q80 16 61.5 35.5Q43 55 43 77Q43 87 100 219H93Q73 219 57.5 232.0Q42 245 42.0 264.5Q42 284 141 316Q157 352 167 381Q190 438 231.0 537.0Q272 636 283.0 663.5Q294 691 321.5 710.5Q349 730 375 730Q406 730 430.5 631.0Q455 532 470 386Q498 389 519 389Q564 389 564 363ZM237 342Q308 361 387 374Q369 545 352 631Q307 528 237 342Z"/><path transform="translate(21.8,0) scale(0.01500,-0.01500)" d="M283 643Q287 607 321.0 515.5Q355 424 399 330Q455 396 540.0 505.5Q625 615 666.0 661.0Q707 707 725.0 707.0Q743 707 763.0 687.0Q783 667 783.0 649.0Q783 631 779.0 608.0Q775 585 765.5 547.5Q756 510 748.5 482.5Q741 455 724.0 397.0Q707 339 698.0 304.5Q689 270 677.0 220.5Q665 171 657.5 139.5Q650 108 642 78Q627 20 613.5 20.0Q600 20 587.0 44.0Q574 68 574.0 108.5Q574 149 608.5 294.0Q643 439 683 548Q499 318 456.5 273.0Q414 228 386.5 228.0Q359 228 335 259Q299 311 238 505Q221 400 200.5 325.5Q180 251 173.5 226.5Q167 202 162.5 186.0Q158 170 152.0 148.5Q146 127 141.5 113.0Q137 99 132.0 82.5Q127 66 123.5 56.0Q120 46 116 37Q108 20 104 20Q92 20 74.0 46.0Q56 72 56.0 96.0Q56 120 120.5 372.0Q185 624 185 688Q185 705 189.5 711.5Q194 718 206.5 718.0Q219 718 250.0 691.0Q281 664 283 643Z"/><path transform="translate(39.6,0) scale(0.01500,-0.01500)" d="M15 -20Q15 35 331 767Q332 770 334.0 774.5Q336 779 337.0 781.5Q338 784 339.5 787.0Q341 790 342.5 791.0Q344 792 346 794Q349 796 358.0 796.0Q367 796 389.5 766.0Q412 736 412.0 713.5Q412 691 386.5 631.5Q361 572 311.5 468.5Q262 365 201.0 217.0Q140 69 106.5 -4.0Q73 -77 61.5 -77.0Q50 -77 32.5 -55.5Q15 -34 15 -20Z"/><path transform="translate(51.0,0) scale(0.01500,-0.01500)" d="M470 718Q496 718 523.5 685.0Q551 652 551.0 630.5Q551 609 543.5 609.0Q536 609 515.0 616.5Q494 624 477 624Q438 624 382.5 584.0Q327 544 277.5 485.0Q228 426 193.0 350.5Q158 275 158.0 220.0Q158 165 186.5 139.5Q215 114 261.0 114.0Q307 114 356.0 127.5Q405 141 436 158Q516 201 524 201Q541 201 541.0 178.5Q541 156 495.0 118.5Q449 81 381.0 51.0Q313 21 259 21Q189 21 127.0 81.5Q65 142 65 215Q65 309 126.5 427.5Q188 546 284.5 632.0Q381 718 470 718Z"/><path transform="translate(60.0,0) scale(0.01500,-0.01500)" d="M283 643Q287 607 321.0 515.5Q355 424 399 330Q455 396 540.0 505.5Q625 615 666.0 661.0Q707 707 725.0 707.0Q743 707 763.0 687.0Q783 667 783.0 649.0Q783 631 779.0 608.0Q775 585 765.5 547.5Q756 510 748.5 482.5Q741 455 724.0 397.0Q707 339 698.0 304.5Q689 270 677.0 220.5Q665 171 657.5 139.5Q650 108 642 78Q627 20 613.5 20.0Q600 20 587.0 44.0Q574 68 574.0 108.5Q574 149 608.5 294.0Q643 439 683 548Q499 318 456.5 273.0Q414 228 386.5 228.0Q359 228 335 259Q299 311 238 505Q221 400 200.5 325.5Q180 251 173.5 226.5Q167 202 162.5 186.0Q158 170 152.0 148.5Q146 127 141.5 113.0Q137 99 132.0 82.5Q127 66 123.5 56.0Q120 46 116 37Q108 20 104 20Q92 20 74.0 46.0Q56 72 56.0 96.0Q56 120 120.5 372.0Q185 624 185 688Q185 705 189.5 711.5Q194 718 206.5 718.0Q219 718 250.0 691.0Q281 664 283 643Z"/><path transform="translate(71.8,0) scale(0.01500,-0.01500)" d="M151 721Q245 721 351.5 672.0Q458 623 535.0 536.5Q612 450 612 357Q612 296 527.5 213.5Q443 131 332.0 72.5Q221 14 148 14Q129 14 104.5 46.5Q80 79 80.0 112.5Q80 146 138.0 354.0Q196 562 201 628Q169 641 150.0 662.0Q131 683 131.0 702.0Q131 721 151 721ZM520 368Q520 430 446.0 502.5Q372 575 274 607Q279 589 279.0 564.5Q279 540 261.5 473.0Q244 406 198 249Q179 183 167 104Q236 113 321.5 164.5Q407 216 463.5 275.0Q520 334 520 368Z"/><path transform="translate(81.5,0) scale(0.01500,-0.01500)" d="M575 254Q575 195 514.0 139.5Q453 84 356.0 50.5Q259 17 158 17Q99 17 52.5 50.0Q6 83 6.0 111.5Q6 140 23 140Q27 140 62.5 118.5Q98 97 137 96Q123 103 110.5 122.0Q98 141 98.0 158.0Q98 175 122 253Q196 488 198 614H190Q172 614 153.0 636.5Q134 659 134 673Q134 690 176.5 702.5Q219 715 279 715Q419 715 495.0 677.0Q571 639 571 567Q571 507 520.5 458.0Q470 409 373 379L382 378Q466 373 520.5 337.0Q575 301 575 254ZM251 620Q279 590 279.0 562.5Q279 535 244 397Q268 412 319.0 431.5Q370 451 399.5 466.0Q429 481 442.5 492.5Q456 504 468.5 523.0Q481 542 481 562Q481 595 447.5 613.5Q414 632 366.5 632.0Q319 632 251 620ZM488 258Q488 288 418.5 308.5Q349 329 280 329Q253 329 233 357Q172 116 153 96Q224 98 302.0 121.5Q380 145 434.0 183.0Q488 221 488 258Z"/></g><path d="M748.0,234.0 L605.0,232.0" stroke="#4f7a3f" stroke-width="1.1" fill="none" filter="url(#r2)"/><g fill="#2a2620" transform="translate(708.8,238)"><path transform="translate(0.0,0) scale(0.01500,-0.01500)" d="M559 553Q559 445 455.5 370.0Q352 295 182 262Q109 15 95.0 15.0Q81 15 62.0 37.5Q43 60 43.0 82.5Q43 105 72 202Q162 501 166 619Q142 641 142 659Q142 684 210.0 707.0Q278 730 340 730Q436 730 497.5 681.0Q559 632 559 553ZM471 547Q471 591 437.5 619.5Q404 648 357.0 648.0Q310 648 243 618Q253 596 253 577Q253 521 204 340Q324 372 397.5 428.5Q471 485 471 547Z"/><path transform="translate(8.1,0) scale(0.01500,-0.01500)" d="M393 309Q405 294 405 283Q405 255 392.5 187.0Q380 119 377.5 98.0Q375 77 373.0 64.5Q371 52 368 40Q364 15 350 15Q332 15 320.5 46.5Q309 78 307 128Q218 15 142 15Q96 15 51.5 54.5Q7 94 7 136Q7 196 51.0 284.5Q95 373 165.0 442.0Q235 511 297 511Q342 511 380.0 465.5Q418 420 418.0 383.5Q418 347 393 309ZM343 335Q343 428 306 428Q267 428 215.0 372.5Q163 317 127.0 247.0Q91 177 91 136Q91 119 105.0 108.5Q119 98 138 98Q185 98 244.0 161.5Q303 225 326 316Q329 331 343 334Z"/><path transform="translate(15.2,0) scale(0.01500,-0.01500)" d="M143 115Q143 96 165 96Q203 96 257.5 117.5Q312 139 318 139Q336 139 336 120Q336 91 276.5 53.0Q217 15 168.5 15.0Q120 15 88.0 41.5Q56 68 56.0 96.0Q56 124 68.0 167.5Q80 211 102.5 282.5Q125 354 138 401Q91 390 75.0 390.0Q59 390 43.5 406.5Q28 423 28 438Q28 462 158 484Q176 567 176 631Q176 661 196 661Q213 661 238.0 639.5Q263 618 263.0 591.0Q263 564 246 496Q303 501 337 501Q397 501 397 475Q397 460 364.5 450.0Q332 440 228 419Q207 340 175.0 238.5Q143 137 143 115Z"/><path transform="translate(21.0,0) scale(0.01500,-0.01500)" d="M312 511Q353 511 384.0 474.0Q415 437 415 409Q415 401 410.0 395.5Q405 390 395.5 390.0Q386 390 362.0 408.0Q338 426 319 426Q265 426 193.0 331.0Q121 236 121 165Q121 134 140.5 116.0Q160 98 203.5 98.0Q247 98 283.5 108.5Q320 119 340.0 129.5Q360 140 371 140Q390 140 390 121Q390 92 320.5 53.5Q251 15 192.5 15.0Q134 15 83.0 60.5Q32 106 32.0 168.5Q32 231 74.0 313.0Q116 395 182.5 453.0Q249 511 312 511Z"/><path transform="translate(27.7,0) scale(0.01500,-0.01500)" d="M149 752Q149 791 173 791Q192 791 213.5 761.0Q235 731 235 703Q235 638 202.5 481.5Q170 325 118 169Q218 350 285.5 430.5Q353 511 401 511Q427 511 461.5 466.0Q496 421 496.0 376.0Q496 331 471 241Q409 15 354 15Q332 15 332.0 45.0Q332 75 356 146Q409 301 409 355Q409 373 400.0 385.0Q391 397 378.0 397.0Q365 397 346.0 383.0Q327 369 300 334Q266 289 229.5 233.0Q193 177 185.5 165.5Q178 154 159.5 124.0Q141 94 132.0 79.5Q123 65 110 48Q87 15 75.0 15.0Q63 15 43.0 37.5Q23 60 23.0 75.5Q23 91 34 134Q84 326 97 397Q149 657 149 752Z"/><path transform="translate(41.7,0) scale(0.01500,-0.01500)" d="M283 643Q287 607 321.0 515.5Q355 424 399 330Q455 396 540.0 505.5Q625 615 666.0 661.0Q707 707 725.0 707.0Q743 707 763.0 687.0Q783 667 783.0 649.0Q783 631 779.0 608.0Q775 585 765.5 547.5Q756 510 748.5 482.5Q741 455 724.0 397.0Q707 339 698.0 304.5Q689 270 677.0 220.5Q665 171 657.5 139.5Q650 108 642 78Q627 20 613.5 20.0Q600 20 587.0 44.0Q574 68 574.0 108.5Q574 149 608.5 294.0Q643 439 683 548Q499 318 456.5 273.0Q414 228 386.5 228.0Q359 228 335 259Q299 311 238 505Q221 400 200.5 325.5Q180 251 173.5 226.5Q167 202 162.5 186.0Q158 170 152.0 148.5Q146 127 141.5 113.0Q137 99 132.0 82.5Q127 66 123.5 56.0Q120 46 116 37Q108 20 104 20Q92 20 74.0 46.0Q56 72 56.0 96.0Q56 120 120.5 372.0Q185 624 185 688Q185 705 189.5 711.5Q194 718 206.5 718.0Q219 718 250.0 691.0Q281 664 283 643Z"/><path transform="translate(53.6,0) scale(0.01500,-0.01500)" d="M427 285Q427 245 392 194Q365 133 334.0 18.5Q303 -96 282 -145Q240 -247 153 -247Q82 -247 33.5 -208.5Q-15 -170 -15 -132Q-15 -116 -5.5 -100.0Q4 -84 14.5 -84.0Q25 -84 38.0 -99.0Q51 -114 62.5 -131.5Q74 -149 97.5 -164.0Q121 -179 143.0 -179.0Q165 -179 176.0 -172.5Q187 -166 197.0 -151.5Q207 -137 214.0 -122.5Q221 -108 229.5 -81.5Q238 -55 243.0 -36.0Q248 -17 257.0 17.5Q266 52 272 73Q194 15 145.0 15.0Q96 15 60.0 54.5Q24 94 24.0 146.5Q24 199 63.5 286.0Q103 373 170.0 442.0Q237 511 301 511Q342 511 370 480Q416 429 416 335Q416 323 415 318Q427 301 427 285ZM105 136Q105 119 116.0 108.5Q127 98 144 98Q194 98 262.0 157.5Q330 217 358 296Q354 309 351.0 336.0Q348 363 345.0 379.0Q342 395 332.0 411.5Q322 428 306 428Q267 428 218.0 372.0Q169 316 137.0 247.0Q105 178 105 136Z"/><path transform="translate(60.7,0) scale(0.01500,-0.01500)" d="M678 511Q708 511 731.5 469.5Q755 428 755.0 375.5Q755 323 736.5 239.0Q718 155 687.0 85.0Q656 15 626 15Q605 15 605.0 42.5Q605 70 639.5 177.5Q674 285 674.0 348.5Q674 412 654 412Q629 412 596.5 368.0Q564 324 527.0 262.0Q490 200 487.0 195.5Q484 191 479.5 183.0Q475 175 469.5 166.0Q464 157 441.5 112.0Q419 67 402.0 41.5Q385 16 372.5 16.0Q360 16 345.0 32.0Q330 48 330.0 62.0Q330 76 348 120Q400 250 400 362Q400 383 391.0 397.5Q382 412 371.0 412.0Q360 412 348.0 402.5Q336 393 318.0 368.5Q300 344 286.0 322.0Q272 300 243.5 253.5Q215 207 200.5 184.5Q186 162 167.0 132.5Q148 103 137.5 87.0Q127 71 114 52Q87 15 74.5 15.0Q62 15 42.0 37.5Q22 60 22.0 71.5Q22 83 26.0 100.0Q30 117 34.5 133.0Q39 149 48.5 180.5Q58 212 70.5 254.5Q83 297 89.5 371.5Q96 446 99.0 480.5Q102 515 116 515Q138 515 159.5 492.0Q181 469 181 446Q181 358 115 156Q227 366 256.0 405.0Q285 444 306 468Q345 511 385 511Q409 511 442.5 469.5Q476 428 476.0 386.0Q476 344 464 282Q582 511 678 511Z"/><path transform="translate(72.6,0) scale(0.01500,-0.01500)" d="M143 115Q143 96 165 96Q203 96 257.5 117.5Q312 139 318 139Q336 139 336 120Q336 91 276.5 53.0Q217 15 168.5 15.0Q120 15 88.0 41.5Q56 68 56.0 96.0Q56 124 68.0 167.5Q80 211 102.5 282.5Q125 354 138 401Q91 390 75.0 390.0Q59 390 43.5 406.5Q28 423 28 438Q28 462 158 484Q176 567 176 631Q176 661 196 661Q213 661 238.0 639.5Q263 618 263.0 591.0Q263 564 246 496Q303 501 337 501Q397 501 397 475Q397 460 364.5 450.0Q332 440 228 419Q207 340 175.0 238.5Q143 137 143 115Z"/></g><path d="M740.0,288.0 L605.0,232.0" stroke="#c98a2b" stroke-width="1.1" fill="none" filter="url(#r2)"/><g fill="#c98a2b" transform="translate(706.6,292)"><path transform="translate(0.0,0) scale(0.01500,-0.01500)" d="M564 363Q564 344 476 319Q484 215 484 142Q484 16 452 16Q435 16 425.0 37.0Q415 58 409 110Q402 206 394 298Q349 286 312.0 276.5Q275 267 200 246Q112 16 96.0 16.0Q80 16 61.5 35.5Q43 55 43 77Q43 87 100 219H93Q73 219 57.5 232.0Q42 245 42.0 264.5Q42 284 141 316Q157 352 167 381Q190 438 231.0 537.0Q272 636 283.0 663.5Q294 691 321.5 710.5Q349 730 375 730Q406 730 430.5 631.0Q455 532 470 386Q498 389 519 389Q564 389 564 363ZM237 342Q308 361 387 374Q369 545 352 631Q307 528 237 342Z"/><path transform="translate(9.1,0) scale(0.01500,-0.01500)" d="M427 285Q427 245 392 194Q365 133 334.0 18.5Q303 -96 282 -145Q240 -247 153 -247Q82 -247 33.5 -208.5Q-15 -170 -15 -132Q-15 -116 -5.5 -100.0Q4 -84 14.5 -84.0Q25 -84 38.0 -99.0Q51 -114 62.5 -131.5Q74 -149 97.5 -164.0Q121 -179 143.0 -179.0Q165 -179 176.0 -172.5Q187 -166 197.0 -151.5Q207 -137 214.0 -122.5Q221 -108 229.5 -81.5Q238 -55 243.0 -36.0Q248 -17 257.0 17.5Q266 52 272 73Q194 15 145.0 15.0Q96 15 60.0 54.5Q24 94 24.0 146.5Q24 199 63.5 286.0Q103 373 170.0 442.0Q237 511 301 511Q342 511 370 480Q416 429 416 335Q416 323 415 318Q427 301 427 285ZM105 136Q105 119 116.0 108.5Q127 98 144 98Q194 98 262.0 157.5Q330 217 358 296Q354 309 351.0 336.0Q348 363 345.0 379.0Q342 395 332.0 411.5Q322 428 306 428Q267 428 218.0 372.0Q169 316 137.0 247.0Q105 178 105 136Z"/><path transform="translate(16.2,0) scale(0.01500,-0.01500)" d="M111 241Q97 197 97.0 162.5Q97 128 118.5 109.0Q140 90 189.5 90.0Q239 90 291.5 107.5Q344 125 349 125Q375 125 375 105Q375 78 314.0 46.5Q253 15 195 15Q117 15 68.0 61.5Q19 108 19.0 179.0Q19 250 57.0 327.5Q95 405 155.0 458.0Q215 511 274.0 511.0Q333 511 381.5 455.0Q430 399 430.0 345.5Q430 292 372.5 258.5Q315 225 242.5 225.0Q170 225 111 241ZM279 432Q242 432 202.0 393.5Q162 355 134 298Q174 289 225.0 289.0Q276 289 314.0 305.5Q352 322 352.0 349.0Q352 376 327.5 404.0Q303 432 279 432Z"/><path transform="translate(23.0,0) scale(0.01500,-0.01500)" d="M492 383Q492 311 459 207Q399 15 351 15Q329 15 329 45Q329 66 350.5 130.5Q372 195 390.5 257.5Q409 320 409.0 351.5Q409 383 399.5 398.0Q390 413 380.5 413.0Q371 413 361.0 407.0Q351 401 338.5 387.0Q326 373 315.0 359.5Q304 346 287.5 321.0Q271 296 260.0 278.5Q249 261 228.0 228.0Q207 195 196.0 178.0Q185 161 167.0 132.0Q149 103 138.5 87.0Q128 71 115 52Q90 15 75.5 15.0Q61 15 42.0 37.5Q23 60 23 77Q23 82 30 104Q49 162 72.0 247.5Q95 333 97 442Q100 515 118 515Q140 515 162.0 492.0Q184 469 184.0 441.5Q184 414 167.5 335.5Q151 257 129 189Q225 352 285.5 431.5Q346 511 384.5 511.0Q423 511 457.5 470.0Q492 429 492 383Z"/><path transform="translate(31.0,0) scale(0.01500,-0.01500)" d="M143 115Q143 96 165 96Q203 96 257.5 117.5Q312 139 318 139Q336 139 336 120Q336 91 276.5 53.0Q217 15 168.5 15.0Q120 15 88.0 41.5Q56 68 56.0 96.0Q56 124 68.0 167.5Q80 211 102.5 282.5Q125 354 138 401Q91 390 75.0 390.0Q59 390 43.5 406.5Q28 423 28 438Q28 462 158 484Q176 567 176 631Q176 661 196 661Q213 661 238.0 639.5Q263 618 263.0 591.0Q263 564 246 496Q303 501 337 501Q397 501 397 475Q397 460 364.5 450.0Q332 440 228 419Q207 340 175.0 238.5Q143 137 143 115Z"/><path transform="translate(36.8,0) scale(0.01500,-0.01500)" d="M270 601Q270 591 261.0 583.0Q252 575 242 575Q218 575 188.5 604.0Q159 633 159.0 653.0Q159 673 175.0 691.0Q191 709 207.5 709.0Q224 709 247.0 668.5Q270 628 270 601ZM154 511Q173 511 190.0 488.0Q207 465 207.0 443.0Q207 421 178.0 311.5Q149 202 105 66Q88 16 62 16Q48 16 38.0 27.5Q28 39 28.0 53.5Q28 68 35.5 99.5Q43 131 57.5 183.5Q72 236 80.5 269.0Q89 302 98.0 343.5Q107 385 112.5 410.5Q118 436 125 462Q139 511 154 511Z"/><path transform="translate(40.4,0) scale(0.01500,-0.01500)" d="M312 511Q353 511 384.0 474.0Q415 437 415 409Q415 401 410.0 395.5Q405 390 395.5 390.0Q386 390 362.0 408.0Q338 426 319 426Q265 426 193.0 331.0Q121 236 121 165Q121 134 140.5 116.0Q160 98 203.5 98.0Q247 98 283.5 108.5Q320 119 340.0 129.5Q360 140 371 140Q390 140 390 121Q390 92 320.5 53.5Q251 15 192.5 15.0Q134 15 83.0 60.5Q32 106 32.0 168.5Q32 231 74.0 313.0Q116 395 182.5 453.0Q249 511 312 511Z"/><path transform="translate(53.1,0) scale(0.01500,-0.01500)" d="M564 363Q564 344 476 319Q484 215 484 142Q484 16 452 16Q435 16 425.0 37.0Q415 58 409 110Q402 206 394 298Q349 286 312.0 276.5Q275 267 200 246Q112 16 96.0 16.0Q80 16 61.5 35.5Q43 55 43 77Q43 87 100 219H93Q73 219 57.5 232.0Q42 245 42.0 264.5Q42 284 141 316Q157 352 167 381Q190 438 231.0 537.0Q272 636 283.0 663.5Q294 691 321.5 710.5Q349 730 375 730Q406 730 430.5 631.0Q455 532 470 386Q498 389 519 389Q564 389 564 363ZM237 342Q308 361 387 374Q369 545 352 631Q307 528 237 342Z"/><path transform="translate(62.2,0) scale(0.01500,-0.01500)" d="M188 688Q188 705 192.5 711.5Q197 718 211.5 718.0Q226 718 249.5 687.0Q273 656 273.0 620.5Q273 585 201 292Q194 265 182.0 214.5Q170 164 163.0 137.0Q156 110 148 78Q131 19 119.0 19.0Q107 19 87.5 43.0Q68 67 68.0 87.0Q68 107 127.5 366.5Q187 626 188 688Z"/></g><path d="M712.0,342.0 L605.0,232.0" stroke="#4f7a3f" stroke-width="1.1" fill="none" filter="url(#r2)"/><g fill="#2a2620" transform="translate(673.0,346)"><path transform="translate(0.0,0) scale(0.01500,-0.01500)" d="M283 643Q287 607 321.0 515.5Q355 424 399 330Q455 396 540.0 505.5Q625 615 666.0 661.0Q707 707 725.0 707.0Q743 707 763.0 687.0Q783 667 783.0 649.0Q783 631 779.0 608.0Q775 585 765.5 547.5Q756 510 748.5 482.5Q741 455 724.0 397.0Q707 339 698.0 304.5Q689 270 677.0 220.5Q665 171 657.5 139.5Q650 108 642 78Q627 20 613.5 20.0Q600 20 587.0 44.0Q574 68 574.0 108.5Q574 149 608.5 294.0Q643 439 683 548Q499 318 456.5 273.0Q414 228 386.5 228.0Q359 228 335 259Q299 311 238 505Q221 400 200.5 325.5Q180 251 173.5 226.5Q167 202 162.5 186.0Q158 170 152.0 148.5Q146 127 141.5 113.0Q137 99 132.0 82.5Q127 66 123.5 56.0Q120 46 116 37Q108 20 104 20Q92 20 74.0 46.0Q56 72 56.0 96.0Q56 120 120.5 372.0Q185 624 185 688Q185 705 189.5 711.5Q194 718 206.5 718.0Q219 718 250.0 691.0Q281 664 283 643Z"/><path transform="translate(11.8,0) scale(0.01500,-0.01500)" d="M468 214Q468 132 394.0 76.5Q320 21 224.5 21.0Q129 21 67.0 70.5Q5 120 5 164Q5 194 23 194Q39 194 86 146Q104 129 134.5 114.0Q165 99 199 99Q269 99 323.5 135.0Q378 171 378 213Q378 240 342.0 282.0Q306 324 262.5 361.5Q219 399 183.0 442.0Q147 485 147.0 510.0Q147 535 157.0 563.0Q167 591 179 604Q218 647 300.5 683.0Q383 719 439 719Q468 719 488.0 700.0Q508 681 508 660Q508 650 487.0 644.0Q466 638 423.5 628.5Q381 619 348 606Q233 562 233 521Q233 499 350 398Q395 359 431.5 307.5Q468 256 468 214Z"/><path transform="translate(19.8,0) scale(0.01500,-0.01500)" d="M559 553Q559 445 455.5 370.0Q352 295 182 262Q109 15 95.0 15.0Q81 15 62.0 37.5Q43 60 43.0 82.5Q43 105 72 202Q162 501 166 619Q142 641 142 659Q142 684 210.0 707.0Q278 730 340 730Q436 730 497.5 681.0Q559 632 559 553ZM471 547Q471 591 437.5 619.5Q404 648 357.0 648.0Q310 648 243 618Q253 596 253 577Q253 521 204 340Q324 372 397.5 428.5Q471 485 471 547Z"/><path transform="translate(34.0,0) scale(0.01500,-0.01500)" d="M208 333Q154 162 154 126Q154 114 161.5 106.5Q169 99 181 99Q296 99 435 136Q480 148 487 148Q502 148 502 127Q502 91 391.5 53.0Q281 15 178 15Q132 15 97.5 42.0Q63 69 63.0 110.0Q63 151 92.5 250.0Q122 349 152.0 461.0Q182 573 182 650Q182 661 186 673Q203 710 404.0 710.0Q605 710 605 681Q605 661 562 654Q526 647 466.5 641.5Q407 636 383.0 633.5Q359 631 267 615V612Q267 544 230 407Q236 406 270.5 406.0Q305 406 363.0 411.0Q421 416 450.5 416.0Q480 416 480 402Q480 367 398.0 350.0Q316 333 208 333Z"/><path transform="translate(42.7,0) scale(0.01500,-0.01500)" d="M459 791Q475 791 498.5 761.5Q522 732 522.0 706.0Q522 680 497.0 558.5Q472 437 439 307Q367 15 344 15Q330 15 313.5 32.5Q297 50 297.0 63.0Q297 76 304 115Q206 15 133 15Q89 15 53.5 55.0Q18 95 18 138Q18 200 51.5 285.5Q85 371 148.0 441.0Q211 511 282.0 511.0Q353 511 381 426Q432 638 437 761Q437 791 459 791ZM349 300Q349 354 330.5 391.0Q312 428 286 428Q243 428 198.0 375.0Q153 322 126.5 253.5Q100 185 100 135Q100 117 113.0 106.0Q126 95 144 95Q183 95 249.5 151.0Q316 207 346 283L349 295Z"/><path transform="translate(50.2,0) scale(0.01500,-0.01500)" d="M270 601Q270 591 261.0 583.0Q252 575 242 575Q218 575 188.5 604.0Q159 633 159.0 653.0Q159 673 175.0 691.0Q191 709 207.5 709.0Q224 709 247.0 668.5Q270 628 270 601ZM154 511Q173 511 190.0 488.0Q207 465 207.0 443.0Q207 421 178.0 311.5Q149 202 105 66Q88 16 62 16Q48 16 38.0 27.5Q28 39 28.0 53.5Q28 68 35.5 99.5Q43 131 57.5 183.5Q72 236 80.5 269.0Q89 302 98.0 343.5Q107 385 112.5 410.5Q118 436 125 462Q139 511 154 511Z"/><path transform="translate(53.8,0) scale(0.01500,-0.01500)" d="M143 115Q143 96 165 96Q203 96 257.5 117.5Q312 139 318 139Q336 139 336 120Q336 91 276.5 53.0Q217 15 168.5 15.0Q120 15 88.0 41.5Q56 68 56.0 96.0Q56 124 68.0 167.5Q80 211 102.5 282.5Q125 354 138 401Q91 390 75.0 390.0Q59 390 43.5 406.5Q28 423 28 438Q28 462 158 484Q176 567 176 631Q176 661 196 661Q213 661 238.0 639.5Q263 618 263.0 591.0Q263 564 246 496Q303 501 337 501Q397 501 397 475Q397 460 364.5 450.0Q332 440 228 419Q207 340 175.0 238.5Q143 137 143 115Z"/><path transform="translate(59.6,0) scale(0.01500,-0.01500)" d="M270 601Q270 591 261.0 583.0Q252 575 242 575Q218 575 188.5 604.0Q159 633 159.0 653.0Q159 673 175.0 691.0Q191 709 207.5 709.0Q224 709 247.0 668.5Q270 628 270 601ZM154 511Q173 511 190.0 488.0Q207 465 207.0 443.0Q207 421 178.0 311.5Q149 202 105 66Q88 16 62 16Q48 16 38.0 27.5Q28 39 28.0 53.5Q28 68 35.5 99.5Q43 131 57.5 183.5Q72 236 80.5 269.0Q89 302 98.0 343.5Q107 385 112.5 410.5Q118 436 125 462Q139 511 154 511Z"/><path transform="translate(63.2,0) scale(0.01500,-0.01500)" d="M333 341Q333 375 322.0 405.5Q311 436 290 450Q221 431 171.5 343.5Q122 256 122.0 179.0Q122 102 160 83Q232 97 282.5 181.5Q333 266 333 341ZM155 15Q104 15 70.0 62.0Q36 109 36.0 181.5Q36 254 70.5 332.0Q105 410 161.5 460.5Q218 511 277.5 511.0Q337 511 377.0 460.5Q417 410 417.0 337.5Q417 265 382.0 189.5Q347 114 285.5 64.5Q224 15 155 15Z"/><path transform="translate(70.0,0) scale(0.01500,-0.01500)" d="M492 383Q492 311 459 207Q399 15 351 15Q329 15 329 45Q329 66 350.5 130.5Q372 195 390.5 257.5Q409 320 409.0 351.5Q409 383 399.5 398.0Q390 413 380.5 413.0Q371 413 361.0 407.0Q351 401 338.5 387.0Q326 373 315.0 359.5Q304 346 287.5 321.0Q271 296 260.0 278.5Q249 261 228.0 228.0Q207 195 196.0 178.0Q185 161 167.0 132.0Q149 103 138.5 87.0Q128 71 115 52Q90 15 75.5 15.0Q61 15 42.0 37.5Q23 60 23 77Q23 82 30 104Q49 162 72.0 247.5Q95 333 97 442Q100 515 118 515Q140 515 162.0 492.0Q184 469 184.0 441.5Q184 414 167.5 335.5Q151 257 129 189Q225 352 285.5 431.5Q346 511 384.5 511.0Q423 511 457.5 470.0Q492 429 492 383Z"/></g></svg>