<svg xmlns="http://www.w3.org/2000/svg" viewBox="0 0 560 340" width="560" height="340" role="img" aria-label="Hand-drawn kites on strings rising from a rooftop in Gujarat, India."><defs><filter id="r"><feTurbulence type="fractalNoise" baseFrequency="0.012 0.016" numOctaves="2" seed="7" result="n"/><feDisplacementMap in="SourceGraphic" in2="n" scale="2.2"/></filter><filter id="r2"><feTurbulence type="fractalNoise" baseFrequency="0.022" numOctaves="2" seed="4" result="n"/><feDisplacementMap in="SourceGraphic" in2="n" scale="3"/></filter></defs><rect width="560" height="340" rx="6" fill="#f3ead5"/><rect x="12" y="12" width="536" height="316" rx="3" fill="none" stroke="#2a2620" stroke-width="1.5" opacity="0.8" filter="url(#r)"/><g fill="#2a2620" transform="translate(40.0,52)"><path transform="translate(0.0,0) scale(0.02200,-0.02200)" d="M118 12Q95 12 60.5 49.0Q26 86 26 108Q26 114 59.5 227.0Q93 340 126.5 499.0Q160 658 160 777Q160 808 188 808Q212 808 251.5 764.5Q291 721 291 683Q291 628 251.5 475.0Q212 322 173 234Q186 251 208.5 279.5Q231 308 245.0 326.0Q259 344 279.5 370.0Q300 396 314.0 412.5Q328 429 345.0 449.5Q362 470 374.5 482.5Q387 495 400 506Q424 528 437 528Q462 528 492.0 494.5Q522 461 522 436Q522 426 479.5 390.0Q437 354 394.5 310.0Q352 266 352.0 231.5Q352 197 372.5 164.5Q393 132 417.0 115.0Q441 98 461.5 80.5Q482 63 482 51Q482 12 429 12Q366 12 262 118L238 142Q148 12 118 12Z"/><path transform="translate(10.8,0) scale(0.02200,-0.02200)" d="M228 551Q199 551 161.0 589.0Q123 627 123.0 653.0Q123 679 146.5 706.5Q170 734 192.5 734.0Q215 734 246.0 680.0Q277 626 277.0 601.5Q277 577 261.0 564.0Q245 551 228 551ZM138 528Q173 528 200.5 488.0Q228 448 228 411Q228 392 193.5 274.5Q159 157 125 52Q113 13 76 13Q54 13 37.5 29.5Q21 46 21.0 72.5Q21 99 46.5 204.5Q72 310 85.5 384.5Q99 459 110.5 493.5Q122 528 138 528Z"/><path transform="translate(16.6,0) scale(0.02200,-0.02200)" d="M368 175Q393 175 393.0 141.0Q393 107 326.0 59.5Q259 12 186 12Q154 12 110.0 47.0Q66 82 66 118Q66 148 96.5 244.5Q127 341 138 377Q99 366 79.0 366.0Q59 366 37.0 393.5Q15 421 15 446Q15 478 170 500Q189 593 189 661Q189 691 219 691Q245 691 285.5 659.5Q326 628 326.0 597.5Q326 567 313 512Q361 514 386 514Q461 514 461 480Q461 458 417.5 442.5Q374 427 284 409Q276 382 260.5 333.5Q245 285 222.5 212.0Q200 139 200.0 134.5Q200 130 216.5 130.0Q233 130 295.0 152.5Q357 175 368 175Z"/><path transform="translate(26.5,0) scale(0.02200,-0.02200)" d="M155 224Q146 197 146.0 170.0Q146 143 155.0 131.5Q164 120 200 120Q275 120 328.5 134.0Q382 148 384 148Q425 148 425 121Q425 82 360.5 47.0Q296 12 211.5 12.0Q127 12 76.0 65.0Q25 118 25.0 190.5Q25 263 67.5 342.0Q110 421 174.0 474.5Q238 528 301.5 528.0Q365 528 419.0 465.5Q473 403 473 341Q473 292 406.5 253.0Q340 214 270.0 214.0Q200 214 155 224ZM194 310Q203 309 220 309Q357 309 357 357Q357 367 336.0 386.0Q315 405 296.5 405.0Q278 405 249.0 378.5Q220 352 194 310Z"/><path transform="translate(37.2,0) scale(0.02200,-0.02200)" d="M344 527Q382 527 419.0 482.0Q456 437 456 401Q456 377 435 377Q423 377 400.0 386.5Q377 396 353.5 396.0Q330 396 284.5 380.0Q239 364 239 338Q239 328 266.0 309.0Q293 290 325.0 270.0Q357 250 384.0 214.5Q411 179 411.0 137.5Q411 96 350.5 54.0Q290 12 208.5 12.0Q127 12 69.0 49.0Q11 86 11.0 125.0Q11 164 43 164Q56 164 74 154Q124 125 198.5 125.0Q273 125 273.0 145.0Q273 165 244.5 189.5Q216 214 182.5 235.0Q149 256 120.5 286.5Q92 317 92 346Q92 400 190.0 463.5Q288 527 344 527Z"/><path transform="translate(56.0,0) scale(0.02200,-0.02200)" d="M282 436Q239 411 196.5 331.0Q154 251 154.0 190.5Q154 130 166 114Q220 138 260.0 211.0Q300 284 300.0 348.0Q300 412 282 436ZM155 12Q100 12 60.0 61.0Q20 110 20 180Q20 305 97.5 417.0Q175 529 251.0 529.0Q327 529 379.0 475.5Q431 422 431.0 346.5Q431 271 395.0 193.0Q359 115 294.0 63.5Q229 12 155 12Z"/><path transform="translate(66.0,0) scale(0.02200,-0.02200)" d="M375 528Q401 528 425.5 509.5Q450 491 450 471Q450 435 390.5 304.0Q331 173 280.5 93.0Q230 13 202 13Q187 13 158.5 33.0Q130 53 122 73Q98 131 64.0 287.5Q30 444 30.0 486.0Q30 528 58 528Q92 528 128 501Q188 455 195 378Q198 342 200.0 289.5Q202 237 209 199Q233 245 268.0 335.5Q303 426 328.5 477.0Q354 528 375 528Z"/><path transform="translate(75.3,0) scale(0.02200,-0.02200)" d="M155 224Q146 197 146.0 170.0Q146 143 155.0 131.5Q164 120 200 120Q275 120 328.5 134.0Q382 148 384 148Q425 148 425 121Q425 82 360.5 47.0Q296 12 211.5 12.0Q127 12 76.0 65.0Q25 118 25.0 190.5Q25 263 67.5 342.0Q110 421 174.0 474.5Q238 528 301.5 528.0Q365 528 419.0 465.5Q473 403 473 341Q473 292 406.5 253.0Q340 214 270.0 214.0Q200 214 155 224ZM194 310Q203 309 220 309Q357 309 357 357Q357 367 336.0 386.0Q315 405 296.5 405.0Q278 405 249.0 378.5Q220 352 194 310Z"/><path transform="translate(86.0,0) scale(0.02200,-0.02200)" d="M80 359 74 472Q74 528 109 528Q129 528 148.5 513.0Q168 498 178 466Q212 496 252.5 514.5Q293 533 324 533Q397 533 397 498Q397 480 390.5 471.5Q384 463 380.5 459.0Q377 455 368.5 448.5Q360 442 356 439Q333 424 323 418Q278 390 246.0 350.5Q214 311 198 241Q171 126 145.5 69.5Q120 13 88.5 13.0Q57 13 41.5 43.0Q26 73 26.0 99.5Q26 126 45.5 179.0Q65 232 72.5 270.5Q80 309 80 359Z"/><path transform="translate(102.5,0) scale(0.02200,-0.02200)" d="M417 -82Q403 -82 393.5 -73.5Q384 -65 384 -52Q384 20 424 154Q377 94 321.5 57.0Q266 20 207.5 20.0Q149 20 85.0 71.0Q21 122 21 183Q21 291 85.0 422.5Q149 554 247.0 647.0Q345 740 432 740Q462 740 494.5 693.0Q527 646 527 607Q527 589 514 589Q512 589 495.0 593.0Q478 597 453 597Q386 597 316.0 528.5Q246 460 202.0 360.0Q158 260 158 172Q158 146 192 146Q239 146 307.5 188.0Q376 230 413 282Q391 281 359.5 281.0Q328 281 302.5 300.0Q277 319 277.0 340.0Q277 361 325.0 374.0Q373 387 429.0 387.0Q485 387 514.5 342.0Q544 297 544.0 242.0Q544 187 497.5 52.5Q451 -82 417 -82Z"/><path transform="translate(115.6,0) scale(0.02200,-0.02200)" d="M376 503Q384 528 408.0 528.0Q432 528 463.5 487.0Q495 446 495 416Q495 405 449.0 269.0Q403 133 378 54Q364 12 331 12Q311 12 297.5 26.5Q284 41 284.0 72.0Q284 103 296 160Q193 12 132 12Q100 12 55.0 53.5Q10 95 10 134Q10 230 64.5 379.0Q119 528 167 528Q196 528 218.5 502.0Q241 476 241 445Q241 433 216 378Q140 213 140 145Q140 139 145 139Q160 139 201.5 186.5Q243 234 294.5 322.5Q346 411 376 503Z"/><path transform="translate(126.3,0) scale(0.02200,-0.02200)" d="M-91 -149Q-59 -149 -23.5 -40.5Q12 68 52.0 236.5Q92 405 106.5 451.5Q121 498 130.5 513.0Q140 528 153 528Q183 528 212.5 489.0Q242 450 242 407Q242 389 108 -71Q80 -167 24.0 -211.5Q-32 -256 -106 -256Q-158 -256 -209.0 -213.0Q-260 -170 -260 -137Q-260 -114 -243.0 -85.5Q-226 -57 -209.0 -57.0Q-192 -57 -158 -98Q-149 -109 -147 -112Q-117 -149 -91 -149ZM305 594Q305 578 289.0 564.5Q273 551 257 551Q227 551 189.0 589.0Q151 627 151.0 653.0Q151 679 174.5 706.5Q198 734 221.0 734.0Q244 734 274.5 680.0Q305 626 305 594Z"/><path transform="translate(132.0,0) scale(0.02200,-0.02200)" d="M450 296Q468 280 468.0 267.0Q468 254 456.0 213.0Q444 172 440.0 149.5Q436 127 433.5 114.0Q431 101 430.0 93.5Q429 86 426.5 75.0Q424 64 422.5 57.5Q421 51 418.5 42.5Q416 34 413.0 29.5Q410 25 406 20Q400 12 386.0 12.0Q372 12 351.5 40.0Q331 68 321 108Q227 12 163 12Q120 12 70.0 59.5Q20 107 20.0 154.5Q20 202 63.0 290.0Q106 378 180.5 453.0Q255 528 328 528Q370 528 425.0 479.0Q480 430 480.0 389.5Q480 349 450 296ZM159 138Q199 138 265.5 192.5Q332 247 348 330Q349 342 365 344Q362 401 346 401Q306 401 256.5 349.0Q207 297 175.5 238.0Q144 179 144 151Q144 143 146.5 140.5Q149 138 159 138Z"/><path transform="translate(143.2,0) scale(0.02200,-0.02200)" d="M80 359 74 472Q74 528 109 528Q129 528 148.5 513.0Q168 498 178 466Q212 496 252.5 514.5Q293 533 324 533Q397 533 397 498Q397 480 390.5 471.5Q384 463 380.5 459.0Q377 455 368.5 448.5Q360 442 356 439Q333 424 323 418Q278 390 246.0 350.5Q214 311 198 241Q171 126 145.5 69.5Q120 13 88.5 13.0Q57 13 41.5 43.0Q26 73 26.0 99.5Q26 126 45.5 179.0Q65 232 72.5 270.5Q80 309 80 359Z"/><path transform="translate(151.2,0) scale(0.02200,-0.02200)" d="M450 296Q468 280 468.0 267.0Q468 254 456.0 213.0Q444 172 440.0 149.5Q436 127 433.5 114.0Q431 101 430.0 93.5Q429 86 426.5 75.0Q424 64 422.5 57.5Q421 51 418.5 42.5Q416 34 413.0 29.5Q410 25 406 20Q400 12 386.0 12.0Q372 12 351.5 40.0Q331 68 321 108Q227 12 163 12Q120 12 70.0 59.5Q20 107 20.0 154.5Q20 202 63.0 290.0Q106 378 180.5 453.0Q255 528 328 528Q370 528 425.0 479.0Q480 430 480.0 389.5Q480 349 450 296ZM159 138Q199 138 265.5 192.5Q332 247 348 330Q349 342 365 344Q362 401 346 401Q306 401 256.5 349.0Q207 297 175.5 238.0Q144 179 144 151Q144 143 146.5 140.5Q149 138 159 138Z"/><path transform="translate(162.4,0) scale(0.02200,-0.02200)" d="M368 175Q393 175 393.0 141.0Q393 107 326.0 59.5Q259 12 186 12Q154 12 110.0 47.0Q66 82 66 118Q66 148 96.5 244.5Q127 341 138 377Q99 366 79.0 366.0Q59 366 37.0 393.5Q15 421 15 446Q15 478 170 500Q189 593 189 661Q189 691 219 691Q245 691 285.5 659.5Q326 628 326.0 597.5Q326 567 313 512Q361 514 386 514Q461 514 461 480Q461 458 417.5 442.5Q374 427 284 409Q276 382 260.5 333.5Q245 285 222.5 212.0Q200 139 200.0 134.5Q200 130 216.5 130.0Q233 130 295.0 152.5Q357 175 368 175Z"/></g><circle cx="430" cy="250" r="42" fill="#c98a2b" opacity="0.85" filter="url(#r2)"/><path d="M482.0,250.0 L496.0,250.0" stroke="#c98a2b" stroke-width="1.2" fill="none" filter="url(#r2)"/><path d="M475.0,276.0 L487.2,283.0" stroke="#c98a2b" stroke-width="1.2" fill="none" filter="url(#r2)"/><path d="M456.0,295.0 L463.0,307.2" stroke="#c98a2b" stroke-width="1.2" fill="none" filter="url(#r2)"/><path d="M430.0,302.0 L430.0,316.0" stroke="#c98a2b" stroke-width="1.2" fill="none" filter="url(#r2)"/><path d="M404.0,295.0 L397.0,307.2" stroke="#c98a2b" stroke-width="1.2" fill="none" filter="url(#r2)"/><path d="M385.0,276.0 L372.8,283.0" stroke="#c98a2b" stroke-width="1.2" fill="none" filter="url(#r2)"/><path d="M378.0,250.0 L364.0,250.0" stroke="#c98a2b" stroke-width="1.2" fill="none" filter="url(#r2)"/><path d="M385.0,224.0 L372.8,217.0" stroke="#c98a2b" stroke-width="1.2" fill="none" filter="url(#r2)"/><path d="M404.0,205.0 L397.0,192.8" stroke="#c98a2b" stroke-width="1.2" fill="none" filter="url(#r2)"/><path d="M430.0,198.0 L430.0,184.0" stroke="#c98a2b" stroke-width="1.2" fill="none" filter="url(#r2)"/><path d="M456.0,205.0 L463.0,192.8" stroke="#c98a2b" stroke-width="1.2" fill="none" filter="url(#r2)"/><path d="M475.0,224.0 L487.2,217.0" stroke="#c98a2b" stroke-width="1.2" fill="none" filter="url(#r2)"/><path d="M28,300 H80 V282 H140 V300 H210 V270 H236 V300 H320 V288 H372 V300 H470 V292 H520 V300 H532" fill="none" stroke="#2a2620" stroke-width="1.6" filter="url(#r)"/><circle cx="110" cy="288" r="5" fill="#b5462f" filter="url(#r2)"/><g fill="#8d8470" transform="translate(37.0,322)"><path transform="translate(0.0,0) scale(0.01500,-0.01500)" d="M461 624Q398 624 321.5 555.0Q245 486 191.0 382.5Q137 279 137 190Q137 154 160.0 128.5Q183 103 214 103Q262 103 326.5 155.5Q391 208 446 291Q390 276 363.0 276.0Q336 276 317.0 290.5Q298 305 298 318Q298 334 341.0 343.5Q384 353 449 353Q485 353 507.5 322.5Q530 292 530.0 251.5Q530 211 480.0 61.0Q430 -89 404.5 -89.0Q379 -89 379 -60Q379 -32 393.5 16.0Q408 64 424.0 114.5Q440 165 450 197Q401 114 339.0 65.5Q277 17 218.5 17.0Q160 17 103.0 71.5Q46 126 46 191Q46 292 110.0 416.0Q174 540 271.0 628.5Q368 717 453 717Q481 717 508.0 683.5Q535 650 535.0 629.5Q535 609 524 609Q521 609 502.0 616.5Q483 624 461 624Z"/><path transform="translate(9.2,0) scale(0.01500,-0.01500)" d="M463 435Q463 422 419.0 281.0Q375 140 351 57Q339 15 317 15Q304 15 295.0 26.0Q286 37 286.0 66.0Q286 95 309 171Q267 103 218.0 59.0Q169 15 128.5 15.0Q88 15 52.0 53.0Q16 91 16 131Q16 226 71.5 368.5Q127 511 164 511Q182 511 195.5 494.5Q209 478 209 457Q209 448 182.0 392.5Q155 337 128.0 262.5Q101 188 101 132Q101 116 111.0 105.5Q121 95 135 95Q173 95 225.5 162.0Q278 229 321.0 318.0Q364 407 385 483Q389 499 393.0 505.0Q397 511 410.5 511.0Q424 511 443.5 485.0Q463 459 463 435Z"/><path transform="translate(16.4,0) scale(0.01500,-0.01500)" d="M-149 -121Q-106 -176 -78.0 -176.0Q-50 -176 -31.0 -146.0Q-12 -116 6.0 -51.5Q24 13 40.0 81.0Q56 149 81.5 261.0Q107 373 131 462Q146 511 160 511Q177 511 195.0 489.5Q213 468 213 443Q213 420 182.0 303.5Q151 187 127.0 94.0Q103 1 80 -88Q37 -245 -76 -245Q-126 -245 -173.5 -203.0Q-221 -161 -221 -131Q-221 -118 -210.5 -100.5Q-200 -83 -191 -83Q-180 -83 -168.0 -97.5Q-156 -112 -149 -121ZM283 601Q283 591 274.0 583.0Q265 575 256 575Q232 575 202.0 604.0Q172 633 172.0 653.0Q172 673 188.0 691.0Q204 709 221.0 709.0Q238 709 260.5 668.5Q283 628 283 601Z"/><path transform="translate(20.2,0) scale(0.01500,-0.01500)" d="M393 309Q405 294 405 283Q405 255 392.5 187.0Q380 119 377.5 98.0Q375 77 373.0 64.5Q371 52 368 40Q364 15 350 15Q332 15 320.5 46.5Q309 78 307 128Q218 15 142 15Q96 15 51.5 54.5Q7 94 7 136Q7 196 51.0 284.5Q95 373 165.0 442.0Q235 511 297 511Q342 511 380.0 465.5Q418 420 418.0 383.5Q418 347 393 309ZM343 335Q343 428 306 428Q267 428 215.0 372.5Q163 317 127.0 247.0Q91 177 91 136Q91 119 105.0 108.5Q119 98 138 98Q185 98 244.0 161.5Q303 225 326 316Q329 331 343 334Z"/><path transform="translate(27.2,0) scale(0.01500,-0.01500)" d="M91 389 88 464Q88 511 110 511Q129 511 146.5 486.5Q164 462 164.0 428.5Q164 395 162 378Q249 510 327 510Q376 510 376 486Q376 474 365.0 464.0Q354 454 330 441Q277 418 240.5 370.5Q204 323 181.0 263.0Q158 203 144.5 162.0Q131 121 124.0 98.0Q117 75 108 53Q92 13 71 13Q54 13 43.5 32.5Q33 52 33.0 70.5Q33 89 50 144Q91 270 91 389Z"/><path transform="translate(32.2,0) scale(0.01500,-0.01500)" d="M393 309Q405 294 405 283Q405 255 392.5 187.0Q380 119 377.5 98.0Q375 77 373.0 64.5Q371 52 368 40Q364 15 350 15Q332 15 320.5 46.5Q309 78 307 128Q218 15 142 15Q96 15 51.5 54.5Q7 94 7 136Q7 196 51.0 284.5Q95 373 165.0 442.0Q235 511 297 511Q342 511 380.0 465.5Q418 420 418.0 383.5Q418 347 393 309ZM343 335Q343 428 306 428Q267 428 215.0 372.5Q163 317 127.0 247.0Q91 177 91 136Q91 119 105.0 108.5Q119 98 138 98Q185 98 244.0 161.5Q303 225 326 316Q329 331 343 334Z"/><path transform="translate(39.2,0) scale(0.01500,-0.01500)" d="M143 115Q143 96 165 96Q203 96 257.5 117.5Q312 139 318 139Q336 139 336 120Q336 91 276.5 53.0Q217 15 168.5 15.0Q120 15 88.0 41.5Q56 68 56.0 96.0Q56 124 68.0 167.5Q80 211 102.5 282.5Q125 354 138 401Q91 390 75.0 390.0Q59 390 43.5 406.5Q28 423 28 438Q28 462 158 484Q176 567 176 631Q176 661 196 661Q213 661 238.0 639.5Q263 618 263.0 591.0Q263 564 246 496Q303 501 337 501Q397 501 397 475Q397 460 364.5 450.0Q332 440 228 419Q207 340 175.0 238.5Q143 137 143 115Z"/><path transform="translate(51.0,0) scale(0.01500,-0.01500)" d="M422 328Q422 312 389.5 302.0Q357 292 232.5 267.0Q108 242 96.5 242.0Q85 242 69.0 259.0Q53 276 53 290Q53 312 166.0 332.5Q279 353 362 353Q422 353 422 328Z"/><path transform="translate(63.9,0) scale(0.01500,-0.01500)" d="M510 120Q510 92 359.5 56.5Q209 21 139 21Q108 21 74.5 48.5Q41 76 41 106Q41 130 137 202Q227 268 314 356Q355 398 382.5 448.5Q410 499 410.0 541.5Q410 584 391.0 608.0Q372 632 339.0 632.0Q306 632 277.0 612.0Q248 592 230.0 572.5Q212 553 207 553Q190 553 167.0 568.0Q144 583 144 598Q144 635 205.5 680.0Q267 725 337.0 725.0Q407 725 453.5 675.5Q500 626 500 553Q500 337 130 100Q154 103 231.5 115.0Q309 127 367.5 135.0Q426 143 453.5 143.0Q481 143 495.5 138.5Q510 134 510 120Z"/><path transform="translate(72.7,0) scale(0.01500,-0.01500)" d="M510 120Q510 92 359.5 56.5Q209 21 139 21Q108 21 74.5 48.5Q41 76 41 106Q41 130 137 202Q227 268 314 356Q355 398 382.5 448.5Q410 499 410.0 541.5Q410 584 391.0 608.0Q372 632 339.0 632.0Q306 632 277.0 612.0Q248 592 230.0 572.5Q212 553 207 553Q190 553 167.0 568.0Q144 583 144 598Q144 635 205.5 680.0Q267 725 337.0 725.0Q407 725 453.5 675.5Q500 626 500 553Q500 337 130 100Q154 103 231.5 115.0Q309 127 367.5 135.0Q426 143 453.5 143.0Q481 143 495.5 138.5Q510 134 510 120Z"/><path transform="translate(81.4,0) scale(0.01500,-0.01500)" d="M145 -6Q120 -6 88.0 26.5Q56 59 56.0 80.5Q56 102 73.5 123.5Q91 145 109.5 145.0Q128 145 152.5 96.0Q177 47 177 22Q177 14 166.0 4.0Q155 -6 145 -6Z"/><path transform="translate(84.9,0) scale(0.01500,-0.01500)" d="M34 50Q34 59 93.5 73.5Q153 88 224.0 104.5Q295 121 354.5 157.5Q414 194 414 242Q414 268 378.0 284.5Q342 301 298 308Q182 325 182 348Q182 356 185 360Q193 374 236.0 399.0Q279 424 323.5 448.0Q368 472 405.0 511.0Q442 550 442 590Q442 637 391 637Q350 637 287.0 604.5Q224 572 215.5 572.0Q207 572 184.0 593.5Q161 615 161 626Q161 656 242.5 688.0Q324 720 387.0 720.0Q450 720 493.5 677.0Q537 634 537.0 578.5Q537 523 474.0 465.5Q411 408 328 369Q419 357 473.0 324.0Q527 291 527.0 236.5Q527 182 463.5 129.0Q400 76 309.5 46.0Q219 16 126.5 16.0Q34 16 34 50Z"/><path transform="translate(93.5,0) scale(0.01500,-0.01500)" d="M562 680Q564 723 582.5 723.0Q601 723 623.0 700.0Q645 677 645 659Q645 577 619.5 426.0Q594 275 551.5 146.0Q509 17 471 17Q458 17 441.5 30.0Q425 43 416 62Q386 132 239 506Q209 390 172.5 243.5Q136 97 124.0 57.0Q112 17 103 17Q90 17 71.5 39.5Q53 62 53.0 86.0Q53 110 118.0 367.5Q183 625 185 689Q185 721 202 721Q213 721 232.5 702.5Q252 684 261 662Q422 244 465 150Q530 322 552 561Q562 671 562 680Z"/><path transform="translate(109.7,0) scale(0.01500,-0.01500)" d="M444 705Q461 692 473.5 663.5Q486 635 486.0 617.0Q486 599 476.5 576.5Q467 554 449.0 522.5Q431 491 413.5 462.5Q396 434 372.0 395.5Q348 357 326.0 319.5Q304 282 252.5 187.0Q201 92 176.5 52.5Q152 13 139.0 13.0Q126 13 114.0 31.5Q102 50 102 68Q102 101 176.0 226.5Q250 352 324.5 473.5Q399 595 399 616Q399 634 365.5 634.0Q332 634 258.5 623.0Q185 612 165.0 612.0Q145 612 122.0 639.5Q99 667 99 685Q99 695 181.5 707.0Q264 719 343.5 719.0Q423 719 444 705Z"/><path transform="translate(116.6,0) scale(0.01500,-0.01500)" d="M510 120Q510 92 359.5 56.5Q209 21 139 21Q108 21 74.5 48.5Q41 76 41 106Q41 130 137 202Q227 268 314 356Q355 398 382.5 448.5Q410 499 410.0 541.5Q410 584 391.0 608.0Q372 632 339.0 632.0Q306 632 277.0 612.0Q248 592 230.0 572.5Q212 553 207 553Q190 553 167.0 568.0Q144 583 144 598Q144 635 205.5 680.0Q267 725 337.0 725.0Q407 725 453.5 675.5Q500 626 500 553Q500 337 130 100Q154 103 231.5 115.0Q309 127 367.5 135.0Q426 143 453.5 143.0Q481 143 495.5 138.5Q510 134 510 120Z"/><path transform="translate(125.3,0) scale(0.01500,-0.01500)" d="M145 -6Q120 -6 88.0 26.5Q56 59 56.0 80.5Q56 102 73.5 123.5Q91 145 109.5 145.0Q128 145 152.5 96.0Q177 47 177 22Q177 14 166.0 4.0Q155 -6 145 -6Z"/><path transform="translate(128.9,0) scale(0.01500,-0.01500)" d="M491 257Q491 173 394.0 96.5Q297 20 191 20Q128 20 87.5 62.5Q47 105 47.0 177.5Q47 250 94.5 351.0Q142 452 203.0 531.0Q264 610 320.5 665.0Q377 720 397.5 720.0Q418 720 438.0 709.5Q458 699 458.0 688.5Q458 678 424 642Q289 499 233 418Q344 408 417.5 359.5Q491 311 491 257ZM200 101Q266 101 329.5 148.0Q393 195 393 249Q393 287 339.5 319.0Q286 351 197 362Q136 255 136 169Q136 135 153.5 118.0Q171 101 200 101Z"/><path transform="translate(137.2,0) scale(0.01500,-0.01500)" d="M208 333Q154 162 154 126Q154 114 161.5 106.5Q169 99 181 99Q296 99 435 136Q480 148 487 148Q502 148 502 127Q502 91 391.5 53.0Q281 15 178 15Q132 15 97.5 42.0Q63 69 63.0 110.0Q63 151 92.5 250.0Q122 349 152.0 461.0Q182 573 182 650Q182 661 186 673Q203 710 404.0 710.0Q605 710 605 681Q605 661 562 654Q526 647 466.5 641.5Q407 636 383.0 633.5Q359 631 267 615V612Q267 544 230 407Q236 406 270.5 406.0Q305 406 363.0 411.0Q421 416 450.5 416.0Q480 416 480 402Q480 367 398.0 350.0Q316 333 208 333Z"/></g><path d="M110,288 Q230,150 300,96" fill="none" stroke="#8d8470" stroke-width="1" filter="url(#r2)"/><path d="M110,288 Q250,180 412,118" fill="none" stroke="#8d8470" stroke-width="1" filter="url(#r2)"/><path d="M110,288 Q190,120 188,74" fill="none" stroke="#8d8470" stroke-width="1" filter="url(#r2)"/><g transform="translate(300,96)" filter="url(#r2)"><g><animateTransform attributeName="transform" type="rotate" values="-6;6;-6" dur="6s" repeatCount="indefinite"/><polygon points="0,-22 16,0 0,28 -16,0" fill="none" stroke="#b5462f" stroke-width="2"/><path d="M0,-22 V28 M-16,0 H16" stroke="#b5462f" stroke-width="1.2" fill="none"/><path d="M0,28 q7,9 -4,15 q-10,6 3,12" fill="none" stroke="#b5462f" stroke-width="1.6"/></g></g><g transform="translate(412,118)" filter="url(#r2)"><g><animateTransform attributeName="transform" type="rotate" values="7;-7;7" dur="6s" repeatCount="indefinite"/><polygon points="0,-22 16,0 0,28 -16,0" fill="none" stroke="#35517d" stroke-width="2"/><path d="M0,-22 V28 M-16,0 H16" stroke="#35517d" stroke-width="1.2" fill="none"/><path d="M0,28 q7,9 -4,15 q-10,6 3,12" fill="none" stroke="#35517d" stroke-width="1.6"/></g></g><g transform="translate(188,74)" filter="url(#r2)"><g><animateTransform attributeName="transform" type="rotate" values="-9;9;-9" dur="6s" repeatCount="indefinite"/><polygon points="0,-22 16,0 0,28 -16,0" fill="none" stroke="#4f7a3f" stroke-width="2"/><path d="M0,-22 V28 M-16,0 H16" stroke="#4f7a3f" stroke-width="1.2" fill="none"/><path d="M0,28 q7,9 -4,15 q-10,6 3,12" fill="none" stroke="#4f7a3f" stroke-width="1.6"/></g></g></svg>