<svg xmlns="http://www.w3.org/2000/svg" width="662" height="110" viewBox="0 0 662 110"><clipPath id="clip0"><rect x="16" y="14" height="28" width="0"><animate attributeName="width" from="0" to="378.0" begin="0.00s" dur="1.6s" fill="freeze"/></rect></clipPath><g clip-path="url(#clip0)"><path transform="translate(16.00,34.00) scale(0.01500,-0.01500)" d="M92 0V730H281Q352 730 403.5 703.0Q455 676 483.5 627.0Q512 578 512 511V220Q512 153 483.5 103.5Q455 54 403.5 27.0Q352 0 281 0ZM182 80H281Q347 80 384.5 117.0Q422 154 422 220V511Q422 576 384.5 613.0Q347 650 281 650H182Z" fill="#d8d8d8"/><path transform="translate(25.00,34.00) scale(0.01500,-0.01500)" d="M300 -10Q203 -10 143.5 48.5Q84 107 84 210V340Q84 443 143.5 501.5Q203 560 300 560Q365 560 413.5 534.0Q462 508 489.0 461.0Q516 414 516 350V252H172V200Q172 139 207.0 103.5Q242 68 300 68Q350 68 382.5 87.5Q415 107 422 140H512Q503 71 445.0 30.5Q387 -10 300 -10ZM172 322H428V350Q428 415 394.5 450.5Q361 486 300 486Q239 486 205.5 450.5Q172 415 172 350Z" fill="#d8d8d8"/><path transform="translate(34.00,34.00) scale(0.01500,-0.01500)" d="M308 -10Q208 -10 148.0 46.0Q88 102 88 200V350Q88 448 148.0 504.0Q208 560 308 560Q403 560 461.5 509.0Q520 458 523 370H433Q430 423 397.0 451.5Q364 480 308 480Q249 480 213.5 446.5Q178 413 178 351V200Q178 138 213.5 104.0Q249 70 308 70Q364 70 397.0 99.0Q430 128 433 180H523Q520 92 461.5 41.0Q403 -10 308 -10Z" fill="#d8d8d8"/><path transform="translate(43.00,34.00) scale(0.01500,-0.01500)" d="M85 0V82H280V468H105V550H370V82H555V0ZM315 649Q282 649 263.0 666.0Q244 683 244 712Q244 742 263.0 759.5Q282 777 315 777Q348 777 367.0 759.5Q386 742 386 712Q386 683 367.0 666.0Q348 649 315 649Z" fill="#d8d8d8"/><path transform="translate(52.00,34.00) scale(0.01500,-0.01500)" d="M268 -10Q186 -10 136.5 45.0Q87 100 87 194V355Q87 450 136.0 505.0Q185 560 268 560Q330 560 370.5 529.0Q411 498 419 445H420L418 570V730H508V0H418V105H417Q410 51 370.0 20.5Q330 -10 268 -10ZM298 68Q354 68 386.0 103.0Q418 138 418 200V350Q418 412 386.0 447.0Q354 482 298 482Q241 482 209.0 452.5Q177 423 177 355V195Q177 128 209.0 98.0Q241 68 298 68Z" fill="#d8d8d8"/><path transform="translate(61.00,34.00) scale(0.01500,-0.01500)" d="M300 -10Q203 -10 143.5 48.5Q84 107 84 210V340Q84 443 143.5 501.5Q203 560 300 560Q365 560 413.5 534.0Q462 508 489.0 461.0Q516 414 516 350V252H172V200Q172 139 207.0 103.5Q242 68 300 68Q350 68 382.5 87.5Q415 107 422 140H512Q503 71 445.0 30.5Q387 -10 300 -10ZM172 322H428V350Q428 415 394.5 450.5Q361 486 300 486Q239 486 205.5 450.5Q172 415 172 350Z" fill="#d8d8d8"/><path transform="translate(79.00,34.00) scale(0.01500,-0.01500)" d="M121 0 31 550H109L165 162Q168 140 171.0 113.5Q174 87 175 70Q177 87 179.5 113.5Q182 140 186 162L255 550H345L414 162Q418 140 421.5 113.5Q425 87 426 70Q428 87 431.0 113.5Q434 140 437 162L495 550H569L475 0H376L313 380Q309 408 305.5 439.5Q302 471 300 488Q299 471 295.0 439.5Q291 408 286 380L220 0Z" fill="#d8d8d8"/><path transform="translate(88.00,34.00) scale(0.01500,-0.01500)" d="M92 0V730H182V445H183Q190 500 228.0 530.0Q266 560 329 560Q412 560 461.0 509.0Q510 458 510 370V0H420V355Q420 417 388.5 450.5Q357 484 303 484Q247 484 214.5 449.0Q182 414 182 350V0Z" fill="#d8d8d8"/><path transform="translate(97.00,34.00) scale(0.01500,-0.01500)" d="M252 -10Q167 -10 117.0 37.5Q67 85 67 162Q67 213 90.0 251.0Q113 289 154.0 310.5Q195 332 248 332H418V375Q418 482 301 482Q249 482 217.0 463.0Q185 444 183 410H93Q98 475 153.5 517.5Q209 560 301 560Q401 560 454.5 512.0Q508 464 508 378V0H419V100H417Q409 49 366.0 19.5Q323 -10 252 -10ZM274 66Q340 66 379.0 98.0Q418 130 418 185V262H258Q214 262 186.5 235.5Q159 209 159 165Q159 119 189.5 92.5Q220 66 274 66Z" fill="#d8d8d8"/><path transform="translate(106.00,34.00) scale(0.01500,-0.01500)" d="M355 0Q287 0 246.0 39.5Q205 79 205 145V468H47V550H205V705H295V550H520V468H295V145Q295 117 311.5 99.5Q328 82 355 82H515V0Z" fill="#d8d8d8"/><path transform="translate(124.00,34.00) scale(0.01500,-0.01500)" d="M355 0Q287 0 246.0 39.5Q205 79 205 145V468H47V550H205V705H295V550H520V468H295V145Q295 117 311.5 99.5Q328 82 355 82H515V0Z" fill="#d8d8d8"/><path transform="translate(133.00,34.00) scale(0.01500,-0.01500)" d="M300 -8Q201 -8 142.5 50.0Q84 108 84 212V338Q84 443 142.0 500.5Q200 558 300 558Q400 558 458.0 500.5Q516 443 516 338V212Q516 108 457.5 50.0Q399 -8 300 -8ZM300 72Q359 72 392.5 105.0Q426 138 426 202V348Q426 412 392.5 445.0Q359 478 300 478Q242 478 208.0 445.0Q174 412 174 348V202Q174 138 208.0 105.0Q242 72 300 72Z" fill="#d8d8d8"/><path transform="translate(151.00,34.00) scale(0.01500,-0.01500)" d="M268 -10Q186 -10 136.5 45.0Q87 100 87 194V355Q87 450 136.0 505.0Q185 560 268 560Q330 560 370.5 529.0Q411 498 419 445H420L418 570V730H508V0H418V105H417Q410 51 370.0 20.5Q330 -10 268 -10ZM298 68Q354 68 386.0 103.0Q418 138 418 200V350Q418 412 386.0 447.0Q354 482 298 482Q241 482 209.0 452.5Q177 423 177 355V195Q177 128 209.0 98.0Q241 68 298 68Z" fill="#d8d8d8"/><path transform="translate(160.00,34.00) scale(0.01500,-0.01500)" d="M300 -10Q203 -10 143.5 48.5Q84 107 84 210V340Q84 443 143.5 501.5Q203 560 300 560Q365 560 413.5 534.0Q462 508 489.0 461.0Q516 414 516 350V252H172V200Q172 139 207.0 103.5Q242 68 300 68Q350 68 382.5 87.5Q415 107 422 140H512Q503 71 445.0 30.5Q387 -10 300 -10ZM172 322H428V350Q428 415 394.5 450.5Q361 486 300 486Q239 486 205.5 450.5Q172 415 172 350Z" fill="#d8d8d8"/><path transform="translate(169.00,34.00) scale(0.01500,-0.01500)" d="M215 0V393H55V475H215V590Q215 655 256.0 692.5Q297 730 369 730H530V648H369Q305 648 305 590V475H530V393H305V0Z" fill="#d8d8d8"/><path transform="translate(178.00,34.00) scale(0.01500,-0.01500)" d="M300 -10Q203 -10 143.5 48.5Q84 107 84 210V340Q84 443 143.5 501.5Q203 560 300 560Q365 560 413.5 534.0Q462 508 489.0 461.0Q516 414 516 350V252H172V200Q172 139 207.0 103.5Q242 68 300 68Q350 68 382.5 87.5Q415 107 422 140H512Q503 71 445.0 30.5Q387 -10 300 -10ZM172 322H428V350Q428 415 394.5 450.5Q361 486 300 486Q239 486 205.5 450.5Q172 415 172 350Z" fill="#d8d8d8"/><path transform="translate(187.00,34.00) scale(0.01500,-0.01500)" d="M92 0V550H182V445H183Q190 500 228.0 530.0Q266 560 329 560Q412 560 461.0 509.0Q510 458 510 370V0H420V354Q420 417 388.5 450.5Q357 484 303 484Q247 484 214.5 449.0Q182 414 182 350V0Z" fill="#d8d8d8"/><path transform="translate(196.00,34.00) scale(0.01500,-0.01500)" d="M268 -10Q186 -10 136.5 45.0Q87 100 87 194V355Q87 450 136.0 505.0Q185 560 268 560Q330 560 370.5 529.0Q411 498 419 445H420L418 570V730H508V0H418V105H417Q410 51 370.0 20.5Q330 -10 268 -10ZM298 68Q354 68 386.0 103.0Q418 138 418 200V350Q418 412 386.0 447.0Q354 482 298 482Q241 482 209.0 452.5Q177 423 177 355V195Q177 128 209.0 98.0Q241 68 298 68Z" fill="#d8d8d8"/><path transform="translate(214.00,34.00) scale(0.01500,-0.01500)" d="M215 0V393H55V475H215V590Q215 655 256.0 692.5Q297 730 369 730H530V648H369Q305 648 305 590V475H530V393H305V0Z" fill="#d8d8d8"/><path transform="translate(223.00,34.00) scale(0.01500,-0.01500)" d="M85 0V82H280V468H105V550H370V82H555V0ZM315 649Q282 649 263.0 666.0Q244 683 244 712Q244 742 263.0 759.5Q282 777 315 777Q348 777 367.0 759.5Q386 742 386 712Q386 683 367.0 666.0Q348 649 315 649Z" fill="#d8d8d8"/><path transform="translate(232.00,34.00) scale(0.01500,-0.01500)" d="M112 0V550H202V445H204Q211 498 249.0 529.0Q287 560 351 560Q437 560 483.5 508.5Q530 457 530 362V315H440V362Q440 482 323 482Q264 482 233.0 448.0Q202 414 202 350V0Z" fill="#d8d8d8"/><path transform="translate(241.00,34.00) scale(0.01500,-0.01500)" d="M278 -8Q186 -8 135.5 33.5Q85 75 85 151H175Q175 113 202.0 91.5Q229 70 278 70H322Q372 70 399.5 92.0Q427 114 427 154Q427 225 362 234L210 256Q154 264 123.0 302.5Q92 341 92 404Q92 476 141.5 517.0Q191 558 278 558H322Q402 558 452.5 518.5Q503 479 507 415H416Q414 444 388.5 463.0Q363 482 322 482H278Q232 482 206.0 461.0Q180 440 180 404Q180 346 233 338L375 318Q515 298 515 154Q515 77 464.5 34.5Q414 -8 322 -8Z" fill="#d8d8d8"/><path transform="translate(250.00,34.00) scale(0.01500,-0.01500)" d="M355 0Q287 0 246.0 39.5Q205 79 205 145V468H47V550H205V705H295V550H520V468H295V145Q295 117 311.5 99.5Q328 82 355 82H515V0Z" fill="#d8d8d8"/><path transform="translate(259.00,34.00) scale(0.01500,-0.01500)" d="M290 410Q257 410 236.0 431.0Q215 452 215 485Q215 517 236.5 538.5Q258 560 290 560H310Q342 560 363.5 538.5Q385 517 385 485Q385 452 364.0 431.0Q343 410 310 410ZM205 -160 260 146H368L298 -160Z" fill="#d8d8d8"/><path transform="translate(277.00,34.00) scale(0.01500,-0.01500)" d="M121 0 31 550H109L165 162Q168 140 171.0 113.5Q174 87 175 70Q177 87 179.5 113.5Q182 140 186 162L255 550H345L414 162Q418 140 421.5 113.5Q425 87 426 70Q428 87 431.0 113.5Q434 140 437 162L495 550H569L475 0H376L313 380Q309 408 305.5 439.5Q302 471 300 488Q299 471 295.0 439.5Q291 408 286 380L220 0Z" fill="#d8d8d8"/><path transform="translate(286.00,34.00) scale(0.01500,-0.01500)" d="M112 0V550H202V445H204Q211 498 249.0 529.0Q287 560 351 560Q437 560 483.5 508.5Q530 457 530 362V315H440V362Q440 482 323 482Q264 482 233.0 448.0Q202 414 202 350V0Z" fill="#d8d8d8"/><path transform="translate(295.00,34.00) scale(0.01500,-0.01500)" d="M85 0V82H280V468H105V550H370V82H555V0ZM315 649Q282 649 263.0 666.0Q244 683 244 712Q244 742 263.0 759.5Q282 777 315 777Q348 777 367.0 759.5Q386 742 386 712Q386 683 367.0 666.0Q348 649 315 649Z" fill="#d8d8d8"/><path transform="translate(304.00,34.00) scale(0.01500,-0.01500)" d="M355 0Q287 0 246.0 39.5Q205 79 205 145V468H47V550H205V705H295V550H520V468H295V145Q295 117 311.5 99.5Q328 82 355 82H515V0Z" fill="#d8d8d8"/><path transform="translate(313.00,34.00) scale(0.01500,-0.01500)" d="M300 -10Q203 -10 143.5 48.5Q84 107 84 210V340Q84 443 143.5 501.5Q203 560 300 560Q365 560 413.5 534.0Q462 508 489.0 461.0Q516 414 516 350V252H172V200Q172 139 207.0 103.5Q242 68 300 68Q350 68 382.5 87.5Q415 107 422 140H512Q503 71 445.0 30.5Q387 -10 300 -10ZM172 322H428V350Q428 415 394.5 450.5Q361 486 300 486Q239 486 205.5 450.5Q172 415 172 350Z" fill="#d8d8d8"/><path transform="translate(331.00,34.00) scale(0.01500,-0.01500)" d="M278 -8Q186 -8 135.5 33.5Q85 75 85 151H175Q175 113 202.0 91.5Q229 70 278 70H322Q372 70 399.5 92.0Q427 114 427 154Q427 225 362 234L210 256Q154 264 123.0 302.5Q92 341 92 404Q92 476 141.5 517.0Q191 558 278 558H322Q402 558 452.5 518.5Q503 479 507 415H416Q414 444 388.5 463.0Q363 482 322 482H278Q232 482 206.0 461.0Q180 440 180 404Q180 346 233 338L375 318Q515 298 515 154Q515 77 464.5 34.5Q414 -8 322 -8Z" fill="#d8d8d8"/><path transform="translate(340.00,34.00) scale(0.01500,-0.01500)" d="M300 -10Q203 -10 143.5 48.5Q84 107 84 210V340Q84 443 143.5 501.5Q203 560 300 560Q365 560 413.5 534.0Q462 508 489.0 461.0Q516 414 516 350V252H172V200Q172 139 207.0 103.5Q242 68 300 68Q350 68 382.5 87.5Q415 107 422 140H512Q503 71 445.0 30.5Q387 -10 300 -10ZM172 322H428V350Q428 415 394.5 450.5Q361 486 300 486Q239 486 205.5 450.5Q172 415 172 350Z" fill="#d8d8d8"/><path transform="translate(349.00,34.00) scale(0.01500,-0.01500)" d="M308 -10Q208 -10 148.0 46.0Q88 102 88 200V350Q88 448 148.0 504.0Q208 560 308 560Q403 560 461.5 509.0Q520 458 523 370H433Q430 423 397.0 451.5Q364 480 308 480Q249 480 213.5 446.5Q178 413 178 351V200Q178 138 213.5 104.0Q249 70 308 70Q364 70 397.0 99.0Q430 128 433 180H523Q520 92 461.5 41.0Q403 -10 308 -10Z" fill="#d8d8d8"/><path transform="translate(358.00,34.00) scale(0.01500,-0.01500)" d="M300 -8Q201 -8 142.5 50.0Q84 108 84 212V338Q84 443 142.0 500.5Q200 558 300 558Q400 558 458.0 500.5Q516 443 516 338V212Q516 108 457.5 50.0Q399 -8 300 -8ZM300 72Q359 72 392.5 105.0Q426 138 426 202V348Q426 412 392.5 445.0Q359 478 300 478Q242 478 208.0 445.0Q174 412 174 348V202Q174 138 208.0 105.0Q242 72 300 72Z" fill="#d8d8d8"/><path transform="translate(367.00,34.00) scale(0.01500,-0.01500)" d="M92 0V550H182V445H183Q190 500 228.0 530.0Q266 560 329 560Q412 560 461.0 509.0Q510 458 510 370V0H420V354Q420 417 388.5 450.5Q357 484 303 484Q247 484 214.5 449.0Q182 414 182 350V0Z" fill="#d8d8d8"/><path transform="translate(376.00,34.00) scale(0.01500,-0.01500)" d="M268 -10Q186 -10 136.5 45.0Q87 100 87 194V355Q87 450 136.0 505.0Q185 560 268 560Q330 560 370.5 529.0Q411 498 419 445H420L418 570V730H508V0H418V105H417Q410 51 370.0 20.5Q330 -10 268 -10ZM298 68Q354 68 386.0 103.0Q418 138 418 200V350Q418 412 386.0 447.0Q354 482 298 482Q241 482 209.0 452.5Q177 423 177 355V195Q177 128 209.0 98.0Q241 68 298 68Z" fill="#d8d8d8"/><path transform="translate(385.00,34.00) scale(0.01500,-0.01500)" d="M300 -10Q263 -10 240.5 12.0Q218 34 218 69Q218 106 240.5 129.0Q263 152 300 152Q337 152 359.5 129.0Q382 106 382 69Q382 34 359.5 12.0Q337 -10 300 -10Z" fill="#d8d8d8"/></g><rect y="16" width="9" height="20" fill="#d8d8d8" x="16.0"><animate attributeName="x" from="16.0" to="394.0" begin="0.00s" dur="1.6s" fill="freeze"/><animate attributeName="opacity" values="1;0;1" dur="1s" begin="1.60s" repeatCount="indefinite"/></rect><clipPath id="clip1"><rect x="16" y="40" height="28" width="0"><animate attributeName="width" from="0" to="387.0" begin="1.60s" dur="1.6s" fill="freeze"/></rect></clipPath><g clip-path="url(#clip1)"><path transform="translate(16.00,60.00) scale(0.01500,-0.01500)" d="M304 -10Q198 -10 135.0 46.0Q72 102 72 200H162Q162 139 201.0 104.5Q240 70 304 70Q366 70 403.0 106.0Q440 142 440 200Q440 244 416.5 276.5Q393 309 349 321L238 352Q169 372 129.5 423.5Q90 475 90 545Q90 603 116.0 647.0Q142 691 189.0 715.5Q236 740 297 740Q359 740 406.5 715.5Q454 691 481.0 647.5Q508 604 508 547H418Q418 597 384.0 628.5Q350 660 297 660Q244 660 211.0 628.5Q178 597 178 547Q178 507 199.5 478.5Q221 450 260 439L374 407Q447 387 487.5 331.5Q528 276 528 200Q528 104 467.0 47.0Q406 -10 304 -10Z" fill="#d8d8d8"/><path transform="translate(25.00,60.00) scale(0.01500,-0.01500)" d="M92 -180V550H182V445H183Q190 499 230.0 529.5Q270 560 332 560Q415 560 464.0 505.5Q513 451 513 356V195Q513 100 464.0 45.0Q415 -10 332 -10Q270 -10 230.0 21.0Q190 52 183 105H180L182 -20V-180ZM302 68Q359 68 391.0 98.0Q423 128 423 195V355Q423 423 391.0 452.5Q359 482 302 482Q247 482 214.5 447.0Q182 412 182 350V200Q182 138 214.5 103.0Q247 68 302 68Z" fill="#d8d8d8"/><path transform="translate(34.00,60.00) scale(0.01500,-0.01500)" d="M300 -10Q203 -10 143.5 48.5Q84 107 84 210V340Q84 443 143.5 501.5Q203 560 300 560Q365 560 413.5 534.0Q462 508 489.0 461.0Q516 414 516 350V252H172V200Q172 139 207.0 103.5Q242 68 300 68Q350 68 382.5 87.5Q415 107 422 140H512Q503 71 445.0 30.5Q387 -10 300 -10ZM172 322H428V350Q428 415 394.5 450.5Q361 486 300 486Q239 486 205.5 450.5Q172 415 172 350Z" fill="#d8d8d8"/><path transform="translate(43.00,60.00) scale(0.01500,-0.01500)" d="M308 -10Q208 -10 148.0 46.0Q88 102 88 200V350Q88 448 148.0 504.0Q208 560 308 560Q403 560 461.5 509.0Q520 458 523 370H433Q430 423 397.0 451.5Q364 480 308 480Q249 480 213.5 446.5Q178 413 178 351V200Q178 138 213.5 104.0Q249 70 308 70Q364 70 397.0 99.0Q430 128 433 180H523Q520 92 461.5 41.0Q403 -10 308 -10Z" fill="#d8d8d8"/><path transform="translate(52.00,60.00) scale(0.01500,-0.01500)" d="M85 0V82H280V468H105V550H370V82H555V0ZM315 649Q282 649 263.0 666.0Q244 683 244 712Q244 742 263.0 759.5Q282 777 315 777Q348 777 367.0 759.5Q386 742 386 712Q386 683 367.0 666.0Q348 649 315 649Z" fill="#d8d8d8"/><path transform="translate(61.00,60.00) scale(0.01500,-0.01500)" d="M215 0V393H55V475H215V590Q215 655 256.0 692.5Q297 730 369 730H530V648H369Q305 648 305 590V475H530V393H305V0Z" fill="#d8d8d8"/><path transform="translate(70.00,60.00) scale(0.01500,-0.01500)" d="M85 0V82H280V468H105V550H370V82H555V0ZM315 649Q282 649 263.0 666.0Q244 683 244 712Q244 742 263.0 759.5Q282 777 315 777Q348 777 367.0 759.5Q386 742 386 712Q386 683 367.0 666.0Q348 649 315 649Z" fill="#d8d8d8"/><path transform="translate(79.00,60.00) scale(0.01500,-0.01500)" d="M308 -10Q208 -10 148.0 46.0Q88 102 88 200V350Q88 448 148.0 504.0Q208 560 308 560Q403 560 461.5 509.0Q520 458 523 370H433Q430 423 397.0 451.5Q364 480 308 480Q249 480 213.5 446.5Q178 413 178 351V200Q178 138 213.5 104.0Q249 70 308 70Q364 70 397.0 99.0Q430 128 433 180H523Q520 92 461.5 41.0Q403 -10 308 -10Z" fill="#d8d8d8"/><path transform="translate(88.00,60.00) scale(0.01500,-0.01500)" d="M85 0V82H280V468H105V550H370V82H555V0ZM315 649Q282 649 263.0 666.0Q244 683 244 712Q244 742 263.0 759.5Q282 777 315 777Q348 777 367.0 759.5Q386 742 386 712Q386 683 367.0 666.0Q348 649 315 649Z" fill="#d8d8d8"/><path transform="translate(97.00,60.00) scale(0.01500,-0.01500)" d="M355 0Q287 0 246.0 39.5Q205 79 205 145V468H47V550H205V705H295V550H520V468H295V145Q295 117 311.5 99.5Q328 82 355 82H515V0Z" fill="#d8d8d8"/><path transform="translate(106.00,60.00) scale(0.01500,-0.01500)" d="M178 -180 259 34 54 550H151L281 210Q289 190 296.0 168.0Q303 146 306 130Q309 146 316.0 168.0Q323 190 330 210L451 550H546L272 -180Z" fill="#d8d8d8"/><path transform="translate(124.00,60.00) scale(0.01500,-0.01500)" d="M85 0V82H280V468H105V550H370V82H555V0ZM315 649Q282 649 263.0 666.0Q244 683 244 712Q244 742 263.0 759.5Q282 777 315 777Q348 777 367.0 759.5Q386 742 386 712Q386 683 367.0 666.0Q348 649 315 649Z" fill="#d8d8d8"/><path transform="translate(133.00,60.00) scale(0.01500,-0.01500)" d="M278 -8Q186 -8 135.5 33.5Q85 75 85 151H175Q175 113 202.0 91.5Q229 70 278 70H322Q372 70 399.5 92.0Q427 114 427 154Q427 225 362 234L210 256Q154 264 123.0 302.5Q92 341 92 404Q92 476 141.5 517.0Q191 558 278 558H322Q402 558 452.5 518.5Q503 479 507 415H416Q414 444 388.5 463.0Q363 482 322 482H278Q232 482 206.0 461.0Q180 440 180 404Q180 346 233 338L375 318Q515 298 515 154Q515 77 464.5 34.5Q414 -8 322 -8Z" fill="#d8d8d8"/><path transform="translate(151.00,60.00) scale(0.01500,-0.01500)" d="M355 0Q287 0 246.0 39.5Q205 79 205 145V468H47V550H205V705H295V550H520V468H295V145Q295 117 311.5 99.5Q328 82 355 82H515V0Z" fill="#d8d8d8"/><path transform="translate(160.00,60.00) scale(0.01500,-0.01500)" d="M92 0V730H182V445H183Q190 500 228.0 530.0Q266 560 329 560Q412 560 461.0 509.0Q510 458 510 370V0H420V355Q420 417 388.5 450.5Q357 484 303 484Q247 484 214.5 449.0Q182 414 182 350V0Z" fill="#d8d8d8"/><path transform="translate(169.00,60.00) scale(0.01500,-0.01500)" d="M300 -10Q203 -10 143.5 48.5Q84 107 84 210V340Q84 443 143.5 501.5Q203 560 300 560Q365 560 413.5 534.0Q462 508 489.0 461.0Q516 414 516 350V252H172V200Q172 139 207.0 103.5Q242 68 300 68Q350 68 382.5 87.5Q415 107 422 140H512Q503 71 445.0 30.5Q387 -10 300 -10ZM172 322H428V350Q428 415 394.5 450.5Q361 486 300 486Q239 486 205.5 450.5Q172 415 172 350Z" fill="#d8d8d8"/><path transform="translate(187.00,60.00) scale(0.01500,-0.01500)" d="M300 -8Q201 -8 142.5 50.0Q84 108 84 212V338Q84 443 142.0 500.5Q200 558 300 558Q400 558 458.0 500.5Q516 443 516 338V212Q516 108 457.5 50.0Q399 -8 300 -8ZM300 72Q359 72 392.5 105.0Q426 138 426 202V348Q426 412 392.5 445.0Q359 478 300 478Q242 478 208.0 445.0Q174 412 174 348V202Q174 138 208.0 105.0Q242 72 300 72Z" fill="#d8d8d8"/><path transform="translate(196.00,60.00) scale(0.01500,-0.01500)" d="M92 0V550H182V445H183Q190 500 228.0 530.0Q266 560 329 560Q412 560 461.0 509.0Q510 458 510 370V0H420V354Q420 417 388.5 450.5Q357 484 303 484Q247 484 214.5 449.0Q182 414 182 350V0Z" fill="#d8d8d8"/><path transform="translate(205.00,60.00) scale(0.01500,-0.01500)" d="M380 0Q307 0 263.5 42.5Q220 85 220 155V648H30V730H310V155Q310 121 329.0 101.5Q348 82 380 82H550V0Z" fill="#d8d8d8"/><path transform="translate(214.00,60.00) scale(0.01500,-0.01500)" d="M178 -180 259 34 54 550H151L281 210Q289 190 296.0 168.0Q303 146 306 130Q309 146 316.0 168.0Q323 190 330 210L451 550H546L272 -180Z" fill="#d8d8d8"/><path transform="translate(232.00,60.00) scale(0.01500,-0.01500)" d="M380 0Q307 0 263.5 42.5Q220 85 220 155V648H30V730H310V155Q310 121 329.0 101.5Q348 82 380 82H550V0Z" fill="#d8d8d8"/><path transform="translate(241.00,60.00) scale(0.01500,-0.01500)" d="M299 -10Q204 -10 147.0 46.5Q90 103 90 200V550H180V200Q180 140 212.0 104.5Q244 69 299 69Q355 69 387.5 104.5Q420 140 420 200V550H510V200Q510 103 452.0 46.5Q394 -10 299 -10Z" fill="#d8d8d8"/><path transform="translate(250.00,60.00) scale(0.01500,-0.01500)" d="M50 0 245 283 62 550H168L277 380Q284 369 290.5 356.0Q297 343 301 335Q304 343 310.5 356.0Q317 369 324 380L433 550H539L356 282L550 0H444L326 180Q319 191 312.5 205.5Q306 220 301 229Q297 220 289.5 205.5Q282 191 274 180L156 0Z" fill="#d8d8d8"/><path transform="translate(259.00,60.00) scale(0.01500,-0.01500)" d="M299 -10Q204 -10 147.0 46.5Q90 103 90 200V550H180V200Q180 140 212.0 104.5Q244 69 299 69Q355 69 387.5 104.5Q420 140 420 200V550H510V200Q510 103 452.0 46.5Q394 -10 299 -10Z" fill="#d8d8d8"/><path transform="translate(268.00,60.00) scale(0.01500,-0.01500)" d="M112 0V550H202V445H204Q211 498 249.0 529.0Q287 560 351 560Q437 560 483.5 508.5Q530 457 530 362V315H440V362Q440 482 323 482Q264 482 233.0 448.0Q202 414 202 350V0Z" fill="#d8d8d8"/><path transform="translate(277.00,60.00) scale(0.01500,-0.01500)" d="M178 -180 259 34 54 550H151L281 210Q289 190 296.0 168.0Q303 146 306 130Q309 146 316.0 168.0Q323 190 330 210L451 550H546L272 -180Z" fill="#d8d8d8"/><path transform="translate(295.00,60.00) scale(0.01500,-0.01500)" d="M355 0Q287 0 246.0 39.5Q205 79 205 145V468H47V550H205V705H295V550H520V468H295V145Q295 117 311.5 99.5Q328 82 355 82H515V0Z" fill="#d8d8d8"/><path transform="translate(304.00,60.00) scale(0.01500,-0.01500)" d="M92 0V730H182V445H183Q190 500 228.0 530.0Q266 560 329 560Q412 560 461.0 509.0Q510 458 510 370V0H420V355Q420 417 388.5 450.5Q357 484 303 484Q247 484 214.5 449.0Q182 414 182 350V0Z" fill="#d8d8d8"/><path transform="translate(313.00,60.00) scale(0.01500,-0.01500)" d="M252 -10Q167 -10 117.0 37.5Q67 85 67 162Q67 213 90.0 251.0Q113 289 154.0 310.5Q195 332 248 332H418V375Q418 482 301 482Q249 482 217.0 463.0Q185 444 183 410H93Q98 475 153.5 517.5Q209 560 301 560Q401 560 454.5 512.0Q508 464 508 378V0H419V100H417Q409 49 366.0 19.5Q323 -10 252 -10ZM274 66Q340 66 379.0 98.0Q418 130 418 185V262H258Q214 262 186.5 235.5Q159 209 159 165Q159 119 189.5 92.5Q220 66 274 66Z" fill="#d8d8d8"/><path transform="translate(322.00,60.00) scale(0.01500,-0.01500)" d="M355 0Q287 0 246.0 39.5Q205 79 205 145V468H47V550H205V705H295V550H520V468H295V145Q295 117 311.5 99.5Q328 82 355 82H515V0Z" fill="#d8d8d8"/><path transform="translate(340.00,60.00) scale(0.01500,-0.01500)" d="M278 -8Q186 -8 135.5 33.5Q85 75 85 151H175Q175 113 202.0 91.5Q229 70 278 70H322Q372 70 399.5 92.0Q427 114 427 154Q427 225 362 234L210 256Q154 264 123.0 302.5Q92 341 92 404Q92 476 141.5 517.0Q191 558 278 558H322Q402 558 452.5 518.5Q503 479 507 415H416Q414 444 388.5 463.0Q363 482 322 482H278Q232 482 206.0 461.0Q180 440 180 404Q180 346 233 338L375 318Q515 298 515 154Q515 77 464.5 34.5Q414 -8 322 -8Z" fill="#d8d8d8"/><path transform="translate(349.00,60.00) scale(0.01500,-0.01500)" d="M308 -10Q208 -10 148.0 46.0Q88 102 88 200V350Q88 448 148.0 504.0Q208 560 308 560Q403 560 461.5 509.0Q520 458 523 370H433Q430 423 397.0 451.5Q364 480 308 480Q249 480 213.5 446.5Q178 413 178 351V200Q178 138 213.5 104.0Q249 70 308 70Q364 70 397.0 99.0Q430 128 433 180H523Q520 92 461.5 41.0Q403 -10 308 -10Z" fill="#d8d8d8"/><path transform="translate(358.00,60.00) scale(0.01500,-0.01500)" d="M252 -10Q167 -10 117.0 37.5Q67 85 67 162Q67 213 90.0 251.0Q113 289 154.0 310.5Q195 332 248 332H418V375Q418 482 301 482Q249 482 217.0 463.0Q185 444 183 410H93Q98 475 153.5 517.5Q209 560 301 560Q401 560 454.5 512.0Q508 464 508 378V0H419V100H417Q409 49 366.0 19.5Q323 -10 252 -10ZM274 66Q340 66 379.0 98.0Q418 130 418 185V262H258Q214 262 186.5 235.5Q159 209 159 165Q159 119 189.5 92.5Q220 66 274 66Z" fill="#d8d8d8"/><path transform="translate(367.00,60.00) scale(0.01500,-0.01500)" d="M380 0Q307 0 263.5 42.5Q220 85 220 155V648H30V730H310V155Q310 121 329.0 101.5Q348 82 380 82H550V0Z" fill="#d8d8d8"/><path transform="translate(376.00,60.00) scale(0.01500,-0.01500)" d="M300 -10Q203 -10 143.5 48.5Q84 107 84 210V340Q84 443 143.5 501.5Q203 560 300 560Q365 560 413.5 534.0Q462 508 489.0 461.0Q516 414 516 350V252H172V200Q172 139 207.0 103.5Q242 68 300 68Q350 68 382.5 87.5Q415 107 422 140H512Q503 71 445.0 30.5Q387 -10 300 -10ZM172 322H428V350Q428 415 394.5 450.5Q361 486 300 486Q239 486 205.5 450.5Q172 415 172 350Z" fill="#d8d8d8"/><path transform="translate(385.00,60.00) scale(0.01500,-0.01500)" d="M278 -8Q186 -8 135.5 33.5Q85 75 85 151H175Q175 113 202.0 91.5Q229 70 278 70H322Q372 70 399.5 92.0Q427 114 427 154Q427 225 362 234L210 256Q154 264 123.0 302.5Q92 341 92 404Q92 476 141.5 517.0Q191 558 278 558H322Q402 558 452.5 518.5Q503 479 507 415H416Q414 444 388.5 463.0Q363 482 322 482H278Q232 482 206.0 461.0Q180 440 180 404Q180 346 233 338L375 318Q515 298 515 154Q515 77 464.5 34.5Q414 -8 322 -8Z" fill="#d8d8d8"/><path transform="translate(394.00,60.00) scale(0.01500,-0.01500)" d="M300 -10Q263 -10 240.5 12.0Q218 34 218 69Q218 106 240.5 129.0Q263 152 300 152Q337 152 359.5 129.0Q382 106 382 69Q382 34 359.5 12.0Q337 -10 300 -10Z" fill="#d8d8d8"/></g><rect y="42" width="9" height="20" fill="#d8d8d8" x="16.0"><animate attributeName="x" from="16.0" to="403.0" begin="1.60s" dur="1.6s" fill="freeze"/><animate attributeName="opacity" values="1;0;1" dur="1s" begin="3.20s" repeatCount="indefinite"/></rect><clipPath id="clip2"><rect x="16" y="66" height="28" width="0"><animate attributeName="width" from="0" to="621.0" begin="3.20s" dur="1.6s" fill="freeze"/></rect></clipPath><g clip-path="url(#clip2)"><path transform="translate(16.00,86.00) scale(0.01500,-0.01500)" d="M107 0 20 730H103L160 190Q164 157 166.0 121.5Q168 86 169 65Q171 86 174.5 121.5Q178 157 182 190L254 730H351L417 190Q421 157 425.0 121.5Q429 86 431 65Q433 86 435.5 121.5Q438 157 442 190L501 730H580L491 0H378L312 550Q308 584 306.0 616.5Q304 649 302 667Q300 649 298.0 616.5Q296 584 291 550L220 0Z" fill="#d8d8d8"/><path transform="translate(25.00,86.00) scale(0.01500,-0.01500)" d="M92 0V730H182V445H183Q190 500 228.0 530.0Q266 560 329 560Q412 560 461.0 509.0Q510 458 510 370V0H420V355Q420 417 388.5 450.5Q357 484 303 484Q247 484 214.5 449.0Q182 414 182 350V0Z" fill="#d8d8d8"/><path transform="translate(34.00,86.00) scale(0.01500,-0.01500)" d="M300 -10Q203 -10 143.5 48.5Q84 107 84 210V340Q84 443 143.5 501.5Q203 560 300 560Q365 560 413.5 534.0Q462 508 489.0 461.0Q516 414 516 350V252H172V200Q172 139 207.0 103.5Q242 68 300 68Q350 68 382.5 87.5Q415 107 422 140H512Q503 71 445.0 30.5Q387 -10 300 -10ZM172 322H428V350Q428 415 394.5 450.5Q361 486 300 486Q239 486 205.5 450.5Q172 415 172 350Z" fill="#d8d8d8"/><path transform="translate(43.00,86.00) scale(0.01500,-0.01500)" d="M92 0V550H182V445H183Q190 500 228.0 530.0Q266 560 329 560Q412 560 461.0 509.0Q510 458 510 370V0H420V354Q420 417 388.5 450.5Q357 484 303 484Q247 484 214.5 449.0Q182 414 182 350V0Z" fill="#d8d8d8"/><path transform="translate(61.00,86.00) scale(0.01500,-0.01500)" d="M355 0Q287 0 246.0 39.5Q205 79 205 145V468H47V550H205V705H295V550H520V468H295V145Q295 117 311.5 99.5Q328 82 355 82H515V0Z" fill="#d8d8d8"/><path transform="translate(70.00,86.00) scale(0.01500,-0.01500)" d="M92 0V730H182V445H183Q190 500 228.0 530.0Q266 560 329 560Q412 560 461.0 509.0Q510 458 510 370V0H420V355Q420 417 388.5 450.5Q357 484 303 484Q247 484 214.5 449.0Q182 414 182 350V0Z" fill="#d8d8d8"/><path transform="translate(79.00,86.00) scale(0.01500,-0.01500)" d="M300 -10Q203 -10 143.5 48.5Q84 107 84 210V340Q84 443 143.5 501.5Q203 560 300 560Q365 560 413.5 534.0Q462 508 489.0 461.0Q516 414 516 350V252H172V200Q172 139 207.0 103.5Q242 68 300 68Q350 68 382.5 87.5Q415 107 422 140H512Q503 71 445.0 30.5Q387 -10 300 -10ZM172 322H428V350Q428 415 394.5 450.5Q361 486 300 486Q239 486 205.5 450.5Q172 415 172 350Z" fill="#d8d8d8"/><path transform="translate(97.00,86.00) scale(0.01500,-0.01500)" d="M121 0 31 550H109L165 162Q168 140 171.0 113.5Q174 87 175 70Q177 87 179.5 113.5Q182 140 186 162L255 550H345L414 162Q418 140 421.5 113.5Q425 87 426 70Q428 87 431.0 113.5Q434 140 437 162L495 550H569L475 0H376L313 380Q309 408 305.5 439.5Q302 471 300 488Q299 471 295.0 439.5Q291 408 286 380L220 0Z" fill="#d8d8d8"/><path transform="translate(106.00,86.00) scale(0.01500,-0.01500)" d="M300 -8Q201 -8 142.5 50.0Q84 108 84 212V338Q84 443 142.0 500.5Q200 558 300 558Q400 558 458.0 500.5Q516 443 516 338V212Q516 108 457.5 50.0Q399 -8 300 -8ZM300 72Q359 72 392.5 105.0Q426 138 426 202V348Q426 412 392.5 445.0Q359 478 300 478Q242 478 208.0 445.0Q174 412 174 348V202Q174 138 208.0 105.0Q242 72 300 72Z" fill="#d8d8d8"/><path transform="translate(115.00,86.00) scale(0.01500,-0.01500)" d="M112 0V550H202V445H204Q211 498 249.0 529.0Q287 560 351 560Q437 560 483.5 508.5Q530 457 530 362V315H440V362Q440 482 323 482Q264 482 233.0 448.0Q202 414 202 350V0Z" fill="#d8d8d8"/><path transform="translate(124.00,86.00) scale(0.01500,-0.01500)" d="M97 0V730H187V323H292L446 550H549L372 288L559 0H454L294 245H187V0Z" fill="#d8d8d8"/><path transform="translate(133.00,86.00) scale(0.01500,-0.01500)" d="M215 0V393H55V475H215V590Q215 655 256.0 692.5Q297 730 369 730H530V648H369Q305 648 305 590V475H530V393H305V0Z" fill="#d8d8d8"/><path transform="translate(142.00,86.00) scale(0.01500,-0.01500)" d="M380 0Q307 0 263.5 42.5Q220 85 220 155V648H30V730H310V155Q310 121 329.0 101.5Q348 82 380 82H550V0Z" fill="#d8d8d8"/><path transform="translate(151.00,86.00) scale(0.01500,-0.01500)" d="M300 -8Q201 -8 142.5 50.0Q84 108 84 212V338Q84 443 142.0 500.5Q200 558 300 558Q400 558 458.0 500.5Q516 443 516 338V212Q516 108 457.5 50.0Q399 -8 300 -8ZM300 72Q359 72 392.5 105.0Q426 138 426 202V348Q426 412 392.5 445.0Q359 478 300 478Q242 478 208.0 445.0Q174 412 174 348V202Q174 138 208.0 105.0Q242 72 300 72Z" fill="#d8d8d8"/><path transform="translate(160.00,86.00) scale(0.01500,-0.01500)" d="M121 0 31 550H109L165 162Q168 140 171.0 113.5Q174 87 175 70Q177 87 179.5 113.5Q182 140 186 162L255 550H345L414 162Q418 140 421.5 113.5Q425 87 426 70Q428 87 431.0 113.5Q434 140 437 162L495 550H569L475 0H376L313 380Q309 408 305.5 439.5Q302 471 300 488Q299 471 295.0 439.5Q291 408 286 380L220 0Z" fill="#d8d8d8"/><path transform="translate(178.00,86.00) scale(0.01500,-0.01500)" d="M92 0V550H182V445H183Q190 500 228.0 530.0Q266 560 329 560Q412 560 461.0 509.0Q510 458 510 370V0H420V354Q420 417 388.5 450.5Q357 484 303 484Q247 484 214.5 449.0Q182 414 182 350V0Z" fill="#d8d8d8"/><path transform="translate(187.00,86.00) scale(0.01500,-0.01500)" d="M300 -10Q203 -10 143.5 48.5Q84 107 84 210V340Q84 443 143.5 501.5Q203 560 300 560Q365 560 413.5 534.0Q462 508 489.0 461.0Q516 414 516 350V252H172V200Q172 139 207.0 103.5Q242 68 300 68Q350 68 382.5 87.5Q415 107 422 140H512Q503 71 445.0 30.5Q387 -10 300 -10ZM172 322H428V350Q428 415 394.5 450.5Q361 486 300 486Q239 486 205.5 450.5Q172 415 172 350Z" fill="#d8d8d8"/><path transform="translate(196.00,86.00) scale(0.01500,-0.01500)" d="M300 -10Q203 -10 143.5 48.5Q84 107 84 210V340Q84 443 143.5 501.5Q203 560 300 560Q365 560 413.5 534.0Q462 508 489.0 461.0Q516 414 516 350V252H172V200Q172 139 207.0 103.5Q242 68 300 68Q350 68 382.5 87.5Q415 107 422 140H512Q503 71 445.0 30.5Q387 -10 300 -10ZM172 322H428V350Q428 415 394.5 450.5Q361 486 300 486Q239 486 205.5 450.5Q172 415 172 350Z" fill="#d8d8d8"/><path transform="translate(205.00,86.00) scale(0.01500,-0.01500)" d="M268 -10Q186 -10 136.5 45.0Q87 100 87 194V355Q87 450 136.0 505.0Q185 560 268 560Q330 560 370.5 529.0Q411 498 419 445H420L418 570V730H508V0H418V105H417Q410 51 370.0 20.5Q330 -10 268 -10ZM298 68Q354 68 386.0 103.0Q418 138 418 200V350Q418 412 386.0 447.0Q354 482 298 482Q241 482 209.0 452.5Q177 423 177 355V195Q177 128 209.0 98.0Q241 68 298 68Z" fill="#d8d8d8"/><path transform="translate(214.00,86.00) scale(0.01500,-0.01500)" d="M278 -8Q186 -8 135.5 33.5Q85 75 85 151H175Q175 113 202.0 91.5Q229 70 278 70H322Q372 70 399.5 92.0Q427 114 427 154Q427 225 362 234L210 256Q154 264 123.0 302.5Q92 341 92 404Q92 476 141.5 517.0Q191 558 278 558H322Q402 558 452.5 518.5Q503 479 507 415H416Q414 444 388.5 463.0Q363 482 322 482H278Q232 482 206.0 461.0Q180 440 180 404Q180 346 233 338L375 318Q515 298 515 154Q515 77 464.5 34.5Q414 -8 322 -8Z" fill="#d8d8d8"/><path transform="translate(232.00,86.00) scale(0.01500,-0.01500)" d="M252 -10Q167 -10 117.0 37.5Q67 85 67 162Q67 213 90.0 251.0Q113 289 154.0 310.5Q195 332 248 332H418V375Q418 482 301 482Q249 482 217.0 463.0Q185 444 183 410H93Q98 475 153.5 517.5Q209 560 301 560Q401 560 454.5 512.0Q508 464 508 378V0H419V100H417Q409 49 366.0 19.5Q323 -10 252 -10ZM274 66Q340 66 379.0 98.0Q418 130 418 185V262H258Q214 262 186.5 235.5Q159 209 159 165Q159 119 189.5 92.5Q220 66 274 66Z" fill="#d8d8d8"/><path transform="translate(250.00,86.00) scale(0.01500,-0.01500)" d="M355 0Q287 0 246.0 39.5Q205 79 205 145V468H47V550H205V705H295V550H520V468H295V145Q295 117 311.5 99.5Q328 82 355 82H515V0Z" fill="#d8d8d8"/><path transform="translate(259.00,86.00) scale(0.01500,-0.01500)" d="M300 -8Q201 -8 142.5 50.0Q84 108 84 212V338Q84 443 142.0 500.5Q200 558 300 558Q400 558 458.0 500.5Q516 443 516 338V212Q516 108 457.5 50.0Q399 -8 300 -8ZM300 72Q359 72 392.5 105.0Q426 138 426 202V348Q426 412 392.5 445.0Q359 478 300 478Q242 478 208.0 445.0Q174 412 174 348V202Q174 138 208.0 105.0Q242 72 300 72Z" fill="#d8d8d8"/><path transform="translate(268.00,86.00) scale(0.01500,-0.01500)" d="M300 -8Q201 -8 142.5 50.0Q84 108 84 212V338Q84 443 142.0 500.5Q200 558 300 558Q400 558 458.0 500.5Q516 443 516 338V212Q516 108 457.5 50.0Q399 -8 300 -8ZM300 72Q359 72 392.5 105.0Q426 138 426 202V348Q426 412 392.5 445.0Q359 478 300 478Q242 478 208.0 445.0Q174 412 174 348V202Q174 138 208.0 105.0Q242 72 300 72Z" fill="#d8d8d8"/><path transform="translate(277.00,86.00) scale(0.01500,-0.01500)" d="M380 0Q307 0 263.5 42.5Q220 85 220 155V648H30V730H310V155Q310 121 329.0 101.5Q348 82 380 82H550V0Z" fill="#d8d8d8"/><path transform="translate(295.00,86.00) scale(0.01500,-0.01500)" d="M355 0Q287 0 246.0 39.5Q205 79 205 145V468H47V550H205V705H295V550H520V468H295V145Q295 117 311.5 99.5Q328 82 355 82H515V0Z" fill="#d8d8d8"/><path transform="translate(304.00,86.00) scale(0.01500,-0.01500)" d="M92 0V730H182V445H183Q190 500 228.0 530.0Q266 560 329 560Q412 560 461.0 509.0Q510 458 510 370V0H420V355Q420 417 388.5 450.5Q357 484 303 484Q247 484 214.5 449.0Q182 414 182 350V0Z" fill="#d8d8d8"/><path transform="translate(313.00,86.00) scale(0.01500,-0.01500)" d="M252 -10Q167 -10 117.0 37.5Q67 85 67 162Q67 213 90.0 251.0Q113 289 154.0 310.5Q195 332 248 332H418V375Q418 482 301 482Q249 482 217.0 463.0Q185 444 183 410H93Q98 475 153.5 517.5Q209 560 301 560Q401 560 454.5 512.0Q508 464 508 378V0H419V100H417Q409 49 366.0 19.5Q323 -10 252 -10ZM274 66Q340 66 379.0 98.0Q418 130 418 185V262H258Q214 262 186.5 235.5Q159 209 159 165Q159 119 189.5 92.5Q220 66 274 66Z" fill="#d8d8d8"/><path transform="translate(322.00,86.00) scale(0.01500,-0.01500)" d="M355 0Q287 0 246.0 39.5Q205 79 205 145V468H47V550H205V705H295V550H520V468H295V145Q295 117 311.5 99.5Q328 82 355 82H515V0Z" fill="#d8d8d8"/><path transform="translate(340.00,86.00) scale(0.01500,-0.01500)" d="M268 -10Q186 -10 136.5 45.0Q87 100 87 194V355Q87 450 136.0 505.0Q185 560 268 560Q330 560 370.5 529.0Q411 498 419 445H420L418 570V730H508V0H418V105H417Q410 51 370.0 20.5Q330 -10 268 -10ZM298 68Q354 68 386.0 103.0Q418 138 418 200V350Q418 412 386.0 447.0Q354 482 298 482Q241 482 209.0 452.5Q177 423 177 355V195Q177 128 209.0 98.0Q241 68 298 68Z" fill="#d8d8d8"/><path transform="translate(349.00,86.00) scale(0.01500,-0.01500)" d="M300 -8Q201 -8 142.5 50.0Q84 108 84 212V338Q84 443 142.0 500.5Q200 558 300 558Q400 558 458.0 500.5Q516 443 516 338V212Q516 108 457.5 50.0Q399 -8 300 -8ZM300 72Q359 72 392.5 105.0Q426 138 426 202V348Q426 412 392.5 445.0Q359 478 300 478Q242 478 208.0 445.0Q174 412 174 348V202Q174 138 208.0 105.0Q242 72 300 72Z" fill="#d8d8d8"/><path transform="translate(358.00,86.00) scale(0.01500,-0.01500)" d="M300 -10Q203 -10 143.5 48.5Q84 107 84 210V340Q84 443 143.5 501.5Q203 560 300 560Q365 560 413.5 534.0Q462 508 489.0 461.0Q516 414 516 350V252H172V200Q172 139 207.0 103.5Q242 68 300 68Q350 68 382.5 87.5Q415 107 422 140H512Q503 71 445.0 30.5Q387 -10 300 -10ZM172 322H428V350Q428 415 394.5 450.5Q361 486 300 486Q239 486 205.5 450.5Q172 415 172 350Z" fill="#d8d8d8"/><path transform="translate(367.00,86.00) scale(0.01500,-0.01500)" d="M278 -8Q186 -8 135.5 33.5Q85 75 85 151H175Q175 113 202.0 91.5Q229 70 278 70H322Q372 70 399.5 92.0Q427 114 427 154Q427 225 362 234L210 256Q154 264 123.0 302.5Q92 341 92 404Q92 476 141.5 517.0Q191 558 278 558H322Q402 558 452.5 518.5Q503 479 507 415H416Q414 444 388.5 463.0Q363 482 322 482H278Q232 482 206.0 461.0Q180 440 180 404Q180 346 233 338L375 318Q515 298 515 154Q515 77 464.5 34.5Q414 -8 322 -8Z" fill="#d8d8d8"/><path transform="translate(376.00,86.00) scale(0.01500,-0.01500)" d="M92 0V550H182V445H183Q190 500 228.0 530.0Q266 560 329 560Q412 560 461.0 509.0Q510 458 510 370V0H420V354Q420 417 388.5 450.5Q357 484 303 484Q247 484 214.5 449.0Q182 414 182 350V0Z" fill="#d8d8d8"/><path transform="translate(385.00,86.00) scale(0.01500,-0.01500)" d="M257 430 249 730H351L344 430Z" fill="#d8d8d8"/><path transform="translate(394.00,86.00) scale(0.01500,-0.01500)" d="M355 0Q287 0 246.0 39.5Q205 79 205 145V468H47V550H205V705H295V550H520V468H295V145Q295 117 311.5 99.5Q328 82 355 82H515V0Z" fill="#d8d8d8"/><path transform="translate(412.00,86.00) scale(0.01500,-0.01500)" d="M300 -10Q203 -10 143.5 48.5Q84 107 84 210V340Q84 443 143.5 501.5Q203 560 300 560Q365 560 413.5 534.0Q462 508 489.0 461.0Q516 414 516 350V252H172V200Q172 139 207.0 103.5Q242 68 300 68Q350 68 382.5 87.5Q415 107 422 140H512Q503 71 445.0 30.5Q387 -10 300 -10ZM172 322H428V350Q428 415 394.5 450.5Q361 486 300 486Q239 486 205.5 450.5Q172 415 172 350Z" fill="#d8d8d8"/><path transform="translate(421.00,86.00) scale(0.01500,-0.01500)" d="M50 0 245 283 62 550H168L277 380Q284 369 290.5 356.0Q297 343 301 335Q304 343 310.5 356.0Q317 369 324 380L433 550H539L356 282L550 0H444L326 180Q319 191 312.5 205.5Q306 220 301 229Q297 220 289.5 205.5Q282 191 274 180L156 0Z" fill="#d8d8d8"/><path transform="translate(430.00,86.00) scale(0.01500,-0.01500)" d="M85 0V82H280V468H105V550H370V82H555V0ZM315 649Q282 649 263.0 666.0Q244 683 244 712Q244 742 263.0 759.5Q282 777 315 777Q348 777 367.0 759.5Q386 742 386 712Q386 683 367.0 666.0Q348 649 315 649Z" fill="#d8d8d8"/><path transform="translate(439.00,86.00) scale(0.01500,-0.01500)" d="M278 -8Q186 -8 135.5 33.5Q85 75 85 151H175Q175 113 202.0 91.5Q229 70 278 70H322Q372 70 399.5 92.0Q427 114 427 154Q427 225 362 234L210 256Q154 264 123.0 302.5Q92 341 92 404Q92 476 141.5 517.0Q191 558 278 558H322Q402 558 452.5 518.5Q503 479 507 415H416Q414 444 388.5 463.0Q363 482 322 482H278Q232 482 206.0 461.0Q180 440 180 404Q180 346 233 338L375 318Q515 298 515 154Q515 77 464.5 34.5Q414 -8 322 -8Z" fill="#d8d8d8"/><path transform="translate(448.00,86.00) scale(0.01500,-0.01500)" d="M355 0Q287 0 246.0 39.5Q205 79 205 145V468H47V550H205V705H295V550H520V468H295V145Q295 117 311.5 99.5Q328 82 355 82H515V0Z" fill="#d8d8d8"/><path transform="translate(457.00,86.00) scale(0.01500,-0.01500)" d="M210 -160 265 146H373L303 -160Z" fill="#d8d8d8"/><path transform="translate(475.00,86.00) scale(0.01500,-0.01500)" d="M121 0 31 550H109L165 162Q168 140 171.0 113.5Q174 87 175 70Q177 87 179.5 113.5Q182 140 186 162L255 550H345L414 162Q418 140 421.5 113.5Q425 87 426 70Q428 87 431.0 113.5Q434 140 437 162L495 550H569L475 0H376L313 380Q309 408 305.5 439.5Q302 471 300 488Q299 471 295.0 439.5Q291 408 286 380L220 0Z" fill="#d8d8d8"/><path transform="translate(484.00,86.00) scale(0.01500,-0.01500)" d="M112 0V550H202V445H204Q211 498 249.0 529.0Q287 560 351 560Q437 560 483.5 508.5Q530 457 530 362V315H440V362Q440 482 323 482Q264 482 233.0 448.0Q202 414 202 350V0Z" fill="#d8d8d8"/><path transform="translate(493.00,86.00) scale(0.01500,-0.01500)" d="M85 0V82H280V468H105V550H370V82H555V0ZM315 649Q282 649 263.0 666.0Q244 683 244 712Q244 742 263.0 759.5Q282 777 315 777Q348 777 367.0 759.5Q386 742 386 712Q386 683 367.0 666.0Q348 649 315 649Z" fill="#d8d8d8"/><path transform="translate(502.00,86.00) scale(0.01500,-0.01500)" d="M355 0Q287 0 246.0 39.5Q205 79 205 145V468H47V550H205V705H295V550H520V468H295V145Q295 117 311.5 99.5Q328 82 355 82H515V0Z" fill="#d8d8d8"/><path transform="translate(511.00,86.00) scale(0.01500,-0.01500)" d="M300 -10Q203 -10 143.5 48.5Q84 107 84 210V340Q84 443 143.5 501.5Q203 560 300 560Q365 560 413.5 534.0Q462 508 489.0 461.0Q516 414 516 350V252H172V200Q172 139 207.0 103.5Q242 68 300 68Q350 68 382.5 87.5Q415 107 422 140H512Q503 71 445.0 30.5Q387 -10 300 -10ZM172 322H428V350Q428 415 394.5 450.5Q361 486 300 486Q239 486 205.5 450.5Q172 415 172 350Z" fill="#d8d8d8"/><path transform="translate(529.00,86.00) scale(0.01500,-0.01500)" d="M252 -10Q167 -10 117.0 37.5Q67 85 67 162Q67 213 90.0 251.0Q113 289 154.0 310.5Q195 332 248 332H418V375Q418 482 301 482Q249 482 217.0 463.0Q185 444 183 410H93Q98 475 153.5 517.5Q209 560 301 560Q401 560 454.5 512.0Q508 464 508 378V0H419V100H417Q409 49 366.0 19.5Q323 -10 252 -10ZM274 66Q340 66 379.0 98.0Q418 130 418 185V262H258Q214 262 186.5 235.5Q159 209 159 165Q159 119 189.5 92.5Q220 66 274 66Z" fill="#d8d8d8"/><path transform="translate(547.00,86.00) scale(0.01500,-0.01500)" d="M278 -8Q186 -8 135.5 33.5Q85 75 85 151H175Q175 113 202.0 91.5Q229 70 278 70H322Q372 70 399.5 92.0Q427 114 427 154Q427 225 362 234L210 256Q154 264 123.0 302.5Q92 341 92 404Q92 476 141.5 517.0Q191 558 278 558H322Q402 558 452.5 518.5Q503 479 507 415H416Q414 444 388.5 463.0Q363 482 322 482H278Q232 482 206.0 461.0Q180 440 180 404Q180 346 233 338L375 318Q515 298 515 154Q515 77 464.5 34.5Q414 -8 322 -8Z" fill="#d8d8d8"/><path transform="translate(556.00,86.00) scale(0.01500,-0.01500)" d="M60 0V550H138V477H140Q145 514 169.5 537.0Q194 560 232 560Q268 560 293.0 539.0Q318 518 329 482H330Q337 518 361.5 539.0Q386 560 424 560Q477 560 508.5 520.5Q540 481 540 418V0H456V419Q456 452 440.0 471.5Q424 491 396 491Q369 491 353.0 472.0Q337 453 337 420V0H263V419Q263 452 247.0 471.5Q231 491 204 491Q176 491 160.0 472.0Q144 453 144 420V0Z" fill="#d8d8d8"/><path transform="translate(565.00,86.00) scale(0.01500,-0.01500)" d="M252 -10Q167 -10 117.0 37.5Q67 85 67 162Q67 213 90.0 251.0Q113 289 154.0 310.5Q195 332 248 332H418V375Q418 482 301 482Q249 482 217.0 463.0Q185 444 183 410H93Q98 475 153.5 517.5Q209 560 301 560Q401 560 454.5 512.0Q508 464 508 378V0H419V100H417Q409 49 366.0 19.5Q323 -10 252 -10ZM274 66Q340 66 379.0 98.0Q418 130 418 185V262H258Q214 262 186.5 235.5Q159 209 159 165Q159 119 189.5 92.5Q220 66 274 66Z" fill="#d8d8d8"/><path transform="translate(574.00,86.00) scale(0.01500,-0.01500)" d="M380 0Q307 0 263.5 42.5Q220 85 220 155V648H30V730H310V155Q310 121 329.0 101.5Q348 82 380 82H550V0Z" fill="#d8d8d8"/><path transform="translate(583.00,86.00) scale(0.01500,-0.01500)" d="M380 0Q307 0 263.5 42.5Q220 85 220 155V648H30V730H310V155Q310 121 329.0 101.5Q348 82 380 82H550V0Z" fill="#d8d8d8"/><path transform="translate(601.00,86.00) scale(0.01500,-0.01500)" d="M300 -8Q201 -8 142.5 50.0Q84 108 84 212V338Q84 443 142.0 500.5Q200 558 300 558Q400 558 458.0 500.5Q516 443 516 338V212Q516 108 457.5 50.0Q399 -8 300 -8ZM300 72Q359 72 392.5 105.0Q426 138 426 202V348Q426 412 392.5 445.0Q359 478 300 478Q242 478 208.0 445.0Q174 412 174 348V202Q174 138 208.0 105.0Q242 72 300 72Z" fill="#d8d8d8"/><path transform="translate(610.00,86.00) scale(0.01500,-0.01500)" d="M92 0V550H182V445H183Q190 500 228.0 530.0Q266 560 329 560Q412 560 461.0 509.0Q510 458 510 370V0H420V354Q420 417 388.5 450.5Q357 484 303 484Q247 484 214.5 449.0Q182 414 182 350V0Z" fill="#d8d8d8"/><path transform="translate(619.00,86.00) scale(0.01500,-0.01500)" d="M300 -10Q203 -10 143.5 48.5Q84 107 84 210V340Q84 443 143.5 501.5Q203 560 300 560Q365 560 413.5 534.0Q462 508 489.0 461.0Q516 414 516 350V252H172V200Q172 139 207.0 103.5Q242 68 300 68Q350 68 382.5 87.5Q415 107 422 140H512Q503 71 445.0 30.5Q387 -10 300 -10ZM172 322H428V350Q428 415 394.5 450.5Q361 486 300 486Q239 486 205.5 450.5Q172 415 172 350Z" fill="#d8d8d8"/><path transform="translate(628.00,86.00) scale(0.01500,-0.01500)" d="M300 -10Q263 -10 240.5 12.0Q218 34 218 69Q218 106 240.5 129.0Q263 152 300 152Q337 152 359.5 129.0Q382 106 382 69Q382 34 359.5 12.0Q337 -10 300 -10Z" fill="#d8d8d8"/></g><rect y="68" width="9" height="20" fill="#d8d8d8" x="16.0"><animate attributeName="x" from="16.0" to="637.0" begin="3.20s" dur="1.6s" fill="freeze"/><animate attributeName="opacity" values="1;0;1" dur="1s" begin="4.80s" repeatCount="indefinite"/></rect></svg>