<svg xmlns="http://www.w3.org/2000/svg" width="373" height="30" viewBox="0 0 373 30"><rect width="373" height="30" fill="none"/><path transform="translate(14.00,20.00) scale(0.01400,-0.01400)" d="M300 -10Q198 -10 144.0 46.5Q90 103 90 200V730H180V200Q180 140 209.5 105.0Q239 70 300 70Q360 70 390.0 105.0Q420 140 420 200V730H510V200Q510 102 456.5 46.0Q403 -10 300 -10Z" fill="#111111"/><path transform="translate(22.40,20.00) scale(0.01400,-0.01400)" d="M90 0V730H210L433 105Q431 130 428.5 166.5Q426 203 424.5 243.5Q423 284 423 320V730H510V0H390L168 625Q170 601 172.0 564.5Q174 528 175.5 487.5Q177 447 177 410V0Z" fill="#111111"/><path transform="translate(30.80,20.00) scale(0.01400,-0.01400)" d="M308 -10Q208 -10 150.0 46.0Q92 102 92 200V530Q92 628 150.0 684.0Q208 740 308 740Q406 740 464.0 683.5Q522 627 522 530H432Q432 592 399.5 625.5Q367 659 308 659Q249 659 215.5 625.5Q182 592 182 530V200Q182 138 215.5 104.5Q249 71 308 71Q367 71 399.5 104.5Q432 138 432 200H522Q522 103 464.0 46.5Q406 -10 308 -10Z" fill="#111111"/><path transform="translate(39.20,20.00) scale(0.01400,-0.01400)" d="M130 0V730H220V82H550V0Z" fill="#111111"/><path transform="translate(47.60,20.00) scale(0.01400,-0.01400)" d="M50 0 240 730H361L550 0H459L411 194H190L142 0ZM208 270H392L336 495Q320 559 311.0 602.0Q302 645 300 658Q298 645 289.0 602.0Q280 559 264 496Z" fill="#111111"/><path transform="translate(56.00,20.00) scale(0.01400,-0.01400)" d="M304 -10Q198 -10 135.0 46.0Q72 102 72 200H162Q162 139 201.0 104.5Q240 70 304 70Q366 70 403.0 106.0Q440 142 440 200Q440 244 416.5 276.5Q393 309 349 321L238 352Q169 372 129.5 423.5Q90 475 90 545Q90 603 116.0 647.0Q142 691 189.0 715.5Q236 740 297 740Q359 740 406.5 715.5Q454 691 481.0 647.5Q508 604 508 547H418Q418 597 384.0 628.5Q350 660 297 660Q244 660 211.0 628.5Q178 597 178 547Q178 507 199.5 478.5Q221 450 260 439L374 407Q447 387 487.5 331.5Q528 276 528 200Q528 104 467.0 47.0Q406 -10 304 -10Z" fill="#111111"/><path transform="translate(64.40,20.00) scale(0.01400,-0.01400)" d="M304 -10Q198 -10 135.0 46.0Q72 102 72 200H162Q162 139 201.0 104.5Q240 70 304 70Q366 70 403.0 106.0Q440 142 440 200Q440 244 416.5 276.5Q393 309 349 321L238 352Q169 372 129.5 423.5Q90 475 90 545Q90 603 116.0 647.0Q142 691 189.0 715.5Q236 740 297 740Q359 740 406.5 715.5Q454 691 481.0 647.5Q508 604 508 547H418Q418 597 384.0 628.5Q350 660 297 660Q244 660 211.0 628.5Q178 597 178 547Q178 507 199.5 478.5Q221 450 260 439L374 407Q447 387 487.5 331.5Q528 276 528 200Q528 104 467.0 47.0Q406 -10 304 -10Z" fill="#111111"/><path transform="translate(72.80,20.00) scale(0.01400,-0.01400)" d="M105 0V82H254V648H105V730H495V648H346V82H495V0Z" fill="#111111"/><path transform="translate(81.20,20.00) scale(0.01400,-0.01400)" d="M95 0V730H525V648H183V406H499V324H185V0Z" fill="#111111"/><path transform="translate(89.60,20.00) scale(0.01400,-0.01400)" d="M105 0V82H254V648H105V730H495V648H346V82H495V0Z" fill="#111111"/><path transform="translate(98.00,20.00) scale(0.01400,-0.01400)" d="M100 0V730H520V648H189V422H485V342H189V82H520V0Z" fill="#111111"/><path transform="translate(106.40,20.00) scale(0.01400,-0.01400)" d="M92 0V730H281Q352 730 403.5 703.0Q455 676 483.5 627.0Q512 578 512 511V220Q512 153 483.5 103.5Q455 54 403.5 27.0Q352 0 281 0ZM182 80H281Q347 80 384.5 117.0Q422 154 422 220V511Q422 576 384.5 613.0Q347 650 281 650H182Z" fill="#111111"/><path transform="translate(123.20,20.00) scale(0.01400,-0.01400)" d="M75 -110 430 830H525L170 -110Z" fill="#111111"/><path transform="translate(131.60,20.00) scale(0.01400,-0.01400)" d="M75 -110 430 830H525L170 -110Z" fill="#111111"/><path transform="translate(148.40,20.00) scale(0.01400,-0.01400)" d="M95 0V730H525V648H183V406H499V324H185V0Z" fill="#111111"/><path transform="translate(156.80,20.00) scale(0.01400,-0.01400)" d="M105 0V82H254V648H105V730H495V648H346V82H495V0Z" fill="#111111"/><path transform="translate(165.20,20.00) scale(0.01400,-0.01400)" d="M100 0V730H520V648H189V422H485V342H189V82H520V0Z" fill="#111111"/><path transform="translate(173.60,20.00) scale(0.01400,-0.01400)" d="M130 0V730H220V82H550V0Z" fill="#111111"/><path transform="translate(182.00,20.00) scale(0.01400,-0.01400)" d="M92 0V730H281Q352 730 403.5 703.0Q455 676 483.5 627.0Q512 578 512 511V220Q512 153 483.5 103.5Q455 54 403.5 27.0Q352 0 281 0ZM182 80H281Q347 80 384.5 117.0Q422 154 422 220V511Q422 576 384.5 613.0Q347 650 281 650H182Z" fill="#111111"/><path transform="translate(198.80,20.00) scale(0.01400,-0.01400)" d="M95 0V730H525V648H183V406H499V324H185V0Z" fill="#111111"/><path transform="translate(207.20,20.00) scale(0.01400,-0.01400)" d="M105 0V82H254V648H105V730H495V648H346V82H495V0Z" fill="#111111"/><path transform="translate(215.60,20.00) scale(0.01400,-0.01400)" d="M130 0V730H220V82H550V0Z" fill="#111111"/><path transform="translate(224.00,20.00) scale(0.01400,-0.01400)" d="M100 0V730H520V648H189V422H485V342H189V82H520V0Z" fill="#111111"/><path transform="translate(240.80,20.00) scale(0.01400,-0.01400)" d="M0 290V370H600V290Z" fill="#111111"/><path transform="translate(257.60,20.00) scale(0.01400,-0.01400)" d="M304 -10Q198 -10 135.0 46.0Q72 102 72 200H162Q162 139 201.0 104.5Q240 70 304 70Q366 70 403.0 106.0Q440 142 440 200Q440 244 416.5 276.5Q393 309 349 321L238 352Q169 372 129.5 423.5Q90 475 90 545Q90 603 116.0 647.0Q142 691 189.0 715.5Q236 740 297 740Q359 740 406.5 715.5Q454 691 481.0 647.5Q508 604 508 547H418Q418 597 384.0 628.5Q350 660 297 660Q244 660 211.0 628.5Q178 597 178 547Q178 507 199.5 478.5Q221 450 260 439L374 407Q447 387 487.5 331.5Q528 276 528 200Q528 104 467.0 47.0Q406 -10 304 -10Z" fill="#111111"/><path transform="translate(266.00,20.00) scale(0.01400,-0.01400)" d="M93 0V730H183V418H417V730H507V0H417V336H183V0Z" fill="#111111"/><path transform="translate(274.40,20.00) scale(0.01400,-0.01400)" d="M105 0V82H254V648H105V730H495V648H346V82H495V0Z" fill="#111111"/><path transform="translate(282.80,20.00) scale(0.01400,-0.01400)" d="M90 0V730H210L433 105Q431 130 428.5 166.5Q426 203 424.5 243.5Q423 284 423 320V730H510V0H390L168 625Q170 601 172.0 564.5Q174 528 175.5 487.5Q177 447 177 410V0Z" fill="#111111"/><path transform="translate(291.20,20.00) scale(0.01400,-0.01400)" d="M304 -10Q204 -10 146.0 46.0Q88 102 88 200V530Q88 628 146.0 684.0Q204 740 304 740Q402 740 460.0 683.5Q518 627 518 530H428Q428 592 395.5 625.5Q363 659 304 659Q245 659 211.5 626.0Q178 593 178 531V200Q178 138 211.5 104.0Q245 70 304 70Q363 70 395.5 104.0Q428 138 428 200V300H280V382H518V200Q518 103 460.0 46.5Q402 -10 304 -10Z" fill="#111111"/><path transform="translate(299.60,20.00) scale(0.01400,-0.01400)" d="M50 0 240 730H361L550 0H459L411 194H190L142 0ZM208 270H392L336 495Q320 559 311.0 602.0Q302 645 300 658Q298 645 289.0 602.0Q280 559 264 496Z" fill="#111111"/><path transform="translate(308.00,20.00) scale(0.01400,-0.01400)" d="M130 0V730H220V82H550V0Z" fill="#111111"/><path transform="translate(316.40,20.00) scale(0.01400,-0.01400)" d="M50 0 240 730H361L550 0H459L411 194H190L142 0ZM208 270H392L336 495Q320 559 311.0 602.0Q302 645 300 658Q298 645 289.0 602.0Q280 559 264 496Z" fill="#111111"/><path transform="translate(324.80,20.00) scale(0.01400,-0.01400)" d="M210 -160 265 146H373L303 -160Z" fill="#111111"/><path transform="translate(341.60,20.00) scale(0.01400,-0.01400)" d="M92 0V730H281Q352 730 403.5 703.0Q455 676 483.5 627.0Q512 578 512 511V220Q512 153 483.5 103.5Q455 54 403.5 27.0Q352 0 281 0ZM182 80H281Q347 80 384.5 117.0Q422 154 422 220V511Q422 576 384.5 613.0Q347 650 281 650H182Z" fill="#111111"/><path transform="translate(350.00,20.00) scale(0.01400,-0.01400)" d="M300 -10Q263 -10 240.5 12.0Q218 34 218 69Q218 106 240.5 129.0Q263 152 300 152Q337 152 359.5 129.0Q382 106 382 69Q382 34 359.5 12.0Q337 -10 300 -10Z" fill="#111111"/></svg>