<svg xmlns="http://www.w3.org/2000/svg" width="486" height="40" viewBox="0 0 486 40" role="img" aria-label="ENTRY No.1 · REV 32 · SEAL F19A · FILED 2026·06·17"><rect x="1" y="1" width="484" height="38" rx="3" fill="none" stroke="#111111" stroke-width="1.5"/><path transform="translate(18.00,26.00) scale(0.01500,-0.01500)" d="M100 0V730H520V648H189V422H485V342H189V82H520V0Z" fill="#111111"/><path transform="translate(27.00,26.00) scale(0.01500,-0.01500)" d="M90 0V730H210L433 105Q431 130 428.5 166.5Q426 203 424.5 243.5Q423 284 423 320V730H510V0H390L168 625Q170 601 172.0 564.5Q174 528 175.5 487.5Q177 447 177 410V0Z" fill="#111111"/><path transform="translate(36.00,26.00) scale(0.01500,-0.01500)" d="M255 0V648H55V730H545V648H345V0Z" fill="#111111"/><path transform="translate(45.00,26.00) scale(0.01500,-0.01500)" d="M93 0V730H318Q383 730 432.0 703.5Q481 677 508.0 630.0Q535 583 535 520Q535 446 497.0 393.0Q459 340 396 319L545 0H446L303 310H182V0ZM182 391H318Q374 391 408.0 426.5Q442 462 442 520Q442 579 408.0 614.0Q374 649 318 649H182Z" fill="#111111"/><path transform="translate(54.00,26.00) scale(0.01500,-0.01500)" d="M255 0V273L35 730H131L273 430Q285 405 292.0 387.5Q299 370 301 362Q303 370 310.5 387.5Q318 405 330 430L472 730H565L345 273V0Z" fill="#111111"/><path transform="translate(72.00,26.00) scale(0.01500,-0.01500)" d="M90 0V730H210L433 105Q431 130 428.5 166.5Q426 203 424.5 243.5Q423 284 423 320V730H510V0H390L168 625Q170 601 172.0 564.5Q174 528 175.5 487.5Q177 447 177 410V0Z" fill="#111111"/><path transform="translate(81.00,26.00) scale(0.01500,-0.01500)" d="M300 -8Q201 -8 142.5 50.0Q84 108 84 212V338Q84 443 142.0 500.5Q200 558 300 558Q400 558 458.0 500.5Q516 443 516 338V212Q516 108 457.5 50.0Q399 -8 300 -8ZM300 72Q359 72 392.5 105.0Q426 138 426 202V348Q426 412 392.5 445.0Q359 478 300 478Q242 478 208.0 445.0Q174 412 174 348V202Q174 138 208.0 105.0Q242 72 300 72Z" fill="#111111"/><path transform="translate(90.00,26.00) scale(0.01500,-0.01500)" d="M300 -10Q263 -10 240.5 12.0Q218 34 218 69Q218 106 240.5 129.0Q263 152 300 152Q337 152 359.5 129.0Q382 106 382 69Q382 34 359.5 12.0Q337 -10 300 -10Z" fill="#111111"/><path transform="translate(99.00,26.00) scale(0.01500,-0.01500)" d="M90 0V82H288V652L90 504V607L255 730H378V82H540V0Z" fill="#111111"/><path transform="translate(117.00,26.00) scale(0.01500,-0.01500)" d="M300 260Q263 260 240.5 282.0Q218 304 218 339Q218 376 240.5 399.0Q263 422 300 422Q337 422 359.5 399.0Q382 376 382 339Q382 304 359.5 282.0Q337 260 300 260Z" fill="#111111"/><path transform="translate(135.00,26.00) scale(0.01500,-0.01500)" d="M93 0V730H318Q383 730 432.0 703.5Q481 677 508.0 630.0Q535 583 535 520Q535 446 497.0 393.0Q459 340 396 319L545 0H446L303 310H182V0ZM182 391H318Q374 391 408.0 426.5Q442 462 442 520Q442 579 408.0 614.0Q374 649 318 649H182Z" fill="#111111"/><path transform="translate(144.00,26.00) scale(0.01500,-0.01500)" d="M100 0V730H520V648H189V422H485V342H189V82H520V0Z" fill="#111111"/><path transform="translate(153.00,26.00) scale(0.01500,-0.01500)" d="M238 0 50 730H142L267 233Q280 181 288.5 137.0Q297 93 301 70Q305 93 314.5 137.5Q324 182 337 234L457 730H550L361 0Z" fill="#111111"/><path transform="translate(171.00,26.00) scale(0.01500,-0.01500)" d="M289 -10Q188 -10 129.0 46.5Q70 103 70 200H160Q160 140 195.0 105.0Q230 70 290 70Q350 70 385.0 105.0Q420 140 420 200V250Q420 310 385.0 345.0Q350 380 290 380H211V458L390 648H90V730H492V646L316 459Q406 452 458.0 396.5Q510 341 510 250V200Q510 103 450.5 46.5Q391 -10 289 -10Z" fill="#111111"/><path transform="translate(180.00,26.00) scale(0.01500,-0.01500)" d="M86 0V83L329 343Q382 399 404.0 443.0Q426 487 426 529Q426 589 391.5 624.5Q357 660 298 660Q237 660 201.5 623.5Q166 587 166 525H76Q79 624 139.0 682.0Q199 740 298 740Q399 740 458.5 683.0Q518 626 518 528Q518 476 489.5 418.0Q461 360 392 288L195 82H527V0Z" fill="#111111"/><path transform="translate(198.00,26.00) scale(0.01500,-0.01500)" d="M300 260Q263 260 240.5 282.0Q218 304 218 339Q218 376 240.5 399.0Q263 422 300 422Q337 422 359.5 399.0Q382 376 382 339Q382 304 359.5 282.0Q337 260 300 260Z" fill="#111111"/><path transform="translate(216.00,26.00) scale(0.01500,-0.01500)" d="M304 -10Q198 -10 135.0 46.0Q72 102 72 200H162Q162 139 201.0 104.5Q240 70 304 70Q366 70 403.0 106.0Q440 142 440 200Q440 244 416.5 276.5Q393 309 349 321L238 352Q169 372 129.5 423.5Q90 475 90 545Q90 603 116.0 647.0Q142 691 189.0 715.5Q236 740 297 740Q359 740 406.5 715.5Q454 691 481.0 647.5Q508 604 508 547H418Q418 597 384.0 628.5Q350 660 297 660Q244 660 211.0 628.5Q178 597 178 547Q178 507 199.5 478.5Q221 450 260 439L374 407Q447 387 487.5 331.5Q528 276 528 200Q528 104 467.0 47.0Q406 -10 304 -10Z" fill="#111111"/><path transform="translate(225.00,26.00) scale(0.01500,-0.01500)" d="M100 0V730H520V648H189V422H485V342H189V82H520V0Z" fill="#111111"/><path transform="translate(234.00,26.00) scale(0.01500,-0.01500)" d="M50 0 240 730H361L550 0H459L411 194H190L142 0ZM208 270H392L336 495Q320 559 311.0 602.0Q302 645 300 658Q298 645 289.0 602.0Q280 559 264 496Z" fill="#111111"/><path transform="translate(243.00,26.00) scale(0.01500,-0.01500)" d="M130 0V730H220V82H550V0Z" fill="#111111"/><path transform="translate(261.00,26.00) scale(0.01500,-0.01500)" d="M95 0V730H525V648H183V406H499V324H185V0Z" fill="#111111"/><path transform="translate(270.00,26.00) scale(0.01500,-0.01500)" d="M90 0V82H288V652L90 504V607L255 730H378V82H540V0Z" fill="#111111"/><path transform="translate(279.00,26.00) scale(0.01500,-0.01500)" d="M195 0 375 313 372 315Q362 299 335.0 289.5Q308 280 276 280Q213 280 165.5 308.5Q118 337 91.0 387.0Q64 437 64 503Q64 574 94.0 627.0Q124 680 177.0 710.0Q230 740 299 740Q370 740 423.0 710.5Q476 681 506.0 628.5Q536 576 536 507Q536 459 518.0 408.5Q500 358 469 303L300 0ZM300 350Q365 350 405.5 393.0Q446 436 446 505Q446 574 405.5 617.0Q365 660 300 660Q235 660 194.5 617.0Q154 574 154 505Q154 436 194.5 393.0Q235 350 300 350Z" fill="#111111"/><path transform="translate(288.00,26.00) scale(0.01500,-0.01500)" d="M50 0 240 730H361L550 0H459L411 194H190L142 0ZM208 270H392L336 495Q320 559 311.0 602.0Q302 645 300 658Q298 645 289.0 602.0Q280 559 264 496Z" fill="#111111"/><path transform="translate(306.00,26.00) scale(0.01500,-0.01500)" d="M300 260Q263 260 240.5 282.0Q218 304 218 339Q218 376 240.5 399.0Q263 422 300 422Q337 422 359.5 399.0Q382 376 382 339Q382 304 359.5 282.0Q337 260 300 260Z" fill="#111111"/><path transform="translate(324.00,26.00) scale(0.01500,-0.01500)" d="M95 0V730H525V648H183V406H499V324H185V0Z" fill="#111111"/><path transform="translate(333.00,26.00) scale(0.01500,-0.01500)" d="M105 0V82H254V648H105V730H495V648H346V82H495V0Z" fill="#111111"/><path transform="translate(342.00,26.00) scale(0.01500,-0.01500)" d="M130 0V730H220V82H550V0Z" fill="#111111"/><path transform="translate(351.00,26.00) scale(0.01500,-0.01500)" d="M100 0V730H520V648H189V422H485V342H189V82H520V0Z" fill="#111111"/><path transform="translate(360.00,26.00) scale(0.01500,-0.01500)" d="M92 0V730H281Q352 730 403.5 703.0Q455 676 483.5 627.0Q512 578 512 511V220Q512 153 483.5 103.5Q455 54 403.5 27.0Q352 0 281 0ZM182 80H281Q347 80 384.5 117.0Q422 154 422 220V511Q422 576 384.5 613.0Q347 650 281 650H182Z" fill="#111111"/><path transform="translate(378.00,26.00) scale(0.01500,-0.01500)" d="M86 0V83L329 343Q382 399 404.0 443.0Q426 487 426 529Q426 589 391.5 624.5Q357 660 298 660Q237 660 201.5 623.5Q166 587 166 525H76Q79 624 139.0 682.0Q199 740 298 740Q399 740 458.5 683.0Q518 626 518 528Q518 476 489.5 418.0Q461 360 392 288L195 82H527V0Z" fill="#111111"/><path transform="translate(387.00,26.00) scale(0.01500,-0.01500)" d="M300 -10Q199 -10 139.5 48.5Q80 107 80 205V525Q80 623 139.5 681.5Q199 740 300 740Q401 740 460.5 681.5Q520 623 520 525V205Q520 140 493.0 91.5Q466 43 416.5 16.5Q367 -10 300 -10ZM300 67Q360 67 396.5 105.5Q433 144 433 205V525Q433 586 396.5 624.5Q360 663 300 663Q240 663 203.5 624.5Q167 586 167 525V205Q167 144 203.5 105.5Q240 67 300 67ZM300 310Q273 310 256.5 325.0Q240 340 240 368Q240 395 256.5 409.5Q273 424 300 424Q327 424 343.5 409.5Q360 395 360 368Q360 340 343.5 325.0Q327 310 300 310Z" fill="#111111"/><path transform="translate(396.00,26.00) scale(0.01500,-0.01500)" d="M86 0V83L329 343Q382 399 404.0 443.0Q426 487 426 529Q426 589 391.5 624.5Q357 660 298 660Q237 660 201.5 623.5Q166 587 166 525H76Q79 624 139.0 682.0Q199 740 298 740Q399 740 458.5 683.0Q518 626 518 528Q518 476 489.5 418.0Q461 360 392 288L195 82H527V0Z" fill="#111111"/><path transform="translate(405.00,26.00) scale(0.01500,-0.01500)" d="M301 -10Q231 -10 177.5 19.5Q124 49 94.0 101.5Q64 154 64 223Q64 271 82.0 321.5Q100 372 131 427L300 730H400L220 417L223 415Q236 432 262.0 441.0Q288 450 319 450Q384 450 432.5 421.5Q481 393 508.5 343.0Q536 293 536 227Q536 157 506.0 103.5Q476 50 423.5 20.0Q371 -10 301 -10ZM300 70Q365 70 405.5 113.0Q446 156 446 225Q446 294 405.5 337.0Q365 380 300 380Q235 380 194.5 337.0Q154 294 154 225Q154 156 194.5 113.0Q235 70 300 70Z" fill="#111111"/><path transform="translate(414.00,26.00) scale(0.01500,-0.01500)" d="M300 260Q263 260 240.5 282.0Q218 304 218 339Q218 376 240.5 399.0Q263 422 300 422Q337 422 359.5 399.0Q382 376 382 339Q382 304 359.5 282.0Q337 260 300 260Z" fill="#111111"/><path transform="translate(423.00,26.00) scale(0.01500,-0.01500)" d="M300 -10Q199 -10 139.5 48.5Q80 107 80 205V525Q80 623 139.5 681.5Q199 740 300 740Q401 740 460.5 681.5Q520 623 520 525V205Q520 140 493.0 91.5Q466 43 416.5 16.5Q367 -10 300 -10ZM300 67Q360 67 396.5 105.5Q433 144 433 205V525Q433 586 396.5 624.5Q360 663 300 663Q240 663 203.5 624.5Q167 586 167 525V205Q167 144 203.5 105.5Q240 67 300 67ZM300 310Q273 310 256.5 325.0Q240 340 240 368Q240 395 256.5 409.5Q273 424 300 424Q327 424 343.5 409.5Q360 395 360 368Q360 340 343.5 325.0Q327 310 300 310Z" fill="#111111"/><path transform="translate(432.00,26.00) scale(0.01500,-0.01500)" d="M301 -10Q231 -10 177.5 19.5Q124 49 94.0 101.5Q64 154 64 223Q64 271 82.0 321.5Q100 372 131 427L300 730H400L220 417L223 415Q236 432 262.0 441.0Q288 450 319 450Q384 450 432.5 421.5Q481 393 508.5 343.0Q536 293 536 227Q536 157 506.0 103.5Q476 50 423.5 20.0Q371 -10 301 -10ZM300 70Q365 70 405.5 113.0Q446 156 446 225Q446 294 405.5 337.0Q365 380 300 380Q235 380 194.5 337.0Q154 294 154 225Q154 156 194.5 113.0Q235 70 300 70Z" fill="#111111"/><path transform="translate(441.00,26.00) scale(0.01500,-0.01500)" d="M300 260Q263 260 240.5 282.0Q218 304 218 339Q218 376 240.5 399.0Q263 422 300 422Q337 422 359.5 399.0Q382 376 382 339Q382 304 359.5 282.0Q337 260 300 260Z" fill="#111111"/><path transform="translate(450.00,26.00) scale(0.01500,-0.01500)" d="M90 0V82H288V652L90 504V607L255 730H378V82H540V0Z" fill="#111111"/><path transform="translate(459.00,26.00) scale(0.01500,-0.01500)" d="M190 0 450 648H172V530H82V730H546V646L288 0Z" fill="#111111"/></svg>