<svg xmlns="http://www.w3.org/2000/svg" width="196" height="22" viewBox="0 0 196 22" aria-label="ACTIVE · last activity 0d"><path transform="translate(8.00,15.00) scale(0.01200,-0.01200)" d="M50 0 240 730H361L550 0H459L411 194H190L142 0ZM208 270H392L336 495Q320 559 311.0 602.0Q302 645 300 658Q298 645 289.0 602.0Q280 559 264 496Z" fill="#111111"/><path transform="translate(15.20,15.00) scale(0.01200,-0.01200)" d="M308 -10Q208 -10 150.0 46.0Q92 102 92 200V530Q92 628 150.0 684.0Q208 740 308 740Q406 740 464.0 683.5Q522 627 522 530H432Q432 592 399.5 625.5Q367 659 308 659Q249 659 215.5 625.5Q182 592 182 530V200Q182 138 215.5 104.5Q249 71 308 71Q367 71 399.5 104.5Q432 138 432 200H522Q522 103 464.0 46.5Q406 -10 308 -10Z" fill="#111111"/><path transform="translate(22.40,15.00) scale(0.01200,-0.01200)" d="M255 0V648H55V730H545V648H345V0Z" fill="#111111"/><path transform="translate(29.60,15.00) scale(0.01200,-0.01200)" d="M105 0V82H254V648H105V730H495V648H346V82H495V0Z" fill="#111111"/><path transform="translate(36.80,15.00) scale(0.01200,-0.01200)" d="M238 0 50 730H142L267 233Q280 181 288.5 137.0Q297 93 301 70Q305 93 314.5 137.5Q324 182 337 234L457 730H550L361 0Z" fill="#111111"/><path transform="translate(44.00,15.00) scale(0.01200,-0.01200)" d="M100 0V730H520V648H189V422H485V342H189V82H520V0Z" fill="#111111"/><path transform="translate(58.40,15.00) scale(0.01200,-0.01200)" d="M300 260Q263 260 240.5 282.0Q218 304 218 339Q218 376 240.5 399.0Q263 422 300 422Q337 422 359.5 399.0Q382 376 382 339Q382 304 359.5 282.0Q337 260 300 260Z" fill="#111111"/><path transform="translate(72.80,15.00) scale(0.01200,-0.01200)" d="M380 0Q307 0 263.5 42.5Q220 85 220 155V648H30V730H310V155Q310 121 329.0 101.5Q348 82 380 82H550V0Z" fill="#111111"/><path transform="translate(80.00,15.00) scale(0.01200,-0.01200)" d="M252 -10Q167 -10 117.0 37.5Q67 85 67 162Q67 213 90.0 251.0Q113 289 154.0 310.5Q195 332 248 332H418V375Q418 482 301 482Q249 482 217.0 463.0Q185 444 183 410H93Q98 475 153.5 517.5Q209 560 301 560Q401 560 454.5 512.0Q508 464 508 378V0H419V100H417Q409 49 366.0 19.5Q323 -10 252 -10ZM274 66Q340 66 379.0 98.0Q418 130 418 185V262H258Q214 262 186.5 235.5Q159 209 159 165Q159 119 189.5 92.5Q220 66 274 66Z" fill="#111111"/><path transform="translate(87.20,15.00) scale(0.01200,-0.01200)" d="M278 -8Q186 -8 135.5 33.5Q85 75 85 151H175Q175 113 202.0 91.5Q229 70 278 70H322Q372 70 399.5 92.0Q427 114 427 154Q427 225 362 234L210 256Q154 264 123.0 302.5Q92 341 92 404Q92 476 141.5 517.0Q191 558 278 558H322Q402 558 452.5 518.5Q503 479 507 415H416Q414 444 388.5 463.0Q363 482 322 482H278Q232 482 206.0 461.0Q180 440 180 404Q180 346 233 338L375 318Q515 298 515 154Q515 77 464.5 34.5Q414 -8 322 -8Z" fill="#111111"/><path transform="translate(94.40,15.00) scale(0.01200,-0.01200)" d="M355 0Q287 0 246.0 39.5Q205 79 205 145V468H47V550H205V705H295V550H520V468H295V145Q295 117 311.5 99.5Q328 82 355 82H515V0Z" fill="#111111"/><path transform="translate(108.80,15.00) scale(0.01200,-0.01200)" d="M252 -10Q167 -10 117.0 37.5Q67 85 67 162Q67 213 90.0 251.0Q113 289 154.0 310.5Q195 332 248 332H418V375Q418 482 301 482Q249 482 217.0 463.0Q185 444 183 410H93Q98 475 153.5 517.5Q209 560 301 560Q401 560 454.5 512.0Q508 464 508 378V0H419V100H417Q409 49 366.0 19.5Q323 -10 252 -10ZM274 66Q340 66 379.0 98.0Q418 130 418 185V262H258Q214 262 186.5 235.5Q159 209 159 165Q159 119 189.5 92.5Q220 66 274 66Z" fill="#111111"/><path transform="translate(116.00,15.00) scale(0.01200,-0.01200)" d="M308 -10Q208 -10 148.0 46.0Q88 102 88 200V350Q88 448 148.0 504.0Q208 560 308 560Q403 560 461.5 509.0Q520 458 523 370H433Q430 423 397.0 451.5Q364 480 308 480Q249 480 213.5 446.5Q178 413 178 351V200Q178 138 213.5 104.0Q249 70 308 70Q364 70 397.0 99.0Q430 128 433 180H523Q520 92 461.5 41.0Q403 -10 308 -10Z" fill="#111111"/><path transform="translate(123.20,15.00) scale(0.01200,-0.01200)" d="M355 0Q287 0 246.0 39.5Q205 79 205 145V468H47V550H205V705H295V550H520V468H295V145Q295 117 311.5 99.5Q328 82 355 82H515V0Z" fill="#111111"/><path transform="translate(130.40,15.00) scale(0.01200,-0.01200)" d="M85 0V82H280V468H105V550H370V82H555V0ZM315 649Q282 649 263.0 666.0Q244 683 244 712Q244 742 263.0 759.5Q282 777 315 777Q348 777 367.0 759.5Q386 742 386 712Q386 683 367.0 666.0Q348 649 315 649Z" fill="#111111"/><path transform="translate(137.60,15.00) scale(0.01200,-0.01200)" d="M241 0 54 550H151L271 180Q282 147 290.0 116.5Q298 86 302 69Q307 86 314.0 116.5Q321 147 331 180L451 550H546L359 0Z" fill="#111111"/><path transform="translate(144.80,15.00) scale(0.01200,-0.01200)" d="M85 0V82H280V468H105V550H370V82H555V0ZM315 649Q282 649 263.0 666.0Q244 683 244 712Q244 742 263.0 759.5Q282 777 315 777Q348 777 367.0 759.5Q386 742 386 712Q386 683 367.0 666.0Q348 649 315 649Z" fill="#111111"/><path transform="translate(152.00,15.00) scale(0.01200,-0.01200)" d="M355 0Q287 0 246.0 39.5Q205 79 205 145V468H47V550H205V705H295V550H520V468H295V145Q295 117 311.5 99.5Q328 82 355 82H515V0Z" fill="#111111"/><path transform="translate(159.20,15.00) scale(0.01200,-0.01200)" d="M178 -180 259 34 54 550H151L281 210Q289 190 296.0 168.0Q303 146 306 130Q309 146 316.0 168.0Q323 190 330 210L451 550H546L272 -180Z" fill="#111111"/><path transform="translate(173.60,15.00) scale(0.01200,-0.01200)" d="M300 -10Q199 -10 139.5 48.5Q80 107 80 205V525Q80 623 139.5 681.5Q199 740 300 740Q401 740 460.5 681.5Q520 623 520 525V205Q520 140 493.0 91.5Q466 43 416.5 16.5Q367 -10 300 -10ZM300 67Q360 67 396.5 105.5Q433 144 433 205V525Q433 586 396.5 624.5Q360 663 300 663Q240 663 203.5 624.5Q167 586 167 525V205Q167 144 203.5 105.5Q240 67 300 67ZM300 310Q273 310 256.5 325.0Q240 340 240 368Q240 395 256.5 409.5Q273 424 300 424Q327 424 343.5 409.5Q360 395 360 368Q360 340 343.5 325.0Q327 310 300 310Z" fill="#111111"/><path transform="translate(180.80,15.00) scale(0.01200,-0.01200)" d="M268 -10Q186 -10 136.5 45.0Q87 100 87 194V355Q87 450 136.0 505.0Q185 560 268 560Q330 560 370.5 529.0Q411 498 419 445H420L418 570V730H508V0H418V105H417Q410 51 370.0 20.5Q330 -10 268 -10ZM298 68Q354 68 386.0 103.0Q418 138 418 200V350Q418 412 386.0 447.0Q354 482 298 482Q241 482 209.0 452.5Q177 423 177 355V195Q177 128 209.0 98.0Q241 68 298 68Z" fill="#111111"/></svg>