<svg xmlns="http://www.w3.org/2000/svg" width="211" height="22" viewBox="0 0 211 22" aria-label="SHIPPED v0.1.0 · this month"><path transform="translate(8.00,15.00) scale(0.01200,-0.01200)" d="M304 -10Q198 -10 135.0 46.0Q72 102 72 200H162Q162 139 201.0 104.5Q240 70 304 70Q366 70 403.0 106.0Q440 142 440 200Q440 244 416.5 276.5Q393 309 349 321L238 352Q169 372 129.5 423.5Q90 475 90 545Q90 603 116.0 647.0Q142 691 189.0 715.5Q236 740 297 740Q359 740 406.5 715.5Q454 691 481.0 647.5Q508 604 508 547H418Q418 597 384.0 628.5Q350 660 297 660Q244 660 211.0 628.5Q178 597 178 547Q178 507 199.5 478.5Q221 450 260 439L374 407Q447 387 487.5 331.5Q528 276 528 200Q528 104 467.0 47.0Q406 -10 304 -10Z" fill="#111111"/><path transform="translate(15.20,15.00) scale(0.01200,-0.01200)" d="M93 0V730H183V418H417V730H507V0H417V336H183V0Z" fill="#111111"/><path transform="translate(22.40,15.00) scale(0.01200,-0.01200)" d="M105 0V82H254V648H105V730H495V648H346V82H495V0Z" fill="#111111"/><path transform="translate(29.60,15.00) scale(0.01200,-0.01200)" d="M92 0V730H327Q429 730 489.5 671.5Q550 613 550 515Q550 417 489.5 358.5Q429 300 327 300H182V0ZM182 381H327Q386 381 421.5 417.5Q457 454 457 515Q457 577 421.5 613.0Q386 649 327 649H182Z" fill="#111111"/><path transform="translate(36.80,15.00) scale(0.01200,-0.01200)" d="M92 0V730H327Q429 730 489.5 671.5Q550 613 550 515Q550 417 489.5 358.5Q429 300 327 300H182V0ZM182 381H327Q386 381 421.5 417.5Q457 454 457 515Q457 577 421.5 613.0Q386 649 327 649H182Z" fill="#111111"/><path transform="translate(44.00,15.00) scale(0.01200,-0.01200)" d="M100 0V730H520V648H189V422H485V342H189V82H520V0Z" fill="#111111"/><path transform="translate(51.20,15.00) scale(0.01200,-0.01200)" d="M92 0V730H281Q352 730 403.5 703.0Q455 676 483.5 627.0Q512 578 512 511V220Q512 153 483.5 103.5Q455 54 403.5 27.0Q352 0 281 0ZM182 80H281Q347 80 384.5 117.0Q422 154 422 220V511Q422 576 384.5 613.0Q347 650 281 650H182Z" fill="#111111"/><path transform="translate(65.60,15.00) scale(0.01200,-0.01200)" d="M241 0 54 550H151L271 180Q282 147 290.0 116.5Q298 86 302 69Q307 86 314.0 116.5Q321 147 331 180L451 550H546L359 0Z" fill="#111111"/><path transform="translate(72.80,15.00) scale(0.01200,-0.01200)" d="M300 -10Q199 -10 139.5 48.5Q80 107 80 205V525Q80 623 139.5 681.5Q199 740 300 740Q401 740 460.5 681.5Q520 623 520 525V205Q520 140 493.0 91.5Q466 43 416.5 16.5Q367 -10 300 -10ZM300 67Q360 67 396.5 105.5Q433 144 433 205V525Q433 586 396.5 624.5Q360 663 300 663Q240 663 203.5 624.5Q167 586 167 525V205Q167 144 203.5 105.5Q240 67 300 67ZM300 310Q273 310 256.5 325.0Q240 340 240 368Q240 395 256.5 409.5Q273 424 300 424Q327 424 343.5 409.5Q360 395 360 368Q360 340 343.5 325.0Q327 310 300 310Z" fill="#111111"/><path transform="translate(80.00,15.00) scale(0.01200,-0.01200)" d="M300 -10Q263 -10 240.5 12.0Q218 34 218 69Q218 106 240.5 129.0Q263 152 300 152Q337 152 359.5 129.0Q382 106 382 69Q382 34 359.5 12.0Q337 -10 300 -10Z" fill="#111111"/><path transform="translate(87.20,15.00) scale(0.01200,-0.01200)" d="M90 0V82H288V652L90 504V607L255 730H378V82H540V0Z" fill="#111111"/><path transform="translate(94.40,15.00) scale(0.01200,-0.01200)" d="M300 -10Q263 -10 240.5 12.0Q218 34 218 69Q218 106 240.5 129.0Q263 152 300 152Q337 152 359.5 129.0Q382 106 382 69Q382 34 359.5 12.0Q337 -10 300 -10Z" fill="#111111"/><path transform="translate(101.60,15.00) scale(0.01200,-0.01200)" d="M300 -10Q199 -10 139.5 48.5Q80 107 80 205V525Q80 623 139.5 681.5Q199 740 300 740Q401 740 460.5 681.5Q520 623 520 525V205Q520 140 493.0 91.5Q466 43 416.5 16.5Q367 -10 300 -10ZM300 67Q360 67 396.5 105.5Q433 144 433 205V525Q433 586 396.5 624.5Q360 663 300 663Q240 663 203.5 624.5Q167 586 167 525V205Q167 144 203.5 105.5Q240 67 300 67ZM300 310Q273 310 256.5 325.0Q240 340 240 368Q240 395 256.5 409.5Q273 424 300 424Q327 424 343.5 409.5Q360 395 360 368Q360 340 343.5 325.0Q327 310 300 310Z" fill="#111111"/><path transform="translate(116.00,15.00) scale(0.01200,-0.01200)" d="M300 260Q263 260 240.5 282.0Q218 304 218 339Q218 376 240.5 399.0Q263 422 300 422Q337 422 359.5 399.0Q382 376 382 339Q382 304 359.5 282.0Q337 260 300 260Z" fill="#111111"/><path transform="translate(130.40,15.00) scale(0.01200,-0.01200)" d="M355 0Q287 0 246.0 39.5Q205 79 205 145V468H47V550H205V705H295V550H520V468H295V145Q295 117 311.5 99.5Q328 82 355 82H515V0Z" fill="#111111"/><path transform="translate(137.60,15.00) scale(0.01200,-0.01200)" d="M92 0V730H182V445H183Q190 500 228.0 530.0Q266 560 329 560Q412 560 461.0 509.0Q510 458 510 370V0H420V355Q420 417 388.5 450.5Q357 484 303 484Q247 484 214.5 449.0Q182 414 182 350V0Z" fill="#111111"/><path transform="translate(144.80,15.00) scale(0.01200,-0.01200)" d="M85 0V82H280V468H105V550H370V82H555V0ZM315 649Q282 649 263.0 666.0Q244 683 244 712Q244 742 263.0 759.5Q282 777 315 777Q348 777 367.0 759.5Q386 742 386 712Q386 683 367.0 666.0Q348 649 315 649Z" fill="#111111"/><path transform="translate(152.00,15.00) scale(0.01200,-0.01200)" d="M278 -8Q186 -8 135.5 33.5Q85 75 85 151H175Q175 113 202.0 91.5Q229 70 278 70H322Q372 70 399.5 92.0Q427 114 427 154Q427 225 362 234L210 256Q154 264 123.0 302.5Q92 341 92 404Q92 476 141.5 517.0Q191 558 278 558H322Q402 558 452.5 518.5Q503 479 507 415H416Q414 444 388.5 463.0Q363 482 322 482H278Q232 482 206.0 461.0Q180 440 180 404Q180 346 233 338L375 318Q515 298 515 154Q515 77 464.5 34.5Q414 -8 322 -8Z" fill="#111111"/><path transform="translate(166.40,15.00) scale(0.01200,-0.01200)" d="M60 0V550H138V477H140Q145 514 169.5 537.0Q194 560 232 560Q268 560 293.0 539.0Q318 518 329 482H330Q337 518 361.5 539.0Q386 560 424 560Q477 560 508.5 520.5Q540 481 540 418V0H456V419Q456 452 440.0 471.5Q424 491 396 491Q369 491 353.0 472.0Q337 453 337 420V0H263V419Q263 452 247.0 471.5Q231 491 204 491Q176 491 160.0 472.0Q144 453 144 420V0Z" fill="#111111"/><path transform="translate(173.60,15.00) scale(0.01200,-0.01200)" d="M300 -8Q201 -8 142.5 50.0Q84 108 84 212V338Q84 443 142.0 500.5Q200 558 300 558Q400 558 458.0 500.5Q516 443 516 338V212Q516 108 457.5 50.0Q399 -8 300 -8ZM300 72Q359 72 392.5 105.0Q426 138 426 202V348Q426 412 392.5 445.0Q359 478 300 478Q242 478 208.0 445.0Q174 412 174 348V202Q174 138 208.0 105.0Q242 72 300 72Z" fill="#111111"/><path transform="translate(180.80,15.00) scale(0.01200,-0.01200)" d="M92 0V550H182V445H183Q190 500 228.0 530.0Q266 560 329 560Q412 560 461.0 509.0Q510 458 510 370V0H420V354Q420 417 388.5 450.5Q357 484 303 484Q247 484 214.5 449.0Q182 414 182 350V0Z" fill="#111111"/><path transform="translate(188.00,15.00) scale(0.01200,-0.01200)" d="M355 0Q287 0 246.0 39.5Q205 79 205 145V468H47V550H205V705H295V550H520V468H295V145Q295 117 311.5 99.5Q328 82 355 82H515V0Z" fill="#111111"/><path transform="translate(195.20,15.00) scale(0.01200,-0.01200)" d="M92 0V730H182V445H183Q190 500 228.0 530.0Q266 560 329 560Q412 560 461.0 509.0Q510 458 510 370V0H420V355Q420 417 388.5 450.5Q357 484 303 484Q247 484 214.5 449.0Q182 414 182 350V0Z" fill="#111111"/></svg>