<svg xmlns="http://www.w3.org/2000/svg" width="146" height="22" viewBox="0 0 146 22" aria-label="ACTIVE · this week"><path transform="translate(8.00,15.00) scale(0.01200,-0.01200)" d="M50 0 240 730H361L550 0H459L411 194H190L142 0ZM208 270H392L336 495Q320 559 311.0 602.0Q302 645 300 658Q298 645 289.0 602.0Q280 559 264 496Z" fill="#111111"/><path transform="translate(15.20,15.00) scale(0.01200,-0.01200)" d="M308 -10Q208 -10 150.0 46.0Q92 102 92 200V530Q92 628 150.0 684.0Q208 740 308 740Q406 740 464.0 683.5Q522 627 522 530H432Q432 592 399.5 625.5Q367 659 308 659Q249 659 215.5 625.5Q182 592 182 530V200Q182 138 215.5 104.5Q249 71 308 71Q367 71 399.5 104.5Q432 138 432 200H522Q522 103 464.0 46.5Q406 -10 308 -10Z" fill="#111111"/><path transform="translate(22.40,15.00) scale(0.01200,-0.01200)" d="M255 0V648H55V730H545V648H345V0Z" fill="#111111"/><path transform="translate(29.60,15.00) scale(0.01200,-0.01200)" d="M105 0V82H254V648H105V730H495V648H346V82H495V0Z" fill="#111111"/><path transform="translate(36.80,15.00) scale(0.01200,-0.01200)" d="M238 0 50 730H142L267 233Q280 181 288.5 137.0Q297 93 301 70Q305 93 314.5 137.5Q324 182 337 234L457 730H550L361 0Z" fill="#111111"/><path transform="translate(44.00,15.00) scale(0.01200,-0.01200)" d="M100 0V730H520V648H189V422H485V342H189V82H520V0Z" fill="#111111"/><path transform="translate(58.40,15.00) scale(0.01200,-0.01200)" d="M300 260Q263 260 240.5 282.0Q218 304 218 339Q218 376 240.5 399.0Q263 422 300 422Q337 422 359.5 399.0Q382 376 382 339Q382 304 359.5 282.0Q337 260 300 260Z" fill="#111111"/><path transform="translate(72.80,15.00) scale(0.01200,-0.01200)" d="M355 0Q287 0 246.0 39.5Q205 79 205 145V468H47V550H205V705H295V550H520V468H295V145Q295 117 311.5 99.5Q328 82 355 82H515V0Z" fill="#111111"/><path transform="translate(80.00,15.00) scale(0.01200,-0.01200)" d="M92 0V730H182V445H183Q190 500 228.0 530.0Q266 560 329 560Q412 560 461.0 509.0Q510 458 510 370V0H420V355Q420 417 388.5 450.5Q357 484 303 484Q247 484 214.5 449.0Q182 414 182 350V0Z" fill="#111111"/><path transform="translate(87.20,15.00) scale(0.01200,-0.01200)" d="M85 0V82H280V468H105V550H370V82H555V0ZM315 649Q282 649 263.0 666.0Q244 683 244 712Q244 742 263.0 759.5Q282 777 315 777Q348 777 367.0 759.5Q386 742 386 712Q386 683 367.0 666.0Q348 649 315 649Z" fill="#111111"/><path transform="translate(94.40,15.00) scale(0.01200,-0.01200)" d="M278 -8Q186 -8 135.5 33.5Q85 75 85 151H175Q175 113 202.0 91.5Q229 70 278 70H322Q372 70 399.5 92.0Q427 114 427 154Q427 225 362 234L210 256Q154 264 123.0 302.5Q92 341 92 404Q92 476 141.5 517.0Q191 558 278 558H322Q402 558 452.5 518.5Q503 479 507 415H416Q414 444 388.5 463.0Q363 482 322 482H278Q232 482 206.0 461.0Q180 440 180 404Q180 346 233 338L375 318Q515 298 515 154Q515 77 464.5 34.5Q414 -8 322 -8Z" fill="#111111"/><path transform="translate(108.80,15.00) scale(0.01200,-0.01200)" d="M121 0 31 550H109L165 162Q168 140 171.0 113.5Q174 87 175 70Q177 87 179.5 113.5Q182 140 186 162L255 550H345L414 162Q418 140 421.5 113.5Q425 87 426 70Q428 87 431.0 113.5Q434 140 437 162L495 550H569L475 0H376L313 380Q309 408 305.5 439.5Q302 471 300 488Q299 471 295.0 439.5Q291 408 286 380L220 0Z" fill="#111111"/><path transform="translate(116.00,15.00) scale(0.01200,-0.01200)" d="M300 -10Q203 -10 143.5 48.5Q84 107 84 210V340Q84 443 143.5 501.5Q203 560 300 560Q365 560 413.5 534.0Q462 508 489.0 461.0Q516 414 516 350V252H172V200Q172 139 207.0 103.5Q242 68 300 68Q350 68 382.5 87.5Q415 107 422 140H512Q503 71 445.0 30.5Q387 -10 300 -10ZM172 322H428V350Q428 415 394.5 450.5Q361 486 300 486Q239 486 205.5 450.5Q172 415 172 350Z" fill="#111111"/><path transform="translate(123.20,15.00) scale(0.01200,-0.01200)" d="M300 -10Q203 -10 143.5 48.5Q84 107 84 210V340Q84 443 143.5 501.5Q203 560 300 560Q365 560 413.5 534.0Q462 508 489.0 461.0Q516 414 516 350V252H172V200Q172 139 207.0 103.5Q242 68 300 68Q350 68 382.5 87.5Q415 107 422 140H512Q503 71 445.0 30.5Q387 -10 300 -10ZM172 322H428V350Q428 415 394.5 450.5Q361 486 300 486Q239 486 205.5 450.5Q172 415 172 350Z" fill="#111111"/><path transform="translate(130.40,15.00) scale(0.01200,-0.01200)" d="M97 0V730H187V323H292L446 550H549L372 288L559 0H454L294 245H187V0Z" fill="#111111"/></svg>