<svg xmlns="http://www.w3.org/2000/svg" width="74" height="22" viewBox="0 0 74 22" aria-label="DRAFTING"><path transform="translate(8.00,15.00) scale(0.01200,-0.01200)" d="M92 0V730H281Q352 730 403.5 703.0Q455 676 483.5 627.0Q512 578 512 511V220Q512 153 483.5 103.5Q455 54 403.5 27.0Q352 0 281 0ZM182 80H281Q347 80 384.5 117.0Q422 154 422 220V511Q422 576 384.5 613.0Q347 650 281 650H182Z" fill="#111111"/><path transform="translate(15.20,15.00) scale(0.01200,-0.01200)" d="M93 0V730H318Q383 730 432.0 703.5Q481 677 508.0 630.0Q535 583 535 520Q535 446 497.0 393.0Q459 340 396 319L545 0H446L303 310H182V0ZM182 391H318Q374 391 408.0 426.5Q442 462 442 520Q442 579 408.0 614.0Q374 649 318 649H182Z" fill="#111111"/><path transform="translate(22.40,15.00) scale(0.01200,-0.01200)" d="M50 0 240 730H361L550 0H459L411 194H190L142 0ZM208 270H392L336 495Q320 559 311.0 602.0Q302 645 300 658Q298 645 289.0 602.0Q280 559 264 496Z" fill="#111111"/><path transform="translate(29.60,15.00) scale(0.01200,-0.01200)" d="M95 0V730H525V648H183V406H499V324H185V0Z" fill="#111111"/><path transform="translate(36.80,15.00) scale(0.01200,-0.01200)" d="M255 0V648H55V730H545V648H345V0Z" fill="#111111"/><path transform="translate(44.00,15.00) scale(0.01200,-0.01200)" d="M105 0V82H254V648H105V730H495V648H346V82H495V0Z" fill="#111111"/><path transform="translate(51.20,15.00) scale(0.01200,-0.01200)" d="M90 0V730H210L433 105Q431 130 428.5 166.5Q426 203 424.5 243.5Q423 284 423 320V730H510V0H390L168 625Q170 601 172.0 564.5Q174 528 175.5 487.5Q177 447 177 410V0Z" fill="#111111"/><path transform="translate(58.40,15.00) scale(0.01200,-0.01200)" d="M304 -10Q204 -10 146.0 46.0Q88 102 88 200V530Q88 628 146.0 684.0Q204 740 304 740Q402 740 460.0 683.5Q518 627 518 530H428Q428 592 395.5 625.5Q363 659 304 659Q245 659 211.5 626.0Q178 593 178 531V200Q178 138 211.5 104.0Q245 70 304 70Q363 70 395.5 104.0Q428 138 428 200V300H280V382H518V200Q518 103 460.0 46.5Q402 -10 304 -10Z" fill="#111111"/></svg>